<svg viewBox="0 0 84 100" xmlns="http://www.w3.org/2000/svg" fill-rule="evenodd" clip-rule="evenodd" stroke-linejoin="round" stroke-miterlimit="1.414"><path d="M29.129 56.193c.238 10.055 6.134 13.195 12.437 13.282 7.194.098 13.027-3.484 12.236-13.511-.773-9.786-5.096-12.374-12.072-12.653-6.969-.278-12.773 5.633-12.601 12.882zM6.432 97.869h70.597c5.46 0 6.229-1.108 6.229-8.982V20.026c0-7.371-.789-8.982-6.229-8.982l-13.607.026c0-7.696-1.105-9.175-13.386-9.008H33.425c-13.518-.006-14.891 1.125-14.891 8.668l-12.102.314c-5.357 0-6.229 2.073-6.229 8.982v68.861c0 7.783.789 8.982 6.229 8.982zm12.615-41.676c0-15.479 11.949-23.4 22.683-23.4 10.735 0 22.079 7.085 22.079 22.564 0 15.478-11.458 24.049-22.192 24.049-10.735 0-22.57-7.734-22.57-23.213z" fill="#989898"/></svg>