<svg viewBox="0 0 500 500" xmlns="http://www.w3.org/2000/svg" fill-rule="evenodd" clip-rule="evenodd" stroke-linecap="round" stroke-linejoin="round" stroke-miterlimit="1.414"><path d="M475.643 107.658c0-26.04-21.142-47.181-47.182-47.181H73.37c-26.04 0-47.182 21.141-47.182 47.181v271.384c0 26.04 21.142 47.182 47.182 47.182h355.091c26.04 0 47.182-21.142 47.182-47.182V107.658z" fill="none" stroke-width="48" stroke="#989898"/><path d="M179.131 263.087v-20.13l48.872-.117v63.667c-7.489 8.895-15.235 15.585-23.236 20.072-8.001 4.486-16.227 6.729-24.676 6.729-11.266 0-21.316-3.433-30.149-10.299-8.834-6.866-15.827-16.892-20.98-30.078-5.153-13.186-7.729-29.025-7.729-47.516 0-18.726 2.592-35.032 7.777-48.921 5.185-13.888 11.97-24.128 20.356-30.721 8.385-6.593 18.307-9.89 29.765-9.89 8.449 0 15.842 1.912 22.179 5.735 6.338 3.823 11.554 9.246 15.651 16.268 4.097 7.022 7.169 16.658 9.218 28.908l-13.731 5.617c-1.856-9.675-4.192-16.911-7.009-21.71-2.816-4.798-6.529-8.563-11.138-11.294-4.609-2.73-9.793-4.096-15.554-4.096-8.386 0-15.603 2.477-21.652 7.432-6.049 4.954-10.914 12.659-14.595 23.114-3.68 10.455-5.52 23.212-5.52 38.271 0 22.938 3.936 40.123 11.81 51.553 7.873 11.431 18.115 17.146 30.725 17.146 6.017 0 12.178-1.756 18.483-5.267s11.314-7.685 15.026-12.522v-31.951h-33.893zm74.028-104.278h15.267v171.573h-15.267zm43.016 171.573V158.809h77.869v20.247h-62.603v53.134h54.153v20.247h-54.153v77.945h-15.266z" fill="#989898" fill-rule="nonzero"/></svg>