<svg viewBox="0 0 341 195" xmlns="http://www.w3.org/2000/svg" fill-rule="evenodd" clip-rule="evenodd" stroke-linejoin="round" stroke-miterlimit="1.414"><path d="M122.92 49.917c0-7.527-5.376-13.71-15.053-13.71-11.56 0-21.236 9.14-36.827 35.215h-1.075V36.476l-38.172 8.871-.538 7.258 11.022 1.613c6.989 1.881 8.333 3.494 8.333 15.86v76.074c0 2.688-1.882 3.763-6.72 4.032l-10.753 1.075-.806 9.14h59.945l-.806-9.14-14.248-1.075c-6.182-.269-7.257-1.613-7.257-3.763V85.938c6.72-13.44 19.085-25.806 27.418-30.914 2.42 4.57 7.258 8.602 12.903 8.602 8.065 0 12.635-6.182 12.635-13.709zm201.342-9.409h-48.118l.807 8.871 8.333 1.344c8.333 1.075 8.602 5.376 5.914 15.054l-22.58 73.923-29.032-81.18c-1.613-4.84.806-7.259 5.376-7.797l8.602-1.344.806-8.87H199.8l.808 8.87 8.333 1.882c6.183.806 8.064 2.15 10.215 7.795l4.032 11.291-26.075 68.816-27.15-80.644c-1.613-4.57.806-7.258 5.107-7.796l8.87-1.344.808-8.87h-53.763l.807 9.14 8.064 1.343c5.645.806 7.527 2.42 9.408 8.064l35.484 103.225h13.172l30.913-78.225 29.3 78.225h13.173l31.182-96.773c4.032-11.828 5.914-13.71 12.634-14.785l8.333-1.344.807-8.87z"/></svg>