<?xml version="1.0" standalone="no"?>
<!DOCTYPE svg PUBLIC "-//W3C//DTD SVG 1.1//EN" "http://www.w3.org/Graphics/SVG/1.1/DTD/svg11.dtd" >
<svg xmlns="http://www.w3.org/2000/svg" xmlns:xlink="http://www.w3.org/1999/xlink" version="1.1">
<metadata>
Created by FontForge 20141024 at Sun Feb 15 16:54:00 2015
 By System Administrator
Futura was designed for Bauer company in 1927 by Paul Renner. This is a sans serif face based on geometrical shapes, representative of the aesthetics of the Bauhaus school of the 1920s-30s. Issued by the Bauer Foundry in a wide range of weights and widths, Futura became a very popular choice for text and display setting. Originally Cyrillic version of eight styles was developed at ParaType (ParaGraph) in 1995 by Vladimir Yefimov. Additional Cyrillic styles were developed in 2007-2009 by Isabella Chaeva. Simultaneously the old eight styles were partly revised to match the whole family. Now the new Futura is an uniform type system consisted of seven weights with corresponding obliques plus eight condensed styles. All these fonts are coordinated in letterforms, metrics, and weights to better working together.
</metadata>
<defs>
<font id="FuturaPT-Heavy" horiz-adv-x="500" >
  <font-face 
    font-family="Futura PT Heavy"
    font-weight="600"
    font-stretch="normal"
    units-per-em="1000"
    panose-1="2 11 8 2 2 2 4 2 3 3"
    ascent="763"
    descent="-237"
    x-height="446"
    cap-height="667"
    bbox="-354 -260 1215 959"
    underline-thickness="50"
    underline-position="-50"
    stemh="120"
    stemv="150"
    unicode-range="U+0020-FB02"
  />
<missing-glyph horiz-adv-x="233" 
 />
    <glyph glyph-name="afii10017.var.accented" unicode="&#x410;`" horiz-adv-x="677" 
d="M515 0l-50 126h-252l-51 -126h-160l269 667h141l263 -667h-160zM258 244h165l-82 224zM394 925l95 -72l-164 -129l-65 53z" />
    <glyph glyph-name="afii10022.var.accented" unicode="&#x415;`" horiz-adv-x="502" 
d="M450 667v-130h-223v-129h212v-130h-212v-148h223v-130h-377v667h377zM306 925l95 -72l-164 -129l-65 53z" />
    <glyph glyph-name="afii10026.var.accented" unicode="&#x418;`" horiz-adv-x="745" 
d="M73 667h154v-436l309 444h136v-675h-154v437l-309 -445h-136v675zM428 925l95 -72l-164 -129l-65 53z" />
    <glyph glyph-name="afii10032.var.accented" unicode="&#x41e;`" horiz-adv-x="810" 
d="M406 682c104 0 191 -32 258 -97c63 -61 104 -149 104 -252c0 -89 -32 -180 -104 -250c-62 -60 -146 -98 -258 -98c-125 0 -210 50 -260 98c-64 60 -104 150 -104 248c0 96 43 193 103 253c45 45 128 98 261 98zM405 540c-58 0 -110 -21 -146 -57
c-29 -28 -59 -77 -59 -151c0 -61 20 -110 61 -150c43 -41 91 -55 143 -55c68 0 116 25 148 57c26 25 58 72 58 149c0 69 -28 120 -58 150c-33 32 -86 57 -147 57zM460 925l95 -72l-164 -129l-65 53z" />
    <glyph glyph-name="afii10037.var.accented" unicode="&#x423;`" horiz-adv-x="622" 
d="M4 667h172l140 -308l134 308h166l-305 -667h-166l97 192zM366 925l95 -72l-164 -129l-65 53z" />
    <glyph glyph-name="afii10045.var.accented" unicode="&#x42b;`" horiz-adv-x="847" 
d="M620 667h154v-667h-154v667zM73 0v667h154v-260h92c57 0 130 -6 183 -56c48 -45 56 -104 56 -148s-8 -103 -54 -147c-55 -52 -134 -56 -190 -56h-241zM227 283v-159h68c27 0 59 3 80 18c12 8 29 27 29 62c0 42 -23 60 -28 63c-11 8 -32 16 -80 16h-69zM479 925l95 -72
l-164 -129l-65 53z" />
    <glyph glyph-name="afii10047.var.accented" unicode="&#x42d;`" horiz-adv-x="623" 
d="M50 32v162c20 -18 47 -37 68 -47c31 -15 70 -22 107 -22c44 0 92 7 131 39c25 20 54 56 63 111h-259v124h258c-9 45 -32 78 -56 99c-43 39 -93 44 -133 44c-37 0 -74 -7 -110 -25c-21 -10 -47 -28 -69 -47v164c75 39 136 48 191 48c76 0 169 -15 244 -89
c47 -46 96 -126 96 -258s-49 -215 -95 -262c-74 -76 -159 -88 -238 -88c-97 0 -154 21 -198 47zM337 925l95 -72l-164 -129l-65 53z" />
    <glyph glyph-name="afii10048.var.accented" unicode="&#x42e;`" horiz-adv-x="1058" 
d="M227 412h89c15 78 52 136 94 177c76 75 164 93 250 93c101 0 185 -27 255 -96c47 -46 101 -126 101 -248c0 -107 -41 -197 -101 -256c-78 -78 -175 -97 -256 -97c-107 0 -188 33 -253 99c-61 62 -86 130 -92 198h-87v-282h-154v667h154v-255zM662 540
c-57 0 -103 -19 -137 -53s-61 -87 -61 -154c0 -63 23 -113 54 -146s80 -60 146 -60c58 0 100 21 131 50c33 31 63 82 63 159c0 70 -27 119 -56 149c-27 28 -71 55 -140 55zM584 925l95 -72l-164 -129l-65 53z" />
    <glyph glyph-name="afii10049.var.accented" unicode="&#x42f;`" horiz-adv-x="602" 
d="M529 667v-667h-154v243h-20l-157 -243h-178l192 261c-38 7 -72 25 -95 47c-48 45 -56 102 -56 148c0 55 14 104 54 146c54 56 124 65 185 65h229zM375 361v180h-36c-23 0 -63 -1 -91 -24c-11 -10 -29 -31 -29 -67c0 -33 14 -53 26 -64c28 -25 70 -25 94 -25h36zM356 925
l95 -72l-164 -129l-65 53z" />
    <glyph glyph-name="afii10023.var.accented" unicode="&#x401;`" horiz-adv-x="502" 
d="M450 667v-130h-223v-129h212v-130h-212v-148h223v-130h-377v667h377zM286 925l67 -54l-141 -133l-43 39zM39 826c0 42 40 64 65 64c32 0 67 -29 67 -64c0 -39 -36 -65 -67 -65c-32 0 -65 26 -65 65zM352 826c0 35 35 64 67 64c25 0 65 -22 65 -64c0 -39 -33 -65 -65 -65
c-31 0 -67 26 -67 65z" />
    <glyph glyph-name="afii10065.var.accented" unicode="&#x430;`" horiz-adv-x="598" 
d="M398 396v50h144v-446h-144v54c-39 -60 -95 -69 -132 -69c-64 0 -118 16 -167 68c-47 50 -65 108 -65 167c0 75 28 139 69 180c39 39 93 61 155 61c38 0 99 -9 140 -65zM294 337c-31 0 -60 -13 -79 -32c-15 -15 -33 -41 -33 -81s17 -66 30 -80c20 -21 51 -35 85 -35
c29 0 56 12 75 31c19 18 35 46 35 84c0 32 -12 62 -33 82c-22 21 -54 31 -80 31zM360 715l94 -65l-152 -135l-65 48z" />
    <glyph glyph-name="afii10070.var.accented" unicode="&#x435;`" horiz-adv-x="547" 
d="M185 284h195c-1 4 -8 32 -29 52c-16 15 -39 25 -68 25c-37 0 -59 -15 -73 -29c-11 -12 -21 -28 -25 -48zM513 213v-15h-333c0 -24 9 -56 27 -76c22 -24 52 -28 74 -28c21 0 43 4 58 13c2 1 19 12 31 37l136 -14c-20 -63 -60 -96 -86 -112c-43 -26 -91 -33 -141 -33
c-67 0 -126 12 -178 64c-39 39 -67 98 -67 172c0 64 23 130 68 176c54 54 121 64 171 64s122 -9 177 -67c53 -56 63 -126 63 -181zM335 715l94 -65l-152 -135l-65 48z" />
    <glyph glyph-name="afii10074.var.accented" unicode="&#x438;`" horiz-adv-x="580" 
d="M56 446h144v-255l190 255h134v-446h-144v259l-190 -259h-134v446zM351 715l94 -65l-152 -135l-65 48z" />
    <glyph glyph-name="afii10080.var.accented" unicode="&#x43e;`" horiz-adv-x="592" 
d="M558 223c0 -57 -22 -121 -67 -166c-40 -40 -108 -72 -195 -72s-155 32 -195 72c-45 45 -67 109 -67 166s22 121 67 166c40 40 108 72 195 72s155 -32 195 -72c45 -45 67 -109 67 -166zM296 339c-33 0 -60 -11 -81 -32s-33 -48 -33 -84c0 -41 16 -67 33 -84
c18 -18 44 -32 82 -32c32 0 59 11 80 32s33 48 33 84s-12 63 -33 84s-48 32 -81 32zM357 715l94 -65l-152 -135l-65 48z" />
    <glyph glyph-name="afii10085.var.accented" unicode="&#x443;`" horiz-adv-x="585" 
d="M58 -229l157 286l-213 389h166l126 -242l123 242h162l-359 -675h-162zM354 715l94 -65l-152 -135l-65 48z" />
    <glyph glyph-name="afii10093.var.accented" unicode="&#x44b;`" horiz-adv-x="703" 
d="M505 446h142v-446h-142v446zM200 293h99c64 0 102 -23 121 -42c33 -33 37 -76 37 -102c0 -31 -5 -76 -40 -110c-37 -36 -86 -39 -123 -39h-238v446h144v-153zM200 102h59c11 0 31 0 44 12c9 8 14 21 14 34c0 18 -9 28 -14 32c-13 10 -34 11 -43 11h-60v-89zM413 715
l94 -65l-152 -135l-65 48z" />
    <glyph glyph-name="afii10095.var.accented" unicode="&#x44d;`" horiz-adv-x="460" 
d="M38 12v134c41 -37 85 -45 122 -45c23 0 53 3 76 18c14 9 32 28 40 57h-170v98h170c-9 25 -26 43 -44 54c-20 12 -48 17 -73 17c-42 0 -85 -15 -121 -46v131c58 26 105 31 145 31c56 0 124 -9 179 -64c31 -32 64 -85 64 -169c0 -83 -31 -144 -68 -181
c-58 -58 -127 -62 -181 -62c-41 0 -82 3 -139 27zM257 715l94 -65l-152 -135l-65 48z" />
    <glyph glyph-name="afii10096.var.accented" unicode="&#x44e;`" horiz-adv-x="789" 
d="M200 285h56c4 22 16 65 54 104c36 37 97 72 186 72c88 0 152 -33 191 -71s68 -96 68 -166c0 -67 -24 -129 -67 -172c-59 -59 -130 -67 -187 -67c-62 0 -130 10 -184 62c-13 12 -51 52 -63 122h-54v-169h-144v446h144v-161zM496 339c-36 0 -61 -13 -77 -28
c-20 -19 -35 -51 -35 -89c0 -33 11 -60 31 -81c23 -24 51 -34 81 -34c31 0 55 9 76 29c26 25 35 56 35 89c0 41 -16 67 -32 83c-17 17 -44 31 -79 31zM456 715l94 -65l-152 -135l-65 48z" />
    <glyph glyph-name="afii10097.var.accented" unicode="&#x44f;`" horiz-adv-x="492" 
d="M18 0l128 161c-29 5 -57 19 -77 39c-28 27 -34 57 -34 90c0 38 9 78 41 110c42 41 100 46 147 46h213v-446h-144v149h-14l-104 -149h-156zM292 243v101h-51c-12 0 -32 -1 -45 -11c-10 -8 -17 -22 -17 -41s9 -30 14 -35c15 -13 43 -14 51 -14h48zM307 715l94 -65
l-152 -135l-65 48z" />
    <glyph glyph-name="afii10071.var.accented" unicode="&#x451;`" horiz-adv-x="547" 
d="M185 284h195c-1 4 -8 32 -29 52c-16 15 -39 25 -68 25c-37 0 -59 -15 -73 -29c-11 -12 -21 -28 -25 -48zM513 213v-15h-333c0 -24 9 -56 27 -76c22 -24 52 -28 74 -28c21 0 43 4 58 13c2 1 19 12 31 37l136 -14c-20 -63 -60 -96 -86 -112c-43 -26 -91 -33 -141 -33
c-67 0 -126 12 -178 64c-39 39 -67 98 -67 172c0 64 23 130 68 176c54 54 121 64 171 64s122 -9 177 -67c53 -56 63 -126 63 -181zM305 715l70 -50l-145 -138l-48 36zM45 611c0 45 39 67 68 67c38 0 67 -30 67 -67c0 -47 -41 -68 -67 -68s-68 21 -68 68zM369 611
c0 45 39 67 68 67c38 0 67 -30 67 -67c0 -47 -41 -68 -67 -68s-68 21 -68 68z" />
    <glyph glyph-name="fi" unicode="fi" horiz-adv-x="574" 
d="M326 328h-114v-328h-144v328h-52v118h52v70c0 46 0 112 50 166c49 53 121 58 168 58c86 0 143 -22 175 -53c50 -48 53 -120 53 -172v-7h-144v8c0 23 0 55 -21 78c-10 10 -28 22 -57 22c-31 0 -48 -14 -57 -23c-22 -23 -23 -58 -23 -71v-76h114v-118zM370 446h144v-446
h-144v446z" />
    <glyph glyph-name="fl" unicode="fl" horiz-adv-x="574" 
d="M326 328h-114v-328h-144v328h-52v118h52v80c0 49 4 107 50 156c50 52 120 58 170 58c48 0 123 -7 172 -53s54 -105 54 -191v-496h-144v514c0 21 0 57 -21 80c-6 7 -24 22 -57 22c-31 0 -48 -14 -57 -23c-22 -23 -23 -58 -23 -71v-76h114v-118z" />
    <glyph glyph-name=".notdef" horiz-adv-x="233" 
 />
    <glyph glyph-name="space" unicode=" " horiz-adv-x="233" 
 />
    <glyph glyph-name="exclam" unicode="!" horiz-adv-x="278" 
d="M213 215h-148v452h148v-452zM48 75c0 51 40 91 91 91s91 -40 91 -91s-40 -91 -91 -91s-91 40 -91 91z" />
    <glyph glyph-name="quotedbl" unicode="&#x22;" horiz-adv-x="407" 
d="M182 667l-24 -268h-93l-23 268h140zM365 667l-23 -268h-93l-24 268h140z" />
    <glyph glyph-name="numbersign" unicode="#" horiz-adv-x="600" 
d="M471 295h102l-17 -111h-102l-30 -184h-128l30 184h-89l-30 -184h-128l30 184h-101l18 111h100l15 92h-100l17 110h100l28 170h128l-28 -170h89l28 170h128l-28 -170h101l-17 -110h-101zM343 295l15 92h-89l-15 -92h89z" />
    <glyph glyph-name="dollar" unicode="$" horiz-adv-x="600" 
d="M263 775h90v-101c29 -2 90 -12 152 -64l-67 -107c-30 27 -67 47 -109 47c-28 0 -50 -7 -63 -19c-11 -10 -20 -25 -20 -42s7 -29 19 -39c16 -14 40 -21 67 -33l56 -24c34 -15 68 -31 94 -57c33 -34 47 -75 47 -123c0 -63 -23 -115 -55 -149c-29 -31 -71 -54 -121 -62v-114
h-90v110c-40 2 -78 11 -120 33c-34 18 -64 40 -90 68l74 110c8 -8 32 -32 65 -52c26 -16 55 -27 93 -27c22 0 47 4 67 21c13 11 24 27 24 51s-11 41 -30 54c-16 11 -33 16 -69 30l-35 14c-35 14 -71 31 -101 61c-31 32 -45 65 -45 110c0 59 22 113 57 148
c27 27 67 48 110 55v101z" />
    <glyph glyph-name="percent" unicode="%" horiz-adv-x="830" 
d="M185 2l391 676l70 -15l-392 -677zM205 595c-27 0 -46 -11 -57 -23c-13 -13 -22 -34 -22 -58s9 -45 22 -58c11 -12 30 -23 57 -23s46 11 57 23c13 13 22 34 22 58s-9 45 -22 58c-11 12 -30 23 -57 23zM380 514c0 -59 -26 -95 -43 -112c-31 -32 -79 -50 -132 -50
s-101 18 -132 50c-17 17 -43 53 -43 112s26 95 43 112c31 32 79 50 132 50s101 -18 132 -50c17 -17 43 -53 43 -112zM625 234c-27 0 -46 -11 -57 -23c-13 -13 -22 -34 -22 -58s9 -45 22 -58c11 -12 30 -23 57 -23s46 11 57 23c13 13 22 34 22 58s-9 45 -22 58
c-11 12 -30 23 -57 23zM800 153c0 -59 -26 -95 -43 -112c-31 -32 -79 -50 -132 -50s-101 18 -132 50c-17 17 -43 53 -43 112s26 95 43 112c31 32 79 50 132 50s101 -18 132 -50c17 -17 43 -53 43 -112z" />
    <glyph glyph-name="ampersand" unicode="&#x26;" horiz-adv-x="744" 
d="M596 337l87 -85c-29 -37 -59 -69 -89 -96l142 -156h-188l-60 65c-25 -25 -56 -48 -85 -60c-38 -16 -81 -20 -125 -20c-55 0 -117 4 -169 53c-22 21 -57 64 -57 138c0 55 18 98 52 133c27 28 67 50 108 62c-16 16 -36 40 -46 59c-13 25 -18 51 -18 78c0 57 22 95 47 120
c29 28 76 54 147 54c68 0 118 -23 149 -54c27 -27 46 -68 46 -114c0 -39 -15 -82 -51 -117c-19 -18 -45 -35 -72 -46l97 -107c33 30 61 62 85 93zM402 162l-115 129c-17 -9 -41 -24 -54 -39c-19 -21 -23 -43 -23 -60c0 -22 11 -40 24 -52c16 -14 39 -22 65 -22
c44 0 81 25 103 44zM291 519c0 -19 7 -34 17 -49c15 -22 37 -43 38 -44c16 8 36 23 47 36c12 14 21 34 21 55c0 18 -7 33 -17 43c-8 7 -22 16 -45 16c-12 0 -28 -2 -42 -14c-13 -11 -19 -27 -19 -43z" />
    <glyph glyph-name="quotesingle" unicode="'" horiz-adv-x="224" 
d="M182 667l-24 -268h-93l-23 268h140z" />
    <glyph glyph-name="parenleft" unicode="(" horiz-adv-x="335" 
d="M182 740l97 -54c-30 -61 -50 -118 -64 -175c-21 -85 -27 -154 -27 -234c0 -83 7 -151 27 -232c14 -57 34 -114 64 -175l-97 -54c-28 51 -57 114 -79 192c-26 89 -35 171 -35 269c0 100 10 182 35 271c22 78 51 141 79 192z" />
    <glyph glyph-name="parenright" unicode=")" horiz-adv-x="335" 
d="M68 686l97 54c28 -51 57 -114 79 -192c25 -89 35 -171 35 -271c0 -98 -9 -180 -35 -269c-22 -78 -51 -141 -79 -192l-97 54c30 61 50 118 64 175c20 81 27 149 27 232c0 80 -6 149 -27 234c-14 57 -34 114 -64 175z" />
    <glyph glyph-name="asterisk" unicode="*" horiz-adv-x="585" 
d="M147 659l104 -44l-8 114h99l-9 -114l105 44l31 -93l-111 -26l73 -87l-78 -58l-61 97l-60 -97l-78 58l73 86l-111 26z" />
    <glyph glyph-name="plus" unicode="+" 
d="M33 282v116h154v154h126v-154h154v-116h-154v-155h-126v155h-154z" />
    <glyph glyph-name="comma" unicode="," horiz-adv-x="351" 
d="M24 -128l110 282l131 -7l-151 -279z" />
    <glyph glyph-name="hyphen" unicode="-" horiz-adv-x="356" 
d="M50 190v126h256v-126h-256z" />
    <glyph glyph-name="period" unicode="." horiz-adv-x="278" 
d="M48 75c0 51 40 91 91 91s91 -40 91 -91s-40 -91 -91 -91s-91 40 -91 91z" />
    <glyph glyph-name="slash" unicode="/" horiz-adv-x="700" 
d="M15 -184l527 933l113 -20l-527 -933z" />
    <glyph glyph-name="zero" unicode="0" horiz-adv-x="600" 
d="M574 333c0 -114 -31 -215 -96 -279c-39 -38 -97 -69 -179 -69c-80 0 -137 30 -177 69c-65 64 -96 165 -96 279c0 115 31 217 96 280c40 39 97 69 177 69c82 0 140 -31 179 -69c65 -63 96 -165 96 -280zM300 550c-26 0 -44 -8 -62 -25c-49 -48 -56 -144 -56 -191
c0 -52 9 -146 56 -192c18 -17 36 -25 62 -25s44 8 62 25c47 46 56 140 56 192c0 47 -7 143 -56 191c-18 17 -36 25 -62 25z" />
    <glyph glyph-name="one" unicode="1" horiz-adv-x="600" 
d="M231 0v537h-95v130h249v-667h-154z" />
    <glyph glyph-name="two" unicode="2" horiz-adv-x="600" 
d="M534 130v-130h-510l200 218c35 39 88 104 109 136c15 24 40 67 40 113c0 25 -10 51 -26 66c-13 12 -35 19 -61 19c-29 0 -48 -10 -61 -24c-18 -20 -28 -56 -28 -82h-154c5 58 28 124 69 167c32 34 89 69 184 69c97 0 149 -40 173 -63c36 -36 62 -91 62 -160
c0 -59 -18 -102 -50 -147c-29 -40 -64 -74 -107 -115l-70 -67h230z" />
    <glyph glyph-name="three" unicode="3" horiz-adv-x="600" 
d="M193 467h-148c6 56 31 115 66 151c49 51 114 63 169 63c82 0 141 -25 175 -59c28 -27 51 -71 51 -136c0 -33 -6 -62 -27 -91c-14 -20 -31 -33 -50 -42c28 -10 58 -29 76 -54c20 -27 31 -69 31 -105c0 -51 -20 -109 -67 -152c-57 -52 -122 -58 -176 -58
c-65 0 -136 10 -195 69c-38 39 -67 98 -74 165h154c2 -26 14 -57 32 -75c16 -16 42 -27 74 -27c26 0 51 8 67 23s27 41 27 68c0 28 -13 51 -29 64c-24 19 -59 21 -82 21h-12v106h9c9 0 45 1 67 19c14 12 25 33 25 60c0 23 -9 42 -22 54c-12 11 -32 20 -57 20
c-26 0 -47 -9 -60 -22c-14 -15 -23 -41 -24 -62z" />
    <glyph glyph-name="four" unicode="4" horiz-adv-x="600" 
d="M493 667v-419h80v-122h-80v-126h-148v126h-326v88l294 453h180zM181 248h164v259z" />
    <glyph glyph-name="five" unicode="5" horiz-adv-x="600" 
d="M493 667v-130h-225l-18 -89c17 3 38 5 55 5c75 0 133 -27 170 -65c30 -30 61 -82 61 -161c0 -86 -37 -141 -68 -172c-61 -60 -134 -70 -202 -70c-63 0 -138 8 -222 73l35 143c18 -20 43 -42 64 -55c28 -18 61 -29 101 -29c35 0 71 8 95 27c21 16 39 45 39 84
c0 40 -18 64 -34 78c-8 7 -41 35 -111 35c-56 0 -103 -17 -136 -35l68 361h328z" />
    <glyph glyph-name="six" unicode="6" horiz-adv-x="600" 
d="M288 682l165 -17l-176 -219c20 7 41 11 70 11c84 0 136 -34 165 -64c24 -25 58 -73 58 -154c0 -64 -20 -132 -63 -179c-61 -66 -146 -75 -205 -75c-61 0 -150 6 -216 78c-44 47 -58 103 -58 162c0 106 50 181 107 256zM297 111c40 0 66 17 80 30c18 17 35 45 35 88
c0 39 -16 65 -35 82c-25 22 -54 28 -80 28c-30 0 -58 -7 -81 -29c-13 -12 -34 -39 -34 -85c0 -31 9 -60 34 -83c19 -18 47 -31 81 -31z" />
    <glyph glyph-name="seven" unicode="7" horiz-adv-x="600" 
d="M50 20l302 517h-294v130h530l-395 -682z" />
    <glyph glyph-name="eight" unicode="8" horiz-adv-x="600" 
d="M299 -15c-60 0 -123 3 -182 56c-51 46 -64 101 -64 145c0 57 25 93 45 114c22 23 54 41 83 50c-17 7 -40 19 -61 41c-30 31 -41 65 -41 106c0 56 21 96 49 124c49 50 113 61 173 61c58 0 122 -11 171 -61c28 -28 49 -68 49 -124c0 -41 -11 -75 -41 -106
c-21 -22 -44 -34 -61 -41c29 -9 61 -27 83 -50c20 -21 45 -57 45 -114c0 -44 -13 -99 -64 -145c-59 -53 -121 -56 -184 -56zM300 568c-21 0 -41 -6 -59 -22c-17 -16 -25 -35 -25 -57c0 -28 13 -46 25 -57c15 -13 35 -22 59 -22c21 0 41 6 58 22s25 34 25 57
c0 33 -18 51 -25 58c-14 12 -34 21 -58 21zM298 288c-26 0 -49 -10 -63 -24c-16 -16 -26 -43 -26 -66c0 -24 8 -50 26 -67c17 -16 42 -24 65 -24s48 8 65 24c15 14 26 39 26 68c0 28 -11 51 -26 65c-16 16 -41 24 -67 24z" />
    <glyph glyph-name="nine" unicode="9" horiz-adv-x="600" 
d="M310 -15l-165 17l176 218c-23 -7 -45 -10 -67 -10c-72 0 -131 25 -168 62c-36 36 -58 89 -58 161c0 99 45 153 65 174c65 68 156 75 209 75c105 0 165 -35 200 -67c33 -31 68 -86 68 -169c0 -42 -10 -91 -30 -136c-17 -37 -47 -83 -78 -124zM301 556
c-31 0 -60 -11 -80 -30c-13 -12 -35 -38 -35 -84c0 -42 15 -69 34 -86c21 -19 51 -28 81 -28c34 0 62 12 81 29c16 15 34 42 34 88c0 32 -10 58 -34 81c-16 15 -42 30 -81 30z" />
    <glyph glyph-name="colon" unicode=":" horiz-adv-x="278" 
d="M48 76c0 51 40 91 91 91s91 -40 91 -91s-40 -91 -91 -91s-91 40 -91 91zM48 370c0 51 40 91 91 91s91 -40 91 -91s-40 -91 -91 -91s-91 40 -91 91z" />
    <glyph glyph-name="semicolon" unicode=";" horiz-adv-x="354" 
d="M4 -128l110 282l131 -7l-151 -279zM84 370c0 51 40 91 91 91s91 -40 91 -91s-40 -91 -91 -91s-91 40 -91 91z" />
    <glyph glyph-name="less" unicode="&#x3c;" 
d="M33 388l434 219v-124l-301 -149l301 -149v-124l-434 219v108z" />
    <glyph glyph-name="equal" unicode="=" 
d="M33 371v110h434v-110h-434zM33 199v110h434v-110h-434z" />
    <glyph glyph-name="greater" unicode="&#x3e;" 
d="M467 388v-108l-434 -219v124l301 149l-301 149v124z" />
    <glyph glyph-name="question" unicode="?" horiz-adv-x="525" 
d="M319 214h-146v184c44 -10 98 -5 128 21c18 16 30 41 30 69c0 20 -7 38 -19 51c-15 16 -34 19 -48 19c-26 0 -42 -10 -51 -19c-11 -12 -18 -36 -17 -56h-154c1 61 27 109 55 138c25 26 74 61 165 61c78 0 131 -27 165 -60c40 -39 56 -90 56 -138c0 -55 -23 -98 -50 -127
c-20 -22 -57 -51 -114 -59v-84zM159 76c0 51 40 91 91 91s91 -40 91 -91s-40 -91 -91 -91s-91 40 -91 91z" />
    <glyph glyph-name="at" unicode="@" horiz-adv-x="734" 
d="M468 445l8 42h84l-40 -203c-2 -8 -4 -25 -4 -34s2 -22 9 -28c4 -4 9 -6 17 -6c10 0 23 7 32 15c36 31 53 102 53 144c0 64 -25 119 -58 153c-38 40 -104 70 -182 70c-81 0 -149 -33 -193 -78c-52 -53 -79 -129 -79 -198c0 -78 33 -153 86 -201c62 -55 133 -63 193 -63
c79 0 142 19 180 33l19 -76c-72 -25 -136 -32 -196 -32c-93 0 -194 18 -271 99c-61 64 -93 156 -93 244c0 116 46 197 101 250c72 70 158 97 254 97c70 0 158 -15 230 -86c50 -49 83 -115 83 -206c0 -77 -27 -150 -72 -193c-38 -37 -76 -40 -93 -40c-22 0 -40 7 -54 19
c-15 12 -20 26 -23 37c-39 -61 -100 -64 -122 -64c-42 0 -74 13 -100 40c-34 35 -42 75 -42 117c0 49 11 103 55 149c37 39 80 51 119 51c66 0 92 -39 99 -52zM358 225c19 0 37 6 54 23c22 22 34 56 34 86c0 28 -9 49 -22 61c-14 13 -31 15 -43 15c-23 0 -41 -8 -56 -23
c-23 -22 -35 -56 -35 -86c0 -27 9 -46 21 -58c11 -11 27 -18 47 -18z" />
    <glyph glyph-name="A" unicode="A" horiz-adv-x="677" 
d="M515 0l-50 126h-252l-51 -126h-160l269 667h141l263 -667h-160zM258 244h165l-82 224z" />
    <glyph glyph-name="B" unicode="B" horiz-adv-x="594" 
d="M73 667h204c36 0 118 -2 170 -51c43 -41 48 -97 48 -126c0 -26 -4 -56 -22 -85c-17 -28 -40 -42 -56 -49c32 -5 68 -21 92 -45c22 -22 43 -60 43 -119c0 -67 -26 -109 -52 -135c-55 -53 -135 -57 -176 -57h-251v667zM225 547v-151h25c21 0 56 3 78 19c14 10 27 30 27 59
s-14 47 -26 56c-22 17 -52 17 -80 17h-24zM225 282v-162h37c39 0 86 1 114 27c14 13 22 32 22 56c0 27 -11 45 -21 54c-27 25 -79 25 -110 25h-42z" />
    <glyph glyph-name="C" unicode="C" horiz-adv-x="605" 
d="M555 198v-177c-59 -30 -107 -36 -147 -36c-123 0 -206 42 -262 97c-60 58 -104 146 -104 253c0 105 44 193 104 251c59 57 145 96 249 96c44 0 95 -9 160 -37v-178c-34 36 -85 71 -156 71c-56 0 -101 -18 -136 -52c-37 -36 -63 -90 -63 -154c0 -69 28 -118 58 -147
c14 -14 62 -56 144 -56c40 0 94 11 153 69z" />
    <glyph glyph-name="D" unicode="D" horiz-adv-x="685" 
d="M73 667h211c88 0 181 -13 263 -92c59 -57 96 -135 96 -239c0 -105 -36 -181 -91 -236c-92 -93 -207 -100 -263 -100h-216v667zM227 537v-407h41c32 0 102 3 152 45c36 30 65 87 65 161c0 72 -29 118 -55 144c-50 50 -115 57 -162 57h-41z" />
    <glyph glyph-name="E" unicode="E" horiz-adv-x="502" 
d="M450 667v-130h-223v-129h212v-130h-212v-148h223v-130h-377v667h377z" />
    <glyph glyph-name="F" unicode="F" horiz-adv-x="483" 
d="M443 667v-130h-216v-129h200v-130h-200v-278h-154v667h370z" />
    <glyph glyph-name="G" unicode="G" horiz-adv-x="767" 
d="M394 240v124h331v-7c0 -81 -29 -204 -103 -281s-159 -91 -238 -91c-80 0 -166 13 -244 93c-39 40 -98 121 -98 254c0 109 40 196 96 253c82 85 183 97 262 97c55 0 125 -9 187 -50c45 -30 84 -77 108 -119l-139 -75c-13 26 -33 53 -59 72c-30 22 -64 32 -102 32
c-61 0 -106 -20 -138 -54c-37 -39 -57 -96 -57 -158c0 -76 28 -125 56 -153c39 -40 84 -52 135 -52c66 0 101 23 116 36c5 4 35 30 48 79h-161z" />
    <glyph glyph-name="H" unicode="H" horiz-adv-x="720" 
d="M227 667v-254h266v254h154v-667h-154v283h-266v-283h-154v667h154z" />
    <glyph glyph-name="I" unicode="I" horiz-adv-x="306" 
d="M76 667h154v-667h-154v667z" />
    <glyph glyph-name="J" unicode="J" horiz-adv-x="415" 
d="M188 667h154v-454c0 -50 -3 -124 -58 -178c-44 -44 -98 -50 -141 -50c-36 0 -71 3 -106 24c-21 13 -46 35 -63 56l96 108c6 -12 16 -29 24 -37c11 -11 23 -15 38 -15c13 0 25 3 36 14c19 19 20 51 20 79v453z" />
    <glyph glyph-name="K" unicode="K" horiz-adv-x="670" 
d="M227 667v-278l228 278h188l-270 -316l291 -351h-198l-239 296v-296h-154v667h154z" />
    <glyph glyph-name="L" unicode="L" horiz-adv-x="448" 
d="M73 667h154v-537h207v-130h-361v667z" />
    <glyph glyph-name="M" unicode="M" horiz-adv-x="886" 
d="M196 0h-154l107 667h128l166 -399l166 399h128l107 -667h-154l-53 398l-167 -398h-54l-167 398z" />
    <glyph glyph-name="N" unicode="N" horiz-adv-x="796" 
d="M227 0h-154v667h134l362 -430v430h154v-667h-134l-362 432v-432z" />
    <glyph glyph-name="O" unicode="O" horiz-adv-x="810" 
d="M406 682c104 0 191 -32 258 -97c63 -61 104 -149 104 -252c0 -89 -32 -180 -104 -250c-62 -60 -146 -98 -258 -98c-125 0 -210 50 -260 98c-64 60 -104 150 -104 248c0 96 43 193 103 253c45 45 128 98 261 98zM405 540c-58 0 -110 -21 -146 -57
c-29 -28 -59 -77 -59 -151c0 -61 20 -110 61 -150c43 -41 91 -55 143 -55c68 0 116 25 148 57c26 25 58 72 58 149c0 69 -28 120 -58 150c-33 32 -86 57 -147 57z" />
    <glyph glyph-name="P" unicode="P" horiz-adv-x="572" 
d="M73 667h235c58 0 122 -8 175 -55c57 -50 65 -116 65 -162c0 -84 -32 -131 -57 -157c-53 -54 -123 -59 -170 -59h-94v-234h-154v667zM227 541v-181h55c21 0 58 1 83 25c14 14 25 37 25 66c0 28 -10 51 -25 65c-23 22 -56 25 -86 25h-52z" />
    <glyph glyph-name="Q" unicode="Q" horiz-adv-x="813" 
d="M644 -31l-65 68c-33 -24 -85 -52 -187 -52c-104 0 -180 31 -245 95c-77 76 -105 170 -105 254c0 100 43 190 101 248c57 57 146 100 261 100c103 0 195 -37 258 -96c61 -57 104 -144 104 -254c0 -50 -11 -91 -28 -129c-17 -39 -39 -67 -65 -90l116 -126zM509 278l60 -64
c25 34 39 70 39 120c0 71 -29 119 -57 147c-38 39 -92 59 -147 59c-62 0 -114 -26 -146 -59c-38 -39 -58 -98 -58 -150c0 -54 19 -106 56 -145c33 -34 79 -59 144 -59c28 0 54 5 80 17l-120 118z" />
    <glyph glyph-name="R" unicode="R" horiz-adv-x="607" 
d="M73 667h234c85 0 138 -28 170 -58c28 -27 58 -75 58 -149c0 -42 -9 -94 -52 -136c-23 -22 -56 -42 -93 -51l205 -273h-188l-180 263v-263h-154v667zM227 547v-183h35c28 0 66 3 92 29c11 11 25 32 25 65c0 38 -18 58 -31 68c-25 19 -65 21 -85 21h-36z" />
    <glyph glyph-name="S" unicode="S" horiz-adv-x="550" 
d="M486 616l-69 -112c-50 45 -93 48 -112 48c-21 0 -47 -3 -65 -23c-10 -10 -17 -25 -17 -42c0 -16 5 -28 15 -37c16 -15 39 -21 84 -38l50 -19c29 -11 65 -26 91 -51c39 -37 49 -85 49 -124c0 -69 -24 -129 -59 -165c-59 -62 -145 -68 -189 -68c-48 0 -90 7 -132 28
c-34 17 -73 48 -98 73l80 110c17 -17 44 -40 62 -51c26 -16 53 -24 84 -24c20 0 48 4 70 23c13 11 24 29 24 54c0 22 -9 36 -23 48c-18 15 -59 30 -78 37l-55 19c-31 11 -67 25 -93 53c-35 37 -40 84 -40 116c0 59 18 109 58 150c47 48 103 61 165 61c46 0 120 -8 198 -66z
" />
    <glyph glyph-name="T" unicode="T" horiz-adv-x="460" 
d="M452 537h-145v-537h-154v537h-145v130h444v-130z" />
    <glyph glyph-name="U" unicode="U" horiz-adv-x="710" 
d="M637 667v-395c0 -64 -8 -143 -74 -211c-64 -66 -138 -76 -208 -76s-144 10 -208 76c-66 68 -74 147 -74 211v395h154v-391c0 -29 2 -78 35 -112c27 -29 64 -35 93 -35s66 6 93 35c33 34 35 83 35 112v391h154z" />
    <glyph glyph-name="V" unicode="V" horiz-adv-x="678" 
d="M4 667h166l169 -427l169 427h166l-283 -667h-104z" />
    <glyph glyph-name="W" unicode="W" horiz-adv-x="1002" 
d="M4 667h160l142 -442l142 442h106l142 -442l142 442h160l-227 -667h-130l-140 405l-140 -405h-130z" />
    <glyph glyph-name="X" unicode="X" horiz-adv-x="686" 
d="M10 0l245 354l-207 313h185l110 -190l110 190h185l-207 -313l245 -354h-185l-148 231l-148 -231h-185z" />
    <glyph glyph-name="Y" unicode="Y" horiz-adv-x="632" 
d="M239 0v311l-239 356h182l134 -207l134 207h182l-239 -356v-311h-154z" />
    <glyph glyph-name="Z" unicode="Z" horiz-adv-x="616" 
d="M594 667l-319 -537h286v-130h-539l320 537h-268v130h520z" />
    <glyph glyph-name="bracketleft" unicode="[" horiz-adv-x="354" 
d="M304 631h-92v-717h92v-98h-214v913h214v-98z" />
    <glyph glyph-name="backslash" unicode="\" horiz-adv-x="700" 
d="M685 -184l-113 -20l-527 933l113 20z" />
    <glyph glyph-name="bracketright" unicode="]" horiz-adv-x="354" 
d="M50 631v98h214v-913h-214v98h92v717h-92z" />
    <glyph glyph-name="asciicircum" unicode="^" 
d="M249 570l-111 -237h-132l161 334h165l161 -334h-132z" />
    <glyph glyph-name="underscore" unicode="_" 
d="M0 -184v118h500v-118h-500z" />
    <glyph glyph-name="grave" unicode="`" 
d="M240 515l-152 135l95 65l122 -152z" />
    <glyph glyph-name="a" unicode="a" horiz-adv-x="598" 
d="M398 396v50h144v-446h-144v54c-39 -60 -95 -69 -132 -69c-64 0 -118 16 -167 68c-47 50 -65 108 -65 167c0 75 28 139 69 180c39 39 93 61 155 61c38 0 99 -9 140 -65zM294 337c-31 0 -60 -13 -79 -32c-15 -15 -33 -41 -33 -81s17 -66 30 -80c20 -21 51 -35 85 -35
c29 0 56 12 75 31c19 18 35 46 35 84c0 32 -12 62 -33 82c-22 21 -54 31 -80 31z" />
    <glyph glyph-name="b" unicode="b" horiz-adv-x="602" 
d="M60 729h144v-333c36 49 90 65 139 65c61 0 116 -23 155 -60c43 -41 70 -102 70 -176c0 -69 -24 -133 -70 -179c-39 -40 -87 -61 -153 -61c-79 0 -119 37 -141 69v-54h-144v729zM308 337c-31 0 -58 -9 -81 -33c-17 -18 -32 -44 -32 -82c0 -37 16 -64 33 -80
c23 -22 55 -33 82 -33c25 0 53 10 75 31c21 20 35 49 35 82c0 36 -14 65 -35 85c-23 22 -48 30 -77 30z" />
    <glyph glyph-name="c" unicode="c" horiz-adv-x="431" 
d="M391 436v-131c-35 29 -71 34 -94 34c-45 0 -72 -22 -82 -32c-19 -19 -33 -48 -33 -84c0 -33 12 -61 30 -80c22 -24 55 -36 87 -36c25 0 59 7 92 35v-130c-38 -21 -74 -27 -114 -27c-75 0 -132 27 -173 67c-34 33 -70 89 -70 170c0 76 32 136 74 176c50 47 109 63 170 63
c39 0 75 -7 113 -25z" />
    <glyph glyph-name="d" unicode="d" horiz-adv-x="602" 
d="M542 729v-729h-144v54c-22 -32 -62 -69 -141 -69c-66 0 -114 21 -153 61c-46 46 -70 110 -70 179c0 74 27 135 70 176c39 37 94 60 155 60c49 0 103 -16 139 -65v333h144zM294 337c-29 0 -54 -8 -77 -30c-21 -20 -35 -49 -35 -85c0 -33 14 -62 35 -82
c22 -21 50 -31 75 -31c27 0 59 11 82 33c17 16 33 43 33 80c0 38 -15 64 -32 82c-23 24 -50 33 -81 33z" />
    <glyph glyph-name="e" unicode="e" horiz-adv-x="547" 
d="M185 284h195c-1 4 -8 32 -29 52c-16 15 -39 25 -68 25c-37 0 -59 -15 -73 -29c-11 -12 -21 -28 -25 -48zM513 213v-15h-333c0 -24 9 -56 27 -76c22 -24 52 -28 74 -28c21 0 43 4 58 13c2 1 19 12 31 37l136 -14c-20 -63 -60 -96 -86 -112c-43 -26 -91 -33 -141 -33
c-67 0 -126 12 -178 64c-39 39 -67 98 -67 172c0 64 23 130 68 176c54 54 121 64 171 64s122 -9 177 -67c53 -56 63 -126 63 -181z" />
    <glyph glyph-name="f" unicode="f" horiz-adv-x="326" 
d="M326 330h-114v-330h-144v330h-52v116h52v88c0 50 5 107 50 155c29 31 70 51 125 51c32 0 58 -6 82 -15v-126c-16 10 -37 17 -55 17c-22 0 -36 -10 -42 -18c-16 -21 -16 -56 -16 -77v-75h114v-116z" />
    <glyph glyph-name="g" unicode="g" horiz-adv-x="595" 
d="M395 394v52h144v-419c0 -63 -3 -134 -55 -190c-55 -59 -139 -66 -188 -66c-59 0 -130 9 -186 57c-28 24 -57 62 -67 118h157c6 -23 20 -36 32 -44c17 -11 41 -15 62 -15c41 0 62 15 72 24c28 27 29 74 29 93v51c-17 -28 -51 -67 -133 -67c-69 0 -122 22 -163 63
c-36 37 -65 91 -65 168c0 76 28 139 66 178c27 28 79 64 162 64c81 0 117 -43 133 -67zM295 336c-32 0 -61 -12 -79 -29c-22 -21 -34 -56 -34 -83c0 -29 11 -59 31 -80s47 -32 81 -32c38 0 63 15 78 29c22 21 35 52 35 85c0 35 -15 64 -34 82c-21 19 -52 28 -78 28z" />
    <glyph glyph-name="h" unicode="h" horiz-adv-x="571" 
d="M60 0v729h144v-336c18 22 37 37 54 46c30 16 55 19 87 19c35 0 87 -5 126 -45c41 -41 44 -96 44 -130v-283h-144v229c0 31 -1 67 -24 89c-13 13 -35 20 -56 20c-31 0 -49 -14 -57 -22c-29 -28 -30 -71 -30 -93v-223h-144z" />
    <glyph glyph-name="i" unicode="i" horiz-adv-x="276" 
d="M66 446h144v-446h-144v446zM54 636c0 47 37 84 84 84s84 -37 84 -84s-37 -84 -84 -84s-84 37 -84 84z" />
    <glyph glyph-name="j" unicode="j" horiz-adv-x="276" 
d="M66 446h144v-675h-144v675zM54 636c0 47 37 84 84 84s84 -37 84 -84s-37 -84 -84 -84s-84 37 -84 84z" />
    <glyph glyph-name="k" unicode="k" horiz-adv-x="566" 
d="M60 729h144v-447l162 164h189l-212 -202l227 -244h-194l-172 192v-192h-144v729z" />
    <glyph glyph-name="l" unicode="l" horiz-adv-x="264" 
d="M60 729h144v-729h-144v729z" />
    <glyph glyph-name="m" unicode="m" horiz-adv-x="843" 
d="M56 0v446h144v-52c37 56 91 63 125 63c19 0 54 -2 84 -20c23 -13 42 -35 54 -62c11 18 28 39 57 57c31 19 60 25 95 25c54 0 98 -16 125 -42c43 -41 46 -101 46 -133v-282h-144v226c0 23 0 63 -19 87c-12 15 -31 24 -52 24c-24 0 -44 -11 -56 -27
c-19 -24 -22 -59 -22 -88v-222h-144v232c0 30 -1 65 -23 87c-15 15 -33 18 -48 18c-19 0 -36 -5 -50 -18c-27 -26 -28 -76 -28 -91v-228h-144z" />
    <glyph glyph-name="n" unicode="n" horiz-adv-x="567" 
d="M56 0v446h144v-53c44 56 96 65 138 65c39 0 90 -7 128 -45c42 -42 45 -95 45 -131v-282h-144v229c0 29 -1 66 -24 89c-11 11 -29 20 -55 20c-30 0 -49 -12 -60 -24c-24 -24 -28 -56 -28 -85v-229h-144z" />
    <glyph glyph-name="o" unicode="o" horiz-adv-x="592" 
d="M558 223c0 -57 -22 -121 -67 -166c-40 -40 -108 -72 -195 -72s-155 32 -195 72c-45 45 -67 109 -67 166s22 121 67 166c40 40 108 72 195 72s155 -32 195 -72c45 -45 67 -109 67 -166zM296 339c-33 0 -60 -11 -81 -32s-33 -48 -33 -84c0 -41 16 -67 33 -84
c18 -18 44 -32 82 -32c32 0 59 11 80 32s33 48 33 84s-12 63 -33 84s-48 32 -81 32z" />
    <glyph glyph-name="p" unicode="p" horiz-adv-x="598" 
d="M200 51v-280h-144v675h144v-53c47 61 105 68 139 68c80 0 130 -35 158 -63c40 -40 67 -101 67 -174c0 -77 -27 -135 -71 -179s-92 -60 -151 -60c-89 0 -127 45 -142 66zM304 337c-40 0 -66 -19 -80 -33c-23 -23 -34 -55 -34 -82c0 -28 11 -57 32 -79
c21 -21 51 -34 82 -34c27 0 56 11 77 31c23 22 35 56 35 85c0 33 -14 62 -34 81c-21 20 -49 31 -78 31z" />
    <glyph glyph-name="q" unicode="q" horiz-adv-x="598" 
d="M398 -229v280c-47 -59 -108 -66 -142 -66c-59 0 -106 15 -151 60c-44 44 -71 102 -71 179c0 74 28 133 67 174c40 41 92 63 156 63c44 0 96 -11 141 -68v53h144v-675h-144zM294 337c-29 0 -57 -11 -78 -31c-20 -19 -34 -48 -34 -81c0 -29 12 -63 35 -85
c21 -20 50 -31 77 -31c31 0 61 13 82 34c21 22 32 51 32 79c0 27 -11 59 -34 82c-14 14 -40 33 -80 33z" />
    <glyph glyph-name="r" unicode="r" horiz-adv-x="384" 
d="M56 0v446h144v-70c13 25 33 48 56 62c24 15 49 19 77 19c18 0 31 -2 47 -7l-8 -135c-19 10 -40 16 -65 16c-31 0 -54 -11 -72 -30c-32 -34 -35 -82 -35 -120v-181h-144z" />
    <glyph glyph-name="s" unicode="s" horiz-adv-x="434" 
d="M386 423l-57 -91c-22 13 -51 25 -79 25c-15 0 -32 -4 -41 -13c-5 -5 -9 -13 -9 -20c0 -10 7 -16 14 -20c10 -6 25 -9 43 -15l38 -12c25 -8 51 -18 74 -39c26 -24 35 -51 35 -85c0 -59 -26 -97 -46 -117c-44 -44 -98 -51 -145 -51c-60 0 -125 13 -183 64l61 97
c14 -12 34 -26 49 -33c20 -10 41 -14 60 -14c9 0 32 0 45 10c9 7 15 18 15 29c0 8 -3 18 -16 26c-10 6 -23 10 -44 16l-36 11c-26 8 -53 22 -72 41c-21 22 -32 47 -32 81c0 43 17 79 43 103c40 37 94 45 135 45c66 0 112 -17 148 -38z" />
    <glyph glyph-name="t" unicode="t" horiz-adv-x="299" 
d="M293 330h-89v-330h-144v330h-50v116h50v144h144v-144h89v-116z" />
    <glyph glyph-name="u" unicode="u" horiz-adv-x="570" 
d="M56 446h144v-246c0 -20 2 -51 25 -72c10 -9 28 -21 60 -21c27 0 48 9 61 21c21 20 24 50 24 72v246h144v-260c0 -51 -5 -99 -50 -143c-51 -50 -126 -58 -179 -58c-55 0 -129 8 -180 58c-41 40 -49 85 -49 134v269z" />
    <glyph glyph-name="v" unicode="v" horiz-adv-x="546" 
d="M2 446h158l113 -239l113 239h158l-226 -446h-90z" />
    <glyph glyph-name="w" unicode="w" horiz-adv-x="852" 
d="M426 254l-112 -254h-90l-222 446h158l115 -237l113 243h76l113 -243l115 237h158l-222 -446h-90z" />
    <glyph glyph-name="x" unicode="x" horiz-adv-x="620" 
d="M2 0l218 243l-177 203h184l83 -103l83 103h184l-177 -203l218 -243h-186l-122 144l-122 -144h-186z" />
    <glyph glyph-name="y" unicode="y" horiz-adv-x="585" 
d="M58 -229l157 286l-213 389h166l126 -242l123 242h162l-359 -675h-162z" />
    <glyph glyph-name="z" unicode="z" horiz-adv-x="499" 
d="M487 446l-231 -326h211v-120h-455l232 326h-197v120h440z" />
    <glyph glyph-name="braceleft" unicode="{" horiz-adv-x="504" 
d="M242 272c25 -10 39 -28 46 -42c9 -18 14 -43 14 -84v-160c0 -14 0 -33 12 -45c14 -14 41 -14 71 -14h19v-109c-17 -1 -46 -2 -73 -2c-41 0 -83 2 -116 32c-36 33 -36 72 -36 112v189c0 19 -1 40 -17 56c-9 9 -22 16 -38 17v106c16 1 29 8 38 17c16 16 17 37 17 56v184
c0 40 0 79 36 112c33 30 75 32 116 32c27 0 56 -1 73 -2v-109h-19c-30 0 -57 0 -71 -14c-12 -12 -12 -31 -12 -45v-161c0 -41 -5 -66 -14 -84c-7 -14 -21 -32 -46 -42z" />
    <glyph glyph-name="bar" unicode="|" horiz-adv-x="504" 
d="M189 -250v1000h126v-1000h-126z" />
    <glyph glyph-name="braceright" unicode="}" horiz-adv-x="504" 
d="M202 -14v160c0 41 5 66 14 84c7 14 21 32 46 42c-25 10 -39 28 -46 42c-9 18 -14 43 -14 84v161c0 14 0 33 -12 45c-14 14 -41 14 -71 14h-19v109c17 1 46 2 73 2c41 0 83 -2 116 -32c36 -33 36 -72 36 -112v-184c0 -19 1 -40 17 -56c9 -9 22 -16 38 -17v-106
c-16 -1 -29 -8 -38 -17c-16 -16 -17 -37 -17 -56v-189c0 -40 0 -79 -36 -112c-33 -30 -75 -32 -116 -32c-27 0 -56 1 -73 2v109h19c30 0 57 0 71 14c12 12 12 31 12 45z" />
    <glyph glyph-name="asciitilde" unicode="~" 
d="M254 225l-36 14c-18 7 -33 16 -64 16c-21 0 -35 -4 -49 -18c-11 -11 -22 -28 -28 -43l-71 43l5 11c26 57 44 81 56 93c24 24 53 36 90 36s64 -11 87 -20l38 -14c23 -9 44 -16 68 -16c21 0 34 5 48 18c12 12 20 24 24 34l72 -42l-4 -8c-12 -24 -27 -54 -53 -81
c-29 -31 -56 -43 -96 -43c-33 0 -58 9 -87 20z" />
    <glyph glyph-name="uni00A0" unicode="&#xa0;" horiz-adv-x="233" 
 />
    <glyph glyph-name="exclamdown" unicode="&#xa1;" horiz-adv-x="278" 
d="M213 222v-452h-148v452h148zM48 362c0 51 40 91 91 91s91 -40 91 -91s-40 -91 -91 -91s-91 40 -91 91z" />
    <glyph glyph-name="cent" unicode="&#xa2;" horiz-adv-x="600" 
d="M309 660h90v-94c22 -2 43 -8 63 -19v-133c-24 26 -55 38 -86 38c-28 0 -60 -11 -82 -32c-20 -19 -34 -49 -34 -86c0 -38 15 -68 34 -86c20 -18 52 -28 80 -28c22 0 60 6 88 37v-134c-20 -9 -41 -15 -63 -17v-93h-90v89c-37 5 -85 19 -130 63c-49 48 -67 103 -67 164
c0 82 33 140 69 176c23 23 65 54 128 65v90z" />
    <glyph glyph-name="sterling" unicode="&#xa3;" horiz-adv-x="600" 
d="M159 248h-112v92h68c-18 31 -30 66 -30 114c0 67 22 118 63 158c55 54 123 69 188 69c79 0 139 -25 175 -60c41 -39 62 -102 62 -165c0 -8 0 -16 -1 -24h-153c0 35 -4 73 -25 95c-12 12 -33 26 -65 26c-23 0 -45 -6 -63 -23c-17 -16 -32 -42 -32 -80
c0 -43 24 -92 33 -110h149v-92h-125c4 -14 8 -32 8 -47c0 -17 -5 -42 -10 -59l58 -19c40 -13 64 -18 83 -18c12 0 28 2 39 14c8 8 13 23 15 34l98 -12c-5 -39 -23 -87 -49 -115c-22 -23 -55 -41 -103 -41c-16 0 -52 2 -115 23l-39 13c-21 7 -48 14 -76 14
c-13 0 -34 -1 -49 -13c-8 -6 -15 -16 -19 -27l-104 9c9 37 29 80 54 105c14 14 41 36 83 43c4 13 8 31 8 46c0 13 -3 31 -14 50z" />
    <glyph glyph-name="currency" unicode="&#xa4;" horiz-adv-x="667" 
d="M89 67l-68 68l103 103c-29 37 -44 80 -44 138c0 31 2 80 45 138l-104 104l68 68l104 -103c53 40 105 44 140 44s88 -4 139 -44l103 103l68 -68l-102 -103c41 -51 45 -104 45 -139c0 -38 -4 -90 -44 -138l103 -103l-68 -68l-103 103c-32 -26 -74 -45 -141 -45
c-69 0 -111 20 -141 44zM333 237c41 0 71 12 97 38c29 29 40 63 40 101c0 50 -20 81 -39 100c-23 23 -57 39 -98 39c-45 0 -78 -18 -98 -39c-21 -21 -39 -54 -39 -100c0 -41 14 -73 38 -98c28 -30 59 -41 99 -41z" />
    <glyph glyph-name="yen" unicode="&#xa5;" horiz-adv-x="600" 
d="M202 347h-140v97h82l-134 223h174l117 -212l114 212h176l-138 -223h86v-97h-146l-23 -35v-28h169v-97h-169v-187h-146v187h-162v97h162v28z" />
    <glyph glyph-name="brokenbar" unicode="&#xa6;" horiz-adv-x="504" 
d="M189 365v385h126v-385h-126zM189 -250v386h126v-386h-126z" />
    <glyph glyph-name="section" unicode="&#xa7;" horiz-adv-x="574" 
d="M481 545h-130c0 21 -7 47 -19 59c-11 11 -28 18 -47 18c-22 0 -35 -8 -43 -15c-10 -9 -17 -23 -17 -39c0 -26 15 -42 31 -53c23 -16 50 -26 81 -40l31 -14c38 -17 68 -35 89 -58c22 -23 44 -60 44 -114c0 -43 -13 -81 -33 -109c-15 -21 -39 -45 -76 -60
c22 -11 44 -28 59 -50c18 -26 24 -52 24 -79c0 -50 -18 -95 -50 -126c-44 -43 -95 -49 -135 -49c-49 0 -104 10 -147 56c-31 33 -52 84 -54 137h130c0 -22 7 -46 18 -60c9 -12 25 -23 50 -23c23 0 37 9 44 16c13 12 20 30 20 51c0 18 -6 33 -21 47c-18 16 -43 24 -84 39
c-48 17 -95 36 -126 68c-38 39 -47 88 -47 129c0 32 6 68 28 99c15 22 41 45 78 59c-21 11 -41 27 -55 46c-19 25 -26 49 -26 83c0 54 20 91 44 116c41 42 94 50 139 50c78 0 122 -25 146 -50c30 -31 50 -87 54 -134zM288 356c-22 0 -41 -6 -57 -22c-18 -18 -22 -38 -22 -57
c0 -20 4 -40 22 -58c16 -16 35 -22 57 -22c20 0 39 6 55 22c18 18 22 38 22 58c0 19 -4 39 -22 57c-16 16 -35 22 -55 22z" />
    <glyph glyph-name="dieresis" unicode="&#xa8;" 
d="M280 599c0 43 36 79 79 79s79 -36 79 -79s-36 -79 -79 -79s-79 36 -79 79zM62 599c0 43 36 79 79 79s79 -36 79 -79s-36 -79 -79 -79s-79 36 -79 79z" />
    <glyph glyph-name="copyright" unicode="&#xa9;" horiz-adv-x="762" 
d="M507 518v-122c-23 26 -59 50 -102 50c-27 0 -59 -10 -80 -30c-22 -21 -32 -55 -32 -84c0 -32 11 -60 28 -78c20 -21 51 -34 85 -34c50 0 84 31 101 49v-120c-41 -18 -76 -25 -111 -25c-77 0 -127 28 -157 59c-33 34 -58 87 -58 148c0 62 24 114 59 149
c33 34 87 62 160 62c32 0 71 -7 107 -24zM381 620c-64 0 -141 -30 -191 -78c-49 -48 -86 -127 -86 -208c0 -82 37 -162 86 -209c50 -48 127 -78 191 -78s141 30 191 78c49 47 86 127 86 209c0 81 -37 160 -86 208c-50 48 -127 78 -191 78zM728 333c0 -95 -38 -184 -103 -249
c-59 -58 -143 -99 -244 -99s-185 41 -244 99c-65 65 -103 154 -103 249c0 97 38 185 103 250c59 58 143 99 244 99s185 -41 244 -99c65 -65 103 -153 103 -250z" />
    <glyph glyph-name="ordfeminine" unicode="&#xaa;" horiz-adv-x="352" 
d="M236 629v30h84v-264h-84v32c-24 -35 -58 -41 -82 -41c-45 0 -74 18 -91 35c-35 33 -41 74 -41 106c0 39 10 75 41 105c19 18 48 35 90 35c21 0 57 -5 83 -38zM32 291v66h288v-66h-288zM174 593c-17 0 -36 -7 -49 -21c-12 -13 -17 -28 -17 -47c0 -13 3 -31 17 -45
c11 -11 28 -20 49 -20c24 0 39 10 49 20c12 13 17 28 17 45s-3 34 -17 48c-13 13 -32 20 -49 20z" />
    <glyph glyph-name="guillemotleft" unicode="&#xab;" horiz-adv-x="534" 
d="M158 224l118 -159l-81 -57l-155 216l155 215l79 -55zM366 224l118 -159l-81 -57l-155 216l155 215l79 -55z" />
    <glyph glyph-name="logicalnot" unicode="&#xac;" 
d="M468 0h-126v149h-310v118h436v-267z" />
    <glyph glyph-name="uni00AD" unicode="&#xad;" horiz-adv-x="356" 
d="M50 190v126h256v-126h-256z" />
    <glyph glyph-name="registered" unicode="&#xae;" horiz-adv-x="761" 
d="M227 529h142c33 0 85 -3 120 -39c18 -19 31 -49 31 -82c0 -32 -12 -58 -29 -76c-19 -20 -40 -27 -54 -30l107 -152h-133l-76 128v-128h-108v379zM335 449v-88h15c16 0 31 0 45 9s19 21 19 37c0 9 -2 23 -14 32c-14 10 -38 10 -51 10h-14zM380 620
c-64 0 -141 -30 -191 -78c-49 -48 -86 -127 -86 -208c0 -82 37 -162 86 -209c50 -48 127 -78 191 -78s141 30 191 78c49 47 86 127 86 209c0 81 -37 160 -86 208c-50 48 -127 78 -191 78zM727 333c0 -95 -38 -184 -103 -249c-59 -58 -143 -99 -244 -99s-185 41 -244 99
c-65 65 -103 154 -103 249c0 97 38 185 103 250c59 58 143 99 244 99s185 -41 244 -99c65 -65 103 -153 103 -250z" />
    <glyph glyph-name="macron" unicode="&#xaf;" 
d="M60 543v90h380v-90h-380z" />
    <glyph glyph-name="degree" unicode="&#xb0;" horiz-adv-x="502" 
d="M175 515c0 -40 34 -74 76 -74s76 34 76 74s-34 74 -76 74s-76 -34 -76 -74zM97 515c0 85 67 152 154 152s154 -67 154 -152s-67 -152 -154 -152s-154 67 -154 152z" />
    <glyph glyph-name="plusminus" unicode="&#xb1;" 
d="M33 356v116h154v155h126v-155h154v-116h-154v-155h-126v155h-154zM33 51v116h434v-116h-434z" />
    <glyph glyph-name="twosuperior" unicode="&#xb2;" horiz-adv-x="395" 
d="M29 275l105 119c50 57 70 79 80 97c11 18 16 36 16 55c0 23 -9 34 -13 39c-8 9 -21 14 -37 14s-28 -7 -36 -18c-7 -10 -12 -27 -13 -42h-94c3 36 18 77 43 102c24 24 63 38 107 38c47 0 84 -16 107 -38c32 -31 36 -69 36 -92c0 -34 -8 -60 -24 -86
c-16 -27 -34 -43 -55 -64l-48 -46h131v-78h-305z" />
    <glyph glyph-name="threesuperior" unicode="&#xb3;" horiz-adv-x="395" 
d="M30 397h94c1 -15 8 -31 18 -40c7 -7 20 -14 41 -14c15 0 29 3 41 13s17 23 17 39c0 18 -9 30 -17 36c-16 13 -37 12 -52 12h-11v70h10c14 0 29 1 41 10c9 7 16 20 16 36c0 18 -8 28 -15 34c-8 6 -20 10 -32 10c-20 0 -31 -10 -35 -14c-8 -9 -12 -22 -12 -34h-94
c4 32 18 65 38 86c29 31 68 38 104 38c34 0 77 -5 108 -33c27 -25 32 -55 32 -78c0 -17 -2 -35 -13 -52c-6 -9 -16 -21 -32 -30c14 -6 27 -14 36 -23c14 -14 28 -37 28 -71c0 -25 -6 -60 -36 -90c-35 -35 -77 -39 -111 -39c-42 0 -86 7 -120 40c-21 20 -40 53 -44 94z" />
    <glyph glyph-name="acute" unicode="&#xb4;" 
d="M317 715l94 -65l-152 -135l-65 48z" />
    <glyph glyph-name="mu" unicode="&#xb5;" horiz-adv-x="566" 
d="M224 -229h-141v675h144v-215c0 -42 4 -95 35 -121c14 -12 31 -16 48 -16s34 4 48 16c31 26 35 80 35 121v215h144v-446h-141v58c-6 -16 -18 -38 -31 -50c-17 -15 -37 -18 -55 -18s-38 3 -55 18c-14 12 -26 34 -31 50v-287z" />
    <glyph glyph-name="mu" unicode="&#x3bc;" horiz-adv-x="566" 
d="M224 -229h-141v675h144v-215c0 -42 4 -95 35 -121c14 -12 31 -16 48 -16s34 4 48 16c31 26 35 80 35 121v215h144v-446h-141v58c-6 -16 -18 -38 -31 -50c-17 -15 -37 -18 -55 -18s-38 3 -55 18c-14 12 -26 34 -31 50v-287z" />
    <glyph glyph-name="paragraph" unicode="&#xb6;" horiz-adv-x="659" 
d="M324 -94h-108v415h-8c-42 0 -96 7 -138 51c-37 38 -44 85 -44 119c0 49 13 89 49 124c45 44 98 52 181 52h331v-98h-72v-663h-108v663h-83v-663z" />
    <glyph glyph-name="periodcentered" unicode="&#xb7;" horiz-adv-x="256" 
d="M20 334c0 61 47 108 108 108s108 -47 108 -108s-47 -108 -108 -108s-108 47 -108 108z" />
    <glyph glyph-name="cedilla" unicode="&#xb8;" 
d="M264 -46l94 -44l-118 -146l-74 40z" />
    <glyph glyph-name="onesuperior" unicode="&#xb9;" horiz-adv-x="395" 
d="M163 275v314h-67v78h159v-392h-92z" />
    <glyph glyph-name="ordmasculine" unicode="&#xba;" horiz-adv-x="346" 
d="M29 291v66h288v-66h-288zM173 593c-22 0 -39 -9 -49 -20s-17 -27 -17 -47c0 -19 7 -36 17 -46c11 -11 29 -20 49 -20c19 0 37 7 49 20c10 11 17 26 17 46s-7 36 -17 47s-27 20 -49 20zM325 527c0 -40 -16 -74 -39 -98c-26 -26 -65 -43 -113 -43s-87 17 -113 43
c-23 24 -39 58 -39 98c0 41 16 74 39 97c26 26 65 43 113 43s87 -17 113 -43c23 -23 39 -56 39 -97z" />
    <glyph glyph-name="guillemotright" unicode="&#xbb;" horiz-adv-x="534" 
d="M168 224l-116 160l79 55l155 -215l-155 -216l-81 57zM376 224l-116 160l79 55l155 -215l-155 -216l-81 57z" />
    <glyph glyph-name="onequarter" unicode="&#xbc;" horiz-adv-x="860" 
d="M734 400v-250h46v-74h-46v-76h-88v76h-192v50l174 274h106zM552 150h94v148zM153 267v322h-67v78h159v-400h-92zM173 10l390 668l68 -23l-390 -669z" />
    <glyph glyph-name="onehalf" unicode="&#xbd;" horiz-adv-x="860" 
d="M142 275v314h-66v78h158v-392h-92zM162 10l390 668l68 -23l-390 -669zM490 0l104 119c39 45 64 69 80 97c11 18 16 35 16 55c0 23 -9 34 -13 39c-3 3 -14 14 -34 14c-18 0 -30 -7 -38 -18c-9 -12 -13 -30 -14 -42h-94c3 36 18 77 43 102c25 24 63 38 104 38
c46 0 85 -15 109 -37c33 -31 37 -71 37 -93c0 -37 -9 -61 -26 -88c-19 -31 -34 -44 -53 -62l-48 -46h131v-78h-304z" />
    <glyph glyph-name="threequarters" unicode="&#xbe;" horiz-adv-x="859" 
d="M28 399h94c1 -15 8 -31 18 -40c7 -7 20 -14 41 -14c20 0 33 5 41 13c10 9 17 24 17 38c0 15 -5 29 -17 38c-16 12 -37 12 -52 12h-11v70h10c14 0 29 1 41 10c9 7 16 20 16 36c0 18 -8 28 -15 34c-8 6 -20 10 -32 10c-20 0 -31 -10 -35 -14c-8 -9 -12 -22 -12 -34h-90
c4 32 18 65 38 86c29 31 68 38 104 38c32 0 73 -5 104 -33c27 -25 32 -55 32 -78c0 -17 -2 -35 -13 -52c-6 -9 -16 -21 -32 -30c14 -6 27 -14 36 -23c14 -14 28 -37 28 -73c0 -44 -19 -72 -36 -89c-35 -35 -77 -39 -111 -39c-42 0 -86 7 -120 40c-21 20 -40 53 -44 94z
M222 10l390 668l68 -23l-390 -669zM601 150h94v148zM783 400v-250h46v-74h-46v-76h-88v76h-192v50l174 274h106z" />
    <glyph glyph-name="questiondown" unicode="&#xbf;" horiz-adv-x="525" 
d="M206 226h146v-184c-14 3 -28 5 -43 5c-32 0 -64 -8 -85 -26c-18 -16 -30 -41 -30 -69c0 -20 7 -38 19 -51c15 -16 34 -19 48 -19c26 0 42 10 51 19c11 12 17 36 17 56h154c-1 -61 -27 -109 -55 -138c-25 -26 -74 -61 -165 -61c-78 0 -131 27 -165 60
c-40 39 -56 90 -56 138c0 55 23 98 50 127c20 22 57 51 114 59v84zM366 362c0 -51 -40 -91 -91 -91s-91 40 -91 91s40 91 91 91s91 -40 91 -91z" />
    <glyph glyph-name="Agrave" unicode="&#xc0;" horiz-adv-x="677" 
d="M515 0l-50 126h-252l-51 -126h-160l269 667h141l263 -667h-160zM258 244h165l-82 224zM354 724l-164 129l96 72l133 -148z" />
    <glyph glyph-name="Aacute" unicode="&#xc1;" horiz-adv-x="677" 
d="M515 0l-50 126h-252l-51 -126h-160l269 667h141l263 -667h-160zM258 244h165l-82 224zM394 925l95 -72l-164 -129l-65 53z" />
    <glyph glyph-name="Acircumflex" unicode="&#xc2;" horiz-adv-x="677" 
d="M515 0l-50 126h-252l-51 -126h-160l269 667h141l263 -667h-160zM258 244h165l-82 224zM214 726l-64 71l188 140l189 -140l-66 -71l-123 93z" />
    <glyph glyph-name="Atilde" unicode="&#xc3;" horiz-adv-x="677" 
d="M515 0l-50 126h-252l-51 -126h-160l269 667h141l263 -667h-160zM258 244h165l-82 224zM464 867l71 -50c-11 -22 -26 -42 -42 -58s-37 -31 -71 -31c-21 0 -40 7 -62 16l-41 16c-16 6 -27 11 -37 11c-14 0 -33 -6 -46 -39l-71 50c7 15 23 44 37 59c21 22 46 30 73 30
c25 0 43 -7 60 -14l40 -16c11 -4 25 -12 41 -12c22 0 38 14 48 38z" />
    <glyph glyph-name="Adieresis" unicode="&#xc4;" horiz-adv-x="677" 
d="M515 0l-50 126h-252l-51 -126h-160l269 667h141l263 -667h-160zM258 244h165l-82 224zM150 811c0 43 36 79 79 79s79 -36 79 -79s-36 -79 -79 -79s-79 36 -79 79zM368 811c0 43 36 79 79 79s79 -36 79 -79s-36 -79 -79 -79s-79 36 -79 79z" />
    <glyph glyph-name="Aring" unicode="&#xc5;" horiz-adv-x="677" 
d="M515 0l-50 126h-252l-51 -126h-160l269 667h141l263 -667h-160zM258 244h165l-82 224zM454 827c0 -25 -10 -49 -27 -66c-22 -21 -55 -32 -89 -32s-67 11 -89 32c-17 17 -27 41 -27 66s10 49 27 66c22 21 55 32 89 32s67 -11 89 -32c17 -17 27 -41 27 -66zM338 866
c-16 0 -27 -5 -34 -12c-8 -8 -12 -18 -12 -27s4 -19 12 -27c7 -7 18 -12 34 -12s27 5 34 12c8 8 12 18 12 27s-4 19 -12 27c-7 7 -18 12 -34 12z" />
    <glyph glyph-name="AE" unicode="&#xc6;" horiz-adv-x="920" 
d="M522 0l-51 129h-255l-50 -129h-160l273 667h379l48 -130h-232l51 -129h230l50 -130h-231l59 -148h232l49 -130h-392zM261 247h168l-82 219z" />
    <glyph glyph-name="Ccedilla" unicode="&#xc7;" horiz-adv-x="605" 
d="M555 198v-177c-59 -30 -107 -36 -147 -36c-123 0 -206 42 -262 97c-60 58 -104 146 -104 253c0 105 44 193 104 251c59 57 145 96 249 96c44 0 95 -9 160 -37v-178c-34 36 -85 71 -156 71c-56 0 -101 -18 -136 -52c-37 -36 -63 -90 -63 -154c0 -69 28 -118 58 -147
c14 -14 62 -56 144 -56c40 0 94 11 153 69zM385 -46l100 -44l-112 -146l-80 40z" />
    <glyph glyph-name="Egrave" unicode="&#xc8;" horiz-adv-x="502" 
d="M450 667v-130h-223v-129h212v-130h-212v-148h223v-130h-377v667h377zM285 724l-164 129l96 72l133 -148z" />
    <glyph glyph-name="Eacute" unicode="&#xc9;" horiz-adv-x="502" 
d="M450 667v-130h-223v-129h212v-130h-212v-148h223v-130h-377v667h377zM325 925l95 -72l-164 -129l-65 53z" />
    <glyph glyph-name="Ecircumflex" unicode="&#xca;" horiz-adv-x="502" 
d="M450 667v-130h-223v-129h212v-130h-212v-148h223v-130h-377v667h377zM130 726l-64 71l188 140l189 -140l-66 -71l-123 93z" />
    <glyph glyph-name="Edieresis" unicode="&#xcb;" horiz-adv-x="502" 
d="M450 667v-130h-223v-129h212v-130h-212v-148h223v-130h-377v667h377zM67 811c0 43 36 79 79 79s79 -36 79 -79s-36 -79 -79 -79s-79 36 -79 79zM285 811c0 43 36 79 79 79s79 -36 79 -79s-36 -79 -79 -79s-79 36 -79 79z" />
    <glyph glyph-name="Igrave" unicode="&#xcc;" horiz-adv-x="306" 
d="M76 667h154v-667h-154v667zM169 724l-164 129l96 72l133 -148z" />
    <glyph glyph-name="Iacute" unicode="&#xcd;" horiz-adv-x="306" 
d="M76 667h154v-667h-154v667zM209 925l95 -72l-164 -129l-65 53z" />
    <glyph glyph-name="Icircumflex" unicode="&#xce;" horiz-adv-x="306" 
d="M76 667h154v-667h-154v667zM29 726l-64 71l188 140l189 -140l-66 -71l-123 93z" />
    <glyph glyph-name="Idieresis" unicode="&#xcf;" horiz-adv-x="306" 
d="M76 667h154v-667h-154v667zM-35 811c0 43 36 79 79 79s79 -36 79 -79s-36 -79 -79 -79s-79 36 -79 79zM183 811c0 43 36 79 79 79s79 -36 79 -79s-36 -79 -79 -79s-79 36 -79 79z" />
    <glyph glyph-name="Eth" unicode="&#xd0;" horiz-adv-x="712" 
d="M100 413v254h211c88 0 181 -13 263 -92c59 -57 96 -135 96 -239c0 -105 -36 -181 -91 -236c-92 -93 -207 -100 -263 -100h-216v303h-90v110h90zM254 537v-124h120v-110h-120v-173h41c32 0 102 3 152 45c36 30 65 87 65 161c0 72 -29 118 -55 144c-50 50 -115 57 -162 57
h-41z" />
    <glyph glyph-name="Ntilde" unicode="&#xd1;" horiz-adv-x="796" 
d="M227 0h-154v667h134l362 -430v430h154v-667h-134l-362 432v-432zM519 867l71 -50c-11 -22 -26 -42 -42 -58s-37 -31 -71 -31c-21 0 -40 7 -62 16l-41 16c-16 6 -27 11 -37 11c-14 0 -33 -6 -46 -39l-71 50c7 15 23 44 37 59c21 22 46 30 73 30c25 0 43 -7 60 -14l40 -16
c11 -4 25 -12 41 -12c22 0 38 14 48 38z" />
    <glyph glyph-name="Ograve" unicode="&#xd2;" horiz-adv-x="810" 
d="M406 682c104 0 191 -32 258 -97c63 -61 104 -149 104 -252c0 -89 -32 -180 -104 -250c-62 -60 -146 -98 -258 -98c-125 0 -210 50 -260 98c-64 60 -104 150 -104 248c0 96 43 193 103 253c45 45 128 98 261 98zM405 540c-58 0 -110 -21 -146 -57
c-29 -28 -59 -77 -59 -151c0 -61 20 -110 61 -150c43 -41 91 -55 143 -55c68 0 116 25 148 57c26 25 58 72 58 149c0 69 -28 120 -58 150c-33 32 -86 57 -147 57zM420 724l-164 129l96 72l133 -148z" />
    <glyph glyph-name="Oacute" unicode="&#xd3;" horiz-adv-x="810" 
d="M406 682c104 0 191 -32 258 -97c63 -61 104 -149 104 -252c0 -89 -32 -180 -104 -250c-62 -60 -146 -98 -258 -98c-125 0 -210 50 -260 98c-64 60 -104 150 -104 248c0 96 43 193 103 253c45 45 128 98 261 98zM405 540c-58 0 -110 -21 -146 -57
c-29 -28 -59 -77 -59 -151c0 -61 20 -110 61 -150c43 -41 91 -55 143 -55c68 0 116 25 148 57c26 25 58 72 58 149c0 69 -28 120 -58 150c-33 32 -86 57 -147 57zM460 925l95 -72l-164 -129l-65 53z" />
    <glyph glyph-name="Ocircumflex" unicode="&#xd4;" horiz-adv-x="810" 
d="M406 682c104 0 191 -32 258 -97c63 -61 104 -149 104 -252c0 -89 -32 -180 -104 -250c-62 -60 -146 -98 -258 -98c-125 0 -210 50 -260 98c-64 60 -104 150 -104 248c0 96 43 193 103 253c45 45 128 98 261 98zM405 540c-58 0 -110 -21 -146 -57
c-29 -28 -59 -77 -59 -151c0 -61 20 -110 61 -150c43 -41 91 -55 143 -55c68 0 116 25 148 57c26 25 58 72 58 149c0 69 -28 120 -58 150c-33 32 -86 57 -147 57zM281 726l-64 71l188 140l189 -140l-66 -71l-123 93z" />
    <glyph glyph-name="Otilde" unicode="&#xd5;" horiz-adv-x="810" 
d="M406 682c104 0 191 -32 258 -97c63 -61 104 -149 104 -252c0 -89 -32 -180 -104 -250c-62 -60 -146 -98 -258 -98c-125 0 -210 50 -260 98c-64 60 -104 150 -104 248c0 96 43 193 103 253c45 45 128 98 261 98zM405 540c-58 0 -110 -21 -146 -57
c-29 -28 -59 -77 -59 -151c0 -61 20 -110 61 -150c43 -41 91 -55 143 -55c68 0 116 25 148 57c26 25 58 72 58 149c0 69 -28 120 -58 150c-33 32 -86 57 -147 57zM519 867l71 -50c-11 -22 -26 -42 -42 -58s-37 -31 -71 -31c-21 0 -40 7 -62 16l-41 16c-16 6 -27 11 -37 11
c-14 0 -33 -6 -46 -39l-71 50c7 15 23 44 37 59c21 22 46 30 73 30c25 0 43 -7 60 -14l40 -16c11 -4 25 -12 41 -12c22 0 38 14 48 38z" />
    <glyph glyph-name="Odieresis" unicode="&#xd6;" horiz-adv-x="810" 
d="M406 682c104 0 191 -32 258 -97c63 -61 104 -149 104 -252c0 -89 -32 -180 -104 -250c-62 -60 -146 -98 -258 -98c-125 0 -210 50 -260 98c-64 60 -104 150 -104 248c0 96 43 193 103 253c45 45 128 98 261 98zM405 540c-58 0 -110 -21 -146 -57
c-29 -28 -59 -77 -59 -151c0 -61 20 -110 61 -150c43 -41 91 -55 143 -55c68 0 116 25 148 57c26 25 58 72 58 149c0 69 -28 120 -58 150c-33 32 -86 57 -147 57zM217 811c0 43 36 79 79 79s79 -36 79 -79s-36 -79 -79 -79s-79 36 -79 79zM435 811c0 43 36 79 79 79
s79 -36 79 -79s-36 -79 -79 -79s-79 36 -79 79z" />
    <glyph glyph-name="multiply" unicode="&#xd7;" 
d="M47 218l118 118l-118 119l87 87l118 -119l118 119l84 -84l-118 -118l118 -119l-87 -87l-118 119l-119 -118z" />
    <glyph glyph-name="Oslash" unicode="&#xd8;" horiz-adv-x="822" 
d="M30 35l88 87c-40 51 -70 117 -70 205c0 102 43 197 103 257c82 82 181 98 261 98c76 0 141 -14 209 -58l88 88l83 -80l-87 -87c41 -55 69 -121 69 -209c0 -109 -44 -195 -104 -253c-85 -82 -183 -98 -258 -98c-78 0 -144 17 -210 59l-89 -89zM229 233l283 283
c-23 11 -57 24 -101 24c-60 0 -110 -21 -146 -57c-29 -29 -59 -76 -59 -153c0 -36 6 -65 23 -97zM593 434l-284 -283c28 -14 60 -24 101 -24c77 0 124 33 148 57c46 45 58 102 58 155c0 34 -5 62 -23 95z" />
    <glyph glyph-name="Ugrave" unicode="&#xd9;" horiz-adv-x="710" 
d="M637 667v-395c0 -64 -8 -143 -74 -211c-64 -66 -138 -76 -208 -76s-144 10 -208 76c-66 68 -74 147 -74 211v395h154v-391c0 -29 2 -78 35 -112c27 -29 64 -35 93 -35s66 6 93 35c33 34 35 83 35 112v391h154zM370 724l-164 129l96 72l133 -148z" />
    <glyph glyph-name="Uacute" unicode="&#xda;" horiz-adv-x="710" 
d="M637 667v-395c0 -64 -8 -143 -74 -211c-64 -66 -138 -76 -208 -76s-144 10 -208 76c-66 68 -74 147 -74 211v395h154v-391c0 -29 2 -78 35 -112c27 -29 64 -35 93 -35s66 6 93 35c33 34 35 83 35 112v391h154zM410 925l95 -72l-164 -129l-65 53z" />
    <glyph glyph-name="Ucircumflex" unicode="&#xdb;" horiz-adv-x="710" 
d="M637 667v-395c0 -64 -8 -143 -74 -211c-64 -66 -138 -76 -208 -76s-144 10 -208 76c-66 68 -74 147 -74 211v395h154v-391c0 -29 2 -78 35 -112c27 -29 64 -35 93 -35s66 6 93 35c33 34 35 83 35 112v391h154zM231 726l-64 71l188 140l189 -140l-66 -71l-123 93z" />
    <glyph glyph-name="Udieresis" unicode="&#xdc;" horiz-adv-x="710" 
d="M637 667v-395c0 -64 -8 -143 -74 -211c-64 -66 -138 -76 -208 -76s-144 10 -208 76c-66 68 -74 147 -74 211v395h154v-391c0 -29 2 -78 35 -112c27 -29 64 -35 93 -35s66 6 93 35c33 34 35 83 35 112v391h154zM167 811c0 43 36 79 79 79s79 -36 79 -79s-36 -79 -79 -79
s-79 36 -79 79zM385 811c0 43 36 79 79 79s79 -36 79 -79s-36 -79 -79 -79s-79 36 -79 79z" />
    <glyph glyph-name="Yacute" unicode="&#xdd;" horiz-adv-x="632" 
d="M239 0v311l-239 356h182l134 -207l134 207h182l-239 -356v-311h-154zM381 925l95 -72l-164 -129l-65 53z" />
    <glyph glyph-name="Thorn" unicode="&#xde;" horiz-adv-x="572" 
d="M73 667h154v-92h79c55 0 124 -8 177 -55c57 -50 65 -117 65 -159c0 -87 -33 -136 -57 -160c-54 -54 -127 -59 -172 -59h-92v-142h-154v667zM227 449v-181h53c27 0 62 3 85 25c14 14 25 37 25 66c0 28 -10 51 -25 65c-23 22 -61 25 -88 25h-50z" />
    <glyph glyph-name="germandbls" unicode="&#xdf;" horiz-adv-x="585" 
d="M204 0h-144v510c0 53 6 119 55 170c25 26 75 60 165 60c87 0 138 -30 165 -56s53 -70 53 -136c0 -32 -7 -64 -27 -94c-18 -26 -40 -39 -55 -46c41 -13 76 -39 97 -67c24 -32 38 -78 38 -125c0 -56 -21 -121 -66 -165c-64 -62 -150 -65 -212 -65h-6v124c30 0 73 8 98 30
c19 17 34 48 34 81c0 32 -12 60 -30 78c-25 25 -67 37 -102 37v122c22 0 52 5 70 21c15 13 25 36 25 60c0 23 -9 43 -21 55c-13 13 -35 22 -57 22c-20 0 -42 -8 -57 -24c-22 -24 -23 -56 -23 -82v-510z" />
    <glyph glyph-name="agrave" unicode="&#xe0;" horiz-adv-x="598" 
d="M398 396v50h144v-446h-144v54c-39 -60 -95 -69 -132 -69c-64 0 -118 16 -167 68c-47 50 -65 108 -65 167c0 75 28 139 69 180c39 39 93 61 155 61c38 0 99 -9 140 -65zM294 337c-31 0 -60 -13 -79 -32c-15 -15 -33 -41 -33 -81s17 -66 30 -80c20 -21 51 -35 85 -35
c29 0 56 12 75 31c19 18 35 46 35 84c0 32 -12 62 -33 82c-22 21 -54 31 -80 31zM315 515l-152 135l95 65l122 -152z" />
    <glyph glyph-name="aacute" unicode="&#xe1;" horiz-adv-x="598" 
d="M398 396v50h144v-446h-144v54c-39 -60 -95 -69 -132 -69c-64 0 -118 16 -167 68c-47 50 -65 108 -65 167c0 75 28 139 69 180c39 39 93 61 155 61c38 0 99 -9 140 -65zM294 337c-31 0 -60 -13 -79 -32c-15 -15 -33 -41 -33 -81s17 -66 30 -80c20 -21 51 -35 85 -35
c29 0 56 12 75 31c19 18 35 46 35 84c0 32 -12 62 -33 82c-22 21 -54 31 -80 31zM347 715l94 -65l-152 -135l-65 48z" />
    <glyph glyph-name="acircumflex" unicode="&#xe2;" horiz-adv-x="598" 
d="M398 396v50h144v-446h-144v54c-39 -60 -95 -69 -132 -69c-64 0 -118 16 -167 68c-47 50 -65 108 -65 167c0 75 28 139 69 180c39 39 93 61 155 61c38 0 99 -9 140 -65zM294 337c-31 0 -60 -13 -79 -32c-15 -15 -33 -41 -33 -81s17 -66 30 -80c20 -21 51 -35 85 -35
c29 0 56 12 75 31c19 18 35 46 35 84c0 32 -12 62 -33 82c-22 21 -54 31 -80 31zM299 610l-119 -95l-64 69l183 142l184 -142l-66 -69z" />
    <glyph glyph-name="atilde" unicode="&#xe3;" horiz-adv-x="598" 
d="M398 396v50h144v-446h-144v54c-39 -60 -95 -69 -132 -69c-64 0 -118 16 -167 68c-47 50 -65 108 -65 167c0 75 28 139 69 180c39 39 93 61 155 61c38 0 99 -9 140 -65zM294 337c-31 0 -60 -13 -79 -32c-15 -15 -33 -41 -33 -81s17 -66 30 -80c20 -21 51 -35 85 -35
c29 0 56 12 75 31c19 18 35 46 35 84c0 32 -12 62 -33 82c-22 21 -54 31 -80 31zM404 657l66 -44c-8 -20 -25 -48 -39 -63c-18 -18 -44 -30 -70 -30c-8 0 -25 2 -59 14l-35 13c-23 9 -37 13 -49 13c-20 0 -34 -13 -43 -37l-65 44c6 20 18 46 34 63c19 21 43 30 71 30
c22 0 44 -6 62 -13l34 -13c37 -14 50 -14 53 -14c27 0 37 24 40 37z" />
    <glyph glyph-name="adieresis" unicode="&#xe4;" horiz-adv-x="598" 
d="M398 396v50h144v-446h-144v54c-39 -60 -95 -69 -132 -69c-64 0 -118 16 -167 68c-47 50 -65 108 -65 167c0 75 28 139 69 180c39 39 93 61 155 61c38 0 99 -9 140 -65zM294 337c-31 0 -60 -13 -79 -32c-15 -15 -33 -41 -33 -81s17 -66 30 -80c20 -21 51 -35 85 -35
c29 0 56 12 75 31c19 18 35 46 35 84c0 32 -12 62 -33 82c-22 21 -54 31 -80 31zM329 599c0 43 36 79 79 79s79 -36 79 -79s-36 -79 -79 -79s-79 36 -79 79zM111 599c0 43 36 79 79 79s79 -36 79 -79s-36 -79 -79 -79s-79 36 -79 79z" />
    <glyph glyph-name="aring" unicode="&#xe5;" horiz-adv-x="598" 
d="M398 396v50h144v-446h-144v54c-39 -60 -95 -69 -132 -69c-64 0 -118 16 -167 68c-47 50 -65 108 -65 167c0 75 28 139 69 180c39 39 93 61 155 61c38 0 99 -9 140 -65zM294 337c-31 0 -60 -13 -79 -32c-15 -15 -33 -41 -33 -81s17 -66 30 -80c20 -21 51 -35 85 -35
c29 0 56 12 75 31c19 18 35 46 35 84c0 32 -12 62 -33 82c-22 21 -54 31 -80 31zM413 614c0 -30 -13 -51 -27 -65c-17 -16 -46 -31 -87 -31s-70 15 -87 31c-14 14 -27 35 -27 65s13 51 27 65c17 16 46 31 87 31s70 -15 87 -31c14 -14 27 -35 27 -65zM299 650
c-10 0 -23 -3 -31 -9c-7 -6 -13 -16 -13 -27s6 -21 13 -27c8 -6 21 -9 31 -9s23 3 31 9c7 6 13 16 13 27s-6 21 -13 27c-8 6 -21 9 -31 9z" />
    <glyph glyph-name="ae" unicode="&#xe6;" horiz-adv-x="840" 
d="M666 144l135 -9c-23 -70 -70 -105 -87 -116c-43 -28 -89 -34 -136 -34c-20 0 -73 2 -109 20c-23 11 -48 34 -64 53c-21 -28 -45 -45 -75 -57c-36 -14 -68 -16 -107 -16c-49 0 -107 6 -150 49c-24 24 -39 57 -39 100c0 34 9 65 37 93c30 30 81 52 157 52
c50 0 80 -12 105 -27v9c0 25 -11 51 -26 66c-17 17 -48 28 -87 28c-32 0 -76 -9 -115 -22v110c46 13 91 18 131 18c96 0 139 -34 165 -77c50 65 125 77 171 77c80 0 138 -29 174 -68c55 -60 60 -140 60 -181v-14h-326c1 -30 13 -59 30 -77c20 -22 46 -28 73 -28
c13 0 33 1 51 12c10 6 24 18 32 39zM247 191c-28 0 -52 -8 -66 -23c-8 -8 -13 -18 -13 -31c0 -11 4 -21 13 -31c15 -15 41 -23 65 -23c21 0 53 6 70 23c6 6 13 16 13 31c0 11 -4 21 -13 31c-17 17 -46 23 -69 23zM484 284h187c-4 21 -15 41 -29 54c-21 19 -47 23 -64 23
c-22 0 -44 -4 -62 -21c-16 -14 -27 -37 -32 -56z" />
    <glyph glyph-name="ccedilla" unicode="&#xe7;" horiz-adv-x="431" 
d="M391 436v-131c-35 29 -71 34 -94 34c-45 0 -72 -22 -82 -32c-19 -19 -33 -48 -33 -84c0 -33 12 -61 30 -80c22 -24 55 -36 87 -36c25 0 59 7 92 35v-130c-38 -21 -74 -27 -114 -27c-75 0 -132 27 -173 67c-34 33 -70 89 -70 170c0 76 32 136 74 176c50 47 109 63 170 63
c39 0 75 -7 113 -25zM255 -46l94 -44l-118 -146l-74 40z" />
    <glyph glyph-name="egrave" unicode="&#xe8;" horiz-adv-x="547" 
d="M185 284h195c-1 4 -8 32 -29 52c-16 15 -39 25 -68 25c-37 0 -59 -15 -73 -29c-11 -12 -21 -28 -25 -48zM513 213v-15h-333c0 -24 9 -56 27 -76c22 -24 52 -28 74 -28c21 0 43 4 58 13c2 1 19 12 31 37l136 -14c-20 -63 -60 -96 -86 -112c-43 -26 -91 -33 -141 -33
c-67 0 -126 12 -178 64c-39 39 -67 98 -67 172c0 64 23 130 68 176c54 54 121 64 171 64s122 -9 177 -67c53 -56 63 -126 63 -181zM305 515l-152 135l95 65l122 -152z" />
    <glyph glyph-name="eacute" unicode="&#xe9;" horiz-adv-x="547" 
d="M185 284h195c-1 4 -8 32 -29 52c-16 15 -39 25 -68 25c-37 0 -59 -15 -73 -29c-11 -12 -21 -28 -25 -48zM513 213v-15h-333c0 -24 9 -56 27 -76c22 -24 52 -28 74 -28c21 0 43 4 58 13c2 1 19 12 31 37l136 -14c-20 -63 -60 -96 -86 -112c-43 -26 -91 -33 -141 -33
c-67 0 -126 12 -178 64c-39 39 -67 98 -67 172c0 64 23 130 68 176c54 54 121 64 171 64s122 -9 177 -67c53 -56 63 -126 63 -181zM327 715l94 -65l-152 -135l-65 48z" />
    <glyph glyph-name="ecircumflex" unicode="&#xea;" horiz-adv-x="547" 
d="M185 284h195c-1 4 -8 32 -29 52c-16 15 -39 25 -68 25c-37 0 -59 -15 -73 -29c-11 -12 -21 -28 -25 -48zM513 213v-15h-333c0 -24 9 -56 27 -76c22 -24 52 -28 74 -28c21 0 43 4 58 13c2 1 19 12 31 37l136 -14c-20 -63 -60 -96 -86 -112c-43 -26 -91 -33 -141 -33
c-67 0 -126 12 -178 64c-39 39 -67 98 -67 172c0 64 23 130 68 176c54 54 121 64 171 64s122 -9 177 -67c53 -56 63 -126 63 -181zM273 610l-119 -95l-64 69l183 142l184 -142l-66 -69z" />
    <glyph glyph-name="edieresis" unicode="&#xeb;" horiz-adv-x="547" 
d="M185 284h195c-1 4 -8 32 -29 52c-16 15 -39 25 -68 25c-37 0 -59 -15 -73 -29c-11 -12 -21 -28 -25 -48zM513 213v-15h-333c0 -24 9 -56 27 -76c22 -24 52 -28 74 -28c21 0 43 4 58 13c2 1 19 12 31 37l136 -14c-20 -63 -60 -96 -86 -112c-43 -26 -91 -33 -141 -33
c-67 0 -126 12 -178 64c-39 39 -67 98 -67 172c0 64 23 130 68 176c54 54 121 64 171 64s122 -9 177 -67c53 -56 63 -126 63 -181zM303 599c0 43 36 79 79 79s79 -36 79 -79s-36 -79 -79 -79s-79 36 -79 79zM85 599c0 43 36 79 79 79s79 -36 79 -79s-36 -79 -79 -79
s-79 36 -79 79z" />
    <glyph glyph-name="igrave" unicode="&#xec;" horiz-adv-x="276" 
d="M66 446h144v-446h-144v446zM139 515l-133 135l96 65l102 -152z" />
    <glyph glyph-name="iacute" unicode="&#xed;" horiz-adv-x="276" 
d="M66 446h144v-446h-144v446zM175 715l94 -65l-132 -135l-65 48z" />
    <glyph glyph-name="icircumflex" unicode="&#xee;" horiz-adv-x="276" 
d="M66 446h144v-446h-144v446zM138 602l-94 -87l-65 69l159 142l159 -142l-66 -69z" />
    <glyph glyph-name="idieresis" unicode="&#xef;" horiz-adv-x="276" 
d="M66 446h144v-446h-144v446zM161 599c0 52 39 79 71 79c39 0 71 -36 71 -79s-32 -79 -71 -79c-32 0 -71 27 -71 79zM-27 599c0 43 32 79 71 79c32 0 71 -27 71 -79s-39 -79 -71 -79c-39 0 -71 36 -71 79z" />
    <glyph glyph-name="eth" unicode="&#xf0;" horiz-adv-x="580" 
d="M71 596l36 96c123 -3 188 -31 230 -53l151 60l35 -72l-109 -43c39 -32 71 -72 94 -128c24 -58 32 -114 32 -173c0 -70 -12 -167 -80 -234c-56 -55 -123 -64 -174 -64c-64 0 -125 14 -180 66c-58 55 -72 120 -72 172c0 68 27 122 59 155c35 37 90 65 169 65
c58 0 95 -14 132 -47c-6 33 -19 62 -37 84c-16 20 -40 40 -63 53l-197 -85l-32 69l143 60c-44 14 -89 20 -137 19zM286 327c-29 0 -56 -12 -73 -29c-18 -18 -31 -47 -31 -81s13 -63 31 -81c17 -17 44 -29 73 -29s56 12 73 29c18 18 31 47 31 81s-13 63 -31 81
c-17 17 -44 29 -73 29z" />
    <glyph glyph-name="ntilde" unicode="&#xf1;" horiz-adv-x="567" 
d="M56 0v446h144v-53c44 56 96 65 138 65c39 0 90 -7 128 -45c42 -42 45 -95 45 -131v-282h-144v229c0 29 -1 66 -24 89c-11 11 -29 20 -55 20c-30 0 -49 -12 -60 -24c-24 -24 -28 -56 -28 -85v-229h-144zM404 657l66 -44c-8 -20 -25 -48 -39 -63c-18 -18 -44 -30 -70 -30
c-8 0 -25 2 -59 14l-35 13c-23 9 -37 13 -49 13c-20 0 -34 -13 -43 -37l-65 44c6 20 18 46 34 63c19 21 43 30 71 30c22 0 44 -6 62 -13l34 -13c37 -14 50 -14 53 -14c27 0 37 24 40 37z" />
    <glyph glyph-name="ograve" unicode="&#xf2;" horiz-adv-x="592" 
d="M558 223c0 -57 -22 -121 -67 -166c-40 -40 -108 -72 -195 -72s-155 32 -195 72c-45 45 -67 109 -67 166s22 121 67 166c40 40 108 72 195 72s155 -32 195 -72c45 -45 67 -109 67 -166zM296 339c-33 0 -60 -11 -81 -32s-33 -48 -33 -84c0 -41 16 -67 33 -84
c18 -18 44 -32 82 -32c32 0 59 11 80 32s33 48 33 84s-12 63 -33 84s-48 32 -81 32zM280 515l-152 135l95 65l122 -152z" />
    <glyph glyph-name="oacute" unicode="&#xf3;" horiz-adv-x="592" 
d="M558 223c0 -57 -22 -121 -67 -166c-40 -40 -108 -72 -195 -72s-155 32 -195 72c-45 45 -67 109 -67 166s22 121 67 166c40 40 108 72 195 72s155 -32 195 -72c45 -45 67 -109 67 -166zM296 339c-33 0 -60 -11 -81 -32s-33 -48 -33 -84c0 -41 16 -67 33 -84
c18 -18 44 -32 82 -32c32 0 59 11 80 32s33 48 33 84s-12 63 -33 84s-48 32 -81 32zM347 715l94 -65l-152 -135l-65 48z" />
    <glyph glyph-name="ocircumflex" unicode="&#xf4;" horiz-adv-x="592" 
d="M558 223c0 -57 -22 -121 -67 -166c-40 -40 -108 -72 -195 -72s-155 32 -195 72c-45 45 -67 109 -67 166s22 121 67 166c40 40 108 72 195 72s155 -32 195 -72c45 -45 67 -109 67 -166zM296 339c-33 0 -60 -11 -81 -32s-33 -48 -33 -84c0 -41 16 -67 33 -84
c18 -18 44 -32 82 -32c32 0 59 11 80 32s33 48 33 84s-12 63 -33 84s-48 32 -81 32zM296 610l-119 -95l-64 69l183 142l184 -142l-66 -69z" />
    <glyph glyph-name="otilde" unicode="&#xf5;" horiz-adv-x="592" 
d="M558 223c0 -57 -22 -121 -67 -166c-40 -40 -108 -72 -195 -72s-155 32 -195 72c-45 45 -67 109 -67 166s22 121 67 166c40 40 108 72 195 72s155 -32 195 -72c45 -45 67 -109 67 -166zM296 339c-33 0 -60 -11 -81 -32s-33 -48 -33 -84c0 -41 16 -67 33 -84
c18 -18 44 -32 82 -32c32 0 59 11 80 32s33 48 33 84s-12 63 -33 84s-48 32 -81 32zM412 657l66 -44c-8 -20 -25 -48 -39 -63c-18 -18 -44 -30 -70 -30c-8 0 -25 2 -59 14l-35 13c-23 9 -37 13 -49 13c-20 0 -34 -13 -43 -37l-65 44c6 20 18 46 34 63c19 21 43 30 71 30
c22 0 44 -6 62 -13l34 -13c37 -14 50 -14 53 -14c27 0 37 24 40 37z" />
    <glyph glyph-name="odieresis" unicode="&#xf6;" horiz-adv-x="592" 
d="M558 223c0 -57 -22 -121 -67 -166c-40 -40 -108 -72 -195 -72s-155 32 -195 72c-45 45 -67 109 -67 166s22 121 67 166c40 40 108 72 195 72s155 -32 195 -72c45 -45 67 -109 67 -166zM296 339c-33 0 -60 -11 -81 -32s-33 -48 -33 -84c0 -41 16 -67 33 -84
c18 -18 44 -32 82 -32c32 0 59 11 80 32s33 48 33 84s-12 63 -33 84s-48 32 -81 32zM326 599c0 43 36 79 79 79s79 -36 79 -79s-36 -79 -79 -79s-79 36 -79 79zM108 599c0 43 36 79 79 79s79 -36 79 -79s-36 -79 -79 -79s-79 36 -79 79z" />
    <glyph glyph-name="divide" unicode="&#xf7;" 
d="M33 282v116h434v-116h-434zM177 510c0 40 33 73 73 73s73 -33 73 -73s-33 -73 -73 -73s-73 33 -73 73zM177 168c0 40 33 73 73 73s73 -33 73 -73s-33 -73 -73 -73s-73 33 -73 73z" />
    <glyph glyph-name="oslash" unicode="&#xf8;" horiz-adv-x="616" 
d="M582 440l-63 -63c30 -35 56 -82 56 -152c0 -69 -28 -129 -67 -168c-40 -40 -106 -72 -197 -72c-52 0 -98 9 -147 37l-77 -77l-53 50l74 74c-36 40 -57 88 -57 152c0 84 37 138 67 168c46 45 113 72 195 72c61 0 108 -15 149 -37l67 67zM210 171l156 156
c-18 9 -34 12 -53 12c-33 0 -60 -10 -81 -32c-16 -16 -33 -43 -33 -84c0 -20 4 -37 11 -52zM416 274l-155 -155c21 -10 40 -12 53 -12c30 0 58 11 80 32c25 25 33 54 33 84c0 21 -2 34 -11 51z" />
    <glyph glyph-name="ugrave" unicode="&#xf9;" horiz-adv-x="570" 
d="M56 446h144v-246c0 -20 2 -51 25 -72c10 -9 28 -21 60 -21c27 0 48 9 61 21c21 20 24 50 24 72v246h144v-260c0 -51 -5 -99 -50 -143c-51 -50 -126 -58 -179 -58c-55 0 -129 8 -180 58c-41 40 -49 85 -49 134v269zM269 515l-152 135l95 65l122 -152z" />
    <glyph glyph-name="uacute" unicode="&#xfa;" horiz-adv-x="570" 
d="M56 446h144v-246c0 -20 2 -51 25 -72c10 -9 28 -21 60 -21c27 0 48 9 61 21c21 20 24 50 24 72v246h144v-260c0 -51 -5 -99 -50 -143c-51 -50 -126 -58 -179 -58c-55 0 -129 8 -180 58c-41 40 -49 85 -49 134v269zM346 715l94 -65l-152 -135l-65 48z" />
    <glyph glyph-name="ucircumflex" unicode="&#xfb;" horiz-adv-x="570" 
d="M56 446h144v-246c0 -20 2 -51 25 -72c10 -9 28 -21 60 -21c27 0 48 9 61 21c21 20 24 50 24 72v246h144v-260c0 -51 -5 -99 -50 -143c-51 -50 -126 -58 -179 -58c-55 0 -129 8 -180 58c-41 40 -49 85 -49 134v269zM285 610l-119 -95l-64 69l183 142l184 -142l-66 -69z
" />
    <glyph glyph-name="udieresis" unicode="&#xfc;" horiz-adv-x="570" 
d="M56 446h144v-246c0 -20 2 -51 25 -72c10 -9 28 -21 60 -21c27 0 48 9 61 21c21 20 24 50 24 72v246h144v-260c0 -51 -5 -99 -50 -143c-51 -50 -126 -58 -179 -58c-55 0 -129 8 -180 58c-41 40 -49 85 -49 134v269zM315 599c0 43 36 79 79 79s79 -36 79 -79
s-36 -79 -79 -79s-79 36 -79 79zM97 599c0 43 36 79 79 79s79 -36 79 -79s-36 -79 -79 -79s-79 36 -79 79z" />
    <glyph glyph-name="yacute" unicode="&#xfd;" horiz-adv-x="585" 
d="M58 -229l157 286l-213 389h166l126 -242l123 242h162l-359 -675h-162zM354 715l94 -65l-152 -135l-65 48z" />
    <glyph glyph-name="thorn" unicode="&#xfe;" horiz-adv-x="598" 
d="M200 51v-280h-144v958h144v-336c47 61 105 68 139 68c80 0 130 -35 158 -63c40 -40 67 -101 67 -174c0 -77 -27 -135 -71 -179s-92 -60 -151 -60c-89 0 -127 45 -142 66zM304 337c-40 0 -66 -19 -80 -33c-23 -23 -34 -55 -34 -82c0 -28 11 -57 32 -79
c21 -21 51 -34 82 -34c27 0 56 11 77 31c23 22 35 56 35 85c0 33 -14 62 -34 81c-21 20 -49 31 -78 31z" />
    <glyph glyph-name="ydieresis" unicode="&#xff;" horiz-adv-x="585" 
d="M58 -229l157 286l-213 389h166l126 -242l123 242h162l-359 -675h-162zM322 599c0 43 36 79 79 79s79 -36 79 -79s-36 -79 -79 -79s-79 36 -79 79zM104 599c0 43 36 79 79 79s79 -36 79 -79s-36 -79 -79 -79s-79 36 -79 79z" />
    <glyph glyph-name="Amacron" unicode="&#x100;" horiz-adv-x="677" 
d="M515 0l-50 126h-252l-51 -126h-160l269 667h141l263 -667h-160zM258 244h165l-82 224zM146 753v92h388v-92h-388z" />
    <glyph glyph-name="amacron" unicode="&#x101;" horiz-adv-x="598" 
d="M398 396v50h144v-446h-144v54c-39 -60 -95 -69 -132 -69c-64 0 -118 16 -167 68c-47 50 -65 108 -65 167c0 75 28 139 69 180c39 39 93 61 155 61c38 0 99 -9 140 -65zM294 337c-31 0 -60 -13 -79 -32c-15 -15 -33 -41 -33 -81s17 -66 30 -80c20 -21 51 -35 85 -35
c29 0 56 12 75 31c19 18 35 46 35 84c0 32 -12 62 -33 82c-22 21 -54 31 -80 31zM109 543v90h380v-90h-380z" />
    <glyph glyph-name="Abreve" unicode="&#x102;" horiz-adv-x="677" 
d="M515 0l-50 126h-252l-51 -126h-160l269 667h141l263 -667h-160zM258 244h165l-82 224zM414 874h96c-2 -18 -11 -70 -46 -105c-36 -36 -89 -44 -126 -44s-90 8 -126 44c-35 35 -44 87 -46 105h96c2 -16 10 -32 19 -42c13 -14 36 -21 57 -21s44 7 57 21c9 10 17 26 19 42z
" />
    <glyph glyph-name="abreve" unicode="&#x103;" horiz-adv-x="598" 
d="M398 396v50h144v-446h-144v54c-39 -60 -95 -69 -132 -69c-64 0 -118 16 -167 68c-47 50 -65 108 -65 167c0 75 28 139 69 180c39 39 93 61 155 61c38 0 99 -9 140 -65zM294 337c-31 0 -60 -13 -79 -32c-15 -15 -33 -41 -33 -81s17 -66 30 -80c20 -21 51 -35 85 -35
c29 0 56 12 75 31c19 18 35 46 35 84c0 32 -12 62 -33 82c-22 21 -54 31 -80 31zM374 664h94c-3 -41 -20 -77 -44 -102c-37 -38 -86 -45 -125 -45s-88 7 -125 45c-24 25 -41 61 -44 102h94c3 -19 12 -33 21 -42c17 -16 39 -19 54 -19s37 3 54 19c9 9 18 23 21 42z" />
    <glyph glyph-name="Aogonek" unicode="&#x104;" horiz-adv-x="677" 
d="M271 667h141l263 -667h-90c-11 -10 -22 -22 -31 -35c-7 -10 -17 -28 -17 -46c0 -9 3 -17 11 -24c7 -6 17 -9 28 -9c25 0 47 13 50 15l-18 -77c-24 -14 -47 -17 -65 -17c-32 0 -55 11 -69 24c-15 14 -23 32 -23 56c0 26 9 45 20 63c13 21 28 37 44 50l-50 126h-252
l-51 -126h-160zM258 244h165l-82 224z" />
    <glyph glyph-name="aogonek" unicode="&#x105;" horiz-adv-x="598" 
d="M398 396v50h144v-446h-40c-8 -8 -21 -21 -27 -28c-12 -14 -19 -30 -19 -44c0 -12 5 -22 12 -28c8 -7 18 -10 29 -10c15 0 34 6 50 15l-18 -77c-24 -14 -47 -17 -66 -17c-21 0 -47 3 -68 24c-15 15 -23 36 -23 56c0 18 6 39 21 61c10 15 28 34 43 48h-38v58
c-39 -66 -104 -73 -139 -73c-67 0 -117 22 -160 68c-47 50 -65 108 -65 167c0 75 28 139 69 180c39 39 93 61 155 61c38 0 99 -9 140 -65zM294 337c-31 0 -60 -13 -79 -32c-15 -15 -33 -41 -33 -81s17 -66 30 -80c20 -21 51 -35 85 -35c29 0 56 12 75 31c19 18 35 46 35 84
c0 32 -12 62 -33 82c-22 21 -54 31 -80 31z" />
    <glyph glyph-name="Cacute" unicode="&#x106;" horiz-adv-x="605" 
d="M555 198v-177c-59 -30 -107 -36 -147 -36c-123 0 -206 42 -262 97c-60 58 -104 146 -104 253c0 105 44 193 104 251c59 57 145 96 249 96c44 0 95 -9 160 -37v-178c-34 36 -85 71 -156 71c-56 0 -101 -18 -136 -52c-37 -36 -63 -90 -63 -154c0 -69 28 -118 58 -147
c14 -14 62 -56 144 -56c40 0 94 11 153 69zM455 925l95 -72l-164 -129l-65 53z" />
    <glyph glyph-name="cacute" unicode="&#x107;" horiz-adv-x="431" 
d="M391 436v-131c-35 29 -71 34 -94 34c-45 0 -72 -22 -82 -32c-19 -19 -33 -48 -33 -84c0 -33 12 -61 30 -80c22 -24 55 -36 87 -36c25 0 59 7 92 35v-130c-38 -21 -74 -27 -114 -27c-75 0 -132 27 -173 67c-34 33 -70 89 -70 170c0 76 32 136 74 176c50 47 109 63 170 63
c39 0 75 -7 113 -25zM332 715l94 -65l-152 -135l-65 48z" />
    <glyph glyph-name="Ccircumflex" unicode="&#x108;" horiz-adv-x="605" 
d="M555 198v-177c-59 -30 -107 -36 -147 -36c-123 0 -206 42 -262 97c-60 58 -104 146 -104 253c0 105 44 193 104 251c59 57 145 96 249 96c44 0 95 -9 160 -37v-178c-34 36 -85 71 -156 71c-56 0 -101 -18 -136 -52c-37 -36 -63 -90 -63 -154c0 -69 28 -118 58 -147
c14 -14 62 -56 144 -56c40 0 94 11 153 69zM250 726l-64 71l188 140l189 -140l-66 -71l-123 93z" />
    <glyph glyph-name="ccircumflex" unicode="&#x109;" horiz-adv-x="431" 
d="M391 436v-131c-35 29 -71 34 -94 34c-45 0 -72 -22 -82 -32c-19 -19 -33 -48 -33 -84c0 -33 12 -61 30 -80c22 -24 55 -36 87 -36c25 0 59 7 92 35v-130c-38 -21 -74 -27 -114 -27c-75 0 -132 27 -173 67c-34 33 -70 89 -70 170c0 76 32 136 74 176c50 47 109 63 170 63
c39 0 75 -7 113 -25zM262 610l-119 -95l-64 69l183 142l184 -142l-66 -69z" />
    <glyph glyph-name="Cdotaccent" unicode="&#x10a;" horiz-adv-x="605" 
d="M555 198v-177c-59 -30 -107 -36 -147 -36c-123 0 -206 42 -262 97c-60 58 -104 146 -104 253c0 105 44 193 104 251c59 57 145 96 249 96c44 0 95 -9 160 -37v-178c-34 36 -85 71 -156 71c-56 0 -101 -18 -136 -52c-37 -36 -63 -90 -63 -154c0 -69 28 -118 58 -147
c14 -14 62 -56 144 -56c40 0 94 11 153 69zM294 815c0 48 37 85 85 85s85 -37 85 -85s-37 -85 -85 -85s-85 37 -85 85z" />
    <glyph glyph-name="cdotaccent" unicode="&#x10b;" horiz-adv-x="431" 
d="M391 436v-131c-35 29 -71 34 -94 34c-45 0 -72 -22 -82 -32c-19 -19 -33 -48 -33 -84c0 -33 12 -61 30 -80c22 -24 55 -36 87 -36c25 0 59 7 92 35v-130c-38 -21 -74 -27 -114 -27c-75 0 -132 27 -173 67c-34 33 -70 89 -70 170c0 76 32 136 74 176c50 47 109 63 170 63
c39 0 75 -7 113 -25zM187 603c0 47 36 83 83 83s83 -36 83 -83s-36 -83 -83 -83s-83 36 -83 83z" />
    <glyph glyph-name="Ccaron" unicode="&#x10c;" horiz-adv-x="605" 
d="M555 198v-177c-59 -30 -107 -36 -147 -36c-123 0 -206 42 -262 97c-60 58 -104 146 -104 253c0 105 44 193 104 251c59 57 145 96 249 96c44 0 95 -9 160 -37v-178c-34 36 -85 71 -156 71c-56 0 -101 -18 -136 -52c-37 -36 -63 -90 -63 -154c0 -69 28 -118 58 -147
c14 -14 62 -56 144 -56c40 0 94 11 153 69zM379 844l123 93l66 -70l-189 -141l-188 141l64 70z" />
    <glyph glyph-name="ccaron" unicode="&#x10d;" horiz-adv-x="431" 
d="M391 436v-131c-35 29 -71 34 -94 34c-45 0 -72 -22 -82 -32c-19 -19 -33 -48 -33 -84c0 -33 12 -61 30 -80c22 -24 55 -36 87 -36c25 0 59 7 92 35v-130c-38 -21 -74 -27 -114 -27c-75 0 -132 27 -173 67c-34 33 -70 89 -70 170c0 76 32 136 74 176c50 47 109 63 170 63
c39 0 75 -7 113 -25zM264 631l118 95l66 -68l-184 -143l-183 143l64 68z" />
    <glyph glyph-name="Dcaron" unicode="&#x10e;" horiz-adv-x="685" 
d="M73 667h211c88 0 181 -13 263 -92c59 -57 96 -135 96 -239c0 -105 -36 -181 -91 -236c-92 -93 -207 -100 -263 -100h-216v667zM227 537v-407h41c32 0 102 3 152 45c36 30 65 87 65 161c0 72 -29 118 -55 144c-50 50 -115 57 -162 57h-41zM303 844l123 93l66 -70
l-189 -141l-188 141l64 70z" />
    <glyph glyph-name="dcaron" unicode="&#x10f;" horiz-adv-x="781" 
d="M542 729v-729h-144v54c-22 -32 -62 -69 -141 -69c-66 0 -114 21 -153 61c-46 46 -70 110 -70 179c0 74 27 135 70 176c39 37 94 60 155 60c49 0 103 -16 139 -65v333h144zM294 337c-29 0 -54 -8 -77 -30c-21 -20 -35 -49 -35 -85c0 -33 14 -62 35 -82
c22 -21 50 -31 75 -31c27 0 59 11 82 33c17 16 33 43 33 80c0 38 -15 64 -32 82c-23 24 -50 33 -81 33zM590 492l70 208l130 -30l-112 -198z" />
    <glyph glyph-name="Dcroat" unicode="&#x110;" horiz-adv-x="712" 
d="M100 413v254h211c88 0 181 -13 263 -92c59 -57 96 -135 96 -239c0 -105 -36 -181 -91 -236c-92 -93 -207 -100 -263 -100h-216v303h-90v110h90zM254 537v-124h120v-110h-120v-173h41c32 0 102 3 152 45c36 30 65 87 65 161c0 72 -29 118 -55 144c-50 50 -115 57 -162 57
h-41z" />
    <glyph glyph-name="dcroat" unicode="&#x111;" horiz-adv-x="612" 
d="M542 729v-93h80v-94h-80v-542h-144v54c-22 -32 -62 -69 -141 -69c-66 0 -114 21 -153 61c-46 46 -70 110 -70 179c0 74 27 135 70 176c39 37 94 60 155 60c49 0 103 -16 139 -65v146h-192v94h192v93h144zM294 337c-29 0 -54 -8 -77 -30c-21 -20 -35 -49 -35 -85
c0 -33 14 -62 35 -82c22 -21 50 -31 75 -31c27 0 59 11 82 33c17 16 33 43 33 80c0 38 -15 64 -32 82c-23 24 -50 33 -81 33z" />
    <glyph glyph-name="Emacron" unicode="&#x112;" horiz-adv-x="502" 
d="M450 667v-130h-223v-129h212v-130h-212v-148h223v-130h-377v667h377zM61 753v92h388v-92h-388z" />
    <glyph glyph-name="emacron" unicode="&#x113;" horiz-adv-x="547" 
d="M185 284h195c-1 4 -8 32 -29 52c-16 15 -39 25 -68 25c-37 0 -59 -15 -73 -29c-11 -12 -21 -28 -25 -48zM513 213v-15h-333c0 -24 9 -56 27 -76c22 -24 52 -28 74 -28c21 0 43 4 58 13c2 1 19 12 31 37l136 -14c-20 -63 -60 -96 -86 -112c-43 -26 -91 -33 -141 -33
c-67 0 -126 12 -178 64c-39 39 -67 98 -67 172c0 64 23 130 68 176c54 54 121 64 171 64s122 -9 177 -67c53 -56 63 -126 63 -181zM83 543v90h380v-90h-380z" />
    <glyph glyph-name="Edotaccent" unicode="&#x116;" horiz-adv-x="502" 
d="M450 667v-130h-223v-129h212v-130h-212v-148h223v-130h-377v667h377zM170 815c0 48 37 85 85 85s85 -37 85 -85s-37 -85 -85 -85s-85 37 -85 85z" />
    <glyph glyph-name="edotaccent" unicode="&#x117;" horiz-adv-x="547" 
d="M185 284h195c-1 4 -8 32 -29 52c-16 15 -39 25 -68 25c-37 0 -59 -15 -73 -29c-11 -12 -21 -28 -25 -48zM513 213v-15h-333c0 -24 9 -56 27 -76c22 -24 52 -28 74 -28c21 0 43 4 58 13c2 1 19 12 31 37l136 -14c-20 -63 -60 -96 -86 -112c-43 -26 -91 -33 -141 -33
c-67 0 -126 12 -178 64c-39 39 -67 98 -67 172c0 64 23 130 68 176c54 54 121 64 171 64s122 -9 177 -67c53 -56 63 -126 63 -181zM183 603c0 47 36 83 83 83s83 -36 83 -83s-36 -83 -83 -83s-83 36 -83 83z" />
    <glyph glyph-name="Eogonek" unicode="&#x118;" horiz-adv-x="502" 
d="M450 667v-130h-223v-129h212v-130h-212v-148h223v-130h-40c-11 -10 -22 -22 -31 -35c-7 -10 -17 -28 -17 -46c0 -9 3 -17 11 -24c7 -6 17 -9 28 -9c25 0 47 13 50 15l-18 -77c-24 -14 -47 -17 -65 -17c-32 0 -55 11 -69 24c-15 14 -23 32 -23 56c0 26 9 45 20 63
c13 21 28 37 44 50h-267v667h377z" />
    <glyph glyph-name="eogonek" unicode="&#x119;" horiz-adv-x="547" 
d="M185 284h195c-1 4 -8 32 -29 52c-16 15 -39 25 -68 25c-37 0 -59 -15 -73 -29c-11 -12 -21 -28 -25 -48zM513 213v-15h-333c1 -28 12 -59 27 -76c13 -14 35 -28 76 -28c35 0 52 10 56 13c2 1 19 12 31 37l136 -14c-7 -30 -21 -54 -43 -76s-42 -33 -62 -44
c-31 -17 -48 -28 -59 -40s-18 -28 -18 -42c0 -12 5 -22 12 -28c8 -7 18 -10 29 -10c15 0 34 6 50 15l-18 -77c-24 -14 -47 -17 -66 -17c-21 0 -47 3 -68 24c-16 15 -23 36 -23 56c0 21 7 39 17 55c9 15 20 28 33 39c-79 0 -138 13 -189 64c-39 40 -67 99 -67 169
c0 67 23 134 68 179c54 54 121 64 173 64c62 0 126 -16 175 -67c53 -56 63 -126 63 -181z" />
    <glyph glyph-name="Ecaron" unicode="&#x11a;" horiz-adv-x="502" 
d="M450 667v-130h-223v-129h212v-130h-212v-148h223v-130h-377v667h377zM254 844l123 93l66 -70l-189 -141l-188 141l64 70z" />
    <glyph glyph-name="ecaron" unicode="&#x11b;" horiz-adv-x="547" 
d="M185 284h195c-1 4 -8 32 -29 52c-16 15 -39 25 -68 25c-37 0 -59 -15 -73 -29c-11 -12 -21 -28 -25 -48zM513 213v-15h-333c0 -24 9 -56 27 -76c22 -24 52 -28 74 -28c21 0 43 4 58 13c2 1 19 12 31 37l136 -14c-20 -63 -60 -96 -86 -112c-43 -26 -91 -33 -141 -33
c-67 0 -126 12 -178 64c-39 39 -67 98 -67 172c0 64 23 130 68 176c54 54 121 64 171 64s122 -9 177 -67c53 -56 63 -126 63 -181zM273 631l118 95l66 -68l-184 -143l-183 143l64 68z" />
    <glyph glyph-name="Gcircumflex" unicode="&#x11c;" horiz-adv-x="767" 
d="M394 240v124h331v-7c0 -81 -29 -204 -103 -281s-159 -91 -238 -91c-80 0 -166 13 -244 93c-39 40 -98 121 -98 254c0 109 40 196 96 253c82 85 183 97 262 97c55 0 125 -9 187 -50c45 -30 84 -77 108 -119l-139 -75c-13 26 -33 53 -59 72c-30 22 -64 32 -102 32
c-61 0 -106 -20 -138 -54c-37 -39 -57 -96 -57 -158c0 -76 28 -125 56 -153c39 -40 84 -52 135 -52c66 0 101 23 116 36c5 4 35 30 48 79h-161zM259 726l-64 71l188 140l189 -140l-66 -71l-123 93z" />
    <glyph glyph-name="gcircumflex" unicode="&#x11d;" horiz-adv-x="595" 
d="M395 394v52h144v-419c0 -63 -3 -134 -55 -190c-55 -59 -139 -66 -188 -66c-59 0 -130 9 -186 57c-28 24 -57 62 -67 118h157c6 -23 20 -36 32 -44c17 -11 41 -15 62 -15c41 0 62 15 72 24c28 27 29 74 29 93v51c-17 -28 -51 -67 -133 -67c-69 0 -122 22 -163 63
c-36 37 -65 91 -65 168c0 76 28 139 66 178c27 28 79 64 162 64c81 0 117 -43 133 -67zM295 336c-32 0 -61 -12 -79 -29c-22 -21 -34 -56 -34 -83c0 -29 11 -59 31 -80s47 -32 81 -32c38 0 63 15 78 29c22 21 35 52 35 85c0 35 -15 64 -34 82c-21 19 -52 28 -78 28zM297 610
l-119 -95l-64 69l183 142l184 -142l-66 -69z" />
    <glyph glyph-name="Gbreve" unicode="&#x11e;" horiz-adv-x="767" 
d="M394 240v124h331v-7c0 -81 -29 -204 -103 -281s-159 -91 -238 -91c-80 0 -166 13 -244 93c-39 40 -98 121 -98 254c0 109 40 196 96 253c82 85 183 97 262 97c55 0 125 -9 187 -50c45 -30 84 -77 108 -119l-139 -75c-13 26 -33 53 -59 72c-30 22 -64 32 -102 32
c-61 0 -106 -20 -138 -54c-37 -39 -57 -96 -57 -158c0 -76 28 -125 56 -153c39 -40 84 -52 135 -52c66 0 101 23 116 36c5 4 35 30 48 79h-161zM459 874h96c-2 -18 -11 -70 -46 -105c-36 -36 -89 -44 -126 -44s-90 8 -126 44c-35 35 -44 87 -46 105h96c2 -16 10 -32 19 -42
c13 -14 36 -21 57 -21s44 7 57 21c9 10 17 26 19 42z" />
    <glyph glyph-name="gbreve" unicode="&#x11f;" horiz-adv-x="595" 
d="M395 394v52h144v-419c0 -63 -3 -134 -55 -190c-55 -59 -139 -66 -188 -66c-59 0 -130 9 -186 57c-28 24 -57 62 -67 118h157c6 -23 20 -36 32 -44c17 -11 41 -15 62 -15c41 0 62 15 72 24c28 27 29 74 29 93v51c-17 -28 -51 -67 -133 -67c-69 0 -122 22 -163 63
c-36 37 -65 91 -65 168c0 76 28 139 66 178c27 28 79 64 162 64c81 0 117 -43 133 -67zM295 336c-32 0 -61 -12 -79 -29c-22 -21 -34 -56 -34 -83c0 -29 11 -59 31 -80s47 -32 81 -32c38 0 63 15 78 29c22 21 35 52 35 85c0 35 -15 64 -34 82c-21 19 -52 28 -78 28zM372 664
h94c-3 -41 -20 -77 -44 -102c-37 -38 -86 -45 -125 -45s-88 7 -125 45c-24 25 -41 61 -44 102h94c3 -19 12 -33 21 -42c17 -16 39 -19 54 -19s37 3 54 19c9 9 18 23 21 42z" />
    <glyph glyph-name="Gdotaccent" unicode="&#x120;" horiz-adv-x="767" 
d="M394 240v124h331v-7c0 -81 -29 -204 -103 -281s-159 -91 -238 -91c-80 0 -166 13 -244 93c-39 40 -98 121 -98 254c0 109 40 196 96 253c82 85 183 97 262 97c55 0 125 -9 187 -50c45 -30 84 -77 108 -119l-139 -75c-13 26 -33 53 -59 72c-30 22 -64 32 -102 32
c-61 0 -106 -20 -138 -54c-37 -39 -57 -96 -57 -158c0 -76 28 -125 56 -153c39 -40 84 -52 135 -52c66 0 101 23 116 36c5 4 35 30 48 79h-161zM298 815c0 48 37 85 85 85s85 -37 85 -85s-37 -85 -85 -85s-85 37 -85 85z" />
    <glyph glyph-name="gdotaccent" unicode="&#x121;" horiz-adv-x="595" 
d="M395 394v52h144v-419c0 -63 -3 -134 -55 -190c-55 -59 -139 -66 -188 -66c-59 0 -130 9 -186 57c-28 24 -57 62 -67 118h157c6 -23 20 -36 32 -44c17 -11 41 -15 62 -15c41 0 62 15 72 24c28 27 29 74 29 93v51c-17 -28 -51 -67 -133 -67c-69 0 -122 22 -163 63
c-36 37 -65 91 -65 168c0 76 28 139 66 178c27 28 79 64 162 64c81 0 117 -43 133 -67zM295 336c-32 0 -61 -12 -79 -29c-22 -21 -34 -56 -34 -83c0 -29 11 -59 31 -80s47 -32 81 -32c38 0 63 15 78 29c22 21 35 52 35 85c0 35 -15 64 -34 82c-21 19 -52 28 -78 28zM195 603
c0 47 36 83 83 83s83 -36 83 -83s-36 -83 -83 -83s-83 36 -83 83z" />
    <glyph glyph-name="Gcommaaccent" unicode="&#x122;" horiz-adv-x="767" 
d="M394 240v124h331v-7c0 -81 -29 -204 -103 -281s-159 -91 -238 -91c-80 0 -166 13 -244 93c-39 40 -98 121 -98 254c0 109 40 196 96 253c82 85 183 97 262 97c55 0 125 -9 187 -50c45 -30 84 -77 108 -119l-139 -75c-13 26 -33 53 -59 72c-30 22 -64 32 -102 32
c-61 0 -106 -20 -138 -54c-37 -39 -57 -96 -57 -158c0 -76 28 -125 56 -153c39 -40 84 -52 135 -52c66 0 101 23 116 36c5 4 35 30 48 79h-161zM260 -248l56 198l134 -16l-98 -194z" />
    <glyph glyph-name="gcommaaccent" unicode="&#x123;" horiz-adv-x="595" 
d="M395 394v52h144v-419c0 -63 -3 -134 -55 -190c-55 -59 -139 -66 -188 -66c-59 0 -130 9 -186 57c-28 24 -57 62 -67 118h157c6 -23 20 -36 32 -44c17 -11 41 -15 62 -15c41 0 62 15 72 24c28 27 29 74 29 93v51c-17 -28 -51 -67 -133 -67c-69 0 -122 22 -163 63
c-36 37 -65 91 -65 168c0 76 28 139 66 178c27 28 79 64 162 64c81 0 117 -43 133 -67zM295 336c-32 0 -61 -12 -79 -29c-22 -21 -34 -56 -34 -83c0 -29 11 -59 31 -80s47 -32 81 -32c38 0 63 15 78 29c22 21 35 52 35 85c0 35 -15 64 -34 82c-21 19 -52 28 -78 28zM398 690
l-56 -188l-134 16l98 184z" />
    <glyph glyph-name="Hcircumflex" unicode="&#x124;" horiz-adv-x="720" 
d="M227 667v-254h266v254h154v-667h-154v283h-266v-283h-154v667h154zM236 726l-64 71l188 140l189 -140l-66 -71l-123 93z" />
    <glyph glyph-name="hcircumflex" unicode="&#x125;" horiz-adv-x="571" 
d="M60 0v729h144v-336c18 22 37 37 54 46c30 16 55 19 87 19c35 0 87 -5 126 -45c41 -41 44 -96 44 -130v-283h-144v229c0 31 -1 67 -24 89c-13 13 -35 20 -56 20c-31 0 -49 -14 -57 -22c-29 -28 -30 -71 -30 -93v-223h-144zM132 843l-119 -95l-64 69l183 142l184 -142
l-66 -69z" />
    <glyph glyph-name="Hbar" unicode="&#x126;" horiz-adv-x="720" 
d="M227 667v-53h266v53h154v-53h60v-106h-60v-508h-154v283h-266v-283h-154v508h-60v106h60v53h154zM493 508h-266v-95h266v95z" />
    <glyph glyph-name="hbar" unicode="&#x127;" horiz-adv-x="581" 
d="M70 0v542h-80v94h80v93h144v-93h192v-94h-192v-149c18 22 37 37 54 46c30 16 55 19 87 19c35 0 87 -5 126 -45c41 -41 44 -96 44 -130v-283h-144v229c0 31 -1 67 -24 89c-13 13 -35 20 -56 20c-31 0 -49 -14 -57 -22c-29 -28 -30 -71 -30 -93v-223h-144z" />
    <glyph glyph-name="Imacron" unicode="&#x12a;" horiz-adv-x="306" 
d="M76 667h154v-667h-154v667zM-45 753v92h388v-92h-388z" />
    <glyph glyph-name="imacron" unicode="&#x12b;" horiz-adv-x="276" 
d="M66 446h144v-446h-144v446zM0 543v90h276v-90h-276z" />
    <glyph glyph-name="Iogonek" unicode="&#x12e;" horiz-adv-x="306" 
d="M76 667h154v-667c-11 -10 -22 -22 -31 -35c-7 -10 -17 -28 -17 -46c0 -9 3 -17 11 -24c7 -6 17 -9 28 -9c25 0 47 13 50 15l-18 -77c-24 -14 -47 -17 -65 -17c-32 0 -55 11 -69 24c-15 14 -23 32 -23 56c0 26 9 45 20 63c13 21 28 37 44 50h-84v667z" />
    <glyph glyph-name="iogonek" unicode="&#x12f;" horiz-adv-x="276" 
d="M66 446h144v-446c-8 -8 -21 -21 -27 -28c-12 -14 -19 -30 -19 -44c0 -12 5 -22 12 -28c8 -7 18 -10 29 -10c15 0 34 6 50 15l-18 -77c-24 -14 -47 -17 -66 -17c-21 0 -47 3 -68 24c-15 15 -23 36 -23 56c0 18 6 39 21 61c12 17 30 36 43 48h-78v446zM54 636
c0 47 37 84 84 84s84 -37 84 -84s-37 -84 -84 -84s-84 37 -84 84z" />
    <glyph glyph-name="Idotaccent" unicode="&#x130;" horiz-adv-x="306" 
d="M76 667h154v-667h-154v667zM68 815c0 48 37 85 85 85s85 -37 85 -85s-37 -85 -85 -85s-85 37 -85 85z" />
    <glyph glyph-name="dotlessi" unicode="&#x131;" horiz-adv-x="276" 
d="M66 446h144v-446h-144v446z" />
    <glyph glyph-name="Jcircumflex" unicode="&#x134;" horiz-adv-x="415" 
d="M188 667h154v-454c0 -50 -3 -124 -58 -178c-44 -44 -98 -50 -141 -50c-36 0 -71 3 -106 24c-21 13 -46 35 -63 56l96 108c6 -12 16 -29 24 -37c11 -11 23 -15 38 -15c13 0 25 3 36 14c19 19 20 51 20 79v453zM143 726l-64 71l188 140l189 -140l-66 -71l-123 93z" />
    <glyph glyph-name="jcircumflex" unicode="&#x135;" horiz-adv-x="276" 
d="M66 446h144v-675h-144v675zM138 602l-94 -87l-65 69l159 142l159 -142l-66 -69z" />
    <glyph glyph-name="Kcommaaccent" unicode="&#x136;" horiz-adv-x="670" 
d="M227 667v-278l228 278h188l-270 -316l291 -351h-198l-239 296v-296h-154v667h154zM220 -248l56 198l134 -16l-98 -194z" />
    <glyph glyph-name="kcommaaccent" unicode="&#x137;" horiz-adv-x="566" 
d="M60 729h144v-447l162 164h189l-212 -202l227 -244h-194l-172 192v-192h-144v729zM190 -238l56 188l134 -16l-98 -184z" />
    <glyph glyph-name="Lacute" unicode="&#x139;" horiz-adv-x="448" 
d="M73 667h154v-537h207v-130h-361v667zM205 925l95 -72l-164 -129l-65 53z" />
    <glyph glyph-name="lacute" unicode="&#x13a;" horiz-adv-x="264" 
d="M60 729h144v-729h-144v729zM197 955l94 -65l-152 -135l-65 48z" />
    <glyph glyph-name="Lcommaaccent" unicode="&#x13b;" horiz-adv-x="448" 
d="M73 667h154v-537h207v-130h-361v667zM130 -248l56 198l134 -16l-98 -194z" />
    <glyph glyph-name="lcommaaccent" unicode="&#x13c;" horiz-adv-x="264" 
d="M60 729h144v-729h-144v729zM20 -238l56 188l134 -16l-98 -184z" />
    <glyph glyph-name="Lcaron" unicode="&#x13d;" horiz-adv-x="448" 
d="M73 667h154v-537h207v-130h-361v667zM280 472l70 208l130 -30l-112 -198z" />
    <glyph glyph-name="lcaron" unicode="&#x13e;" horiz-adv-x="441" 
d="M60 729h144v-729h-144v729zM250 492l70 208l130 -30l-112 -198z" />
    <glyph glyph-name="Ldot" unicode="&#x13f;" horiz-adv-x="448" 
d="M73 667h154v-537h207v-130h-361v667zM293 334c0 48 37 85 85 85s85 -37 85 -85s-37 -85 -85 -85s-85 37 -85 85z" />
    <glyph glyph-name="ldot" unicode="&#x140;" horiz-adv-x="434" 
d="M60 729h144v-729h-144v729zM266 364c0 47 36 83 83 83s83 -36 83 -83s-36 -83 -83 -83s-83 36 -83 83z" />
    <glyph glyph-name="Lslash" unicode="&#x141;" horiz-adv-x="471" 
d="M96 0v258l-86 -55v120l86 55v289h154v-226l102 65v-120l-102 -65v-191h207v-130h-361z" />
    <glyph glyph-name="lslash" unicode="&#x142;" horiz-adv-x="272" 
d="M64 449v280h144v-213l80 54v-106l-80 -54v-410h-144v343l-80 -54v106z" />
    <glyph glyph-name="Nacute" unicode="&#x143;" horiz-adv-x="796" 
d="M227 0h-154v667h134l362 -430v430h154v-667h-134l-362 432v-432zM453 925l95 -72l-164 -129l-65 53z" />
    <glyph glyph-name="nacute" unicode="&#x144;" horiz-adv-x="567" 
d="M56 0v446h144v-53c44 56 96 65 138 65c39 0 90 -7 128 -45c42 -42 45 -95 45 -131v-282h-144v229c0 29 -1 66 -24 89c-11 11 -29 20 -55 20c-30 0 -49 -12 -60 -24c-24 -24 -28 -56 -28 -85v-229h-144zM357 715l94 -65l-152 -135l-65 48z" />
    <glyph glyph-name="Ncommaaccent" unicode="&#x145;" horiz-adv-x="796" 
d="M227 0h-154v667h134l362 -430v430h154v-667h-134l-362 432v-432zM284 -248l56 198l134 -16l-98 -194z" />
    <glyph glyph-name="ncommaaccent" unicode="&#x146;" horiz-adv-x="567" 
d="M56 0v446h144v-53c44 56 96 65 138 65c39 0 90 -7 128 -45c42 -42 45 -95 45 -131v-282h-144v229c0 29 -1 66 -24 89c-11 11 -29 20 -55 20c-30 0 -49 -12 -60 -24c-24 -24 -28 -56 -28 -85v-229h-144zM185 -238l56 188l134 -16l-98 -184z" />
    <glyph glyph-name="Ncaron" unicode="&#x147;" horiz-adv-x="796" 
d="M227 0h-154v667h134l362 -430v430h154v-667h-134l-362 432v-432zM388 844l123 93l66 -70l-189 -141l-188 141l64 70z" />
    <glyph glyph-name="ncaron" unicode="&#x148;" horiz-adv-x="567" 
d="M56 0v446h144v-53c44 56 96 65 138 65c39 0 90 -7 128 -45c42 -42 45 -95 45 -131v-282h-144v229c0 29 -1 66 -24 89c-11 11 -29 20 -55 20c-30 0 -49 -12 -60 -24c-24 -24 -28 -56 -28 -85v-229h-144zM279 631l118 95l66 -68l-184 -143l-183 143l64 68z" />
    <glyph glyph-name="Omacron" unicode="&#x14c;" horiz-adv-x="810" 
d="M406 682c104 0 191 -32 258 -97c63 -61 104 -149 104 -252c0 -89 -32 -180 -104 -250c-62 -60 -146 -98 -258 -98c-125 0 -210 50 -260 98c-64 60 -104 150 -104 248c0 96 43 193 103 253c45 45 128 98 261 98zM405 540c-58 0 -110 -21 -146 -57
c-29 -28 -59 -77 -59 -151c0 -61 20 -110 61 -150c43 -41 91 -55 143 -55c68 0 116 25 148 57c26 25 58 72 58 149c0 69 -28 120 -58 150c-33 32 -86 57 -147 57zM207 753v92h388v-92h-388z" />
    <glyph glyph-name="omacron" unicode="&#x14d;" horiz-adv-x="592" 
d="M558 223c0 -57 -22 -121 -67 -166c-40 -40 -108 -72 -195 -72s-155 32 -195 72c-45 45 -67 109 -67 166s22 121 67 166c40 40 108 72 195 72s155 -32 195 -72c45 -45 67 -109 67 -166zM296 339c-33 0 -60 -11 -81 -32s-33 -48 -33 -84c0 -41 16 -67 33 -84
c18 -18 44 -32 82 -32c32 0 59 11 80 32s33 48 33 84s-12 63 -33 84s-48 32 -81 32zM98 543v90h380v-90h-380z" />
    <glyph glyph-name="Obreve" unicode="&#x14e;" horiz-adv-x="810" 
d="M406 682c104 0 191 -32 258 -97c63 -61 104 -149 104 -252c0 -89 -32 -180 -104 -250c-62 -60 -146 -98 -258 -98c-125 0 -210 50 -260 98c-64 60 -104 150 -104 248c0 96 43 193 103 253c45 45 128 98 261 98zM405 540c-58 0 -110 -21 -146 -57
c-29 -28 -59 -77 -59 -151c0 -61 20 -110 61 -150c43 -41 91 -55 143 -55c68 0 116 25 148 57c26 25 58 72 58 149c0 69 -28 120 -58 150c-33 32 -86 57 -147 57zM481 874h96c-2 -18 -11 -70 -46 -105c-36 -36 -89 -44 -126 -44s-90 8 -126 44c-35 35 -44 87 -46 105h96
c2 -16 10 -32 19 -42c13 -14 36 -21 57 -21s44 7 57 21c9 10 17 26 19 42z" />
    <glyph glyph-name="obreve" unicode="&#x14f;" horiz-adv-x="592" 
d="M558 223c0 -57 -22 -121 -67 -166c-40 -40 -108 -72 -195 -72s-155 32 -195 72c-45 45 -67 109 -67 166s22 121 67 166c40 40 108 72 195 72s155 -32 195 -72c45 -45 67 -109 67 -166zM296 339c-33 0 -60 -11 -81 -32s-33 -48 -33 -84c0 -41 16 -67 33 -84
c18 -18 44 -32 82 -32c32 0 59 11 80 32s33 48 33 84s-12 63 -33 84s-48 32 -81 32zM371 664h94c-3 -41 -20 -77 -44 -102c-37 -38 -86 -45 -125 -45s-88 7 -125 45c-24 25 -41 61 -44 102h94c3 -19 12 -33 21 -42c17 -16 39 -19 54 -19s37 3 54 19c9 9 18 23 21 42z" />
    <glyph glyph-name="Ohungarumlaut" unicode="&#x150;" horiz-adv-x="810" 
d="M406 682c104 0 191 -32 258 -97c63 -61 104 -149 104 -252c0 -89 -32 -180 -104 -250c-62 -60 -146 -98 -258 -98c-125 0 -210 50 -260 98c-64 60 -104 150 -104 248c0 96 43 193 103 253c45 45 128 98 261 98zM405 540c-58 0 -110 -21 -146 -57
c-29 -28 -59 -77 -59 -151c0 -61 20 -110 61 -150c43 -41 91 -55 143 -55c68 0 116 25 148 57c26 25 58 72 58 149c0 69 -28 120 -58 150c-33 32 -86 57 -147 57zM360 925l86 -66l-140 -135l-55 48zM546 925l87 -66l-140 -135l-56 48z" />
    <glyph glyph-name="ohungarumlaut" unicode="&#x151;" horiz-adv-x="592" 
d="M558 223c0 -57 -22 -121 -67 -166c-40 -40 -108 -72 -195 -72s-155 32 -195 72c-45 45 -67 109 -67 166s22 121 67 166c40 40 108 72 195 72s155 -32 195 -72c45 -45 67 -109 67 -166zM296 339c-33 0 -60 -11 -81 -32s-33 -48 -33 -84c0 -41 16 -67 33 -84
c18 -18 44 -32 82 -32c32 0 59 11 80 32s33 48 33 84s-12 63 -33 84s-48 32 -81 32zM250 710l82 -66l-134 -135l-52 48zM430 709l83 -65l-134 -135l-53 48z" />
    <glyph glyph-name="OE" unicode="&#x152;" horiz-adv-x="1032" 
d="M980 667v-130h-217v-129h206v-130h-206v-148h217v-130h-369v82c-79 -91 -172 -97 -224 -97c-102 0 -173 28 -238 91c-86 84 -107 184 -107 255c0 92 34 187 108 258c59 56 139 93 247 93c55 0 146 -12 214 -95v80h369zM400 540c-56 0 -104 -22 -139 -55
c-20 -19 -61 -68 -61 -152c0 -75 33 -124 61 -151c35 -33 83 -55 139 -55s104 22 139 55c28 27 61 76 61 151c0 84 -41 133 -61 152c-35 33 -83 55 -139 55z" />
    <glyph glyph-name="oe" unicode="&#x153;" horiz-adv-x="904" 
d="M732 144l132 -9c-13 -51 -41 -87 -78 -112c-48 -33 -101 -38 -144 -38c-57 0 -132 10 -181 82c-55 -73 -129 -82 -182 -82c-58 0 -119 9 -176 64c-47 45 -69 101 -69 169c0 78 28 139 67 177c42 42 107 66 183 66c112 0 161 -49 182 -73c20 25 66 73 170 73
c90 0 143 -33 171 -62c57 -58 63 -135 63 -189v-12h-330c2 -28 14 -59 29 -76c24 -26 55 -28 74 -28c59 0 80 29 89 50zM289 339c-32 0 -56 -13 -72 -28c-17 -16 -35 -44 -35 -88c0 -38 14 -68 34 -88c16 -15 40 -28 73 -28s57 13 73 28c20 20 34 50 34 88
c0 44 -18 72 -35 88c-16 15 -40 28 -72 28zM544 284h195c-1 4 -8 32 -29 52c-16 15 -39 25 -68 25c-37 0 -59 -15 -73 -29c-11 -12 -21 -28 -25 -48z" />
    <glyph glyph-name="Racute" unicode="&#x154;" horiz-adv-x="607" 
d="M73 667h234c85 0 138 -28 170 -58c28 -27 58 -75 58 -149c0 -42 -9 -94 -52 -136c-23 -22 -56 -42 -93 -51l205 -273h-188l-180 263v-263h-154v667zM227 547v-183h35c28 0 66 3 92 29c11 11 25 32 25 65c0 38 -18 58 -31 68c-25 19 -65 21 -85 21h-36zM349 925l95 -72
l-164 -129l-65 53z" />
    <glyph glyph-name="racute" unicode="&#x155;" horiz-adv-x="384" 
d="M56 0v446h144v-70c13 25 33 48 56 62c24 15 49 19 77 19c18 0 31 -2 47 -7l-8 -135c-19 10 -40 16 -65 16c-31 0 -54 -11 -72 -30c-32 -34 -35 -82 -35 -120v-181h-144zM267 715l94 -65l-152 -135l-65 48z" />
    <glyph glyph-name="Rcommaaccent" unicode="&#x156;" horiz-adv-x="607" 
d="M73 667h234c85 0 138 -28 170 -58c28 -27 58 -75 58 -149c0 -42 -9 -94 -52 -136c-23 -22 -56 -42 -93 -51l205 -273h-188l-180 263v-263h-154v667zM227 547v-183h35c28 0 66 3 92 29c11 11 25 32 25 65c0 38 -18 58 -31 68c-25 19 -65 21 -85 21h-36zM200 -248l56 198
l134 -16l-98 -194z" />
    <glyph glyph-name="rcommaaccent" unicode="&#x157;" horiz-adv-x="384" 
d="M56 0v446h144v-70c13 25 33 48 56 62c24 15 49 19 77 19c18 0 31 -2 47 -7l-8 -135c-19 10 -40 16 -65 16c-31 0 -54 -11 -72 -30c-32 -34 -35 -82 -35 -120v-181h-144zM90 -238l56 188l134 -16l-98 -184z" />
    <glyph glyph-name="Rcaron" unicode="&#x158;" horiz-adv-x="607" 
d="M73 667h234c85 0 138 -28 170 -58c28 -27 58 -75 58 -149c0 -42 -9 -94 -52 -136c-23 -22 -56 -42 -93 -51l205 -273h-188l-180 263v-263h-154v667zM227 547v-183h35c28 0 66 3 92 29c11 11 25 32 25 65c0 38 -18 58 -31 68c-25 19 -65 21 -85 21h-36zM284 844l123 93
l66 -70l-189 -141l-188 141l64 70z" />
    <glyph glyph-name="rcaron" unicode="&#x159;" horiz-adv-x="384" 
d="M56 0v446h144v-70c13 25 33 48 56 62c24 15 49 19 77 19c18 0 31 -2 47 -7l-8 -135c-19 10 -40 16 -65 16c-31 0 -54 -11 -72 -30c-32 -34 -35 -82 -35 -120v-181h-144zM208 631l118 95l66 -68l-184 -143l-183 143l64 68z" />
    <glyph glyph-name="Sacute" unicode="&#x15a;" horiz-adv-x="550" 
d="M486 616l-69 -112c-50 45 -93 48 -112 48c-21 0 -47 -3 -65 -23c-10 -10 -17 -25 -17 -42c0 -16 5 -28 15 -37c16 -15 39 -21 84 -38l50 -19c29 -11 65 -26 91 -51c39 -37 49 -85 49 -124c0 -69 -24 -129 -59 -165c-59 -62 -145 -68 -189 -68c-48 0 -90 7 -132 28
c-34 17 -73 48 -98 73l80 110c17 -17 44 -40 62 -51c26 -16 53 -24 84 -24c20 0 48 4 70 23c13 11 24 29 24 54c0 22 -9 36 -23 48c-18 15 -59 30 -78 37l-55 19c-31 11 -67 25 -93 53c-35 37 -40 84 -40 116c0 59 18 109 58 150c47 48 103 61 165 61c46 0 120 -8 198 -66z
M360 925l95 -72l-164 -129l-65 53z" />
    <glyph glyph-name="sacute" unicode="&#x15b;" horiz-adv-x="434" 
d="M386 423l-57 -91c-22 13 -51 25 -79 25c-15 0 -32 -4 -41 -13c-5 -5 -9 -13 -9 -20c0 -10 7 -16 14 -20c10 -6 25 -9 43 -15l38 -12c25 -8 51 -18 74 -39c26 -24 35 -51 35 -85c0 -59 -26 -97 -46 -117c-44 -44 -98 -51 -145 -51c-60 0 -125 13 -183 64l61 97
c14 -12 34 -26 49 -33c20 -10 41 -14 60 -14c9 0 32 0 45 10c9 7 15 18 15 29c0 8 -3 18 -16 26c-10 6 -23 10 -44 16l-36 11c-26 8 -53 22 -72 41c-21 22 -32 47 -32 81c0 43 17 79 43 103c40 37 94 45 135 45c66 0 112 -17 148 -38zM287 715l94 -65l-152 -135l-65 48z" />
    <glyph glyph-name="Scircumflex" unicode="&#x15c;" horiz-adv-x="550" 
d="M486 616l-69 -112c-50 45 -93 48 -112 48c-21 0 -47 -3 -65 -23c-10 -10 -17 -25 -17 -42c0 -16 5 -28 15 -37c16 -15 39 -21 84 -38l50 -19c29 -11 65 -26 91 -51c39 -37 49 -85 49 -124c0 -69 -24 -129 -59 -165c-59 -62 -145 -68 -189 -68c-48 0 -90 7 -132 28
c-34 17 -73 48 -98 73l80 110c17 -17 44 -40 62 -51c26 -16 53 -24 84 -24c20 0 48 4 70 23c13 11 24 29 24 54c0 22 -9 36 -23 48c-18 15 -59 30 -78 37l-55 19c-31 11 -67 25 -93 53c-35 37 -40 84 -40 116c0 59 18 109 58 150c47 48 103 61 165 61c46 0 120 -8 198 -66z
M155 726l-64 71l188 140l189 -140l-66 -71l-123 93z" />
    <glyph glyph-name="scircumflex" unicode="&#x15d;" horiz-adv-x="434" 
d="M386 423l-57 -91c-22 13 -51 25 -79 25c-15 0 -32 -4 -41 -13c-5 -5 -9 -13 -9 -20c0 -10 7 -16 14 -20c10 -6 25 -9 43 -15l38 -12c25 -8 51 -18 74 -39c26 -24 35 -51 35 -85c0 -59 -26 -97 -46 -117c-44 -44 -98 -51 -145 -51c-60 0 -125 13 -183 64l61 97
c14 -12 34 -26 49 -33c20 -10 41 -14 60 -14c9 0 32 0 45 10c9 7 15 18 15 29c0 8 -3 18 -16 26c-10 6 -23 10 -44 16l-36 11c-26 8 -53 22 -72 41c-21 22 -32 47 -32 81c0 43 17 79 43 103c40 37 94 45 135 45c66 0 112 -17 148 -38zM229 610l-119 -95l-64 69l183 142
l184 -142l-66 -69z" />
    <glyph glyph-name="Scedilla" unicode="&#x15e;" horiz-adv-x="550" 
d="M486 616l-69 -112c-50 45 -93 48 -112 48c-21 0 -47 -3 -65 -23c-10 -10 -17 -25 -17 -42c0 -16 5 -28 15 -37c16 -15 39 -21 84 -38l50 -19c29 -11 65 -26 91 -51c39 -37 49 -85 49 -124c0 -69 -24 -129 -59 -165c-59 -62 -145 -68 -189 -68c-48 0 -90 7 -132 28
c-34 17 -73 48 -98 73l80 110c17 -17 44 -40 62 -51c26 -16 53 -24 84 -24c20 0 48 4 70 23c13 11 24 29 24 54c0 22 -9 36 -23 48c-18 15 -59 30 -78 37l-55 19c-31 11 -67 25 -93 53c-35 37 -40 84 -40 116c0 59 18 109 58 150c47 48 103 61 165 61c46 0 120 -8 198 -66z
M242 -46l100 -44l-112 -146l-80 40z" />
    <glyph glyph-name="scedilla" unicode="&#x15f;" horiz-adv-x="434" 
d="M386 423l-57 -91c-22 13 -51 25 -79 25c-15 0 -32 -4 -41 -13c-5 -5 -9 -13 -9 -20c0 -10 7 -16 14 -20c10 -6 25 -9 43 -15l38 -12c25 -8 51 -18 74 -39c26 -24 35 -51 35 -85c0 -59 -26 -97 -46 -117c-44 -44 -98 -51 -145 -51c-60 0 -125 13 -183 64l61 97
c14 -12 34 -26 49 -33c20 -10 41 -14 60 -14c9 0 32 0 45 10c9 7 15 18 15 29c0 8 -3 18 -16 26c-10 6 -23 10 -44 16l-36 11c-26 8 -53 22 -72 41c-21 22 -32 47 -32 81c0 43 17 79 43 103c40 37 94 45 135 45c66 0 112 -17 148 -38zM195 -46l94 -44l-118 -146l-74 40z" />
    <glyph glyph-name="Scaron" unicode="&#x160;" horiz-adv-x="550" 
d="M486 616l-69 -112c-50 45 -93 48 -112 48c-21 0 -47 -3 -65 -23c-10 -10 -17 -25 -17 -42c0 -16 5 -28 15 -37c16 -15 39 -21 84 -38l50 -19c29 -11 65 -26 91 -51c39 -37 49 -85 49 -124c0 -69 -24 -129 -59 -165c-59 -62 -145 -68 -189 -68c-48 0 -90 7 -132 28
c-34 17 -73 48 -98 73l80 110c17 -17 44 -40 62 -51c26 -16 53 -24 84 -24c20 0 48 4 70 23c13 11 24 29 24 54c0 22 -9 36 -23 48c-18 15 -59 30 -78 37l-55 19c-31 11 -67 25 -93 53c-35 37 -40 84 -40 116c0 59 18 109 58 150c47 48 103 61 165 61c46 0 120 -8 198 -66z
M279 844l123 93l66 -70l-189 -141l-188 141l64 70z" />
    <glyph glyph-name="scaron" unicode="&#x161;" horiz-adv-x="434" 
d="M386 423l-57 -91c-22 13 -51 25 -79 25c-15 0 -32 -4 -41 -13c-5 -5 -9 -13 -9 -20c0 -10 7 -16 14 -20c10 -6 25 -9 43 -15l38 -12c25 -8 51 -18 74 -39c26 -24 35 -51 35 -85c0 -59 -26 -97 -46 -117c-44 -44 -98 -51 -145 -51c-60 0 -125 13 -183 64l61 97
c14 -12 34 -26 49 -33c20 -10 41 -14 60 -14c9 0 32 0 45 10c9 7 15 18 15 29c0 8 -3 18 -16 26c-10 6 -23 10 -44 16l-36 11c-26 8 -53 22 -72 41c-21 22 -32 47 -32 81c0 43 17 79 43 103c40 37 94 45 135 45c66 0 112 -17 148 -38zM229 631l118 95l66 -68l-184 -143
l-183 143l64 68z" />
    <glyph glyph-name="Tcedilla" unicode="&#x162;" horiz-adv-x="460" 
d="M452 537h-145v-537h-154v537h-145v130h444v-130zM204 -46l100 -44l-112 -146l-80 40z" />
    <glyph glyph-name="tcedilla" unicode="&#x163;" horiz-adv-x="299" 
d="M293 330h-89v-330h-144v330h-50v116h50v144h144v-144h89v-116zM115 -46l94 -44l-118 -146l-74 40z" />
    <glyph glyph-name="Tcaron" unicode="&#x164;" horiz-adv-x="460" 
d="M307 537h145v130h-444v-130h145v-537h154v537zM230 844l123 93l66 -70l-189 -141l-188 141l64 70z" />
    <glyph glyph-name="tcaron" unicode="&#x165;" horiz-adv-x="441" 
d="M293 330h-89v-330h-144v330h-50v116h50v144h144v-144h89v-116zM250 492l70 208l130 -30l-112 -198z" />
    <glyph glyph-name="Utilde" unicode="&#x168;" horiz-adv-x="710" 
d="M637 667v-395c0 -64 -8 -143 -74 -211c-64 -66 -138 -76 -208 -76s-144 10 -208 76c-66 68 -74 147 -74 211v395h154v-391c0 -29 2 -78 35 -112c27 -29 64 -35 93 -35s66 6 93 35c33 34 35 83 35 112v391h154zM476 867l71 -50c-11 -22 -26 -42 -42 -58s-37 -31 -71 -31
c-21 0 -40 7 -62 16l-41 16c-16 6 -27 11 -37 11c-14 0 -33 -6 -46 -39l-71 50c7 15 23 44 37 59c21 22 46 30 73 30c25 0 43 -7 60 -14l40 -16c11 -4 25 -12 41 -12c22 0 38 14 48 38z" />
    <glyph glyph-name="utilde" unicode="&#x169;" horiz-adv-x="570" 
d="M56 446h144v-246c0 -20 2 -51 25 -72c10 -9 28 -21 60 -21c27 0 48 9 61 21c21 20 24 50 24 72v246h144v-260c0 -51 -5 -99 -50 -143c-51 -50 -126 -58 -179 -58c-55 0 -129 8 -180 58c-41 40 -49 85 -49 134v269zM401 657l66 -44c-8 -20 -25 -48 -39 -63
c-18 -18 -44 -30 -70 -30c-8 0 -25 2 -59 14l-35 13c-23 9 -37 13 -49 13c-20 0 -34 -13 -43 -37l-65 44c6 20 18 46 34 63c19 21 43 30 71 30c22 0 44 -6 62 -13l34 -13c37 -14 50 -14 53 -14c27 0 37 24 40 37z" />
    <glyph glyph-name="Umacron" unicode="&#x16a;" horiz-adv-x="710" 
d="M637 667v-395c0 -64 -8 -143 -74 -211c-64 -66 -138 -76 -208 -76s-144 10 -208 76c-66 68 -74 147 -74 211v395h154v-391c0 -29 2 -78 35 -112c27 -29 64 -35 93 -35s66 6 93 35c33 34 35 83 35 112v391h154zM157 753v92h388v-92h-388z" />
    <glyph glyph-name="umacron" unicode="&#x16b;" horiz-adv-x="570" 
d="M56 446h144v-246c0 -20 2 -51 25 -72c10 -9 28 -21 60 -21c27 0 48 9 61 21c21 20 24 50 24 72v246h144v-260c0 -51 -5 -99 -50 -143c-51 -50 -126 -58 -179 -58c-55 0 -129 8 -180 58c-41 40 -49 85 -49 134v269zM87 543v90h380v-90h-380z" />
    <glyph glyph-name="Ubreve" unicode="&#x16c;" horiz-adv-x="710" 
d="M637 667v-395c0 -64 -8 -143 -74 -211c-64 -66 -138 -76 -208 -76s-144 10 -208 76c-66 68 -74 147 -74 211v395h154v-391c0 -29 2 -78 35 -112c27 -29 64 -35 93 -35s66 6 93 35c33 34 35 83 35 112v391h154zM431 874h96c-2 -18 -11 -70 -46 -105
c-36 -36 -89 -44 -126 -44s-90 8 -126 44c-35 35 -44 87 -46 105h96c2 -16 10 -32 19 -42c13 -14 36 -21 57 -21s44 7 57 21c9 10 17 26 19 42z" />
    <glyph glyph-name="ubreve" unicode="&#x16d;" horiz-adv-x="570" 
d="M56 446h144v-246c0 -20 2 -51 25 -72c10 -9 28 -21 60 -21c27 0 48 9 61 21c21 20 24 50 24 72v246h144v-260c0 -51 -5 -99 -50 -143c-51 -50 -126 -58 -179 -58c-55 0 -129 8 -180 58c-41 40 -49 85 -49 134v269zM360 664h94c-3 -41 -20 -77 -44 -102
c-37 -38 -86 -45 -125 -45s-88 7 -125 45c-24 25 -41 61 -44 102h94c3 -19 12 -33 21 -42c17 -16 39 -19 54 -19s37 3 54 19c9 9 18 23 21 42z" />
    <glyph glyph-name="Uring" unicode="&#x16e;" horiz-adv-x="710" 
d="M637 667v-395c0 -64 -8 -143 -74 -211c-64 -66 -138 -76 -208 -76s-144 10 -208 76c-66 68 -74 147 -74 211v395h154v-391c0 -29 2 -78 35 -112c27 -29 64 -35 93 -35s66 6 93 35c33 34 35 83 35 112v391h154zM471 827c0 -25 -10 -49 -27 -66c-22 -21 -55 -32 -89 -32
s-67 11 -89 32c-17 17 -27 41 -27 66s10 49 27 66c22 21 55 32 89 32s67 -11 89 -32c17 -17 27 -41 27 -66zM355 866c-16 0 -27 -5 -34 -12c-8 -8 -12 -18 -12 -27s4 -19 12 -27c7 -7 18 -12 34 -12s27 5 34 12c8 8 12 18 12 27s-4 19 -12 27c-7 7 -18 12 -34 12z" />
    <glyph glyph-name="uring" unicode="&#x16f;" horiz-adv-x="570" 
d="M56 446h144v-246c0 -20 2 -51 25 -72c10 -9 28 -21 60 -21c27 0 48 9 61 21c21 20 24 50 24 72v246h144v-260c0 -51 -5 -99 -50 -143c-51 -50 -126 -58 -179 -58c-55 0 -129 8 -180 58c-41 40 -49 85 -49 134v269zM399 614c0 -30 -13 -51 -27 -65
c-17 -16 -46 -31 -87 -31s-70 15 -87 31c-14 14 -27 35 -27 65s13 51 27 65c17 16 46 31 87 31s70 -15 87 -31c14 -14 27 -35 27 -65zM285 650c-10 0 -23 -3 -31 -9c-7 -6 -13 -16 -13 -27s6 -21 13 -27c8 -6 21 -9 31 -9s23 3 31 9c7 6 13 16 13 27s-6 21 -13 27
c-8 6 -21 9 -31 9z" />
    <glyph glyph-name="Uhungarumlaut" unicode="&#x170;" horiz-adv-x="710" 
d="M637 667v-395c0 -64 -8 -143 -74 -211c-64 -66 -138 -76 -208 -76s-144 10 -208 76c-66 68 -74 147 -74 211v395h154v-391c0 -29 2 -78 35 -112c27 -29 64 -35 93 -35s66 6 93 35c33 34 35 83 35 112v391h154zM320 925l86 -66l-140 -135l-55 48zM506 925l87 -66
l-140 -135l-56 48z" />
    <glyph glyph-name="uhungarumlaut" unicode="&#x171;" horiz-adv-x="570" 
d="M56 446h144v-246c0 -20 2 -51 25 -72c10 -9 28 -21 60 -21c27 0 48 9 61 21c21 20 24 50 24 72v246h144v-260c0 -51 -5 -99 -50 -143c-51 -50 -126 -58 -179 -58c-55 0 -129 8 -180 58c-41 40 -49 85 -49 134v269zM226 710l82 -66l-134 -135l-52 48zM406 709l83 -65
l-134 -135l-53 48z" />
    <glyph glyph-name="Uogonek" unicode="&#x172;" horiz-adv-x="710" 
d="M637 667v-395c0 -37 -3 -103 -31 -155c-21 -40 -60 -74 -102 -100c-21 -13 -48 -25 -71 -52c-10 -11 -19 -27 -19 -46c0 -9 3 -17 11 -24c7 -6 17 -9 28 -9c25 0 47 13 50 15l-18 -77c-24 -14 -47 -17 -65 -17c-32 0 -55 11 -69 24c-15 14 -23 32 -23 56c0 19 5 37 16 56
c9 15 22 31 33 43c-11 -1 -22 -1 -32 -1c-113 0 -170 48 -198 76c-66 69 -74 146 -74 211v395h154v-391c0 -29 2 -78 35 -112c27 -29 64 -35 93 -35s66 6 93 35c33 34 35 83 35 112v391h154z" />
    <glyph glyph-name="uogonek" unicode="&#x173;" horiz-adv-x="570" 
d="M56 446h144v-246c0 -20 2 -51 25 -72c10 -9 28 -21 60 -21c27 0 48 9 61 21c21 20 24 50 24 72v246h144v-260c0 -39 -1 -88 -49 -138c-17 -18 -34 -29 -51 -41c-16 -10 -35 -22 -53 -41c-9 -9 -20 -23 -20 -38c0 -10 4 -21 12 -28c7 -7 18 -10 29 -10c15 0 34 6 50 15
l-18 -77c-24 -14 -47 -17 -67 -17c-26 0 -48 5 -67 24c-18 18 -23 40 -23 57c0 19 7 36 15 50c8 15 19 30 34 44c-9 -1 -18 -1 -29 -1c-52 0 -123 11 -172 58c-41 40 -49 85 -49 134v269z" />
    <glyph glyph-name="Ydieresis" unicode="&#x178;" horiz-adv-x="632" 
d="M239 0v311l-239 356h182l134 -207l134 207h182l-239 -356v-311h-154zM128 811c0 43 36 79 79 79s79 -36 79 -79s-36 -79 -79 -79s-79 36 -79 79zM346 811c0 43 36 79 79 79s79 -36 79 -79s-36 -79 -79 -79s-79 36 -79 79z" />
    <glyph glyph-name="Zacute" unicode="&#x179;" horiz-adv-x="616" 
d="M594 667l-319 -537h286v-130h-539l320 537h-268v130h520zM373 925l95 -72l-164 -129l-65 53z" />
    <glyph glyph-name="zacute" unicode="&#x17a;" horiz-adv-x="499" 
d="M487 446l-231 -326h211v-120h-455l232 326h-197v120h440zM311 715l94 -65l-152 -135l-65 48z" />
    <glyph glyph-name="Zdotaccent" unicode="&#x17b;" horiz-adv-x="616" 
d="M594 667l-319 -537h286v-130h-539l320 537h-268v130h520zM235 815c0 48 37 85 85 85s85 -37 85 -85s-37 -85 -85 -85s-85 37 -85 85z" />
    <glyph glyph-name="zdotaccent" unicode="&#x17c;" horiz-adv-x="499" 
d="M487 446l-231 -326h211v-120h-455l232 326h-197v120h440zM160 603c0 47 36 83 83 83s83 -36 83 -83s-36 -83 -83 -83s-83 36 -83 83z" />
    <glyph glyph-name="Zcaron" unicode="&#x17d;" horiz-adv-x="616" 
d="M594 667l-319 -537h286v-130h-539l320 537h-268v130h520zM314 844l123 93l66 -70l-189 -141l-188 141l64 70z" />
    <glyph glyph-name="zcaron" unicode="&#x17e;" horiz-adv-x="499" 
d="M487 446l-231 -326h211v-120h-455l232 326h-197v120h440zM249 631l118 95l66 -68l-184 -143l-183 143l64 68z" />
    <glyph glyph-name="uni018F" unicode="&#x18f;" horiz-adv-x="765" 
d="M42 375h520c-1 10 -9 71 -52 115c-39 40 -89 50 -134 50c-31 0 -66 -4 -100 -23c-24 -13 -48 -35 -66 -65l-142 55c11 19 48 80 115 122c52 33 124 53 206 53c64 0 159 -13 237 -90c81 -79 97 -179 97 -255c0 -84 -19 -184 -102 -265c-74 -72 -153 -87 -239 -87
c-93 0 -161 19 -227 85c-85 86 -113 215 -113 301v4zM559 267h-346c4 -32 19 -71 44 -97c21 -22 59 -47 127 -47c36 0 82 6 122 42c23 21 46 56 53 102z" />
    <glyph glyph-name="florin" unicode="&#x192;" horiz-adv-x="600" 
d="M183 118l43 238h-68l15 90h69l20 115c8 45 29 98 60 130c41 43 93 49 128 49c44 0 75 -9 99 -20l-23 -123c-17 11 -38 17 -58 17c-16 0 -31 -4 -43 -15c-15 -14 -24 -38 -30 -76l-13 -77h102l-16 -90h-102l-48 -268c-11 -60 -30 -158 -89 -214c-55 -52 -130 -58 -176 -58
c-22 0 -39 2 -61 7l23 128c11 -3 26 -5 41 -5c38 0 64 13 77 28c30 33 42 100 50 144z" />
    <glyph glyph-name="uni01CF" unicode="&#x1cf;" horiz-adv-x="306" 
d="M76 667h154v-667h-154v667zM153 844l123 93l66 -70l-189 -141l-188 141l64 70z" />
    <glyph glyph-name="uni01D0" unicode="&#x1d0;" horiz-adv-x="276" 
d="M66 446h144v-446h-144v446zM138 639l93 87l66 -69l-159 -142l-159 142l65 69z" />
    <glyph glyph-name="uni01DD" unicode="&#x1dd;" horiz-adv-x="547" 
d="M362 168h-195c4 -22 15 -42 29 -55c15 -14 37 -25 69 -25c20 0 48 4 72 29c10 11 21 28 25 51zM34 233v18h332c0 28 -11 55 -26 72c-22 25 -51 29 -72 29c-18 0 -43 -2 -60 -13c-2 -1 -19 -12 -31 -37l-136 14c20 63 60 96 86 112c48 30 103 33 142 33
c66 0 125 -12 177 -64c39 -40 67 -98 67 -170c0 -67 -23 -133 -68 -178c-52 -52 -116 -64 -173 -64c-65 0 -127 16 -175 67c-53 56 -63 126 -63 181z" />
    <glyph glyph-name="Gcaron" unicode="&#x1e6;" horiz-adv-x="767" 
d="M394 240v124h331v-7c0 -81 -29 -204 -103 -281s-159 -91 -238 -91c-80 0 -166 13 -244 93c-39 40 -98 121 -98 254c0 109 40 196 96 253c82 85 183 97 262 97c55 0 125 -9 187 -50c45 -30 84 -77 108 -119l-139 -75c-13 26 -33 53 -59 72c-30 22 -64 32 -102 32
c-61 0 -106 -20 -138 -54c-37 -39 -57 -96 -57 -158c0 -76 28 -125 56 -153c39 -40 84 -52 135 -52c66 0 101 23 116 36c5 4 35 30 48 79h-161zM384 844l123 93l66 -70l-189 -141l-188 141l64 70z" />
    <glyph glyph-name="gcaron" unicode="&#x1e7;" horiz-adv-x="595" 
d="M395 394v52h144v-419c0 -63 -3 -134 -55 -190c-55 -59 -139 -66 -188 -66c-59 0 -130 9 -186 57c-28 24 -57 62 -67 118h157c6 -23 20 -36 32 -44c17 -11 41 -15 62 -15c41 0 62 15 72 24c28 27 29 74 29 93v51c-17 -28 -51 -67 -133 -67c-69 0 -122 22 -163 63
c-36 37 -65 91 -65 168c0 76 28 139 66 178c27 28 79 64 162 64c81 0 117 -43 133 -67zM295 336c-32 0 -61 -12 -79 -29c-22 -21 -34 -56 -34 -83c0 -29 11 -59 31 -80s47 -32 81 -32c38 0 63 15 78 29c22 21 35 52 35 85c0 35 -15 64 -34 82c-21 19 -52 28 -78 28zM273 631
l118 95l66 -68l-184 -143l-183 143l64 68z" />
    <glyph glyph-name="AEacute" unicode="&#x1fc;" horiz-adv-x="920" 
d="M522 0l-51 129h-255l-50 -129h-160l273 667h379l48 -130h-232l51 -129h230l50 -130h-231l59 -148h232l49 -130h-392zM261 247h168l-82 219zM515 925l95 -72l-164 -129l-65 53z" />
    <glyph glyph-name="aeacute" unicode="&#x1fd;" horiz-adv-x="840" 
d="M666 144l135 -9c-23 -70 -70 -105 -87 -116c-43 -28 -89 -34 -136 -34c-20 0 -73 2 -109 20c-23 11 -48 34 -64 53c-21 -28 -45 -45 -75 -57c-36 -14 -68 -16 -107 -16c-49 0 -107 6 -150 49c-24 24 -39 57 -39 100c0 34 9 65 37 93c30 30 81 52 157 52
c50 0 80 -12 105 -27v9c0 25 -11 51 -26 66c-17 17 -48 28 -87 28c-32 0 -76 -9 -115 -22v110c46 13 91 18 131 18c96 0 139 -34 165 -77c50 65 125 77 171 77c80 0 138 -29 174 -68c55 -60 60 -140 60 -181v-14h-326c1 -30 13 -59 30 -77c20 -22 46 -28 73 -28
c13 0 33 1 51 12c10 6 24 18 32 39zM247 191c-28 0 -52 -8 -66 -23c-8 -8 -13 -18 -13 -31c0 -11 4 -21 13 -31c15 -15 41 -23 65 -23c21 0 53 6 70 23c6 6 13 16 13 31c0 11 -4 21 -13 31c-17 17 -46 23 -69 23zM484 284h187c-4 21 -15 41 -29 54c-21 19 -47 23 -64 23
c-22 0 -44 -4 -62 -21c-16 -14 -27 -37 -32 -56zM487 715l94 -65l-152 -135l-65 48z" />
    <glyph glyph-name="Scommaaccent" unicode="&#x218;" horiz-adv-x="550" 
d="M486 616l-69 -112c-50 45 -93 48 -112 48c-21 0 -47 -3 -65 -23c-10 -10 -17 -25 -17 -42c0 -16 5 -28 15 -37c16 -15 39 -21 84 -38l50 -19c29 -11 65 -26 91 -51c39 -37 49 -85 49 -124c0 -69 -24 -129 -59 -165c-59 -62 -145 -68 -189 -68c-48 0 -90 7 -132 28
c-34 17 -73 48 -98 73l80 110c17 -17 44 -40 62 -51c26 -16 53 -24 84 -24c20 0 48 4 70 23c13 11 24 29 24 54c0 22 -9 36 -23 48c-18 15 -59 30 -78 37l-55 19c-31 11 -67 25 -93 53c-35 37 -40 84 -40 116c0 59 18 109 58 150c47 48 103 61 165 61c46 0 120 -8 198 -66z
M141 -248l56 198l134 -16l-98 -194z" />
    <glyph glyph-name="scommaaccent" unicode="&#x219;" horiz-adv-x="434" 
d="M386 423l-57 -91c-22 13 -51 25 -79 25c-15 0 -32 -4 -41 -13c-5 -5 -9 -13 -9 -20c0 -10 7 -16 14 -20c10 -6 25 -9 43 -15l38 -12c25 -8 51 -18 74 -39c26 -24 35 -51 35 -85c0 -59 -26 -97 -46 -117c-44 -44 -98 -51 -145 -51c-60 0 -125 13 -183 64l61 97
c14 -12 34 -26 49 -33c20 -10 41 -14 60 -14c9 0 32 0 45 10c9 7 15 18 15 29c0 8 -3 18 -16 26c-10 6 -23 10 -44 16l-36 11c-26 8 -53 22 -72 41c-21 22 -32 47 -32 81c0 43 17 79 43 103c40 37 94 45 135 45c66 0 112 -17 148 -38zM114 -238l56 188l134 -16l-98 -184z
" />
    <glyph glyph-name="Tcommaaccent" unicode="&#x21a;" horiz-adv-x="460" 
d="M452 537h-145v-537h-154v537h-145v130h444v-130zM110 -248l56 198l134 -16l-98 -194z" />
    <glyph glyph-name="tcommaaccent" unicode="&#x21b;" horiz-adv-x="299" 
d="M293 330h-89v-330h-144v330h-50v116h50v144h144v-144h89v-116zM35 -238l56 188l134 -16l-98 -184z" />
    <glyph glyph-name="uni0228" unicode="&#x228;" horiz-adv-x="502" 
d="M450 667v-130h-223v-129h212v-130h-212v-148h223v-130h-377v667h377zM254 -46l100 -44l-112 -146l-80 40z" />
    <glyph glyph-name="uni0229" unicode="&#x229;" horiz-adv-x="547" 
d="M185 284h195c-1 4 -8 32 -29 52c-16 15 -39 25 -68 25c-37 0 -59 -15 -73 -29c-11 -12 -21 -28 -25 -48zM513 213v-15h-333c0 -24 9 -56 27 -76c22 -24 52 -28 74 -28c21 0 43 4 58 13c2 1 19 12 31 37l136 -14c-20 -63 -60 -96 -86 -112c-43 -26 -91 -33 -141 -33
c-67 0 -126 12 -178 64c-39 39 -67 98 -67 172c0 64 23 130 68 176c54 54 121 64 171 64s122 -9 177 -67c53 -56 63 -126 63 -181zM261 -46l94 -44l-118 -146l-74 40z" />
    <glyph glyph-name="uni0237" unicode="&#x237;" horiz-adv-x="276" 
d="M66 446h144v-675h-144v675z" />
    <glyph glyph-name="uni0259" unicode="&#x259;" horiz-adv-x="547" 
d="M362 168h-195c4 -22 15 -42 29 -55c15 -14 37 -25 69 -25c20 0 48 4 72 29c10 11 21 28 25 51zM34 233v18h332c0 28 -11 55 -26 72c-22 25 -51 29 -72 29c-18 0 -43 -2 -60 -13c-2 -1 -19 -12 -31 -37l-136 14c20 63 60 96 86 112c48 30 103 33 142 33
c66 0 125 -12 177 -64c39 -40 67 -98 67 -170c0 -67 -23 -133 -68 -178c-52 -52 -116 -64 -173 -64c-65 0 -127 16 -175 67c-53 56 -63 126 -63 181z" />
    <glyph glyph-name="afii57929" unicode="&#x2bc;" 
d="M120 492l70 208l130 -30l-112 -198z" />
    <glyph glyph-name="circumflex" unicode="&#x2c6;" 
d="M249 610l-119 -95l-64 69l183 142l184 -142l-66 -69z" />
    <glyph glyph-name="caron" unicode="&#x2c7;" 
d="M249 631l118 95l66 -68l-184 -143l-183 143l64 68z" />
    <glyph glyph-name="uni02C9" unicode="&#x2c9;" 
d="M60 543v90h380v-90h-380z" />
    <glyph glyph-name="breve" unicode="&#x2d8;" 
d="M325 664h94c-3 -41 -20 -77 -44 -102c-37 -38 -86 -45 -125 -45s-88 7 -125 45c-24 25 -41 61 -44 102h94c3 -19 12 -33 21 -42c17 -16 39 -19 54 -19s37 3 54 19c9 9 18 23 21 42z" />
    <glyph glyph-name="dotaccent" unicode="&#x2d9;" 
d="M167 603c0 47 36 83 83 83s83 -36 83 -83s-36 -83 -83 -83s-83 36 -83 83z" />
    <glyph glyph-name="ring" unicode="&#x2da;" 
d="M364 614c0 -30 -13 -51 -27 -65c-17 -16 -46 -31 -87 -31s-70 15 -87 31c-14 14 -27 35 -27 65s13 51 27 65c17 16 46 31 87 31s70 -15 87 -31c14 -14 27 -35 27 -65zM250 650c-10 0 -23 -3 -31 -9c-7 -6 -13 -16 -13 -27s6 -21 13 -27c8 -6 21 -9 31 -9s23 3 31 9
c7 6 13 16 13 27s-6 21 -13 27c-8 6 -21 9 -31 9z" />
    <glyph glyph-name="ogonek" unicode="&#x2db;" 
d="M377 -95l-18 -77c-24 -14 -47 -17 -66 -17c-21 0 -47 3 -68 24c-15 15 -23 36 -23 56c0 18 6 39 21 61c12 17 30 36 43 48h66c-8 -8 -21 -21 -27 -28c-12 -14 -19 -30 -19 -44c0 -12 5 -22 12 -28c8 -7 18 -10 29 -10c15 0 34 6 50 15z" />
    <glyph glyph-name="tilde" unicode="&#x2dc;" 
d="M364 657l66 -44c-8 -20 -25 -48 -39 -63c-18 -18 -44 -30 -70 -30c-8 0 -25 2 -59 14l-35 13c-23 9 -37 13 -49 13c-20 0 -34 -13 -43 -37l-65 44c6 20 18 46 34 63c19 21 43 30 71 30c22 0 44 -6 62 -13l34 -13c37 -14 50 -14 53 -14c27 0 37 24 40 37z" />
    <glyph glyph-name="hungarumlaut" unicode="&#x2dd;" 
d="M210 710l82 -66l-134 -135l-52 48zM390 709l83 -65l-134 -135l-53 48z" />
    <glyph glyph-name="acutecomb" unicode="&#x301;" horiz-adv-x="2" 
d="M-202 715l94 -65l-152 -135l-65 48z" />
    <glyph glyph-name="uni0394" unicode="&#x394;" horiz-adv-x="669" 
d="M651 0h-633l247 667h136zM334 484l-129 -368h257z" />
    <glyph glyph-name="uni0394" unicode="&#x2206;" horiz-adv-x="669" 
d="M651 0h-633l247 667h136zM334 484l-129 -368h257z" />
    <glyph glyph-name="uni03A9" unicode="&#x3a9;" horiz-adv-x="688" 
d="M381 0v108c38 17 72 45 98 94s33 101 33 145c0 87 -30 139 -59 167c-28 27 -69 42 -109 42s-81 -15 -109 -42c-29 -28 -59 -80 -59 -167c0 -44 7 -96 33 -145s60 -77 98 -94v-108h-268v116h133c-20 11 -38 24 -56 41c-65 64 -80 152 -80 208c0 96 35 177 88 230
c35 35 105 87 220 87s185 -52 220 -87c53 -53 88 -134 88 -230c0 -56 -15 -144 -80 -208c-18 -17 -36 -30 -56 -41h133v-116h-268z" />
    <glyph glyph-name="uni03A9" unicode="&#x2126;" horiz-adv-x="688" 
d="M381 0v108c38 17 72 45 98 94s33 101 33 145c0 87 -30 139 -59 167c-28 27 -69 42 -109 42s-81 -15 -109 -42c-29 -28 -59 -80 -59 -167c0 -44 7 -96 33 -145s60 -77 98 -94v-108h-268v116h133c-20 11 -38 24 -56 41c-65 64 -80 152 -80 208c0 96 35 177 88 230
c35 35 105 87 220 87s185 -52 220 -87c53 -53 88 -134 88 -230c0 -56 -15 -144 -80 -208c-18 -17 -36 -30 -56 -41h133v-116h-268z" />
    <glyph glyph-name="pi" unicode="&#x3c0;" horiz-adv-x="676" 
d="M286 0h-144v330h-76v116h604v-116h-76v-330h-144v330h-164v-330z" />
    <glyph glyph-name="afii10023" unicode="&#x401;" horiz-adv-x="502" 
d="M450 667v-130h-223v-129h212v-130h-212v-148h223v-130h-377v667h377zM83 799c0 42 33 75 75 75s75 -33 75 -75s-33 -75 -75 -75s-75 33 -75 75zM292 799c0 42 33 75 75 75s75 -33 75 -75s-33 -75 -75 -75s-75 33 -75 75z" />
    <glyph glyph-name="afii10051" unicode="&#x402;" horiz-adv-x="676" 
d="M138 0v537h-130v130h504v-130h-220v-145c37 14 77 23 120 23c18 0 86 -1 141 -31c78 -43 97 -115 97 -181c0 -96 -43 -147 -81 -172c-40 -26 -105 -37 -156 -37c-19 0 -39 3 -57 6v122c18 -4 36 -6 54 -6c15 0 38 2 56 16c23 18 26 46 26 66c0 26 -7 59 -37 75
c-22 12 -62 12 -63 12c-48 0 -91 -19 -100 -23v-262h-154z" />
    <glyph glyph-name="afii10052" unicode="&#x403;" horiz-adv-x="459" 
d="M447 667v-130h-220v-537h-154v667h374zM325 925l95 -72l-164 -129l-65 53z" />
    <glyph glyph-name="afii10053" unicode="&#x404;" horiz-adv-x="623" 
d="M573 194v-162c-44 -26 -101 -47 -198 -47c-79 0 -164 12 -238 88c-46 47 -95 130 -95 262s49 212 96 258c75 74 168 89 244 89c55 0 116 -9 191 -48v-164c-22 19 -48 37 -69 47c-36 18 -73 25 -110 25c-39 0 -90 -5 -133 -44c-26 -23 -46 -58 -54 -99h256v-124h-257
c7 -55 36 -91 61 -111c39 -32 87 -39 131 -39c37 0 76 7 107 22c21 10 48 29 68 47z" />
    <glyph glyph-name="afii10054" unicode="&#x405;" horiz-adv-x="550" 
d="M486 616l-69 -112c-50 45 -93 48 -112 48c-21 0 -47 -3 -65 -23c-10 -10 -17 -25 -17 -42c0 -16 5 -28 15 -37c16 -15 39 -21 84 -38l50 -19c29 -11 65 -26 91 -51c39 -37 49 -85 49 -124c0 -69 -24 -129 -59 -165c-59 -62 -145 -68 -189 -68c-48 0 -90 7 -132 28
c-34 17 -73 48 -98 73l80 110c17 -17 44 -40 62 -51c26 -16 53 -24 84 -24c20 0 48 4 70 23c13 11 24 29 24 54c0 22 -9 36 -23 48c-18 15 -59 30 -78 37l-55 19c-31 11 -67 25 -93 53c-35 37 -40 84 -40 116c0 59 18 109 58 150c47 48 103 61 165 61c46 0 120 -8 198 -66z
" />
    <glyph glyph-name="afii10055" unicode="&#x406;" horiz-adv-x="306" 
d="M76 667h154v-667h-154v667z" />
    <glyph glyph-name="afii10056" unicode="&#x407;" horiz-adv-x="337" 
d="M92 667h154v-667h-154v667zM188 811c0 43 32 79 70 79s70 -36 70 -79s-32 -79 -70 -79s-70 36 -70 79zM9 811c0 43 32 79 70 79s70 -36 70 -79s-32 -79 -70 -79s-70 36 -70 79z" />
    <glyph glyph-name="afii10057" unicode="&#x408;" horiz-adv-x="415" 
d="M188 667h154v-454c0 -50 -3 -124 -58 -178c-44 -44 -98 -50 -141 -50c-36 0 -71 3 -106 24c-21 13 -46 35 -63 56l96 108c6 -12 16 -29 24 -37c11 -11 23 -15 38 -15c13 0 25 3 36 14c19 19 20 51 20 79v453z" />
    <glyph glyph-name="afii10058" unicode="&#x409;" horiz-adv-x="983" 
d="M470 0v537h-181v-229c0 -114 -14 -209 -67 -263c-28 -28 -74 -53 -150 -53c-23 0 -43 3 -62 8v138c11 -4 24 -6 38 -6c26 0 48 9 61 22c28 28 30 87 30 140v373h485v-260h94c57 0 130 -6 183 -56c48 -45 56 -104 56 -148s-8 -103 -54 -147c-55 -52 -134 -56 -190 -56
h-243zM624 283v-159h68c27 0 59 3 80 18c12 8 29 27 29 62c0 42 -23 60 -28 63c-11 8 -32 16 -80 16h-69z" />
    <glyph glyph-name="afii10059" unicode="&#x40a;" horiz-adv-x="1006" 
d="M493 0v283h-266v-283h-154v667h154v-254h266v254h154v-260h94c57 0 130 -6 183 -56c48 -45 56 -104 56 -148s-8 -103 -54 -147c-55 -52 -134 -56 -190 -56h-243zM647 283v-159h68c27 0 59 3 80 18c12 8 29 27 29 62c0 42 -23 60 -28 63c-11 8 -32 16 -80 16h-69z" />
    <glyph glyph-name="afii10060" unicode="&#x40b;" horiz-adv-x="721" 
d="M138 0v537h-130v130h504v-130h-220v-132c36 5 88 10 133 10c68 0 152 -12 198 -56c44 -41 50 -98 50 -136v-223h-154v176c0 25 -1 60 -24 82c-17 17 -48 27 -105 27c-35 0 -64 -2 -98 -8v-277h-154z" />
    <glyph glyph-name="afii10061" unicode="&#x40c;" horiz-adv-x="670" 
d="M227 667v-278l228 278h188l-270 -316l291 -351h-198l-239 296v-296h-154v667h154zM390 925l95 -72l-164 -129l-65 53z" />
    <glyph glyph-name="afii10062" unicode="&#x40e;" horiz-adv-x="622" 
d="M4 667h172l140 -308l134 308h166l-305 -667h-166l97 192zM401 887l106 -45c-17 -40 -46 -71 -76 -90c-40 -24 -83 -28 -123 -28c-39 0 -82 4 -122 28c-30 19 -59 50 -76 90l106 45c7 -18 20 -38 33 -48c15 -11 38 -17 61 -17c15 0 39 2 59 17c15 12 27 32 32 48z" />
    <glyph glyph-name="afii10145" unicode="&#x40f;" horiz-adv-x="701" 
d="M73 0v667h154v-537h247v537h154v-667h-208v-166h-138v166h-209z" />
    <glyph glyph-name="afii10017" unicode="&#x410;" horiz-adv-x="677" 
d="M515 0l-50 126h-252l-51 -126h-160l269 667h141l263 -667h-160zM258 244h165l-82 224z" />
    <glyph glyph-name="afii10018" unicode="&#x411;" horiz-adv-x="597" 
d="M73 0v667h412v-130h-258v-133h86c58 0 132 -7 188 -62c24 -24 54 -68 54 -139c0 -57 -19 -108 -54 -143c-49 -49 -120 -60 -201 -60h-227zM227 124h61c21 0 59 2 83 21c8 7 26 25 26 59c0 32 -16 52 -30 62c-24 17 -63 18 -79 18h-61v-160z" />
    <glyph glyph-name="afii10019" unicode="&#x412;" horiz-adv-x="594" 
d="M73 667h204c36 0 118 -2 170 -51c43 -41 48 -97 48 -126c0 -26 -4 -56 -22 -85c-17 -28 -40 -42 -56 -49c32 -5 68 -21 92 -45c22 -22 43 -60 43 -119c0 -67 -26 -109 -52 -135c-55 -53 -135 -57 -176 -57h-251v667zM225 547v-151h25c21 0 56 3 78 19c14 10 27 30 27 59
s-14 47 -26 56c-22 17 -52 17 -80 17h-24zM225 282v-162h37c39 0 86 1 114 27c14 13 22 32 22 56c0 27 -11 45 -21 54c-27 25 -79 25 -110 25h-42z" />
    <glyph glyph-name="afii10020" unicode="&#x413;" horiz-adv-x="459" 
d="M447 667v-130h-220v-537h-154v667h374z" />
    <glyph glyph-name="afii10021" unicode="&#x414;" horiz-adv-x="701" 
d="M138 667h478v-539h75v-278h-138v150h-409v-150h-138v278c43 8 69 31 75 37c56 52 57 147 57 220v282zM286 539v-149c0 -46 -2 -115 -13 -156c-8 -29 -24 -69 -60 -106h251v411h-178z" />
    <glyph glyph-name="afii10022" unicode="&#x415;" horiz-adv-x="502" 
d="M450 667v-130h-223v-129h212v-130h-212v-148h223v-130h-377v667h377z" />
    <glyph glyph-name="afii10024" unicode="&#x416;" horiz-adv-x="941" 
d="M393 0v299l-201 -299h-186l250 346l-236 321h176l197 -286v286h154v-286l197 286h176l-236 -321l251 -346h-186l-202 299v-299h-154z" />
    <glyph glyph-name="afii10025" unicode="&#x417;" horiz-adv-x="590" 
d="M128 489l-68 118c31 25 58 39 91 51c42 16 77 24 130 24c59 0 128 -11 179 -61c38 -37 51 -82 51 -131c0 -32 -7 -60 -26 -87c-20 -28 -44 -41 -64 -49c28 -8 59 -23 82 -47c19 -19 45 -58 45 -119c0 -55 -22 -101 -54 -134c-59 -60 -139 -69 -201 -69
c-55 0 -109 6 -160 29c-35 15 -72 41 -103 70l86 113c18 -21 43 -42 68 -55c29 -15 61 -21 91 -21c29 0 58 7 77 20c18 13 32 34 32 62c0 25 -12 43 -24 53c-18 14 -51 25 -127 25h-25v124h23c48 0 87 5 110 26c10 9 19 24 19 45c0 22 -11 40 -27 52c-17 13 -45 18 -70 18
c-28 0 -54 -7 -75 -17c-20 -9 -43 -25 -60 -40z" />
    <glyph glyph-name="afii10026" unicode="&#x418;" horiz-adv-x="745" 
d="M73 667h154v-436l309 444h136v-675h-154v437l-309 -445h-136v675z" />
    <glyph glyph-name="afii10027" unicode="&#x419;" horiz-adv-x="745" 
d="M73 667h154v-436l309 444h136v-675h-154v437l-309 -445h-136v675zM465 887l106 -45c-17 -40 -46 -71 -76 -90c-40 -24 -83 -28 -123 -28c-39 0 -82 4 -122 28c-30 19 -59 50 -76 90l106 45c7 -18 20 -38 33 -48c15 -11 38 -17 61 -17c15 0 39 2 59 17c15 12 27 32 32 48z
" />
    <glyph glyph-name="afii10028" unicode="&#x41a;" horiz-adv-x="670" 
d="M227 667v-278l228 278h188l-270 -316l291 -351h-198l-239 296v-296h-154v667h154z" />
    <glyph glyph-name="afii10029" unicode="&#x41b;" horiz-adv-x="697" 
d="M139 667h485v-667h-154v537h-181v-229c0 -114 -14 -209 -67 -263c-28 -28 -74 -53 -150 -53c-23 0 -43 3 -62 8v138c11 -4 24 -6 38 -6c26 0 48 9 61 22c28 28 30 87 30 140v373z" />
    <glyph glyph-name="afii10030" unicode="&#x41c;" horiz-adv-x="886" 
d="M196 0h-154l107 667h128l166 -399l166 399h128l107 -667h-154l-53 398l-167 -398h-54l-167 398z" />
    <glyph glyph-name="afii10031" unicode="&#x41d;" horiz-adv-x="720" 
d="M227 667v-254h266v254h154v-667h-154v283h-266v-283h-154v667h154z" />
    <glyph glyph-name="afii10032" unicode="&#x41e;" horiz-adv-x="810" 
d="M406 682c104 0 191 -32 258 -97c63 -61 104 -149 104 -252c0 -89 -32 -180 -104 -250c-62 -60 -146 -98 -258 -98c-125 0 -210 50 -260 98c-64 60 -104 150 -104 248c0 96 43 193 103 253c45 45 128 98 261 98zM405 540c-58 0 -110 -21 -146 -57
c-29 -28 -59 -77 -59 -151c0 -61 20 -110 61 -150c43 -41 91 -55 143 -55c68 0 116 25 148 57c26 25 58 72 58 149c0 69 -28 120 -58 150c-33 32 -86 57 -147 57z" />
    <glyph glyph-name="afii10033" unicode="&#x41f;" horiz-adv-x="707" 
d="M73 667h561v-667h-154v537h-253v-537h-154v667z" />
    <glyph glyph-name="afii10034" unicode="&#x420;" horiz-adv-x="572" 
d="M73 667h235c58 0 122 -8 175 -55c57 -50 65 -116 65 -162c0 -84 -32 -131 -57 -157c-53 -54 -123 -59 -170 -59h-94v-234h-154v667zM227 541v-181h55c21 0 58 1 83 25c14 14 25 37 25 66c0 28 -10 51 -25 65c-23 22 -56 25 -86 25h-52z" />
    <glyph glyph-name="afii10035" unicode="&#x421;" horiz-adv-x="605" 
d="M555 198v-177c-59 -30 -107 -36 -147 -36c-123 0 -206 42 -262 97c-60 58 -104 146 -104 253c0 105 44 193 104 251c59 57 145 96 249 96c44 0 95 -9 160 -37v-178c-34 36 -85 71 -156 71c-56 0 -101 -18 -136 -52c-37 -36 -63 -90 -63 -154c0 -69 28 -118 58 -147
c14 -14 62 -56 144 -56c40 0 94 11 153 69z" />
    <glyph glyph-name="afii10036" unicode="&#x422;" horiz-adv-x="460" 
d="M452 537h-145v-537h-154v537h-145v130h444v-130z" />
    <glyph glyph-name="afii10037" unicode="&#x423;" horiz-adv-x="622" 
d="M4 667h172l140 -308l134 308h166l-305 -667h-166l97 192z" />
    <glyph glyph-name="afii10038" unicode="&#x424;" horiz-adv-x="852" 
d="M349 0v93h-8c-43 0 -165 7 -236 83c-36 39 -63 101 -63 183c0 87 32 144 65 179c72 76 191 84 234 84h8v92h154v-92h8c43 0 162 -8 234 -84c33 -35 65 -92 65 -179c0 -82 -27 -144 -63 -183c-71 -76 -193 -83 -236 -83h-8v-93h-154zM355 498h-6c-34 0 -83 -5 -117 -39
c-16 -16 -36 -48 -36 -102c0 -53 18 -83 36 -101c34 -34 83 -39 117 -39h6v281zM497 498v-281h6c34 0 83 5 117 39c18 18 36 48 36 101c0 54 -20 86 -36 102c-34 34 -83 39 -117 39h-6z" />
    <glyph glyph-name="afii10039" unicode="&#x425;" horiz-adv-x="686" 
d="M10 0l245 354l-207 313h185l110 -190l110 190h185l-207 -313l245 -354h-185l-148 231l-148 -231h-185z" />
    <glyph glyph-name="afii10040" unicode="&#x426;" horiz-adv-x="728" 
d="M73 0v667h154v-537h247v537h154v-537h90v-280h-138v150h-507z" />
    <glyph glyph-name="afii10041" unicode="&#x427;" horiz-adv-x="646" 
d="M419 0v266c-35 -6 -72 -10 -113 -10c-60 0 -153 8 -207 59c-46 44 -51 97 -51 147v205h154v-174c0 -20 -1 -57 29 -81c20 -16 52 -22 97 -22c33 0 59 2 91 8v269h154v-667h-154z" />
    <glyph glyph-name="afii10042" unicode="&#x428;" horiz-adv-x="986" 
d="M73 0v667h154v-537h189v537h154v-537h189v537h154v-667h-840z" />
    <glyph glyph-name="afii10043" unicode="&#x429;" horiz-adv-x="1013" 
d="M865 0h-792v667h154v-537h189v537h154v-537h189v537h154v-537h90v-280h-138v150z" />
    <glyph glyph-name="afii10044" unicode="&#x42a;" horiz-adv-x="660" 
d="M147 0v537h-139v130h293v-260h94c57 0 130 -6 183 -56c47 -44 56 -102 56 -147s-9 -104 -54 -148c-55 -52 -134 -56 -190 -56h-243zM301 283v-159h68c27 0 59 3 80 18c12 8 29 27 29 62c0 42 -23 60 -28 63c-11 8 -32 16 -80 16h-69z" />
    <glyph glyph-name="afii10045" unicode="&#x42b;" horiz-adv-x="847" 
d="M620 667h154v-667h-154v667zM73 0v667h154v-260h92c57 0 130 -6 183 -56c48 -45 56 -104 56 -148s-8 -103 -54 -147c-55 -52 -134 -56 -190 -56h-241zM227 283v-159h68c27 0 59 3 80 18c12 8 29 27 29 62c0 42 -23 60 -28 63c-11 8 -32 16 -80 16h-69z" />
    <glyph glyph-name="afii10046" unicode="&#x42c;" horiz-adv-x="586" 
d="M73 0v667h154v-260h94c57 0 130 -6 183 -56c48 -45 56 -104 56 -148s-8 -103 -54 -147c-55 -52 -134 -56 -190 -56h-243zM227 283v-159h68c27 0 59 3 80 18c12 8 29 27 29 62c0 42 -23 60 -28 63c-11 8 -32 16 -80 16h-69z" />
    <glyph glyph-name="afii10047" unicode="&#x42d;" horiz-adv-x="623" 
d="M50 32v162c20 -18 47 -37 68 -47c31 -15 70 -22 107 -22c44 0 92 7 131 39c25 20 54 56 63 111h-259v124h258c-9 45 -32 78 -56 99c-43 39 -93 44 -133 44c-37 0 -74 -7 -110 -25c-21 -10 -47 -28 -69 -47v164c75 39 136 48 191 48c76 0 169 -15 244 -89
c47 -46 96 -126 96 -258s-49 -215 -95 -262c-74 -76 -159 -88 -238 -88c-97 0 -154 21 -198 47z" />
    <glyph glyph-name="afii10048" unicode="&#x42e;" horiz-adv-x="1058" 
d="M227 412h89c15 78 52 136 94 177c76 75 164 93 250 93c101 0 185 -27 255 -96c47 -46 101 -126 101 -248c0 -107 -41 -197 -101 -256c-78 -78 -175 -97 -256 -97c-107 0 -188 33 -253 99c-61 62 -86 130 -92 198h-87v-282h-154v667h154v-255zM662 540
c-57 0 -103 -19 -137 -53s-61 -87 -61 -154c0 -63 23 -113 54 -146s80 -60 146 -60c58 0 100 21 131 50c33 31 63 82 63 159c0 70 -27 119 -56 149c-27 28 -71 55 -140 55z" />
    <glyph glyph-name="afii10049" unicode="&#x42f;" horiz-adv-x="602" 
d="M529 667v-667h-154v243h-20l-157 -243h-178l192 261c-38 7 -72 25 -95 47c-48 45 -56 102 -56 148c0 55 14 104 54 146c54 56 124 65 185 65h229zM375 361v180h-36c-23 0 -63 -1 -91 -24c-11 -10 -29 -31 -29 -67c0 -33 14 -53 26 -64c28 -25 70 -25 94 -25h36z" />
    <glyph glyph-name="afii10065" unicode="&#x430;" horiz-adv-x="598" 
d="M398 396v50h144v-446h-144v54c-39 -60 -95 -69 -132 -69c-64 0 -118 16 -167 68c-47 50 -65 108 -65 167c0 75 28 139 69 180c39 39 93 61 155 61c38 0 99 -9 140 -65zM294 337c-31 0 -60 -13 -79 -32c-15 -15 -33 -41 -33 -81s17 -66 30 -80c20 -21 51 -35 85 -35
c29 0 56 12 75 31c19 18 35 46 35 84c0 32 -12 62 -33 82c-22 21 -54 31 -80 31z" />
    <glyph glyph-name="afii10066" unicode="&#x431;" horiz-adv-x="601" 
d="M422 730h126c-4 -41 -23 -88 -53 -117c-21 -21 -55 -39 -108 -54l-50 -14c-39 -11 -89 -23 -121 -52c-23 -21 -42 -54 -46 -94h5c22 24 65 61 153 61c75 0 134 -25 173 -63c38 -37 66 -95 66 -164s-25 -133 -72 -179c-60 -59 -130 -69 -190 -69c-65 0 -130 14 -184 66
c-71 70 -79 167 -79 230c0 88 15 223 88 301c50 53 111 68 160 79l27 6c45 10 77 16 94 35c8 9 11 19 11 28zM304 338c-41 0 -67 -19 -80 -32c-21 -21 -34 -52 -34 -84c0 -33 14 -62 33 -81c17 -17 45 -32 83 -32c31 0 56 12 75 29c23 21 38 53 38 88c0 30 -13 58 -33 79
c-27 27 -58 33 -82 33z" />
    <glyph glyph-name="afii10067" unicode="&#x432;" horiz-adv-x="502" 
d="M56 446h239c31 0 78 -1 111 -29c22 -19 36 -47 36 -87c0 -27 -6 -51 -27 -72c-8 -9 -20 -18 -37 -24c25 -5 49 -17 65 -32c23 -23 29 -51 29 -76c0 -39 -14 -67 -33 -86c-20 -20 -55 -40 -111 -40h-272v446zM200 268h59c8 0 24 1 36 9c11 8 15 19 15 33
c0 16 -7 26 -13 31c-9 7 -28 9 -40 9h-57v-82zM200 96h65c12 0 30 0 43 12c9 8 14 21 14 35c0 15 -7 25 -14 31c-14 12 -36 12 -49 12h-59v-90z" />
    <glyph glyph-name="afii10068" unicode="&#x433;" horiz-adv-x="366" 
d="M56 0v446h300v-118h-156v-328h-144z" />
    <glyph glyph-name="afii10069" unicode="&#x434;" horiz-adv-x="573" 
d="M104 446h395v-336h66v-236h-128v126h-305v-126h-128v236c28 3 48 16 61 28c37 34 39 85 39 135v173zM355 110v226h-119v-85c0 -45 -6 -69 -10 -82c-6 -19 -19 -40 -40 -59h169z" />
    <glyph glyph-name="afii10070" unicode="&#x435;" horiz-adv-x="547" 
d="M185 284h195c-1 4 -8 32 -29 52c-16 15 -39 25 -68 25c-37 0 -59 -15 -73 -29c-11 -12 -21 -28 -25 -48zM513 213v-15h-333c0 -24 9 -56 27 -76c22 -24 52 -28 74 -28c21 0 43 4 58 13c2 1 19 12 31 37l136 -14c-20 -63 -60 -96 -86 -112c-43 -26 -91 -33 -141 -33
c-67 0 -126 12 -178 64c-39 39 -67 98 -67 172c0 64 23 130 68 176c54 54 121 64 171 64s122 -9 177 -67c53 -56 63 -126 63 -181z" />
    <glyph glyph-name="afii10072" unicode="&#x436;" horiz-adv-x="762" 
d="M311 446h140v-179l127 179h164l-162 -209l180 -237h-176l-133 193v-193h-140v193l-133 -193h-176l180 237l-162 209h164l127 -179v179z" />
    <glyph glyph-name="afii10073" unicode="&#x437;" horiz-adv-x="463" 
d="M96 312l-55 96c19 12 50 28 74 37c34 12 71 16 105 16c24 0 106 -2 151 -46c25 -24 33 -52 33 -82c0 -28 -5 -53 -27 -76c-11 -11 -24 -20 -38 -25c33 -8 54 -26 60 -32c22 -21 30 -45 30 -74c0 -31 -10 -64 -39 -93c-38 -37 -90 -48 -164 -48c-40 0 -82 5 -122 20
c-39 15 -68 37 -80 47l61 95c16 -14 37 -28 55 -36c19 -8 46 -14 69 -14c16 0 38 3 52 11c17 10 20 24 20 34c0 15 -8 24 -21 30c-12 5 -36 8 -52 8h-54v98h41c13 0 40 2 54 8c17 8 21 21 21 30c0 8 -4 21 -22 29c-7 3 -21 8 -45 8c-23 0 -40 -4 -59 -12s-34 -17 -48 -29z
" />
    <glyph glyph-name="afii10074" unicode="&#x438;" horiz-adv-x="580" 
d="M56 446h144v-255l190 255h134v-446h-144v259l-190 -259h-134v446z" />
    <glyph glyph-name="afii10075" unicode="&#x439;" horiz-adv-x="580" 
d="M56 446h144v-255l190 255h134v-446h-144v259l-190 -259h-134v446zM371 665l100 -39c-12 -36 -36 -67 -64 -85c-38 -25 -84 -28 -117 -28s-79 3 -117 28c-28 18 -52 49 -64 85l100 39c4 -20 14 -36 26 -46c13 -11 30 -18 55 -18s42 7 55 18c12 10 22 26 26 46z" />
    <glyph glyph-name="afii10076" unicode="&#x43a;" horiz-adv-x="540" 
d="M56 0v446h144v-177l146 177h179l-191 -207l204 -239h-186l-152 198v-198h-144z" />
    <glyph glyph-name="afii10077" unicode="&#x43b;" horiz-adv-x="548" 
d="M492 446v-446h-144v330h-117v-137c0 -85 -22 -127 -44 -152c-38 -42 -84 -47 -123 -47c-21 0 -37 2 -56 7v114c18 -5 51 -7 69 13c3 4 18 21 18 71v247h397z" />
    <glyph glyph-name="afii10078" unicode="&#x43c;" horiz-adv-x="664" 
d="M24 0l78 446h114l116 -248l116 248h114l78 -446h-138l-36 237l-110 -237h-48l-110 237l-36 -237h-138z" />
    <glyph glyph-name="afii10079" unicode="&#x43d;" horiz-adv-x="561" 
d="M56 0v446h144v-155h161v155h144v-446h-144v175h-161v-175h-144z" />
    <glyph glyph-name="afii10080" unicode="&#x43e;" horiz-adv-x="592" 
d="M558 223c0 -57 -22 -121 -67 -166c-40 -40 -108 -72 -195 -72s-155 32 -195 72c-45 45 -67 109 -67 166s22 121 67 166c40 40 108 72 195 72s155 -32 195 -72c45 -45 67 -109 67 -166zM296 339c-33 0 -60 -11 -81 -32s-33 -48 -33 -84c0 -41 16 -67 33 -84
c18 -18 44 -32 82 -32c32 0 59 11 80 32s33 48 33 84s-12 63 -33 84s-48 32 -81 32z" />
    <glyph glyph-name="afii10081" unicode="&#x43f;" horiz-adv-x="555" 
d="M56 0v446h443v-446h-144v330h-155v-330h-144z" />
    <glyph glyph-name="afii10082" unicode="&#x440;" horiz-adv-x="598" 
d="M200 51v-280h-144v675h144v-53c47 61 105 68 139 68c80 0 130 -35 158 -63c40 -40 67 -101 67 -174c0 -77 -27 -135 -71 -179s-92 -60 -151 -60c-89 0 -127 45 -142 66zM304 337c-40 0 -66 -19 -80 -33c-23 -23 -34 -55 -34 -82c0 -28 11 -57 32 -79
c21 -21 51 -34 82 -34c27 0 56 11 77 31c23 22 35 56 35 85c0 33 -14 62 -34 81c-21 20 -49 31 -78 31z" />
    <glyph glyph-name="afii10083" unicode="&#x441;" horiz-adv-x="431" 
d="M391 436v-131c-35 29 -71 34 -94 34c-45 0 -72 -22 -82 -32c-19 -19 -33 -48 -33 -84c0 -33 12 -61 30 -80c22 -24 55 -36 87 -36c25 0 59 7 92 35v-130c-38 -21 -74 -27 -114 -27c-75 0 -132 27 -173 67c-34 33 -70 89 -70 170c0 76 32 136 74 176c50 47 109 63 170 63
c39 0 75 -7 113 -25z" />
    <glyph glyph-name="afii10084" unicode="&#x442;" horiz-adv-x="400" 
d="M392 330h-120v-330h-144v330h-120v116h384v-116z" />
    <glyph glyph-name="afii10085" unicode="&#x443;" horiz-adv-x="585" 
d="M58 -229l157 286l-213 389h166l126 -242l123 242h162l-359 -675h-162z" />
    <glyph glyph-name="afii10086" unicode="&#x444;" horiz-adv-x="718" 
d="M431 -229h-144v222h-6c-101 0 -157 42 -183 67c-32 31 -64 84 -64 165c0 88 40 144 77 174c44 35 110 54 169 54h7v214h144v-214h7c59 0 125 -19 169 -54c37 -30 77 -86 77 -174c0 -81 -32 -134 -64 -165c-26 -25 -82 -67 -183 -67h-6v-222zM424 337v-228
c37 -1 71 13 90 34c17 18 29 47 29 82s-12 64 -29 81c-21 21 -56 33 -90 31zM294 109v228c-34 2 -69 -10 -90 -31c-17 -17 -29 -46 -29 -81s12 -64 29 -82c19 -21 53 -35 90 -34z" />
    <glyph glyph-name="afii10087" unicode="&#x445;" horiz-adv-x="620" 
d="M2 0l218 243l-177 203h184l83 -103l83 103h184l-177 -203l218 -243h-186l-122 144l-122 -144h-186z" />
    <glyph glyph-name="afii10088" unicode="&#x446;" horiz-adv-x="575" 
d="M56 0v446h144v-330h152v330h144v-330h73v-242h-128v126h-385z" />
    <glyph glyph-name="afii10089" unicode="&#x447;" horiz-adv-x="518" 
d="M318 0v150c-32 -8 -58 -11 -90 -11c-48 0 -108 6 -147 43s-41 85 -41 115v149h142v-129c0 -12 1 -34 18 -49c15 -13 41 -15 58 -15c22 0 40 2 60 9v184h144v-446h-144z" />
    <glyph glyph-name="afii10090" unicode="&#x448;" horiz-adv-x="804" 
d="M56 0v446h144v-330h130v330h144v-330h130v330h144v-446h-692z" />
    <glyph glyph-name="afii10091" unicode="&#x449;" horiz-adv-x="827" 
d="M693 0h-637v446h144v-330h130v330h144v-330h130v330h144v-330h73v-242h-128v126z" />
    <glyph glyph-name="afii10092" unicode="&#x44a;" horiz-adv-x="552" 
d="M265 293h104c67 0 104 -23 123 -42c32 -32 36 -74 36 -101c0 -32 -5 -77 -40 -111c-37 -36 -86 -39 -125 -39h-242v330h-115v116h259v-153zM265 102h59c11 0 31 0 44 12c9 8 14 21 14 34c0 18 -9 28 -14 32c-13 10 -34 11 -43 11h-60v-89z" />
    <glyph glyph-name="afii10093" unicode="&#x44b;" horiz-adv-x="703" 
d="M505 446h142v-446h-142v446zM200 293h99c64 0 102 -23 121 -42c33 -33 37 -76 37 -102c0 -31 -5 -76 -40 -110c-37 -36 -86 -39 -123 -39h-238v446h144v-153zM200 102h59c11 0 31 0 44 12c9 8 14 21 14 34c0 18 -9 28 -14 32c-13 10 -34 11 -43 11h-60v-89z" />
    <glyph glyph-name="afii10094" unicode="&#x44c;" horiz-adv-x="487" 
d="M200 293h106c73 0 109 -30 121 -42c32 -32 36 -74 36 -101c0 -32 -5 -77 -40 -111c-37 -36 -86 -39 -123 -39h-244v446h144v-153zM200 102h59c11 0 31 0 44 12c9 8 14 21 14 34c0 18 -9 28 -14 32c-13 10 -34 11 -43 11h-60v-89z" />
    <glyph glyph-name="afii10095" unicode="&#x44d;" horiz-adv-x="460" 
d="M38 12v134c41 -37 85 -45 122 -45c23 0 53 3 76 18c14 9 32 28 40 57h-170v98h170c-9 25 -26 43 -44 54c-20 12 -48 17 -73 17c-42 0 -85 -15 -121 -46v131c58 26 105 31 145 31c56 0 124 -9 179 -64c31 -32 64 -85 64 -169c0 -83 -31 -144 -68 -181
c-58 -58 -127 -62 -181 -62c-41 0 -82 3 -139 27z" />
    <glyph glyph-name="afii10096" unicode="&#x44e;" horiz-adv-x="789" 
d="M200 285h56c4 22 16 65 54 104c36 37 97 72 186 72c88 0 152 -33 191 -71s68 -96 68 -166c0 -67 -24 -129 -67 -172c-59 -59 -130 -67 -187 -67c-62 0 -130 10 -184 62c-13 12 -51 52 -63 122h-54v-169h-144v446h144v-161zM496 339c-36 0 -61 -13 -77 -28
c-20 -19 -35 -51 -35 -89c0 -33 11 -60 31 -81c23 -24 51 -34 81 -34c31 0 55 9 76 29c26 25 35 56 35 89c0 41 -16 67 -32 83c-17 17 -44 31 -79 31z" />
    <glyph glyph-name="afii10097" unicode="&#x44f;" horiz-adv-x="492" 
d="M18 0l128 161c-29 5 -57 19 -77 39c-28 27 -34 57 -34 90c0 38 9 78 41 110c42 41 100 46 147 46h213v-446h-144v149h-14l-104 -149h-156zM292 243v101h-51c-12 0 -32 -1 -45 -11c-10 -8 -17 -22 -17 -41s9 -30 14 -35c15 -13 43 -14 51 -14h48z" />
    <glyph glyph-name="afii10071" unicode="&#x451;" horiz-adv-x="547" 
d="M513 213v-15h-333c0 -24 9 -56 27 -76c22 -24 52 -28 74 -28c21 0 43 4 58 13c2 1 19 12 31 37l136 -14c-20 -63 -60 -96 -86 -112c-43 -26 -91 -33 -141 -33c-67 0 -126 12 -178 64c-39 39 -67 98 -67 172c0 64 23 130 68 176c54 54 121 64 171 64s122 -9 177 -67
c53 -56 63 -126 63 -181zM185 284h195c-1 4 -8 32 -29 52c-16 15 -39 25 -68 25c-37 0 -59 -15 -73 -29c-11 -12 -21 -28 -25 -48zM88 600c0 44 34 78 78 78s78 -34 78 -78s-34 -78 -78 -78s-78 34 -78 78zM302 600c0 44 34 78 78 78s78 -34 78 -78s-34 -78 -78 -78
s-78 34 -78 78z" />
    <glyph glyph-name="afii10099" unicode="&#x452;" horiz-adv-x="583" 
d="M70 0v502h-80v94h80v133h144v-133h192v-94h-192v-149c18 22 37 37 54 46c30 16 55 19 87 19c35 0 87 -5 126 -45c41 -41 44 -96 44 -130v-293c0 -44 -3 -101 -37 -137c-17 -18 -52 -42 -126 -42c-31 0 -58 5 -80 10v114c7 -3 20 -6 37 -6c25 0 38 9 45 16
c17 17 17 48 17 73v211c0 31 -1 67 -24 89c-13 13 -35 20 -56 20c-31 0 -49 -14 -57 -22c-29 -28 -30 -71 -30 -93v-183h-144z" />
    <glyph glyph-name="afii10100" unicode="&#x453;" horiz-adv-x="366" 
d="M56 0v446h300v-118h-156v-328h-144zM255 715l94 -65l-152 -135l-65 48z" />
    <glyph glyph-name="afii10101" unicode="&#x454;" horiz-adv-x="460" 
d="M422 146v-134c-57 -24 -98 -27 -139 -27c-54 0 -123 4 -181 62c-37 37 -68 98 -68 181c0 84 33 137 64 169c55 55 123 64 179 64c40 0 87 -5 145 -31v-131c-36 31 -79 46 -121 46c-25 0 -53 -5 -73 -17c-18 -11 -35 -29 -44 -54h170v-98h-170c8 -29 26 -48 40 -57
c23 -15 53 -18 76 -18c37 0 81 8 122 45z" />
    <glyph glyph-name="afii10102" unicode="&#x455;" horiz-adv-x="434" 
d="M386 423l-57 -91c-22 13 -51 25 -79 25c-15 0 -32 -4 -41 -13c-5 -5 -9 -13 -9 -20c0 -10 7 -16 14 -20c10 -6 25 -9 43 -15l38 -12c25 -8 51 -18 74 -39c26 -24 35 -51 35 -85c0 -59 -26 -97 -46 -117c-44 -44 -98 -51 -145 -51c-60 0 -125 13 -183 64l61 97
c14 -12 34 -26 49 -33c20 -10 41 -14 60 -14c9 0 32 0 45 10c9 7 15 18 15 29c0 8 -3 18 -16 26c-10 6 -23 10 -44 16l-36 11c-26 8 -53 22 -72 41c-21 22 -32 47 -32 81c0 43 17 79 43 103c40 37 94 45 135 45c66 0 112 -17 148 -38z" />
    <glyph glyph-name="afii10103" unicode="&#x456;" horiz-adv-x="276" 
d="M66 446h144v-446h-144v446zM54 636c0 47 37 84 84 84s84 -37 84 -84s-37 -84 -84 -84s-84 37 -84 84z" />
    <glyph glyph-name="afii10104" unicode="&#x457;" horiz-adv-x="340" 
d="M97 446h144v-446h-144v446zM254 720c32 0 66 -27 66 -79s-34 -79 -66 -79s-66 27 -66 79s34 79 66 79zM86 720c32 0 66 -27 66 -79s-34 -79 -66 -79s-66 27 -66 79s34 79 66 79z" />
    <glyph glyph-name="afii10105" unicode="&#x458;" horiz-adv-x="276" 
d="M66 446h144v-675h-144v675zM54 636c0 47 37 84 84 84s84 -37 84 -84s-37 -84 -84 -84s-84 37 -84 84z" />
    <glyph glyph-name="afii10106" unicode="&#x459;" horiz-adv-x="779" 
d="M492 293h106c73 0 109 -30 121 -42c32 -32 36 -74 36 -101c0 -32 -5 -77 -40 -111c-37 -36 -86 -39 -123 -39h-244v330h-117v-137c0 -85 -22 -127 -44 -152c-38 -42 -84 -47 -123 -47c-21 0 -37 2 -56 7v114c18 -5 51 -7 69 13c3 4 18 21 18 71v247h397v-153zM492 102h59
c11 0 31 0 44 12c9 8 14 21 14 34c0 18 -9 28 -14 32c-13 10 -34 11 -43 11h-60v-89z" />
    <glyph glyph-name="afii10107" unicode="&#x45a;" horiz-adv-x="792" 
d="M505 293h106c73 0 109 -30 121 -42c32 -32 36 -74 36 -101c0 -32 -5 -77 -40 -111c-37 -36 -86 -39 -123 -39h-244v191h-161v-191h-144v446h144v-153h161v153h144v-153zM505 102h59c11 0 31 0 44 12c9 8 14 21 14 34c0 18 -9 28 -14 32c-13 10 -34 11 -43 11h-60v-89z
" />
    <glyph glyph-name="afii10108" unicode="&#x45b;" horiz-adv-x="581" 
d="M70 0v502h-80v94h80v133h144v-133h192v-94h-192v-149c18 22 37 37 54 46c30 16 55 19 87 19c35 0 87 -5 126 -45c41 -41 44 -96 44 -130v-243h-144v189c0 31 -1 67 -24 89c-13 13 -35 20 -56 20c-31 0 -49 -14 -57 -22c-29 -28 -30 -71 -30 -93v-183h-144z" />
    <glyph glyph-name="afii10109" unicode="&#x45c;" horiz-adv-x="540" 
d="M56 0v446h144v-177l146 177h179l-191 -207l204 -239h-186l-152 198v-198h-144zM331 715l94 -65l-152 -135l-65 48z" />
    <glyph glyph-name="afii10110" unicode="&#x45e;" horiz-adv-x="585" 
d="M58 -229l157 286l-213 389h166l126 -242l123 242h162l-359 -675h-162zM386 665l100 -39c-12 -36 -36 -67 -64 -85c-38 -25 -84 -28 -117 -28s-79 3 -117 28c-28 18 -52 49 -64 85l100 39c4 -20 14 -36 26 -46c13 -11 30 -18 55 -18s42 7 55 18c12 10 22 26 26 46z" />
    <glyph glyph-name="afii10193" unicode="&#x45f;" horiz-adv-x="552" 
d="M56 0v446h144v-330h152v330h144v-446h-156v-136h-128v136h-156z" />
    <glyph glyph-name="afii10146" unicode="&#x462;" horiz-adv-x="641" 
d="M128 0v481h-120v120h120v113h154v-113h166v-120h-166v-74h94c57 0 130 -6 183 -56c48 -45 56 -104 56 -148s-8 -103 -54 -147c-55 -52 -134 -56 -190 -56h-243zM282 283v-159h68c27 0 59 3 80 18c12 8 29 27 29 62c0 42 -23 60 -28 63c-11 8 -32 16 -80 16h-69z" />
    <glyph glyph-name="afii10194" unicode="&#x463;" horiz-adv-x="533" 
d="M246 352v-65h106c73 0 109 -30 121 -42c32 -32 36 -75 36 -101c0 -25 -5 -71 -40 -105c-37 -36 -86 -39 -123 -39h-244v352h-96v94h96v221h144v-221h154v-94h-154zM246 102h59c11 0 31 0 44 12c9 8 14 21 14 34c0 18 -9 28 -14 32c-13 10 -34 11 -43 11h-60v-89z" />
    <glyph glyph-name="afii10147" unicode="&#x472;" horiz-adv-x="810" 
d="M406 682c104 0 191 -32 258 -97c63 -61 104 -149 104 -252c0 -89 -32 -180 -104 -250c-62 -60 -146 -98 -258 -98c-125 0 -210 50 -260 98c-64 60 -104 150 -104 248c0 96 43 193 103 253c45 45 128 98 261 98zM210 399h390c-13 53 -44 86 -69 104c-27 20 -68 37 -127 37
c-41 0 -88 -10 -129 -43c-15 -12 -48 -43 -65 -98zM601 269h-393c10 -36 33 -77 66 -102c29 -23 74 -40 132 -40c37 0 86 5 129 38c21 16 53 48 66 104z" />
    <glyph glyph-name="afii10195" unicode="&#x473;" horiz-adv-x="592" 
d="M558 223c0 -57 -22 -121 -67 -166c-40 -40 -108 -72 -195 -72s-155 32 -195 72c-45 45 -67 109 -67 166s22 121 67 166c40 40 108 72 195 72s155 -32 195 -72c45 -45 67 -109 67 -166zM189 266h214c-6 20 -18 42 -36 57c-23 18 -50 22 -71 22c-43 0 -66 -16 -79 -29
s-23 -33 -28 -50zM405 188h-218c1 -5 8 -38 33 -61c14 -13 38 -26 76 -26c29 0 54 8 72 23c19 16 32 42 37 64z" />
    <glyph glyph-name="afii10148" unicode="&#x474;" horiz-adv-x="678" 
d="M4 667h166l169 -427l169 427h166l-283 -667h-104z" />
    <glyph glyph-name="afii10196" unicode="&#x475;" horiz-adv-x="546" 
d="M2 446h158l113 -239l113 239h158l-226 -446h-90z" />
    <glyph glyph-name="afii10050" unicode="&#x490;" horiz-adv-x="482" 
d="M73 667h256v150h138v-279v-1h-240v-537h-154v667z" />
    <glyph glyph-name="afii10098" unicode="&#x491;" horiz-adv-x="411" 
d="M56 0v446h212v126h128v-244h-196v-328h-144z" />
    <glyph glyph-name="uni0492" unicode="&#x492;" horiz-adv-x="502" 
d="M472 667v-130h-220v-129h162v-124h-162v-284h-154v284h-98v124h98v259h374z" />
    <glyph glyph-name="uni0493" unicode="&#x493;" horiz-adv-x="388" 
d="M78 0v142h-73v96h73v208h300v-118h-156v-90h107v-96h-107v-142h-144z" />
    <glyph glyph-name="uni0494" unicode="&#x494;" horiz-adv-x="611" 
d="M467 667v-130h-240v-145c46 18 88 23 117 23c12 0 86 0 144 -31c79 -42 97 -115 97 -181c0 -96 -43 -147 -81 -172c-40 -26 -105 -37 -156 -37c-19 0 -39 3 -57 6v122c18 -4 36 -6 54 -6c15 0 38 2 56 16c23 18 26 46 26 66c0 26 -7 59 -37 75c-22 12 -62 12 -63 12
c-48 0 -91 -19 -100 -23v-262h-154v667h394z" />
    <glyph glyph-name="uni0495" unicode="&#x495;" horiz-adv-x="484" 
d="M56 0v446h300v-118h-156v-90h14c73 0 138 -9 187 -60c46 -47 53 -103 53 -142c0 -90 -37 -145 -70 -176c-46 -43 -117 -65 -175 -68v112c33 3 55 20 67 31c21 21 34 50 34 91c0 39 -14 64 -29 78c-25 23 -58 24 -76 24h-5v-128h-144z" />
    <glyph glyph-name="uni0496" unicode="&#x496;" horiz-adv-x="942" 
d="M393 0v299l-201 -299h-186l250 346l-236 321h176l197 -286v286h154v-286l197 286h176l-236 -321l158 -216h90v-280h-138v150h-45l-202 299v-299h-154z" />
    <glyph glyph-name="uni0497" unicode="&#x497;" horiz-adv-x="767" 
d="M311 446h140v-179l127 179h164l-162 -209l88 -121h79v-242h-128v126h-35l-133 193v-193h-140v193l-133 -193h-176l180 237l-162 209h164l127 -179v179z" />
    <glyph glyph-name="uni0498" unicode="&#x498;" horiz-adv-x="590" 
d="M128 489l-68 118c31 25 58 39 91 51c42 16 77 24 130 24c59 0 128 -11 179 -61c38 -37 51 -82 51 -131c0 -32 -7 -60 -26 -87c-20 -28 -44 -41 -64 -49c28 -8 59 -23 82 -47c20 -20 45 -58 45 -117c0 -39 -10 -90 -54 -136c-48 -51 -102 -61 -133 -64v-156h-138v154
c-42 5 -115 23 -193 96l86 113c18 -21 43 -42 68 -55c29 -15 61 -21 91 -21c29 0 58 7 77 20c18 13 32 34 32 62c0 25 -12 43 -24 53c-18 14 -51 25 -127 25h-25v124h23c48 0 87 5 110 26c10 9 19 24 19 45c0 22 -11 40 -27 52c-17 13 -45 18 -70 18c-28 0 -54 -7 -75 -17
c-20 -9 -43 -25 -60 -40z" />
    <glyph glyph-name="uni0499" unicode="&#x499;" horiz-adv-x="463" 
d="M96 312l-55 96c19 12 50 28 74 37c34 12 70 16 105 16c42 0 100 -6 139 -37c23 -18 45 -48 45 -96c0 -27 -7 -50 -27 -71c-14 -15 -30 -22 -38 -25c22 -5 44 -16 60 -32c19 -19 30 -42 30 -73c0 -30 -9 -64 -39 -94c-31 -32 -65 -41 -95 -43v-126h-128v125
c-28 3 -84 13 -143 63l61 95c16 -14 37 -28 55 -36c19 -8 46 -14 69 -14c16 0 38 3 52 11c17 10 20 24 20 34c0 15 -8 24 -21 30c-12 5 -36 8 -52 8h-54v98h41c13 0 40 2 54 8c17 8 21 21 21 30c0 8 -4 21 -22 29c-7 3 -21 8 -45 8c-23 0 -40 -4 -59 -12s-34 -17 -48 -29z
" />
    <glyph glyph-name="uni049A" unicode="&#x49a;" horiz-adv-x="654" 
d="M227 667v-278l228 278h188l-270 -316l181 -221h90v-280h-138v150h-40l-239 296v-296h-154v667h154z" />
    <glyph glyph-name="uni049B" unicode="&#x49b;" horiz-adv-x="527" 
d="M56 0v446h144v-177l146 177h179l-191 -207l105 -123h79v-242h-128v126h-38l-152 198v-198h-144z" />
    <glyph glyph-name="uni049C" unicode="&#x49c;" horiz-adv-x="771" 
d="M73 667h154v-266h59v150h104v-150l188 266h174l-229 -312l242 -355h-184l-191 299v-155h-104v155h-59v-299h-154v667z" />
    <glyph glyph-name="uni049D" unicode="&#x49d;" horiz-adv-x="614" 
d="M56 446h144v-175h48v99h82v-104l118 180h158l-155 -210l161 -236h-164l-118 194v-120h-82v113h-48v-187h-144v446z" />
    <glyph glyph-name="uni04A0" unicode="&#x4a0;" horiz-adv-x="747" 
d="M304 667v-278l228 278h188l-270 -316l291 -351h-198l-239 296v-296h-154v537h-144v130h298z" />
    <glyph glyph-name="uni04A1" unicode="&#x4a1;" horiz-adv-x="600" 
d="M116 0v328h-110v118h254v-177l146 177h179l-191 -207l204 -239h-186l-152 198v-198h-144z" />
    <glyph glyph-name="uni04A2" unicode="&#x4a2;" horiz-adv-x="747" 
d="M227 667v-254h266v254h154v-537h90v-280h-138v150h-106v283h-266v-283h-154v667h154z" />
    <glyph glyph-name="uni04A3" unicode="&#x4a3;" horiz-adv-x="584" 
d="M56 0v446h144v-155h161v155h144v-330h73v-242h-128v126h-89v175h-161v-175h-144z" />
    <glyph glyph-name="uni04A4" unicode="&#x4a4;" horiz-adv-x="864" 
d="M852 667v-130h-205v-537h-154v283h-266v-283h-154v667h154v-254h266v254h359z" />
    <glyph glyph-name="uni04A5" unicode="&#x4a5;" horiz-adv-x="655" 
d="M361 0v175h-161v-175h-144v446h144v-155h161v155h286v-118h-142v-328h-144z" />
    <glyph glyph-name="uni04AA" unicode="&#x4aa;" horiz-adv-x="605" 
d="M555 198v-177c-27 -14 -55 -24 -84 -30v-157h-138v157c-85 12 -146 51 -187 91c-60 58 -104 146 -104 253c0 105 44 193 104 251c59 57 145 96 249 96c44 0 95 -9 160 -37v-178c-34 36 -85 71 -156 71c-56 0 -101 -18 -136 -52c-37 -36 -63 -90 -63 -154
c0 -69 28 -118 58 -147c14 -14 62 -56 144 -56c40 0 94 11 153 69z" />
    <glyph glyph-name="uni04AB" unicode="&#x4ab;" horiz-adv-x="431" 
d="M391 436v-131c-35 29 -71 34 -94 34c-45 0 -72 -22 -82 -32c-19 -19 -33 -48 -33 -84c0 -33 12 -61 30 -80c22 -24 55 -36 87 -36c25 0 59 7 92 35v-130c-17 -11 -33 -17 -50 -20v-128h-128v129c-39 8 -75 25 -109 59c-50 50 -70 110 -70 170c0 76 32 136 74 176
c50 47 109 63 170 63c39 0 75 -7 113 -25z" />
    <glyph glyph-name="uni04AE" unicode="&#x4ae;" horiz-adv-x="632" 
d="M239 0v311l-239 356h182l134 -207l134 207h182l-239 -356v-311h-154z" />
    <glyph glyph-name="uni04AF" unicode="&#x4af;" horiz-adv-x="520" 
d="M2 446h152l106 -247l106 247h152l-186 -395v-280h-144v279z" />
    <glyph glyph-name="uni04B0" unicode="&#x4b0;" horiz-adv-x="632" 
d="M239 0v179h-179v120h179v12l-239 356h182l134 -207l134 207h182l-239 -356v-12h179v-120h-179v-179h-154z" />
    <glyph glyph-name="uni04B1" unicode="&#x4b1;" horiz-adv-x="520" 
d="M2 446h152l106 -247l106 247h152l-186 -395v-30h140v-100h-140v-150h-144v150h-139v100h139v29z" />
    <glyph glyph-name="uni04B2" unicode="&#x4b2;" horiz-adv-x="684" 
d="M10 0l245 354l-207 313h185l110 -190l110 190h185l-207 -313l153 -224h90v-280h-138v150h-45l-148 231l-148 -231h-185z" />
    <glyph glyph-name="uni04B3" unicode="&#x4b3;" horiz-adv-x="595" 
d="M2 0l218 243l-177 203h184l83 -103l83 103h184l-177 -203l114 -127h79v-242h-128v126h-37l-118 144l-122 -144h-186z" />
    <glyph glyph-name="uni04B6" unicode="&#x4b6;" horiz-adv-x="673" 
d="M202 667v-174c0 -20 -1 -57 29 -81c20 -16 52 -22 97 -22c33 0 59 2 91 8v269h154v-537h90v-280h-138v150h-106v266c-35 -6 -72 -10 -113 -10c-60 0 -153 8 -207 59c-46 44 -51 97 -51 147v205h154z" />
    <glyph glyph-name="uni04B7" unicode="&#x4b7;" horiz-adv-x="541" 
d="M407 0h-89v150c-32 -8 -58 -11 -90 -11c-48 0 -108 6 -147 43s-41 85 -41 115v149h142v-129c0 -12 1 -34 18 -49c15 -13 41 -15 58 -15c22 0 40 2 60 9v184h144v-330h73v-242h-128v126z" />
    <glyph glyph-name="uni04B8" unicode="&#x4b8;" horiz-adv-x="701" 
d="M474 0v274c-26 -5 -52 -8 -77 -8v-141h-104v139c-51 -1 -140 7 -195 62c-45 45 -50 97 -50 141v200h154v-174c0 -21 1 -60 23 -83c14 -15 40 -26 68 -24v165h104v-166c25 -1 51 1 77 6v276h154v-667h-154z" />
    <glyph glyph-name="uni04B9" unicode="&#x4b9;" horiz-adv-x="573" 
d="M373 0v162c-16 -4 -33 -6 -52 -7v-88h-82v82c-53 -2 -121 10 -159 45c-34 31 -40 71 -40 99v153h140v-134c0 -12 1 -35 18 -49c11 -9 28 -13 41 -13v115h82v-115c17 0 35 3 52 7v189h144v-446h-144z" />
    <glyph glyph-name="uni04BA" unicode="&#x4ba;" horiz-adv-x="656" 
d="M227 667v-255c36 5 88 10 133 10c68 0 152 -12 198 -56c44 -41 50 -98 50 -136v-230h-154v183c0 25 -1 60 -24 82c-17 17 -48 27 -105 27c-35 0 -64 -2 -98 -8v-284h-154v667h154z" />
    <glyph glyph-name="uni04BB" unicode="&#x4bb;" horiz-adv-x="571" 
d="M60 0v729h144v-336c18 22 37 37 54 46c30 16 55 19 87 19c35 0 87 -5 126 -45c41 -41 44 -96 44 -130v-283h-144v229c0 31 -1 67 -24 89c-13 13 -35 20 -56 20c-31 0 -49 -14 -57 -22c-29 -28 -30 -71 -30 -93v-223h-144z" />
    <glyph glyph-name="uni04C0" unicode="&#x4c0;" horiz-adv-x="306" 
d="M76 667h154v-667h-154v667z" />
    <glyph glyph-name="uni04C1" unicode="&#x4c1;" horiz-adv-x="941" 
d="M393 0v299l-201 -299h-186l250 346l-236 321h176l197 -286v286h154v-286l197 286h176l-236 -321l251 -346h-186l-202 299v-299h-154zM563 887l106 -45c-17 -40 -46 -71 -76 -90c-40 -24 -83 -28 -123 -28c-39 0 -82 4 -122 28c-30 19 -59 50 -76 90l106 45
c7 -18 20 -38 33 -48c15 -11 38 -17 61 -17c15 0 39 2 59 17c15 12 27 32 32 48z" />
    <glyph glyph-name="uni04C2" unicode="&#x4c2;" horiz-adv-x="762" 
d="M311 446h140v-179l127 179h164l-162 -209l180 -237h-176l-133 193v-193h-140v193l-133 -193h-176l180 237l-162 209h164l127 -179v179zM462 665l100 -39c-12 -36 -36 -67 -64 -85c-38 -25 -84 -28 -117 -28s-79 3 -117 28c-28 18 -52 49 -64 85l100 39
c4 -20 14 -36 26 -46c13 -11 30 -18 55 -18s42 7 55 18c12 10 22 26 26 46z" />
    <glyph glyph-name="uni04C3" unicode="&#x4c3;" horiz-adv-x="643" 
d="M227 667v-278l228 278h182l-231 -267c57 0 118 -21 156 -59c42 -42 50 -96 50 -135c0 -61 -14 -113 -54 -155c-43 -45 -94 -58 -150 -58c-33 0 -61 5 -92 17l17 118c14 -9 28 -13 46 -13c32 0 49 14 58 25c12 15 17 37 17 54c0 35 -15 59 -31 72c-27 22 -69 25 -92 25
c-32 0 -74 -6 -104 -12v-279h-154v667h154z" />
    <glyph glyph-name="uni04C4" unicode="&#x4c4;" horiz-adv-x="511" 
d="M56 0v446h144v-177l138 177h171l-187 -221c46 -7 85 -29 110 -55c40 -41 48 -92 48 -134c0 -90 -36 -145 -70 -176c-46 -43 -117 -65 -175 -68v112c15 1 42 7 67 32c17 17 34 46 34 90c0 36 -12 65 -31 83c-17 17 -46 29 -80 29h-25v-138h-144z" />
    <glyph glyph-name="uni04C7" unicode="&#x4c7;" horiz-adv-x="720" 
d="M227 667v-254h266v254h154v-736c0 -36 -2 -87 -40 -123c-35 -34 -85 -37 -128 -37c-33 0 -55 2 -84 10v116c13 -7 23 -8 38 -8s33 1 46 15c14 15 14 38 14 57v322h-266v-283h-154v667h154z" />
    <glyph glyph-name="uni04C8" unicode="&#x4c8;" horiz-adv-x="561" 
d="M56 0v446h144v-155h161v155h144v-496c0 -44 -3 -101 -37 -137c-17 -18 -52 -42 -126 -42c-31 0 -58 5 -80 10v114c7 -2 20 -6 37 -6c25 0 38 9 45 16c17 17 17 48 17 73v197h-161v-175h-144z" />
    <glyph glyph-name="uni04D0" unicode="&#x4d0;" horiz-adv-x="677" 
d="M515 0l-50 126h-252l-51 -126h-160l269 667h141l263 -667h-160zM258 244h165l-82 224zM431 887l106 -45c-17 -40 -46 -71 -76 -90c-40 -24 -83 -28 -123 -28c-39 0 -82 4 -122 28c-30 19 -59 50 -76 90l106 45c7 -18 20 -38 33 -48c15 -11 38 -17 61 -17c15 0 39 2 59 17
c15 12 27 32 32 48z" />
    <glyph glyph-name="uni04D1" unicode="&#x4d1;" horiz-adv-x="598" 
d="M398 396v50h144v-446h-144v54c-39 -60 -95 -69 -132 -69c-64 0 -118 16 -167 68c-47 50 -65 108 -65 167c0 75 28 139 69 180c39 39 93 61 155 61c38 0 99 -9 140 -65zM294 337c-31 0 -60 -13 -79 -32c-15 -15 -33 -41 -33 -81s17 -66 30 -80c20 -21 51 -35 85 -35
c29 0 56 12 75 31c19 18 35 46 35 84c0 32 -12 62 -33 82c-22 21 -54 31 -80 31zM380 665l100 -39c-12 -36 -36 -67 -64 -85c-38 -25 -84 -28 -117 -28s-79 3 -117 28c-28 18 -52 49 -64 85l100 39c4 -20 14 -36 26 -46c13 -11 30 -18 55 -18s42 7 55 18c12 10 22 26 26 46z
" />
    <glyph glyph-name="uni04D2" unicode="&#x4d2;" horiz-adv-x="677" 
d="M515 0l-50 126h-252l-51 -126h-160l269 667h141l263 -667h-160zM258 244h165l-82 224zM150 811c0 43 36 79 79 79s79 -36 79 -79s-36 -79 -79 -79s-79 36 -79 79zM368 811c0 43 36 79 79 79s79 -36 79 -79s-36 -79 -79 -79s-79 36 -79 79z" />
    <glyph glyph-name="uni04D3" unicode="&#x4d3;" horiz-adv-x="598" 
d="M398 396v50h144v-446h-144v54c-39 -60 -95 -69 -132 -69c-64 0 -118 16 -167 68c-47 50 -65 108 -65 167c0 75 28 139 69 180c39 39 93 61 155 61c38 0 99 -9 140 -65zM294 337c-31 0 -60 -13 -79 -32c-15 -15 -33 -41 -33 -81s17 -66 30 -80c20 -21 51 -35 85 -35
c29 0 56 12 75 31c19 18 35 46 35 84c0 32 -12 62 -33 82c-22 21 -54 31 -80 31zM329 599c0 43 36 79 79 79s79 -36 79 -79s-36 -79 -79 -79s-79 36 -79 79zM111 599c0 43 36 79 79 79s79 -36 79 -79s-36 -79 -79 -79s-79 36 -79 79z" />
    <glyph glyph-name="uni04D4" unicode="&#x4d4;" horiz-adv-x="920" 
d="M522 0l-51 129h-255l-50 -129h-160l273 667h379l48 -130h-232l51 -129h230l50 -130h-231l59 -148h232l49 -130h-392zM261 247h168l-82 219z" />
    <glyph glyph-name="uni04D5" unicode="&#x4d5;" horiz-adv-x="840" 
d="M666 144l135 -9c-23 -70 -70 -105 -87 -116c-43 -28 -89 -34 -136 -34c-20 0 -73 2 -109 20c-23 11 -48 34 -64 53c-21 -28 -45 -45 -75 -57c-36 -14 -68 -16 -107 -16c-49 0 -107 6 -150 49c-24 24 -39 57 -39 100c0 34 9 65 37 93c30 30 81 52 157 52
c50 0 80 -12 105 -27v9c0 25 -11 51 -26 66c-17 17 -48 28 -87 28c-32 0 -76 -9 -115 -22v110c46 13 91 18 131 18c96 0 139 -34 165 -77c50 65 125 77 171 77c80 0 138 -29 174 -68c55 -60 60 -140 60 -181v-14h-326c1 -30 13 -59 30 -77c20 -22 46 -28 73 -28
c13 0 33 1 51 12c10 6 24 18 32 39zM247 191c-28 0 -52 -8 -66 -23c-8 -8 -13 -18 -13 -31c0 -11 4 -21 13 -31c15 -15 41 -23 65 -23c21 0 53 6 70 23c6 6 13 16 13 31c0 11 -4 21 -13 31c-17 17 -46 23 -69 23zM484 284h187c-4 21 -15 41 -29 54c-21 19 -47 23 -64 23
c-22 0 -44 -4 -62 -21c-16 -14 -27 -37 -32 -56z" />
    <glyph glyph-name="uni04D6" unicode="&#x4d6;" horiz-adv-x="502" 
d="M450 667v-130h-223v-129h212v-130h-212v-148h223v-130h-377v667h377zM349 887l106 -45c-17 -40 -46 -71 -76 -90c-40 -24 -83 -28 -123 -28c-39 0 -82 4 -122 28c-30 19 -59 50 -76 90l106 45c7 -18 20 -38 33 -48c15 -11 38 -17 61 -17c15 0 39 2 59 17
c15 12 27 32 32 48z" />
    <glyph glyph-name="uni04D7" unicode="&#x4d7;" horiz-adv-x="547" 
d="M185 284h195c-1 4 -8 32 -29 52c-16 15 -39 25 -68 25c-37 0 -59 -15 -73 -29c-11 -12 -21 -28 -25 -48zM513 213v-15h-333c0 -24 9 -56 27 -76c22 -24 52 -28 74 -28c21 0 43 4 58 13c2 1 19 12 31 37l136 -14c-20 -63 -60 -96 -86 -112c-43 -26 -91 -33 -141 -33
c-67 0 -126 12 -178 64c-39 39 -67 98 -67 172c0 64 23 130 68 176c54 54 121 64 171 64s122 -9 177 -67c53 -56 63 -126 63 -181zM354 665l100 -39c-12 -36 -36 -67 -64 -85c-38 -25 -84 -28 -117 -28s-79 3 -117 28c-28 18 -52 49 -64 85l100 39c4 -20 14 -36 26 -46
c13 -11 30 -18 55 -18s42 7 55 18c12 10 22 26 26 46z" />
    <glyph glyph-name="uni04D8" unicode="&#x4d8;" horiz-adv-x="765" 
d="M42 375h520c-1 10 -9 71 -52 115c-39 40 -89 50 -134 50c-31 0 -66 -4 -100 -23c-24 -13 -48 -35 -66 -65l-142 55c11 19 48 80 115 122c52 33 124 53 206 53c64 0 159 -13 237 -90c81 -79 97 -179 97 -255c0 -84 -19 -184 -102 -265c-74 -72 -153 -87 -239 -87
c-93 0 -161 19 -227 85c-85 86 -113 215 -113 301v4zM559 267h-346c4 -32 19 -71 44 -97c21 -22 59 -47 127 -47c36 0 82 6 122 42c23 21 46 56 53 102z" />
    <glyph glyph-name="afii10846" unicode="&#x4d9;" horiz-adv-x="547" 
d="M362 168h-195c4 -22 15 -42 29 -55c15 -14 37 -25 69 -25c20 0 48 4 72 29c10 11 21 28 25 51zM34 233v18h332c0 28 -11 55 -26 72c-22 25 -51 29 -72 29c-18 0 -43 -2 -60 -13c-2 -1 -19 -12 -31 -37l-136 14c20 63 60 96 86 112c48 30 103 33 142 33
c66 0 125 -12 177 -64c39 -40 67 -98 67 -170c0 -67 -23 -133 -68 -178c-52 -52 -116 -64 -173 -64c-65 0 -127 16 -175 67c-53 56 -63 126 -63 181z" />
    <glyph glyph-name="uni04DA" unicode="&#x4da;" horiz-adv-x="765" 
d="M42 375h520c-1 10 -9 71 -52 115c-39 40 -89 50 -134 50c-31 0 -66 -4 -100 -23c-24 -13 -48 -35 -66 -65l-142 55c11 19 48 80 115 122c52 33 124 53 206 53c64 0 159 -13 237 -90c81 -79 97 -179 97 -255c0 -84 -19 -184 -102 -265c-74 -72 -153 -87 -239 -87
c-93 0 -161 19 -227 85c-85 86 -113 215 -113 301v4zM559 267h-346c4 -32 19 -71 44 -97c21 -22 59 -47 127 -47c36 0 82 6 122 42c23 21 46 56 53 102zM194 811c0 43 36 79 79 79s79 -36 79 -79s-36 -79 -79 -79s-79 36 -79 79zM412 811c0 43 36 79 79 79s79 -36 79 -79
s-36 -79 -79 -79s-79 36 -79 79z" />
    <glyph glyph-name="uni04DB" unicode="&#x4db;" horiz-adv-x="547" 
d="M362 168h-195c4 -22 15 -42 29 -55c15 -14 37 -25 69 -25c20 0 48 4 72 29c10 11 21 28 25 51zM34 233v18h332c0 28 -11 55 -26 72c-22 25 -51 29 -72 29c-18 0 -43 -2 -60 -13c-2 -1 -19 -12 -31 -37l-136 14c20 63 60 96 86 112c48 30 103 33 142 33
c66 0 125 -12 177 -64c39 -40 67 -98 67 -170c0 -67 -23 -133 -68 -178c-52 -52 -116 -64 -173 -64c-65 0 -127 16 -175 67c-53 56 -63 126 -63 181zM303 599c0 43 36 79 79 79s79 -36 79 -79s-36 -79 -79 -79s-79 36 -79 79zM85 599c0 43 36 79 79 79s79 -36 79 -79
s-36 -79 -79 -79s-79 36 -79 79z" />
    <glyph glyph-name="uni04DC" unicode="&#x4dc;" horiz-adv-x="941" 
d="M393 0v299l-201 -299h-186l250 346l-236 321h176l197 -286v286h154v-286l197 286h176l-236 -321l251 -346h-186l-202 299v-299h-154zM282 811c0 43 36 79 79 79s79 -36 79 -79s-36 -79 -79 -79s-79 36 -79 79zM500 811c0 43 36 79 79 79s79 -36 79 -79s-36 -79 -79 -79
s-79 36 -79 79z" />
    <glyph glyph-name="uni04DD" unicode="&#x4dd;" horiz-adv-x="762" 
d="M311 446h140v-179l127 179h164l-162 -209l180 -237h-176l-133 193v-193h-140v193l-133 -193h-176l180 237l-162 209h164l127 -179v179zM411 599c0 43 36 79 79 79s79 -36 79 -79s-36 -79 -79 -79s-79 36 -79 79zM193 599c0 43 36 79 79 79s79 -36 79 -79s-36 -79 -79 -79
s-79 36 -79 79z" />
    <glyph glyph-name="uni04DE" unicode="&#x4de;" horiz-adv-x="590" 
d="M128 489l-68 118c31 25 58 39 91 51c42 16 77 24 130 24c59 0 128 -11 179 -61c38 -37 51 -82 51 -131c0 -32 -7 -60 -26 -87c-20 -28 -44 -41 -64 -49c28 -8 59 -23 82 -47c19 -19 45 -58 45 -119c0 -55 -22 -101 -54 -134c-59 -60 -139 -69 -201 -69
c-55 0 -109 6 -160 29c-35 15 -72 41 -103 70l86 113c18 -21 43 -42 68 -55c29 -15 61 -21 91 -21c29 0 58 7 77 20c18 13 32 34 32 62c0 25 -12 43 -24 53c-18 14 -51 25 -127 25h-25v124h23c48 0 87 5 110 26c10 9 19 24 19 45c0 22 -11 40 -27 52c-17 13 -45 18 -70 18
c-28 0 -54 -7 -75 -17c-20 -9 -43 -25 -60 -40zM92 811c0 43 36 79 79 79s79 -36 79 -79s-36 -79 -79 -79s-79 36 -79 79zM310 811c0 43 36 79 79 79s79 -36 79 -79s-36 -79 -79 -79s-79 36 -79 79z" />
    <glyph glyph-name="uni04DF" unicode="&#x4df;" horiz-adv-x="463" 
d="M96 312l-55 96c19 12 50 28 74 37c34 12 71 16 105 16c24 0 106 -2 151 -46c25 -24 33 -52 33 -82c0 -28 -5 -53 -27 -76c-11 -11 -24 -20 -38 -25c33 -8 54 -26 60 -32c22 -21 30 -45 30 -74c0 -31 -10 -64 -39 -93c-38 -37 -90 -48 -164 -48c-40 0 -82 5 -122 20
c-39 15 -68 37 -80 47l61 95c16 -14 37 -28 55 -36c19 -8 46 -14 69 -14c16 0 38 3 52 11c17 10 20 24 20 34c0 15 -8 24 -21 30c-12 5 -36 8 -52 8h-54v98h41c13 0 40 2 54 8c17 8 21 21 21 30c0 8 -4 21 -22 29c-7 3 -21 8 -45 8c-23 0 -40 -4 -59 -12s-34 -17 -48 -29z
M254 599c0 43 36 79 79 79s79 -36 79 -79s-36 -79 -79 -79s-79 36 -79 79zM36 599c0 43 36 79 79 79s79 -36 79 -79s-36 -79 -79 -79s-79 36 -79 79z" />
    <glyph glyph-name="uni04E2" unicode="&#x4e2;" horiz-adv-x="745" 
d="M73 667h154v-436l309 444h136v-675h-154v437l-309 -445h-136v675zM174 753v92h388v-92h-388z" />
    <glyph glyph-name="uni04E3" unicode="&#x4e3;" horiz-adv-x="580" 
d="M56 446h144v-255l190 255h134v-446h-144v259l-190 -259h-134v446zM100 543v90h380v-90h-380z" />
    <glyph glyph-name="uni04E4" unicode="&#x4e4;" horiz-adv-x="745" 
d="M73 667h154v-436l309 444h136v-675h-154v437l-309 -445h-136v675zM188 811c0 43 36 79 79 79s79 -36 79 -79s-36 -79 -79 -79s-79 36 -79 79zM406 811c0 43 36 79 79 79s79 -36 79 -79s-36 -79 -79 -79s-79 36 -79 79z" />
    <glyph glyph-name="uni04E5" unicode="&#x4e5;" horiz-adv-x="580" 
d="M56 446h144v-255l190 255h134v-446h-144v259l-190 -259h-134v446zM320 599c0 43 36 79 79 79s79 -36 79 -79s-36 -79 -79 -79s-79 36 -79 79zM102 599c0 43 36 79 79 79s79 -36 79 -79s-36 -79 -79 -79s-79 36 -79 79z" />
    <glyph glyph-name="uni04E6" unicode="&#x4e6;" horiz-adv-x="810" 
d="M406 682c104 0 191 -32 258 -97c63 -61 104 -149 104 -252c0 -89 -32 -180 -104 -250c-62 -60 -146 -98 -258 -98c-125 0 -210 50 -260 98c-64 60 -104 150 -104 248c0 96 43 193 103 253c45 45 128 98 261 98zM405 540c-58 0 -110 -21 -146 -57
c-29 -28 -59 -77 -59 -151c0 -61 20 -110 61 -150c43 -41 91 -55 143 -55c68 0 116 25 148 57c26 25 58 72 58 149c0 69 -28 120 -58 150c-33 32 -86 57 -147 57zM217 811c0 43 36 79 79 79s79 -36 79 -79s-36 -79 -79 -79s-79 36 -79 79zM435 811c0 43 36 79 79 79
s79 -36 79 -79s-36 -79 -79 -79s-79 36 -79 79z" />
    <glyph glyph-name="uni04E7" unicode="&#x4e7;" horiz-adv-x="592" 
d="M558 223c0 -57 -22 -121 -67 -166c-40 -40 -108 -72 -195 -72s-155 32 -195 72c-45 45 -67 109 -67 166s22 121 67 166c40 40 108 72 195 72s155 -32 195 -72c45 -45 67 -109 67 -166zM296 339c-33 0 -60 -11 -81 -32s-33 -48 -33 -84c0 -41 16 -67 33 -84
c18 -18 44 -32 82 -32c32 0 59 11 80 32s33 48 33 84s-12 63 -33 84s-48 32 -81 32zM326 599c0 43 36 79 79 79s79 -36 79 -79s-36 -79 -79 -79s-79 36 -79 79zM108 599c0 43 36 79 79 79s79 -36 79 -79s-36 -79 -79 -79s-79 36 -79 79z" />
    <glyph glyph-name="uni04E8" unicode="&#x4e8;" horiz-adv-x="810" 
d="M406 682c104 0 191 -32 258 -97c63 -61 104 -149 104 -252c0 -89 -32 -180 -104 -250c-62 -60 -146 -98 -258 -98c-125 0 -210 50 -260 98c-64 60 -104 150 -104 248c0 96 43 193 103 253c45 45 128 98 261 98zM210 399h390c-13 53 -44 86 -69 104c-27 20 -68 37 -127 37
c-41 0 -88 -10 -129 -43c-15 -12 -48 -43 -65 -98zM601 269h-393c10 -36 33 -77 66 -102c29 -23 74 -40 132 -40c37 0 86 5 129 38c21 16 53 48 66 104z" />
    <glyph glyph-name="uni04E9" unicode="&#x4e9;" horiz-adv-x="592" 
d="M558 223c0 -57 -22 -121 -67 -166c-40 -40 -108 -72 -195 -72s-155 32 -195 72c-45 45 -67 109 -67 166s22 121 67 166c40 40 108 72 195 72s155 -32 195 -72c45 -45 67 -109 67 -166zM189 266h214c-6 20 -18 42 -36 57c-23 18 -50 22 -71 22c-43 0 -66 -16 -79 -29
s-23 -33 -28 -50zM405 188h-218c1 -5 8 -38 33 -61c14 -13 38 -26 76 -26c29 0 54 8 72 23c19 16 32 42 37 64z" />
    <glyph glyph-name="uni04EA" unicode="&#x4ea;" horiz-adv-x="810" 
d="M406 682c104 0 191 -32 258 -97c63 -61 104 -149 104 -252c0 -89 -32 -180 -104 -250c-62 -60 -146 -98 -258 -98c-125 0 -210 50 -260 98c-64 60 -104 150 -104 248c0 96 43 193 103 253c45 45 128 98 261 98zM210 399h390c-13 53 -44 86 -69 104c-27 20 -68 37 -127 37
c-41 0 -88 -10 -129 -43c-15 -12 -48 -43 -65 -98zM601 269h-393c10 -36 33 -77 66 -102c29 -23 74 -40 132 -40c37 0 86 5 129 38c21 16 53 48 66 104zM217 811c0 43 36 79 79 79s79 -36 79 -79s-36 -79 -79 -79s-79 36 -79 79zM435 811c0 43 36 79 79 79s79 -36 79 -79
s-36 -79 -79 -79s-79 36 -79 79z" />
    <glyph glyph-name="uni04EB" unicode="&#x4eb;" horiz-adv-x="592" 
d="M558 223c0 -57 -22 -121 -67 -166c-40 -40 -108 -72 -195 -72s-155 32 -195 72c-45 45 -67 109 -67 166s22 121 67 166c40 40 108 72 195 72s155 -32 195 -72c45 -45 67 -109 67 -166zM189 266h214c-6 20 -18 42 -36 57c-23 18 -50 22 -71 22c-43 0 -66 -16 -79 -29
s-23 -33 -28 -50zM405 188h-218c1 -5 8 -38 33 -61c14 -13 38 -26 76 -26c29 0 54 8 72 23c19 16 32 42 37 64zM326 599c0 43 36 79 79 79s79 -36 79 -79s-36 -79 -79 -79s-79 36 -79 79zM108 599c0 43 36 79 79 79s79 -36 79 -79s-36 -79 -79 -79s-79 36 -79 79z" />
    <glyph glyph-name="uni04EE" unicode="&#x4ee;" horiz-adv-x="622" 
d="M4 667h172l140 -308l134 308h166l-305 -667h-166l97 192zM113 753v92h388v-92h-388z" />
    <glyph glyph-name="uni04EF" unicode="&#x4ef;" horiz-adv-x="585" 
d="M58 -229l157 286l-213 389h166l126 -242l123 242h162l-359 -675h-162zM94 543v90h380v-90h-380z" />
    <glyph glyph-name="uni04F0" unicode="&#x4f0;" horiz-adv-x="622" 
d="M4 667h172l140 -308l134 308h166l-305 -667h-166l97 192zM123 811c0 43 36 79 79 79s79 -36 79 -79s-36 -79 -79 -79s-79 36 -79 79zM341 811c0 43 36 79 79 79s79 -36 79 -79s-36 -79 -79 -79s-79 36 -79 79z" />
    <glyph glyph-name="uni04F1" unicode="&#x4f1;" horiz-adv-x="585" 
d="M58 -229l157 286l-213 389h166l126 -242l123 242h162l-359 -675h-162zM322 599c0 43 36 79 79 79s79 -36 79 -79s-36 -79 -79 -79s-79 36 -79 79zM104 599c0 43 36 79 79 79s79 -36 79 -79s-36 -79 -79 -79s-79 36 -79 79z" />
    <glyph glyph-name="uni04F2" unicode="&#x4f2;" horiz-adv-x="622" 
d="M4 667h172l140 -308l134 308h166l-305 -667h-166l97 192zM276 925l86 -66l-140 -135l-55 48zM462 925l87 -66l-140 -135l-56 48z" />
    <glyph glyph-name="uni04F3" unicode="&#x4f3;" horiz-adv-x="585" 
d="M58 -229l157 286l-213 389h166l126 -242l123 242h162l-359 -675h-162zM244 710l82 -66l-134 -135l-52 48zM424 709l83 -65l-134 -135l-53 48z" />
    <glyph glyph-name="uni04F4" unicode="&#x4f4;" horiz-adv-x="646" 
d="M419 0v266c-35 -6 -72 -10 -113 -10c-60 0 -153 8 -207 59c-46 44 -51 97 -51 147v205h154v-174c0 -20 -1 -57 29 -81c20 -16 52 -22 97 -22c33 0 59 2 91 8v269h154v-667h-154zM135 811c0 43 36 79 79 79s79 -36 79 -79s-36 -79 -79 -79s-79 36 -79 79zM353 811
c0 43 36 79 79 79s79 -36 79 -79s-36 -79 -79 -79s-79 36 -79 79z" />
    <glyph glyph-name="uni04F5" unicode="&#x4f5;" horiz-adv-x="518" 
d="M318 0v150c-32 -8 -58 -11 -90 -11c-48 0 -108 6 -147 43s-41 85 -41 115v149h142v-129c0 -12 1 -34 18 -49c15 -13 41 -15 58 -15c22 0 40 2 60 9v184h144v-446h-144zM289 599c0 43 36 79 79 79s79 -36 79 -79s-36 -79 -79 -79s-79 36 -79 79zM71 599c0 43 36 79 79 79
s79 -36 79 -79s-36 -79 -79 -79s-79 36 -79 79z" />
    <glyph glyph-name="uni04F8" unicode="&#x4f8;" horiz-adv-x="847" 
d="M620 667h154v-667h-154v667zM73 0v667h154v-260h92c57 0 130 -6 183 -56c48 -45 56 -104 56 -148s-8 -103 -54 -147c-55 -52 -134 -56 -190 -56h-241zM227 283v-159h68c27 0 59 3 80 18c12 8 29 27 29 62c0 42 -23 60 -28 63c-11 8 -32 16 -80 16h-69zM231 811
c0 43 36 79 79 79s79 -36 79 -79s-36 -79 -79 -79s-79 36 -79 79zM449 811c0 43 36 79 79 79s79 -36 79 -79s-36 -79 -79 -79s-79 36 -79 79z" />
    <glyph glyph-name="uni04F9" unicode="&#x4f9;" horiz-adv-x="703" 
d="M505 446h142v-446h-142v446zM200 293h99c64 0 102 -23 121 -42c33 -33 37 -76 37 -102c0 -31 -5 -76 -40 -110c-37 -36 -86 -39 -123 -39h-238v446h144v-153zM200 102h59c11 0 31 0 44 12c9 8 14 21 14 34c0 18 -9 28 -14 32c-13 10 -34 11 -43 11h-60v-89zM369 599
c0 43 36 79 79 79s79 -36 79 -79s-36 -79 -79 -79s-79 36 -79 79zM151 599c0 43 36 79 79 79s79 -36 79 -79s-36 -79 -79 -79s-79 36 -79 79z" />
    <glyph glyph-name="uni1E9E" unicode="&#x1e9e;" horiz-adv-x="594" 
d="M225 0h-152v460c0 65 19 122 66 167c50 48 115 55 151 55c59 0 108 -11 146 -39c42 -31 74 -78 77 -157l-95 -112c41 -14 74 -35 99 -66c26 -33 35 -67 35 -112c0 -66 -36 -122 -77 -154c-42 -33 -100 -51 -187 -56v120c22 2 58 8 78 24c19 15 32 39 32 75
c0 32 -14 53 -35 68s-48 22 -75 24v92l73 100c0 20 -5 40 -18 54c-10 11 -30 19 -50 19c-22 0 -39 -8 -50 -22s-18 -33 -18 -60v-480z" />
    <glyph glyph-name="uni2010" unicode="&#x2010;" horiz-adv-x="356" 
d="M50 190v126h256v-126h-256z" />
    <glyph glyph-name="uni2011" unicode="&#x2011;" horiz-adv-x="356" 
d="M50 190v126h256v-126h-256z" />
    <glyph glyph-name="figuredash" unicode="&#x2012;" horiz-adv-x="607" 
d="M70 282v118h467v-118h-467z" />
    <glyph glyph-name="endash" unicode="&#x2013;" horiz-adv-x="607" 
d="M70 194v118h467v-118h-467z" />
    <glyph glyph-name="emdash" unicode="&#x2014;" horiz-adv-x="874" 
d="M70 194v118h734v-118h-734z" />
    <glyph glyph-name="afii00208" unicode="&#x2015;" horiz-adv-x="874" 
d="M70 194v118h734v-118h-734z" />
    <glyph glyph-name="quoteleft" unicode="&#x2018;" horiz-adv-x="327" 
d="M283 667l-110 -282l-131 7l151 279z" />
    <glyph glyph-name="quoteright" unicode="&#x2019;" horiz-adv-x="394" 
d="M42 392l110 282l132 -7l-152 -279z" />
    <glyph glyph-name="quotesinglbase" unicode="&#x201a;" horiz-adv-x="394" 
d="M42 -128l110 282l132 -7l-152 -279z" />
    <glyph glyph-name="quotedblleft" unicode="&#x201c;" horiz-adv-x="535" 
d="M491 667l-111 -282l-131 7l152 279zM283 667l-110 -282l-131 7l151 279z" />
    <glyph glyph-name="quotedblright" unicode="&#x201d;" horiz-adv-x="613" 
d="M62 392l110 282l132 -7l-152 -279zM269 392l111 282l131 -7l-152 -279z" />
    <glyph glyph-name="quotedblbase" unicode="&#x201e;" horiz-adv-x="613" 
d="M52 -128l110 282l132 -7l-152 -279zM259 -128l111 282l131 -7l-152 -279z" />
    <glyph glyph-name="dagger" unicode="&#x2020;" horiz-adv-x="582" 
d="M225 527v202h132v-202h157v-116h-157v-595h-132v595h-157v116h157z" />
    <glyph glyph-name="daggerdbl" unicode="&#x2021;" horiz-adv-x="581" 
d="M225 527v202h131v-202h157v-116h-157v-229h157v-115h-157v-251h-131v251h-157v115h157v229h-157v116h157z" />
    <glyph glyph-name="bullet" unicode="&#x2022;" horiz-adv-x="1000" 
d="M360 340c0 77 63 140 140 140s140 -63 140 -140s-63 -140 -140 -140s-140 63 -140 140z" />
    <glyph glyph-name="ellipsis" unicode="&#x2026;" horiz-adv-x="894" 
d="M63 76c0 51 40 91 91 91s91 -40 91 -91s-40 -91 -91 -91s-91 40 -91 91zM356 76c0 51 40 91 91 91s91 -40 91 -91s-40 -91 -91 -91s-91 40 -91 91zM649 76c0 51 40 91 91 91s91 -40 91 -91s-40 -91 -91 -91s-91 40 -91 91z" />
    <glyph glyph-name="perthousand" unicode="&#x2030;" horiz-adv-x="1245" 
d="M185 2l391 676l70 -15l-392 -677zM205 595c-27 0 -46 -11 -57 -23c-13 -13 -22 -34 -22 -58s9 -45 22 -58c11 -12 30 -23 57 -23s46 11 57 23c13 13 22 34 22 58s-9 45 -22 58c-11 12 -30 23 -57 23zM380 514c0 -59 -26 -95 -43 -112c-31 -32 -79 -50 -132 -50
s-101 18 -132 50c-17 17 -43 53 -43 112s26 95 43 112c31 32 79 50 132 50s101 -18 132 -50c17 -17 43 -53 43 -112zM625 234c-27 0 -46 -11 -57 -23c-13 -13 -22 -34 -22 -58s9 -45 22 -58c11 -12 30 -23 57 -23s46 11 57 23c13 13 22 34 22 58s-9 45 -22 58
c-11 12 -30 23 -57 23zM800 153c0 -59 -26 -95 -43 -112c-31 -32 -79 -50 -132 -50s-101 18 -132 50c-17 17 -43 53 -43 112s26 95 43 112c31 32 79 50 132 50s101 -18 132 -50c17 -17 43 -53 43 -112zM1040 234c-27 0 -46 -11 -57 -23c-13 -13 -22 -34 -22 -58
s9 -45 22 -58c11 -12 30 -23 57 -23s46 11 57 23c13 13 22 34 22 58s-9 45 -22 58c-11 12 -30 23 -57 23zM1215 153c0 -59 -26 -95 -43 -112c-31 -32 -79 -50 -132 -50s-101 18 -132 50c-17 17 -43 53 -43 112s26 95 43 112c31 32 79 50 132 50s101 -18 132 -50
c17 -17 43 -53 43 -112z" />
    <glyph glyph-name="guilsinglleft" unicode="&#x2039;" horiz-adv-x="326" 
d="M274 384l-116 -160l118 -159l-81 -57l-155 216l155 215z" />
    <glyph glyph-name="guilsinglright" unicode="&#x203a;" horiz-adv-x="326" 
d="M168 224l-116 160l79 55l155 -215l-155 -216l-81 57z" />
    <glyph glyph-name="fraction" unicode="&#x2044;" horiz-adv-x="258" 
d="M-100 10l390 668l68 -23l-390 -669z" />
    <glyph glyph-name="Euro" unicode="&#x20ac;" horiz-adv-x="600" 
d="M546 181v-153c-23 -14 -76 -43 -176 -43c-76 0 -152 19 -204 59c-50 39 -87 101 -99 169h-87l36 90h40c-1 18 -1 37 0 57h-76l36 90h51c14 57 43 106 78 141c48 48 128 91 252 91c59 0 115 -12 169 -39l-54 -129c-43 26 -88 33 -124 33c-14 0 -64 -2 -104 -27
c-20 -13 -42 -34 -53 -70h264l-36 -90h-243c-3 -20 -2 -39 1 -57h223l-36 -90h-170c6 -18 19 -49 56 -70c29 -17 67 -23 100 -23c92 0 137 41 156 61z" />
    <glyph glyph-name="uni20B4" unicode="&#x20b4;" horiz-adv-x="600" 
d="M95 616c30 20 60 33 91 44c50 17 92 22 140 22c46 0 102 -4 146 -46c25 -24 44 -60 44 -102c0 -38 -15 -64 -30 -82h74v-97h-143l-70 -63h213v-97h-304c-11 -8 -18 -21 -18 -32c0 -18 14 -27 24 -32c17 -8 33 -10 53 -10c25 0 65 4 90 14c16 6 44 22 58 31l73 -110
c-27 -20 -59 -37 -98 -50c-44 -14 -97 -21 -152 -21c-43 0 -97 6 -140 36c-34 24 -53 55 -53 99c0 32 10 55 25 75h-81v97h155l70 63h-225v97h300c15 14 21 33 21 48s-7 29 -18 38c-17 14 -38 14 -51 14c-36 0 -55 -8 -78 -19c-17 -8 -31 -16 -47 -29z" />
    <glyph glyph-name="uni20B6" unicode="&#x20b6;" horiz-adv-x="600" 
d="M331 667c58 0 122 -8 175 -55c57 -51 65 -115 65 -162c0 -44 -6 -104 -57 -149c-23 -21 -74 -53 -170 -53h-94v-63h180v-97h-180v-88h-154v88h-72v97h72v63h-72v112h72v307h235zM250 541v-181h55c21 0 58 1 83 25c14 14 25 37 25 66c0 28 -10 51 -25 65
c-23 22 -56 25 -86 25h-52z" />
    <glyph glyph-name="uni20B6" unicode="&#x20cf;" horiz-adv-x="600" 
d="M331 667c58 0 122 -8 175 -55c57 -51 65 -115 65 -162c0 -44 -6 -104 -57 -149c-23 -21 -74 -53 -170 -53h-94v-63h180v-97h-180v-88h-154v88h-72v97h72v63h-72v112h72v307h235zM250 541v-181h55c21 0 58 1 83 25c14 14 25 37 25 66c0 28 -10 51 -25 65
c-23 22 -56 25 -86 25h-52z" />
    <glyph glyph-name="uni20B6" unicode="&#x20ce;" horiz-adv-x="600" 
d="M331 667c58 0 122 -8 175 -55c57 -51 65 -115 65 -162c0 -44 -6 -104 -57 -149c-23 -21 -74 -53 -170 -53h-94v-63h180v-97h-180v-88h-154v88h-72v97h72v63h-72v112h72v307h235zM250 541v-181h55c21 0 58 1 83 25c14 14 25 37 25 66c0 28 -10 51 -25 65
c-23 22 -56 25 -86 25h-52z" />
    <glyph glyph-name="uni20B6" unicode="&#x20cd;" horiz-adv-x="600" 
d="M331 667c58 0 122 -8 175 -55c57 -51 65 -115 65 -162c0 -44 -6 -104 -57 -149c-23 -21 -74 -53 -170 -53h-94v-63h180v-97h-180v-88h-154v88h-72v97h72v63h-72v112h72v307h235zM250 541v-181h55c21 0 58 1 83 25c14 14 25 37 25 66c0 28 -10 51 -25 65
c-23 22 -56 25 -86 25h-52z" />
    <glyph glyph-name="uni20B6" unicode="&#x20cc;" horiz-adv-x="600" 
d="M331 667c58 0 122 -8 175 -55c57 -51 65 -115 65 -162c0 -44 -6 -104 -57 -149c-23 -21 -74 -53 -170 -53h-94v-63h180v-97h-180v-88h-154v88h-72v97h72v63h-72v112h72v307h235zM250 541v-181h55c21 0 58 1 83 25c14 14 25 37 25 66c0 28 -10 51 -25 65
c-23 22 -56 25 -86 25h-52z" />
    <glyph glyph-name="uni20B6" unicode="&#x20cb;" horiz-adv-x="600" 
d="M331 667c58 0 122 -8 175 -55c57 -51 65 -115 65 -162c0 -44 -6 -104 -57 -149c-23 -21 -74 -53 -170 -53h-94v-63h180v-97h-180v-88h-154v88h-72v97h72v63h-72v112h72v307h235zM250 541v-181h55c21 0 58 1 83 25c14 14 25 37 25 66c0 28 -10 51 -25 65
c-23 22 -56 25 -86 25h-52z" />
    <glyph glyph-name="uni20B6" unicode="&#x20ca;" horiz-adv-x="600" 
d="M331 667c58 0 122 -8 175 -55c57 -51 65 -115 65 -162c0 -44 -6 -104 -57 -149c-23 -21 -74 -53 -170 -53h-94v-63h180v-97h-180v-88h-154v88h-72v97h72v63h-72v112h72v307h235zM250 541v-181h55c21 0 58 1 83 25c14 14 25 37 25 66c0 28 -10 51 -25 65
c-23 22 -56 25 -86 25h-52z" />
    <glyph glyph-name="uni20B6" unicode="&#x20c9;" horiz-adv-x="600" 
d="M331 667c58 0 122 -8 175 -55c57 -51 65 -115 65 -162c0 -44 -6 -104 -57 -149c-23 -21 -74 -53 -170 -53h-94v-63h180v-97h-180v-88h-154v88h-72v97h72v63h-72v112h72v307h235zM250 541v-181h55c21 0 58 1 83 25c14 14 25 37 25 66c0 28 -10 51 -25 65
c-23 22 -56 25 -86 25h-52z" />
    <glyph glyph-name="uni20B6" unicode="&#x20c8;" horiz-adv-x="600" 
d="M331 667c58 0 122 -8 175 -55c57 -51 65 -115 65 -162c0 -44 -6 -104 -57 -149c-23 -21 -74 -53 -170 -53h-94v-63h180v-97h-180v-88h-154v88h-72v97h72v63h-72v112h72v307h235zM250 541v-181h55c21 0 58 1 83 25c14 14 25 37 25 66c0 28 -10 51 -25 65
c-23 22 -56 25 -86 25h-52z" />
    <glyph glyph-name="uni20B6" unicode="&#x20c7;" horiz-adv-x="600" 
d="M331 667c58 0 122 -8 175 -55c57 -51 65 -115 65 -162c0 -44 -6 -104 -57 -149c-23 -21 -74 -53 -170 -53h-94v-63h180v-97h-180v-88h-154v88h-72v97h72v63h-72v112h72v307h235zM250 541v-181h55c21 0 58 1 83 25c14 14 25 37 25 66c0 28 -10 51 -25 65
c-23 22 -56 25 -86 25h-52z" />
    <glyph glyph-name="uni20B6" unicode="&#x20c6;" horiz-adv-x="600" 
d="M331 667c58 0 122 -8 175 -55c57 -51 65 -115 65 -162c0 -44 -6 -104 -57 -149c-23 -21 -74 -53 -170 -53h-94v-63h180v-97h-180v-88h-154v88h-72v97h72v63h-72v112h72v307h235zM250 541v-181h55c21 0 58 1 83 25c14 14 25 37 25 66c0 28 -10 51 -25 65
c-23 22 -56 25 -86 25h-52z" />
    <glyph glyph-name="uni20B6" unicode="&#x20c5;" horiz-adv-x="600" 
d="M331 667c58 0 122 -8 175 -55c57 -51 65 -115 65 -162c0 -44 -6 -104 -57 -149c-23 -21 -74 -53 -170 -53h-94v-63h180v-97h-180v-88h-154v88h-72v97h72v63h-72v112h72v307h235zM250 541v-181h55c21 0 58 1 83 25c14 14 25 37 25 66c0 28 -10 51 -25 65
c-23 22 -56 25 -86 25h-52z" />
    <glyph glyph-name="uni20B6" unicode="&#x20c4;" horiz-adv-x="600" 
d="M331 667c58 0 122 -8 175 -55c57 -51 65 -115 65 -162c0 -44 -6 -104 -57 -149c-23 -21 -74 -53 -170 -53h-94v-63h180v-97h-180v-88h-154v88h-72v97h72v63h-72v112h72v307h235zM250 541v-181h55c21 0 58 1 83 25c14 14 25 37 25 66c0 28 -10 51 -25 65
c-23 22 -56 25 -86 25h-52z" />
    <glyph glyph-name="uni20B6" unicode="&#x20c3;" horiz-adv-x="600" 
d="M331 667c58 0 122 -8 175 -55c57 -51 65 -115 65 -162c0 -44 -6 -104 -57 -149c-23 -21 -74 -53 -170 -53h-94v-63h180v-97h-180v-88h-154v88h-72v97h72v63h-72v112h72v307h235zM250 541v-181h55c21 0 58 1 83 25c14 14 25 37 25 66c0 28 -10 51 -25 65
c-23 22 -56 25 -86 25h-52z" />
    <glyph glyph-name="uni20B6" unicode="&#x20c2;" horiz-adv-x="600" 
d="M331 667c58 0 122 -8 175 -55c57 -51 65 -115 65 -162c0 -44 -6 -104 -57 -149c-23 -21 -74 -53 -170 -53h-94v-63h180v-97h-180v-88h-154v88h-72v97h72v63h-72v112h72v307h235zM250 541v-181h55c21 0 58 1 83 25c14 14 25 37 25 66c0 28 -10 51 -25 65
c-23 22 -56 25 -86 25h-52z" />
    <glyph glyph-name="uni20B6" unicode="&#x20c1;" horiz-adv-x="600" 
d="M331 667c58 0 122 -8 175 -55c57 -51 65 -115 65 -162c0 -44 -6 -104 -57 -149c-23 -21 -74 -53 -170 -53h-94v-63h180v-97h-180v-88h-154v88h-72v97h72v63h-72v112h72v307h235zM250 541v-181h55c21 0 58 1 83 25c14 14 25 37 25 66c0 28 -10 51 -25 65
c-23 22 -56 25 -86 25h-52z" />
    <glyph glyph-name="uni20B6" unicode="&#x20c0;" horiz-adv-x="600" 
d="M331 667c58 0 122 -8 175 -55c57 -51 65 -115 65 -162c0 -44 -6 -104 -57 -149c-23 -21 -74 -53 -170 -53h-94v-63h180v-97h-180v-88h-154v88h-72v97h72v63h-72v112h72v307h235zM250 541v-181h55c21 0 58 1 83 25c14 14 25 37 25 66c0 28 -10 51 -25 65
c-23 22 -56 25 -86 25h-52z" />
    <glyph glyph-name="uni20B6" unicode="&#x20bf;" horiz-adv-x="600" 
d="M331 667c58 0 122 -8 175 -55c57 -51 65 -115 65 -162c0 -44 -6 -104 -57 -149c-23 -21 -74 -53 -170 -53h-94v-63h180v-97h-180v-88h-154v88h-72v97h72v63h-72v112h72v307h235zM250 541v-181h55c21 0 58 1 83 25c14 14 25 37 25 66c0 28 -10 51 -25 65
c-23 22 -56 25 -86 25h-52z" />
    <glyph glyph-name="uni20B6" unicode="&#x20be;" horiz-adv-x="600" 
d="M331 667c58 0 122 -8 175 -55c57 -51 65 -115 65 -162c0 -44 -6 -104 -57 -149c-23 -21 -74 -53 -170 -53h-94v-63h180v-97h-180v-88h-154v88h-72v97h72v63h-72v112h72v307h235zM250 541v-181h55c21 0 58 1 83 25c14 14 25 37 25 66c0 28 -10 51 -25 65
c-23 22 -56 25 -86 25h-52z" />
    <glyph glyph-name="uni20B6" unicode="&#x20bd;" horiz-adv-x="600" 
d="M331 667c58 0 122 -8 175 -55c57 -51 65 -115 65 -162c0 -44 -6 -104 -57 -149c-23 -21 -74 -53 -170 -53h-94v-63h180v-97h-180v-88h-154v88h-72v97h72v63h-72v112h72v307h235zM250 541v-181h55c21 0 58 1 83 25c14 14 25 37 25 66c0 28 -10 51 -25 65
c-23 22 -56 25 -86 25h-52z" />
    <glyph glyph-name="uni20B6" unicode="&#x20bc;" horiz-adv-x="600" 
d="M331 667c58 0 122 -8 175 -55c57 -51 65 -115 65 -162c0 -44 -6 -104 -57 -149c-23 -21 -74 -53 -170 -53h-94v-63h180v-97h-180v-88h-154v88h-72v97h72v63h-72v112h72v307h235zM250 541v-181h55c21 0 58 1 83 25c14 14 25 37 25 66c0 28 -10 51 -25 65
c-23 22 -56 25 -86 25h-52z" />
    <glyph glyph-name="uni20B6" unicode="&#x20bb;" horiz-adv-x="600" 
d="M331 667c58 0 122 -8 175 -55c57 -51 65 -115 65 -162c0 -44 -6 -104 -57 -149c-23 -21 -74 -53 -170 -53h-94v-63h180v-97h-180v-88h-154v88h-72v97h72v63h-72v112h72v307h235zM250 541v-181h55c21 0 58 1 83 25c14 14 25 37 25 66c0 28 -10 51 -25 65
c-23 22 -56 25 -86 25h-52z" />
    <glyph glyph-name="uni20B6" unicode="&#x20ba;" horiz-adv-x="600" 
d="M331 667c58 0 122 -8 175 -55c57 -51 65 -115 65 -162c0 -44 -6 -104 -57 -149c-23 -21 -74 -53 -170 -53h-94v-63h180v-97h-180v-88h-154v88h-72v97h72v63h-72v112h72v307h235zM250 541v-181h55c21 0 58 1 83 25c14 14 25 37 25 66c0 28 -10 51 -25 65
c-23 22 -56 25 -86 25h-52z" />
    <glyph glyph-name="uni20B6" unicode="&#x20b9;" horiz-adv-x="600" 
d="M331 667c58 0 122 -8 175 -55c57 -51 65 -115 65 -162c0 -44 -6 -104 -57 -149c-23 -21 -74 -53 -170 -53h-94v-63h180v-97h-180v-88h-154v88h-72v97h72v63h-72v112h72v307h235zM250 541v-181h55c21 0 58 1 83 25c14 14 25 37 25 66c0 28 -10 51 -25 65
c-23 22 -56 25 -86 25h-52z" />
    <glyph glyph-name="uni20B6" unicode="&#x20b7;" horiz-adv-x="600" 
d="M331 667c58 0 122 -8 175 -55c57 -51 65 -115 65 -162c0 -44 -6 -104 -57 -149c-23 -21 -74 -53 -170 -53h-94v-63h180v-97h-180v-88h-154v88h-72v97h72v63h-72v112h72v307h235zM250 541v-181h55c21 0 58 1 83 25c14 14 25 37 25 66c0 28 -10 51 -25 65
c-23 22 -56 25 -86 25h-52z" />
    <glyph glyph-name="uni20B8" unicode="&#x20b8;" horiz-adv-x="600" 
d="M522 417h-146v-417h-154v417h-144v120h444v-120zM522 577h-444v90h444v-90z" />
    <glyph glyph-name="afii61352" unicode="&#x2116;" horiz-adv-x="1151" 
d="M787 195v90h300v-90h-300zM225 0h-152v667h132l335 -428v428h152v-667h-132l-335 430v-430zM1109 508c0 -56 -25 -90 -44 -109c-20 -20 -60 -48 -128 -48s-108 28 -128 48c-19 19 -44 53 -44 109c0 58 26 93 44 111c20 20 60 48 128 48s108 -28 128 -48
c18 -18 44 -53 44 -111zM937 583c-22 0 -40 -9 -52 -21c-5 -5 -20 -22 -20 -53c0 -19 7 -41 20 -54s35 -20 52 -20c19 0 39 7 52 20c8 8 20 25 20 54c0 23 -7 40 -20 53c-9 9 -26 21 -52 21z" />
    <glyph glyph-name="uni2117" unicode="&#x2117;" horiz-adv-x="761" 
d="M251 529h142c33 0 82 -2 118 -40c28 -29 33 -64 33 -89c0 -45 -16 -71 -31 -87c-32 -33 -81 -36 -119 -36h-35v-127h-108v379zM359 447v-88h15c31 0 44 7 50 12c12 10 14 23 14 33c0 9 -2 22 -14 32c-14 11 -33 11 -51 11h-14zM380 620c-64 0 -141 -30 -191 -78
c-49 -48 -86 -127 -86 -208c0 -82 37 -162 86 -209c50 -48 127 -78 191 -78s141 30 191 78c49 47 86 127 86 209c0 81 -37 160 -86 208c-50 48 -127 78 -191 78zM727 333c0 -95 -38 -184 -103 -249c-59 -58 -143 -99 -244 -99s-185 41 -244 99c-65 65 -103 154 -103 249
c0 97 38 185 103 250c59 58 143 99 244 99s185 -41 244 -99c65 -65 103 -153 103 -250z" />
    <glyph glyph-name="trademark" unicode="&#x2122;" horiz-adv-x="766" 
d="M265 585h-82v-298h-94v298h-81v82h257v-82zM375 287h-94l65 380h83l82 -209l88 209h82l59 -380h-94l-28 208l-87 -208h-40l-85 208z" />
    <glyph glyph-name="partialdiff" unicode="&#x2202;" horiz-adv-x="561" 
d="M87 567l17 110c103 -7 225 -41 308 -119c94 -88 115 -209 115 -283c0 -85 -26 -165 -76 -218c-49 -52 -108 -69 -175 -69s-123 17 -172 64c-50 49 -70 111 -70 169c0 78 34 129 67 161c40 39 87 57 145 57c52 0 89 -14 123 -40c-27 63 -70 100 -106 120
c-46 26 -115 44 -176 48zM281 110c25 0 48 8 68 27c19 19 34 49 34 82c0 34 -15 65 -35 82c-18 16 -44 24 -71 24c-26 0 -50 -7 -70 -25c-23 -21 -35 -51 -35 -81c0 -28 11 -58 32 -79c15 -15 39 -30 77 -30z" />
    <glyph glyph-name="product" unicode="&#x220f;" horiz-adv-x="738" 
d="M40 634v116h658v-116h-82v-768h82v-116h-292v116h80v768h-234v-768h80v-116h-292v116h82v768h-82z" />
    <glyph glyph-name="summation" unicode="&#x2211;" horiz-adv-x="672" 
d="M22 750h599v-247h-117l-13 131h-323l250 -367l-250 -401h332l8 134h122v-250h-608v130l243 387l-243 353v130z" />
    <glyph glyph-name="minus" unicode="&#x2212;" 
d="M33 282v116h434v-116h-434z" />
    <glyph glyph-name="uni2215" unicode="&#x2215;" horiz-adv-x="700" 
d="M15 -184l527 933l113 -20l-527 -933z" />
    <glyph glyph-name="uni2219" unicode="&#x2219;" horiz-adv-x="256" 
d="M20 334c0 61 47 108 108 108s108 -47 108 -108s-47 -108 -108 -108s-108 47 -108 108z" />
    <glyph glyph-name="radical" unicode="&#x221a;" horiz-adv-x="668" 
d="M378 827h290v-114h-180l-169 -713h-166l-59 272h-94v114h198l11 -52c6 -28 12 -47 17 -94c4 -39 6 -74 6 -87h11c4 50 9 103 17 149c7 42 18 99 29 145z" />
    <glyph glyph-name="infinity" unicode="&#x221e;" horiz-adv-x="674" 
d="M472 391c-16 0 -31 -5 -45 -17c-11 -9 -22 -22 -30 -35c6 -8 16 -21 25 -29c18 -16 35 -22 50 -22c17 0 32 6 41 15s15 24 15 39c0 12 -5 25 -15 34s-27 15 -41 15zM337 258c-19 -26 -42 -44 -63 -56c-27 -15 -61 -25 -95 -25c-40 0 -76 11 -108 41
c-29 28 -51 71 -51 125c0 56 25 93 47 114c28 27 69 45 118 45c29 0 57 -7 86 -24c24 -14 48 -35 66 -56c18 21 42 42 66 56c29 17 57 24 86 24c49 0 90 -18 118 -45c22 -21 47 -58 47 -114c0 -54 -22 -97 -51 -125c-26 -25 -62 -41 -108 -41c-29 0 -62 9 -95 27
c-28 15 -47 33 -63 54zM202 391c-14 0 -31 -6 -41 -15s-15 -22 -15 -34c0 -15 6 -30 15 -39s24 -15 41 -15c21 0 37 11 50 22c10 9 18 17 25 29c-8 13 -19 26 -30 35c-14 12 -29 17 -45 17z" />
    <glyph glyph-name="integral" unicode="&#x222b;" horiz-adv-x="507" 
d="M318 558v-589c0 -61 -3 -128 -48 -174c-41 -42 -93 -45 -132 -45c-31 0 -56 3 -85 10l23 112c18 -6 39 -10 55 -10c25 0 38 11 43 17c16 18 14 46 14 63v572c0 68 4 146 48 192c37 39 90 44 129 44c31 0 62 -4 89 -10l-24 -112c-15 6 -34 10 -51 10c-23 0 -37 -8 -44 -15
c-17 -17 -17 -49 -17 -65z" />
    <glyph glyph-name="approxequal" unicode="&#x2248;" 
d="M257 170l-41 15c-27 10 -47 17 -65 17c-19 0 -35 -7 -46 -18c-10 -9 -23 -31 -29 -44l-70 44c11 32 34 76 58 100c24 25 54 39 94 39c31 0 53 -9 81 -19l43 -16c17 -6 46 -16 66 -16c16 0 29 4 41 13s25 27 32 40l72 -41c-13 -33 -37 -70 -58 -92
c-27 -28 -58 -41 -96 -41c-31 0 -54 9 -82 19zM257 371l-41 15c-27 10 -47 17 -65 17c-19 0 -35 -7 -46 -18c-10 -9 -23 -31 -29 -44l-70 44c13 35 36 78 58 100c29 29 62 39 94 39c31 0 54 -9 81 -19l43 -16c17 -6 46 -16 66 -16c16 0 29 4 41 13s25 27 32 40l72 -41
c-13 -33 -37 -70 -58 -92c-27 -28 -58 -41 -96 -41c-31 0 -54 9 -82 19z" />
    <glyph glyph-name="notequal" unicode="&#x2260;" 
d="M33 366v110h232l52 106h99l-51 -106h101v-110h-153l-33 -70h186v-110h-237l-51 -104h-99l50 104h-96v110h147l34 70h-181z" />
    <glyph glyph-name="lessequal" unicode="&#x2264;" 
d="M33 458l434 207v-117l-305 -143l305 -136v-118l-434 202v105zM33 122h434v-114h-434v114z" />
    <glyph glyph-name="greaterequal" unicode="&#x2265;" 
d="M467 458v-105l-434 -202v118l305 136l-305 143v117zM467 122v-114h-434v114h434z" />
    <glyph glyph-name="dotmath" unicode="&#x22c5;" horiz-adv-x="256" 
d="M20 334c0 61 47 108 108 108s108 -47 108 -108s-47 -108 -108 -108s-108 47 -108 108z" />
    <glyph glyph-name="lozenge" unicode="&#x25ca;" horiz-adv-x="700" 
d="M90 334l260 360l260 -360l-260 -360zM463 334l-113 155l-113 -155l113 -155z" />
    <glyph glyph-name="openbullet" unicode="&#x25e6;" horiz-adv-x="502" 
d="M175 515c0 -40 34 -74 76 -74s76 34 76 74s-34 74 -76 74s-76 -34 -76 -74zM97 515c0 85 67 152 154 152s154 -67 154 -152s-67 -152 -154 -152s-154 67 -154 152z" />
    <glyph glyph-name="uniF400" unicode="&#xf400;" horiz-adv-x="2" 
d="M-202 715l94 -65l-152 -135l-65 48z" />
    <glyph glyph-name="uniF401" unicode="&#xf401;" horiz-adv-x="2" 
d="M-220 925l95 -72l-164 -129l-65 53z" />
    <glyph glyph-name="uniF406" unicode="&#xf406;" 
d="M326 874h96c-2 -18 -11 -70 -46 -105c-36 -36 -89 -44 -126 -44s-90 8 -126 44c-35 35 -44 87 -46 105h96c2 -16 10 -32 19 -42c13 -14 36 -21 57 -21s44 7 57 21c9 10 17 26 19 42z" />
    <glyph glyph-name="uniF407" unicode="&#xf407;" 
d="M258 -46l100 -44l-112 -146l-80 40z" />
    <glyph glyph-name="uniF408" unicode="&#xf408;" 
d="M125 726l-64 71l188 140l189 -140l-66 -71l-123 93z" />
    <glyph glyph-name="uniF409" unicode="&#xf409;" 
d="M120 -248l56 198l134 -16l-98 -194z" />
    <glyph glyph-name="uniF40A" unicode="&#xf40a;" 
d="M120 472l70 208l130 -30l-112 -198z" />
    <glyph glyph-name="uniF40B" unicode="&#xf40b;" 
d="M165 815c0 48 37 85 85 85s85 -37 85 -85s-37 -85 -85 -85s-85 37 -85 85z" />
    <glyph glyph-name="uniF40C" unicode="&#xf40c;" 
d="M366 827c0 -25 -10 -49 -27 -66c-22 -21 -55 -32 -89 -32s-67 11 -89 32c-17 17 -27 41 -27 66s10 49 27 66c22 21 55 32 89 32s67 -11 89 -32c17 -17 27 -41 27 -66zM250 866c-16 0 -27 -5 -34 -12c-8 -8 -12 -18 -12 -27s4 -19 12 -27c7 -7 18 -12 34 -12s27 5 34 12
c8 8 12 18 12 27s-4 19 -12 27c-7 7 -18 12 -34 12z" />
    <glyph glyph-name="uniF40D" unicode="&#xf40d;" 
d="M364 867l71 -50c-11 -22 -26 -42 -42 -58s-37 -31 -71 -31c-21 0 -40 7 -62 16l-41 16c-16 6 -27 11 -37 11c-14 0 -33 -6 -46 -39l-71 50c7 15 23 44 37 59c21 22 46 30 73 30c25 0 43 -7 60 -14l40 -16c11 -4 25 -12 41 -12c22 0 38 14 48 38z" />
    <glyph glyph-name="uniF40E" unicode="&#xf40e;" 
d="M376 -95l-18 -77c-24 -14 -47 -17 -66 -17c-21 0 -47 3 -68 24c-15 15 -23 36 -23 56c0 18 6 39 21 61c12 17 30 36 43 48h66c-8 -8 -21 -21 -27 -28c-12 -14 -19 -30 -19 -44c0 -12 5 -22 12 -28c8 -7 18 -10 29 -10c15 0 34 6 50 15z" />
    <glyph glyph-name="uniF4C6" unicode="&#xf4c6;" horiz-adv-x="646" 
d="M419 667h154v-736c0 -36 -2 -87 -40 -123c-35 -34 -85 -37 -128 -37c-33 0 -55 2 -84 10v116c13 -7 23 -8 38 -8s33 1 46 15c14 15 14 38 14 57v305c-35 -6 -72 -10 -113 -10c-60 0 -153 8 -207 59c-46 44 -51 97 -51 147v205h154v-174c0 -20 -1 -57 29 -81
c20 -16 52 -22 97 -22c33 0 59 2 91 8v269z" />
    <glyph glyph-name="uniF4C7" unicode="&#xf4c7;" horiz-adv-x="518" 
d="M318 446h144v-496c0 -44 -3 -101 -37 -137c-17 -18 -52 -42 -126 -42c-31 0 -58 5 -80 10v114c7 -2 20 -6 37 -6c25 0 38 9 45 16c17 17 17 48 17 73v172c-32 -8 -58 -11 -90 -11c-48 0 -108 6 -147 43s-41 85 -41 115v149h142v-129c0 -12 1 -34 18 -49
c15 -13 41 -15 58 -15c22 0 40 2 60 9v184z" />
    <glyph glyph-name="uniF4CC" unicode="&#xf4cc;" horiz-adv-x="622" 
d="M4 667h172l140 -308l134 308h166l-305 -667h-166l97 192zM375 925l95 -72l-164 -129l-65 53z" />
    <glyph glyph-name="uniF4CD" unicode="&#xf4cd;" horiz-adv-x="585" 
d="M58 -229l157 286l-213 389h166l126 -242l123 242h162l-359 -675h-162zM354 715l94 -65l-152 -135l-65 48z" />
    <glyph glyph-name="dollar.fitted" unicode="&#xf5f5;" horiz-adv-x="507" 
d="M223 775h90v-101c29 -2 90 -12 152 -64l-67 -107c-30 27 -67 47 -109 47c-28 0 -50 -7 -63 -19c-11 -10 -20 -25 -20 -42s7 -29 19 -39c16 -14 40 -21 67 -33l56 -24c34 -15 68 -31 94 -57c33 -34 47 -75 47 -123c0 -63 -23 -115 -55 -149c-29 -31 -71 -54 -121 -62v-114
h-90v110c-40 2 -78 11 -120 33c-34 18 -64 40 -90 68l74 110c8 -8 32 -32 65 -52c26 -16 55 -27 93 -27c22 0 47 4 67 21c13 11 24 27 24 51s-11 41 -30 54c-16 11 -33 16 -69 30l-35 14c-35 14 -71 31 -101 61c-31 32 -45 65 -45 110c0 59 22 113 57 148
c27 27 67 48 110 55v101z" />
    <glyph glyph-name="Euro.fitted" unicode="&#xf5f6;" horiz-adv-x="638" 
d="M584 181v-153c-23 -14 -76 -43 -176 -43c-76 0 -152 19 -204 59c-50 39 -87 101 -99 169h-87l36 90h40c-1 18 -1 37 0 57h-76l36 90h51c14 57 43 106 78 141c48 48 128 91 252 91c59 0 115 -12 169 -39l-54 -129c-43 26 -88 33 -124 33c-14 0 -64 -2 -104 -27
c-20 -13 -42 -34 -53 -70h264l-36 -90h-243c-3 -20 -2 -39 1 -57h223l-36 -90h-170c6 -18 19 -49 56 -70c29 -17 67 -23 100 -23c92 0 137 41 156 61z" />
    <glyph glyph-name="cent.fitted" unicode="&#xf5f7;" horiz-adv-x="390" 
d="M209 660h90v-94c22 -2 43 -8 63 -19v-133c-24 26 -55 38 -86 38c-28 0 -60 -11 -82 -32c-20 -19 -34 -49 -34 -86c0 -38 15 -68 34 -86c20 -18 52 -28 80 -28c22 0 60 6 88 37v-134c-20 -9 -41 -15 -63 -17v-93h-90v89c-37 5 -85 19 -130 63c-49 48 -67 103 -67 164
c0 82 33 140 69 176c23 23 65 54 128 65v90z" />
    <glyph glyph-name="sterling.fitted" unicode="&#xf5f8;" horiz-adv-x="608" 
d="M156 248h-112v92h68c-18 31 -30 66 -30 114c0 67 22 118 63 158c55 54 123 69 188 69c79 0 139 -25 175 -60c41 -39 62 -102 62 -165c0 -8 0 -16 -1 -24h-153c0 35 -4 73 -25 95c-12 12 -33 26 -65 26c-23 0 -45 -6 -63 -23c-17 -16 -32 -42 -32 -80
c0 -43 24 -92 33 -110h149v-92h-125c4 -14 8 -32 8 -47c0 -17 -5 -42 -10 -59l58 -19c40 -13 64 -18 83 -18c12 0 28 2 39 14c8 8 13 23 15 34l98 -12c-5 -39 -23 -87 -49 -115c-22 -23 -55 -41 -103 -41c-16 0 -52 2 -115 23l-39 13c-21 7 -48 14 -76 14
c-13 0 -34 -1 -49 -13c-8 -6 -15 -16 -19 -27l-104 9c9 37 29 80 54 105c14 14 41 36 83 43c4 13 8 31 8 46c0 13 -3 31 -14 50z" />
    <glyph glyph-name="yen.fitted" unicode="&#xf5f9;" horiz-adv-x="619" 
d="M211 347h-140v97h82l-134 223h174l117 -212l114 212h176l-138 -223h86v-97h-146l-23 -35v-28h169v-97h-169v-187h-146v187h-162v97h162v28z" />
    <glyph glyph-name="florin.fitted" unicode="&#xf5fa;" horiz-adv-x="575" 
d="M200 118l43 238h-68l15 90h69l20 115c8 45 29 98 60 130c41 43 93 49 128 49c44 0 75 -9 99 -20l-23 -123c-17 11 -38 17 -58 17c-16 0 -31 -4 -43 -15c-15 -14 -24 -38 -30 -76l-13 -77h102l-16 -90h-102l-48 -268c-11 -60 -30 -158 -89 -214c-55 -52 -130 -58 -176 -58
c-22 0 -39 2 -61 7l23 128c11 -3 26 -5 41 -5c38 0 64 13 77 28c30 33 42 100 50 144z" />
    <glyph glyph-name="uni20B4.fitted" unicode="&#xf5fb;" horiz-adv-x="567" 
d="M79 616c30 20 60 33 91 44c50 17 92 22 140 22c46 0 102 -4 146 -46c25 -24 44 -60 44 -102c0 -38 -15 -64 -30 -82h74v-97h-143l-70 -63h213v-97h-304c-11 -8 -18 -21 -18 -32c0 -18 14 -27 24 -32c17 -8 33 -10 53 -10c25 0 65 4 90 14c16 6 44 22 58 31l73 -110
c-27 -20 -59 -37 -98 -50c-44 -14 -97 -21 -152 -21c-43 0 -97 6 -140 36c-34 24 -53 55 -53 99c0 32 10 55 25 75h-81v97h155l70 63h-225v97h300c15 14 21 33 21 48s-7 29 -18 38c-17 14 -38 14 -51 14c-36 0 -55 -8 -78 -19c-17 -8 -31 -16 -47 -29z" />
    <glyph glyph-name="uni20B6.fitted" unicode="&#xf5fc;" horiz-adv-x="586" 
d="M331 667c58 0 122 -8 175 -55c57 -51 65 -115 65 -162c0 -44 -6 -104 -57 -149c-23 -21 -74 -53 -170 -53h-94v-63h180v-97h-180v-88h-154v88h-72v97h72v63h-72v112h72v307h235zM250 541v-181h55c21 0 58 1 83 25c14 14 25 37 25 66c0 28 -10 51 -25 65
c-23 22 -56 25 -86 25h-52z" />
    <glyph glyph-name="uni20B8.fitted" unicode="&#xf5fd;" horiz-adv-x="474" 
d="M459 417h-146v-417h-154v417h-144v120h444v-120zM459 577h-444v90h444v-90z" />
    <glyph glyph-name="numbersign.fitted" unicode="&#xf5ff;" horiz-adv-x="631" 
d="M481 295h102l-17 -111h-102l-30 -184h-128l30 184h-89l-30 -184h-128l30 184h-101l18 111h100l15 92h-100l17 110h100l28 170h128l-28 -170h89l28 170h128l-28 -170h101l-17 -110h-101zM353 295l15 92h-89l-15 -92h89z" />
    <glyph glyph-name="uniF639" unicode="&#xf639;" horiz-adv-x="606" 
d="M577 333c0 -114 -31 -215 -96 -279c-39 -38 -97 -69 -179 -69c-80 0 -137 30 -177 69c-65 64 -96 165 -96 279c0 115 31 217 96 280c40 39 97 69 177 69c82 0 140 -31 179 -69c65 -63 96 -165 96 -280zM303 550c-26 0 -44 -8 -62 -25c-49 -48 -56 -144 -56 -191
c0 -52 9 -146 56 -192c18 -17 36 -25 62 -25s44 8 62 25c47 46 56 140 56 192c0 47 -7 143 -56 191c-18 17 -36 25 -62 25z" />
    <glyph glyph-name="uniF63A" unicode="&#xf63a;" horiz-adv-x="568" 
d="M534 130v-130h-510l200 218c35 39 88 104 109 136c15 24 40 67 40 113c0 25 -10 51 -26 66c-13 12 -35 19 -61 19c-29 0 -48 -10 -61 -24c-18 -20 -28 -56 -28 -82h-154c5 58 28 124 69 167c32 34 89 69 184 69c97 0 149 -40 173 -63c36 -36 62 -91 62 -160
c0 -59 -18 -102 -50 -147c-29 -40 -64 -74 -107 -115l-70 -67h230z" />
    <glyph glyph-name="uniF63B" unicode="&#xf63b;" horiz-adv-x="564" 
d="M192 467h-148c6 56 31 115 66 151c49 51 114 63 169 63c82 0 141 -25 175 -59c28 -27 51 -71 51 -136c0 -33 -6 -62 -27 -91c-14 -20 -31 -33 -50 -42c28 -10 58 -29 76 -54c20 -27 31 -69 31 -105c0 -51 -20 -109 -67 -152c-57 -52 -122 -58 -176 -58
c-65 0 -136 10 -195 69c-38 39 -67 98 -74 165h154c2 -26 14 -57 32 -75c16 -16 42 -27 74 -27c26 0 51 8 67 23s27 41 27 68c0 28 -13 51 -29 64c-24 19 -59 21 -82 21h-12v106h9c9 0 45 1 67 19c14 12 25 33 25 60c0 23 -9 42 -22 54c-12 11 -32 20 -57 20
c-26 0 -47 -9 -60 -22c-14 -15 -23 -41 -24 -62z" />
    <glyph glyph-name="uniF63C" unicode="&#xf63c;" horiz-adv-x="588" 
d="M483 667v-419h80v-122h-80v-126h-148v126h-326v88l294 453h180zM171 248h164v259z" />
    <glyph glyph-name="uniF63D" unicode="&#xf63d;" horiz-adv-x="545" 
d="M473 667v-130h-225l-18 -89c17 3 38 5 55 5c75 0 133 -27 170 -65c30 -30 61 -82 61 -161c0 -86 -37 -141 -68 -172c-61 -60 -134 -70 -202 -70c-63 0 -138 8 -222 73l35 143c18 -20 43 -42 64 -55c28 -18 61 -29 101 -29c35 0 71 8 95 27c21 16 39 45 39 84
c0 40 -18 64 -34 78c-8 7 -41 35 -111 35c-56 0 -103 -17 -136 -35l68 361h328z" />
    <glyph glyph-name="uniF63E" unicode="&#xf63e;" horiz-adv-x="586" 
d="M282 682l165 -17l-176 -219c20 7 41 11 70 11c84 0 136 -34 165 -64c24 -25 58 -73 58 -154c0 -64 -20 -132 -63 -179c-61 -66 -146 -75 -205 -75c-61 0 -150 6 -216 78c-44 47 -58 103 -58 162c0 106 50 181 107 256zM291 111c40 0 66 17 80 30c18 17 35 45 35 88
c0 39 -16 65 -35 82c-25 22 -54 28 -80 28c-30 0 -58 -7 -81 -29c-13 -12 -34 -39 -34 -85c0 -31 9 -60 34 -83c19 -18 47 -31 81 -31z" />
    <glyph glyph-name="uniF63F" unicode="&#xf63f;" horiz-adv-x="578" 
d="M35 20l302 517h-294v130h530l-395 -682z" />
    </font>
</defs>
</svg>
