<?xml version="1.0" standalone="no"?>
<!DOCTYPE svg PUBLIC "-//W3C//DTD SVG 1.1//EN" "http://www.w3.org/Graphics/SVG/1.1/DTD/svg11.dtd">
<svg width="100%" height="100%" viewBox="0 0 640 480" version="1.1" xmlns="http://www.w3.org/2000/svg" xmlns:xlink="http://www.w3.org/1999/xlink" xml:space="preserve" style="fill-rule:evenodd;clip-rule:evenodd;stroke-linejoin:round;stroke-miterlimit:1.41421;">
    <g id="Layer1">
        <path id="shapePath1" d="M268.612,24.727C268.612,15.261 276.266,7.607 285.768,7.607C295.197,7.607 302.876,15.261 302.876,24.727C302.876,34.228 295.197,41.895 285.768,41.895C276.254,41.907 268.612,34.228 268.612,24.727Z" style="fill:black;fill-opacity:0.0812784;fill-rule:nonzero;"/>
        <path id="shapePath2" d="M234.324,24.763C234.324,30.437 229.724,35.037 224.05,35.037C218.375,35.037 213.775,30.437 213.775,24.763C213.775,19.089 218.375,14.489 224.05,14.489C229.724,14.489 234.324,19.089 234.324,24.763Z" style="fill:rgb(0,155,191);fill-opacity:0.0812784;"/>
        <path id="shapePath3" d="M391.976,24.727C391.976,15.261 399.667,7.607 409.096,7.607C418.598,7.607 426.252,15.261 426.252,24.727C426.252,34.228 418.598,41.895 409.096,41.895C399.667,41.907 391.976,34.228 391.976,24.727Z" style="fill:rgb(180,31,40);fill-opacity:0.0812784;fill-rule:nonzero;"/>
        <path id="shapePath4" d="M323.461,24.726C323.461,11.494 334.206,0.761 347.426,0.761C360.61,0.761 371.379,11.494 371.379,24.726C371.379,37.983 360.598,48.716 347.426,48.716C334.206,48.716 323.461,37.983 323.461,24.726Z" style="fill:rgb(0,155,191);fill-opacity:0.0812784;fill-rule:nonzero;"/>
        <path id="shapePath5" d="M145.199,86.783C145.199,77.305 152.938,69.603 162.331,69.603C171.797,69.603 179.512,77.305 179.512,86.783C179.512,96.224 171.797,103.878 162.331,103.878C152.926,103.878 145.199,96.236 145.199,86.783Z" style="fill:black;fill-opacity:0.0812784;fill-rule:nonzero;"/>
        <path id="shapePath6" d="M391.976,86.783C391.976,77.305 399.667,69.603 409.096,69.603C418.598,69.603 426.252,77.305 426.252,86.783C426.252,96.224 418.598,103.878 409.096,103.878C399.667,103.878 391.976,96.236 391.976,86.783Z" style="fill:black;fill-opacity:0.0812784;fill-rule:nonzero;"/>
        <path id="shapePath7" d="M460.48,86.783C460.48,81.133 465.116,76.472 470.754,76.472C476.465,76.472 481.064,81.133 481.064,86.783C481.064,92.482 476.465,97.033 470.754,97.033C465.116,97.033 460.48,92.482 460.48,86.783Z" style="fill:black;fill-opacity:0.0812784;fill-rule:nonzero;"/>
        <path id="shapePath8" d="M330.282,86.783C330.282,77.619 337.997,70.182 347.438,70.182C356.831,70.182 364.558,77.619 364.558,86.783C364.558,95.922 356.831,103.311 347.438,103.311C337.997,103.311 330.282,95.934 330.282,86.783Z" style="fill:rgb(180,31,40);fill-opacity:0.0812784;fill-rule:nonzero;"/>
        <path id="shapePath9" d="M268.612,86.783C268.612,77.305 276.266,69.603 285.768,69.603C295.197,69.603 302.888,77.305 302.888,86.783C302.888,96.224 295.197,103.878 285.768,103.878C276.254,103.878 268.612,96.236 268.612,86.783Z" style="fill:rgb(196,198,201);fill-opacity:0.0812784;fill-rule:nonzero;"/>
        <path id="shapePath10" d="M200.06,86.783C200.06,73.49 210.842,62.757 224.05,62.757C237.318,62.757 248.039,73.49 248.039,86.783C248.039,99.991 237.306,110.76 224.05,110.76C210.829,110.772 200.06,99.991 200.06,86.783Z" style="fill:rgb(0,155,191);fill-opacity:0.0812784;fill-rule:nonzero;"/>
        <path id="shapePath11" d="M206.882,331.58C206.882,322.09 214.56,314.46 224.013,314.46C233.515,314.46 241.17,322.09 241.17,331.58C241.17,341.057 233.515,348.736 224.013,348.736C214.56,348.736 206.882,341.057 206.882,331.58Z" style="fill:black;fill-opacity:0.0812784;fill-rule:nonzero;"/>
        <path id="shapePath12" d="M398.834,331.58C398.834,325.881 403.434,321.293 409.084,321.293C414.807,321.293 419.394,325.881 419.394,331.58C419.394,337.327 414.807,341.854 409.084,341.854C403.434,341.854 398.834,337.327 398.834,331.58Z" style="fill:black;fill-opacity:0.0812784;fill-rule:nonzero;"/>
        <path id="shapePath13" d="M453.634,331.58C453.634,322.09 461.288,314.46 470.754,314.46C480.207,314.46 487.886,322.09 487.886,331.58C487.886,341.057 480.207,348.736 470.754,348.736C461.276,348.736 453.634,341.057 453.634,331.58Z" style="fill:black;fill-opacity:0.0812784;fill-rule:nonzero;"/>
        <path id="shapePath14" d="M145.199,331.58C145.199,322.09 152.938,314.46 162.331,314.46C171.797,314.46 179.512,322.09 179.512,331.58C179.512,341.057 171.797,348.736 162.331,348.736C152.926,348.736 145.199,341.057 145.199,331.58Z" style="fill:rgb(180,31,40);fill-opacity:0.0812784;fill-rule:nonzero;"/>
        <path id="shapePath15" d="M515.34,331.58C515.34,322.09 522.971,314.46 532.484,314.46C541.901,314.46 549.58,322.09 549.58,331.58C549.58,341.057 541.901,348.736 532.484,348.736C522.971,348.736 515.34,341.057 515.34,331.58Z" style="fill:rgb(180,31,40);fill-opacity:0.0812784;fill-rule:nonzero;"/>
        <path id="shapePath16" d="M83.554,331.58C83.554,322.09 91.196,314.46 100.637,314.46C110.115,314.46 117.781,322.09 117.781,331.58C117.781,341.057 110.115,348.736 100.637,348.736C91.196,348.736 83.554,341.057 83.554,331.58Z" style="fill:rgb(196,198,201);fill-opacity:0.0812784;fill-rule:nonzero;"/>
        <path id="shapePath17" d="M268.612,331.58C268.612,322.09 276.266,314.46 285.768,314.46C295.197,314.46 302.888,322.09 302.888,331.58C302.888,341.057 295.197,348.736 285.768,348.736C276.254,348.736 268.612,341.057 268.612,331.58Z" style="fill:rgb(196,198,201);fill-opacity:0.0812784;fill-rule:nonzero;"/>
        <path id="shapePath18" d="M330.282,331.58C330.282,322.09 337.997,314.46 347.438,314.46C356.831,314.46 364.558,322.09 364.558,331.58C364.558,341.057 356.831,348.736 347.438,348.736C337.997,348.736 330.282,341.057 330.282,331.58Z" style="fill:rgb(0,155,191);fill-opacity:0.0812784;fill-rule:nonzero;"/>
        <path id="shapePath19" d="M275.445,393.262C275.445,387.527 280.033,382.951 285.756,382.951C291.406,382.951 296.03,387.527 296.03,393.262C296.03,399.008 291.406,403.548 285.756,403.548C280.033,403.536 275.445,398.996 275.445,393.262Z" style="fill:black;fill-opacity:0.0812784;fill-rule:nonzero;"/>
        <path id="shapePath20" d="M330.282,393.31C330.282,383.796 337.997,376.106 347.438,376.106C356.831,376.106 364.558,383.796 364.558,393.31C364.558,402.751 356.831,410.369 347.438,410.369C337.997,410.382 330.282,402.763 330.282,393.31Z" style="fill:black;fill-opacity:0.0812784;fill-rule:nonzero;"/>
        <path id="shapePath21" d="M248.039,393.238C248.039,406.487 237.299,417.227 224.05,417.227C210.801,417.227 200.06,406.487 200.06,393.238C200.06,379.989 210.801,369.248 224.05,369.248C237.299,369.248 248.039,379.989 248.039,393.238Z" style="fill:rgb(180,31,40);fill-opacity:0.0812784;"/>
        <path id="shapePath22" d="M391.976,393.31C391.976,383.796 399.667,376.106 409.096,376.106C418.598,376.106 426.252,383.796 426.252,393.31C426.252,402.751 418.598,410.369 409.096,410.369C399.667,410.382 391.976,402.763 391.976,393.31Z" style="fill:rgb(180,31,40);fill-opacity:0.0812784;fill-rule:nonzero;"/>
        <path id="shapePath23" d="M453.622,393.31C453.622,383.796 461.313,376.106 470.754,376.106C480.207,376.106 487.934,383.796 487.934,393.31C487.934,402.751 480.207,410.369 470.754,410.369C461.301,410.382 453.622,402.763 453.622,393.31Z" style="fill:rgb(0,155,191);fill-opacity:0.0812784;fill-rule:nonzero;"/>
        <path id="shapePath24" d="M145.199,393.31C145.199,383.82 152.938,376.106 162.331,376.106C171.797,376.106 179.512,383.82 179.512,393.31C179.512,402.763 171.797,410.369 162.331,410.369C152.926,410.382 145.199,402.775 145.199,393.31Z" style="fill:rgb(0,155,191);fill-opacity:0.0812784;fill-rule:nonzero;"/>
        <path id="shapePath25" d="M145.199,147.499C145.199,138.009 152.938,130.331 162.331,130.331C171.797,130.331 179.512,138.009 179.512,147.499C179.512,156.916 171.797,164.607 162.331,164.607C152.926,164.607 145.199,156.916 145.199,147.499Z" style="fill:black;fill-opacity:0.0812784;fill-rule:nonzero;"/>
        <path id="shapePath26" d="M268.612,147.499C268.612,138.009 276.266,130.331 285.768,130.331C295.197,130.331 302.888,138.009 302.888,147.499C302.888,156.916 295.197,164.607 285.768,164.607C276.254,164.607 268.612,156.916 268.612,147.499Z" style="fill:black;fill-opacity:0.0812784;fill-rule:nonzero;"/>
        <path id="shapePath27" d="M206.882,147.499C206.882,138.009 214.56,130.331 224.013,130.331C233.515,130.331 241.17,138.009 241.17,147.499C241.17,156.916 233.515,164.607 224.013,164.607C214.56,164.607 206.882,156.916 206.882,147.499Z" style="fill:rgb(180,31,40);fill-opacity:0.0812784;fill-rule:nonzero;"/>
        <path id="shapePath28" d="M391.976,147.499C391.976,138.009 399.667,130.331 409.096,130.331C418.598,130.331 426.252,138.009 426.252,147.499C426.252,156.916 418.598,164.607 409.096,164.607C399.667,164.607 391.976,156.916 391.976,147.499Z" style="fill:rgb(196,198,201);fill-opacity:0.0812784;fill-rule:nonzero;"/>
        <path id="shapePath29" d="M515.316,147.499C515.316,138.009 522.959,130.331 532.496,130.331C541.902,130.331 549.604,138.009 549.604,147.499C549.604,156.916 541.902,164.607 532.496,164.607C522.959,164.607 515.316,156.916 515.316,147.499Z" style="fill:rgb(196,198,201);fill-opacity:0.0812784;fill-rule:nonzero;"/>
        <path id="shapePath30" d="M83.554,147.499C83.554,138.009 91.196,130.331 100.637,130.331C110.115,130.331 117.781,138.009 117.781,147.499C117.781,156.916 110.115,164.607 100.637,164.607C91.196,164.607 83.554,156.916 83.554,147.499Z" style="fill:rgb(0,155,191);fill-opacity:0.0812784;fill-rule:nonzero;"/>
        <path id="shapePath31" d="M337.115,147.499C337.115,141.74 341.752,137.189 347.426,137.189C353.088,137.189 357.664,141.74 357.664,147.499C357.664,153.125 353.088,157.761 347.426,157.761C341.752,157.761 337.115,153.125 337.115,147.499Z" style="fill:rgb(0,155,191);fill-opacity:0.0812784;fill-rule:nonzero;"/>
        <path id="shapePath32" d="M453.622,147.499C453.622,138.009 461.313,130.331 470.754,130.331C480.207,130.331 487.934,138.009 487.934,147.499C487.934,156.916 480.207,164.607 470.754,164.607C461.301,164.607 453.622,156.916 453.622,147.499Z" style="fill:rgb(0,155,191);fill-opacity:0.0812784;fill-rule:nonzero;"/>
        <path id="shapePath33" d="M90.387,208.409C90.387,202.686 94.987,198.05 100.686,198.05C106.36,198.05 110.972,202.686 110.972,208.409C110.972,214.035 106.36,218.61 100.686,218.61C94.987,218.61 90.387,214.023 90.387,208.409Z" style="fill:black;fill-opacity:0.0812784;fill-rule:nonzero;"/>
        <path id="shapePath34" d="M213.775,208.348C213.775,202.613 218.327,198.038 224.026,198.038C229.712,198.038 234.336,202.613 234.336,208.348C234.336,213.962 229.712,218.61 224.026,218.61C218.315,218.61 213.775,213.962 213.775,208.348Z" style="fill:black;fill-opacity:0.0812784;fill-rule:nonzero;"/>
        <path id="shapePath35" d="M330.282,208.384C330.282,198.871 337.997,191.18 347.438,191.18C356.831,191.18 364.558,198.871 364.558,208.384C364.558,217.789 356.831,225.48 347.438,225.48C337.997,225.48 330.282,217.789 330.282,208.384Z" style="fill:black;fill-opacity:0.0812784;fill-rule:nonzero;"/>
        <path id="shapePath36" d="M453.622,208.384C453.622,198.871 461.313,191.18 470.754,191.18C480.207,191.18 487.934,198.871 487.934,208.384C487.934,217.789 480.207,225.48 470.754,225.48C461.301,225.48 453.622,217.789 453.622,208.384Z" style="fill:black;fill-opacity:0.0812784;fill-rule:nonzero;"/>
        <path id="shapePath37" d="M391.976,208.384C391.976,198.871 399.667,191.18 409.096,191.18C418.598,191.18 426.252,198.871 426.252,208.384C426.252,217.789 418.598,225.48 409.096,225.48C399.667,225.48 391.976,217.789 391.976,208.384Z" style="fill:rgb(180,31,40);fill-opacity:0.0812784;fill-rule:nonzero;"/>
        <path id="shapePath38" d="M145.199,208.384C145.199,198.871 152.938,191.18 162.331,191.18C171.797,191.18 179.512,198.871 179.512,208.384C179.512,217.789 171.797,225.48 162.331,225.48C152.926,225.48 145.199,217.789 145.199,208.384Z" style="fill:rgb(196,198,201);fill-opacity:0.0812784;fill-rule:nonzero;"/>
        <path id="shapePath39" d="M261.73,208.348C261.73,195.019 272.5,184.346 285.756,184.346C298.988,184.346 309.721,195.031 309.721,208.348C309.721,221.604 298.976,232.325 285.756,232.325C272.5,232.325 261.73,221.604 261.73,208.348Z" style="fill:rgb(0,155,191);fill-opacity:0.0812784;fill-rule:nonzero;"/>
        <path id="shapePath40" d="M508.483,208.348C508.483,195.067 519.192,184.346 532.484,184.346C545.668,184.346 556.45,195.067 556.45,208.348C556.45,221.508 545.656,232.325 532.484,232.325C519.18,232.325 508.483,221.508 508.483,208.348Z" style="fill:rgb(0,155,191);fill-opacity:0.0812784;fill-rule:nonzero;"/>
        <path id="shapePath41" d="M145.199,269.982C145.199,260.553 152.938,252.886 162.331,252.886C171.797,252.886 179.512,260.541 179.512,269.982C179.512,279.435 171.797,287.126 162.331,287.126C152.926,287.126 145.199,279.435 145.199,269.982Z" style="fill:black;fill-opacity:0.0812784;fill-rule:nonzero;"/>
        <path id="shapePath42" d="M268.612,269.982C268.612,260.553 276.266,252.886 285.768,252.886C295.197,252.886 302.888,260.541 302.888,269.982C302.888,279.435 295.197,287.126 285.768,287.126C276.254,287.126 268.612,279.435 268.612,269.982Z" style="fill:black;fill-opacity:0.0812784;fill-rule:nonzero;"/>
        <path id="shapePath43" d="M391.976,269.982C391.976,260.553 399.667,252.886 409.096,252.886C418.598,252.886 426.252,260.541 426.252,269.982C426.252,279.435 418.598,287.126 409.096,287.126C399.667,287.126 391.976,279.435 391.976,269.982Z" style="fill:rgb(196,198,201);fill-opacity:0.0812784;fill-rule:nonzero;"/>
        <path id="shapePath44" d="M515.316,269.982C515.316,260.553 522.959,252.886 532.496,252.886C541.902,252.886 549.604,260.541 549.604,269.982C549.604,279.435 541.902,287.126 532.496,287.126C522.959,287.126 515.316,279.435 515.316,269.982Z" style="fill:black;fill-opacity:0.0812784;fill-rule:nonzero;"/>
        <path id="shapePath45" d="M323.461,269.982C323.461,256.677 334.158,245.992 347.426,245.992C360.682,245.992 371.379,256.689 371.379,269.982C371.379,283.238 360.67,293.959 347.426,293.959C334.158,293.959 323.461,283.226 323.461,269.982Z" style="fill:rgb(180,31,40);fill-opacity:0.0812784;fill-rule:nonzero;"/>
        <path id="shapePath46" d="M124.663,269.982C124.663,283.231 113.922,293.971 100.673,293.971C87.424,293.971 76.684,283.231 76.684,269.982C76.684,256.733 87.424,245.992 100.673,245.992C113.922,245.992 124.663,256.733 124.663,269.982Z" style="fill:rgb(0,155,191);fill-opacity:0.0812784;"/>
        <path id="shapePath47" d="M206.882,269.982C206.882,260.553 214.56,252.886 224.013,252.886C233.515,252.886 241.17,260.541 241.17,269.982C241.17,279.435 233.515,287.126 224.013,287.126C214.56,287.126 206.882,279.435 206.882,269.982Z" style="fill:rgb(0,155,191);fill-opacity:0.0812784;fill-rule:nonzero;"/>
        <path id="shapePath48" d="M453.622,269.982C453.622,260.553 461.313,252.886 470.754,252.886C480.207,252.886 487.934,260.541 487.934,269.982C487.934,279.435 480.207,287.126 470.754,287.126C461.301,287.126 453.622,279.435 453.622,269.982Z" style="fill:rgb(0,155,191);fill-opacity:0.0812784;fill-rule:nonzero;"/>
        <path id="shapePath49" d="M206.882,454.895C206.882,445.43 214.56,437.727 224.013,437.727C233.515,437.727 241.17,445.43 241.17,454.895C241.17,464.3 233.515,472.015 224.013,472.015C214.56,472.015 206.882,464.3 206.882,454.895Z" style="fill:black;fill-opacity:0.0812784;fill-rule:nonzero;"/>
        <path id="shapePath50" d="M337.115,454.895C337.115,449.197 341.752,444.585 347.426,444.585C353.064,444.585 357.664,449.197 357.664,454.895C357.664,460.534 353.064,465.146 347.426,465.146C341.752,465.146 337.115,460.534 337.115,454.895Z" style="fill:black;fill-opacity:0.0812784;fill-rule:nonzero;"/>
        <path id="shapePath51" d="M261.73,454.823C261.73,441.615 272.475,430.906 285.756,430.906C298.988,430.906 309.721,441.627 309.721,454.823C309.721,468.055 298.976,478.848 285.756,478.848C272.475,478.848 261.73,468.055 261.73,454.823Z" style="fill:rgb(0,155,191);fill-opacity:0.0812784;fill-rule:nonzero;"/>
        <path id="shapePath52" d="M391.976,454.895C391.976,445.43 399.667,437.727 409.096,437.727C418.598,437.727 426.252,445.43 426.252,454.895C426.252,464.3 418.598,472.015 409.096,472.015C399.667,472.015 391.976,464.3 391.976,454.895Z" style="fill:rgb(0,155,191);fill-opacity:0.0812784;fill-rule:nonzero;"/>
    </g>
</svg>
