<?xml version="1.0" encoding="utf-8"?>
<!-- Generator: Adobe Illustrator 17.1.0, SVG Export Plug-In . SVG Version: 6.00 Build 0)  -->
<!DOCTYPE svg PUBLIC "-//W3C//DTD SVG 1.1//EN" "http://www.w3.org/Graphics/SVG/1.1/DTD/svg11.dtd">
<svg version="1.1" id="Layer_1" xmlns="http://www.w3.org/2000/svg" xmlns:xlink="http://www.w3.org/1999/xlink" x="0px" y="0px"
	 viewBox="-84 -84 200 200" enable-background="new -84 -84 200 200" xml:space="preserve">
<path fill="#01589B" stroke="#01589B" d="M90,105.8c-48.9,0-97.8,0-146.6,0c-0.6-0.4-0.8-1.1-0.8-1.9c0-0.8,0-1.4,0-2.2
	c0-57.2,0-114.4,0-171.6c0-1.4-0.4-2.9,0.8-4.1c26.6,0,53,0,79.7,0c1.1,0.8,0.8,1.9,0.8,3.1c0,10,0,19.9,0,29.7
	c0,4.4,0,8.5,0.2,12.9c0.4,9.8,8.7,20.4,22,20.4c13.1,0,26.2,0,39.4,0c1.3,0,2.5,0,3.8,0s1.9,0.6,1.9,1.9c0,0.6,0,1.4,0,2.1
	c0,35.4,0,70.5,0,105.9C90.8,103.5,91.3,105,90,105.8z"/>
<path fill="#FEFEFE" stroke="#01589B" d="M16.6,85.8c-19.1,0-38.1,0-57.2,0c-2.5,0-4-1.3-4.1-3.3c0-1.9,1.1-3.3,3.1-3.8
	c0.6,0,1.3,0,1.9,0c37.7,0,75.3,0,113,0c0.8,0,1.7,0,2.5,0.2c1.7,0.4,2.7,1.9,2.5,3.8c-0.2,1.7-1.4,2.9-3.1,3.1c-0.6,0-1.3,0-1.7,0
	C54.3,85.8,35.5,85.8,16.6,85.8z"/>
<path fill="#FEFEFE" stroke="#01589B" d="M16.8,12.6c18.7,0,37.5,0,56.2,0c0.6,0,1.4,0,2.1,0c1.9,0.2,3.1,1.7,3.1,3.5
	c0,1.8-1.3,3.1-3.1,3.5c-0.4,0-0.8,0-1.3,0c-38.1,0-76.1,0-114.2,0c-2.5,0-4-1.1-4.4-2.9c-0.2-2.1,1.1-3.8,2.9-4c0.6,0,1.3,0,1.9,0
	C-21.1,12.6-2.2,12.6,16.8,12.6z"/>
<path fill="#FEFEFE" stroke="#01589B" d="M16.6,52.8c-18.7,0-37.5,0-56.2,0c-0.8,0-1.4,0-2.2,0c-1.9-0.2-2.9-1.7-2.9-3.5
	c0-1.7,1.3-3.1,3.1-3.3c0.6,0,1.4,0,2.1,0c37.7,0,75.1,0,112.8,0c0.8,0,1.4,0,2.2,0.2c1.7,0.2,2.9,1.7,2.9,3.3
	c0,1.7-1.1,3.1-2.7,3.5c-0.8,0.2-1.7,0.2-2.5,0.2C54.3,52.8,35.3,52.8,16.6,52.8z"/>
<path fill="#FEFEFE" stroke="#01589B" d="M-15.9-54c8.4,0,16.4,0,24.8,0c2.2,0,3.8,1.1,4,2.9C13-49.1,12-47.3,10-47
	c-0.4,0-0.8,0-1.3,0c-16.4,0-32.9,0-49.3,0c-2.2,0-4-1.1-4.1-2.9c-0.4-2.5,1.3-4.1,4-4.1C-32.5-54-24.2-54-15.9-54z"/>
<path fill="#FEFEFE" stroke="#01589B" d="M-16.1-28.8c-8.1,0-16.4,0-24.5,0c-2.5,0-4-1.1-4.1-3.1c-0.2-1.9,0.8-3.3,2.7-3.8
	c0.6-0.2,1.4-0.2,2.1-0.2c16,0,32.3,0,48.3,0c0.8,0,1.4,0,2.2,0.2c1.7,0.4,2.5,1.9,2.5,3.5c-0.2,1.8-1.3,3.1-2.9,3.2
	c-0.6,0.2-1.4,0.2-2.1,0.2C-0.1-28.8-8.2-28.8-16.1-28.8z"/>
<path fill="#01589B" stroke="#01589B" d="M89.4-13.8c-0.4,0-0.8,0-1.4,0c-14.1,0-28.1,0-42.2,0c-7.7,0-13.7-4.8-15.4-11.9
	c-0.4-1.3-0.4-2.7-0.4-4c0-14.1,0-28.1,0-42.2c0-0.4,0-0.8,0-1.1C49.9-53.4,69.6-33.6,89.4-13.8z"/>
<path fill="#FEFEFE" stroke="#01589B" d="M-15.6-13.5c-8.1,0-16.4,0-24.5,0c-2.5,0-4-1.1-4.1-3.1c-0.2-1.9,0.8-3.3,2.7-3.8
	c0.6-0.2,1.4-0.2,2.1-0.2c16,0,32.3,0,48.3,0c0.8,0,1.4,0,2.2,0.2c1.7,0.4,2.5,1.9,2.5,3.5c-0.2,1.7-1.3,2.9-2.9,3.1
	c-0.6,0.2-1.4,0.2-2.1,0.2C0.3-13.5-7.7-13.5-15.6-13.5z"/>
</svg>
