<?xml version="1.0" encoding="utf-8"?>
<!-- Generator: Adobe Illustrator 17.1.0, SVG Export Plug-In . SVG Version: 6.00 Build 0)  -->
<!DOCTYPE svg PUBLIC "-//W3C//DTD SVG 1.1//EN" "http://www.w3.org/Graphics/SVG/1.1/DTD/svg11.dtd">
<svg version="1.1" id="Layer_1" xmlns="http://www.w3.org/2000/svg" xmlns:xlink="http://www.w3.org/1999/xlink" x="0px" y="0px"
	 viewBox="0 0 1026 1026" enable-background="new 0 0 1026 1026" xml:space="preserve">
<g>
	<path fill="#FDFDFD" d="M513.4,1025.9c-169.3,0-338.6,0-507.9,0.1c-3.7,0-4.6-0.8-4.6-4.6C1,682.7,1,344.1,0.9,5.5
		c0-3.7,0.8-4.6,4.6-4.6C344.1,1,682.7,1,1021.4,0.9c3.7,0,4.6,0.8,4.6,4.6c-0.1,338.6-0.1,677.2,0,1015.9c0,3.7-0.8,4.6-4.6,4.6
		C852.1,1025.9,682.7,1025.9,513.4,1025.9z"/>
	<path fill="#0071C5" d="M567.9,53.3c0,2.2,0,4.2,0,6.1c0,297.6,0,595.3,0,892.9c0,6.4,0,6.5-6,5.5c-42.6-7.5-85.1-15.1-127.7-22.6
		c-38.8-6.8-77.6-13.6-116.3-20.4c-37-6.5-73.9-13.2-110.8-19.7c-38.7-6.8-77.5-13.5-116.2-20.3c-17-3-34-6-51-8.9
		c-2.3-0.4-3.1-1.5-2.9-3.7c0.1-1,0-2,0-3c0-235.5,0-470.9-0.2-706.4c0-5.1,1.8-6.2,6.2-6.9c29.3-5,58.5-10.2,87.7-15.4
		c31-5.5,62.1-11,93.1-16.5c33-5.8,66.1-11.6,99.1-17.5c36.8-6.5,73.6-13.1,110.4-19.6c42.4-7.5,84.8-15,127.2-22.4
		C562.9,54.2,565.2,53.8,567.9,53.3z"/>
	<path fill="#0072C5" d="M616.9,745.4c0-19.3,0.1-38.7-0.1-58c0-3.3,1-5.5,3.5-7.7c34.1-30.1,87.3-28.7,119.4,3.6
		c3.4,3.4,6,3.8,10.2,1.8c47.8-22.6,81.6-58.3,101.1-107.6c1.4-3.4,1.1-5.4-1.7-8.2c-35.2-34.8-35.4-89.8-0.4-125.1
		c2.3-2.3,3-4.1,1.7-7.3c-20.1-49.6-54.4-85.4-103.1-107.6c-2.9-1.3-4.5-0.5-6.4,1.4c-33.3,32.4-84.2,34-119.5,3.9
		c-3.3-2.8-4.9-5.6-4.8-10.2c0.2-37.3,0.2-74.7,0-112c0-4.3,1.4-7.1,4.5-9.8c27.4-24,66.8-28.6,99.4-11.5
		c31.9,16.8,50.1,52,45.4,88.5c-0.4,3.1,0.2,4.7,3.3,6.1c43.2,19.4,77.5,49.3,103.7,88.6c8.7,13.1,15.9,27,21.6,41.6
		c1,2.7,2.2,3.8,5.4,3.5c35.7-3.4,64.4,9.4,83.8,39.5c19.1,29.7,19.7,61.3,1.8,91.8c-18.3,31.1-46.9,44.7-82.8,42.6
		c-4.8-0.3-6.5,1-8.2,5.2c-16,40-41.1,73.2-74.8,99.9c-15.7,12.5-32.7,22.9-51.1,30.9c-2.8,1.2-4,2.6-3.7,6
		c7.2,62.9-52,112.1-112.8,93.7c-12.1-3.7-22.9-9.9-32.5-18.1c-2.2-1.9-3.1-3.9-3.1-6.9C617,784.8,616.9,765.1,616.9,745.4z"/>
	<path fill="#FEFEFE" d="M361.3,407.1c-10.6-8.2-21.2-14.4-33-18.1c-18.3-5.8-36.8-8-55.4-1.2c-26.4,9.7-33.9,38-15.9,59.6
		c7.7,9.2,17.6,15.7,27.9,21.7c15.8,9.3,32,17.8,46.4,29.2c28.1,22.4,42,51.7,43.6,87.3c0.8,18.1,0,36.1-5.8,53.4
		c-11.3,33.9-34.6,54-70,58.8c-35.6,4.9-69.5-1-101.3-18.3c-8-4.4-11.9-9.5-11.4-19.5c1-20.4,0.3-41,0.3-61.5c0-1.6,0-3.2,0-5.9
		c7,7.6,13.2,14.4,20.6,20c19,14.3,39.9,22.7,64.1,20.5c14.6-1.4,27-7.1,32.3-22c3.9-11.2,2.6-22.4-3.2-32.8
		c-7.2-12.9-18.6-21.7-30.7-29.5c-9.4-6-19.1-11.6-28.6-17.5C212,513,192,488,187.4,453c-4.2-32.6-1.7-64.2,18.2-92.2
		c13.6-19.1,32.4-31,54.8-37c31-8.3,62.1-8.7,93.1,1c7.7,2.4,7.6,2.5,7.7,10.6c0.1,22,0.1,44,0.2,66
		C361.3,403,361.3,404.6,361.3,407.1z"/>
</g>
</svg>
