<?xml version="1.0" standalone="no"?>
<!DOCTYPE svg PUBLIC "-//W3C//DTD SVG 1.1//EN" "http://www.w3.org/Graphics/SVG/1.1/DTD/svg11.dtd" >
<svg xmlns="http://www.w3.org/2000/svg">
<metadata></metadata>
<defs>
<font id="adelleextrabold_italic" horiz-adv-x="1167" >
<font-face units-per-em="2048" ascent="1546" descent="-502" />
<missing-glyph horiz-adv-x="389" />
<glyph horiz-adv-x="2048" />
<glyph horiz-adv-x="2048" />
<glyph unicode="&#xd;" horiz-adv-x="682" />
<glyph unicode=" "  horiz-adv-x="389" />
<glyph unicode="&#x09;" horiz-adv-x="389" />
<glyph unicode="&#xa0;" horiz-adv-x="389" />
<glyph unicode="!" horiz-adv-x="614" d="M94 123q0 209 230 209q176 0 176 -150q0 -207 -228 -207q-178 1 -178 148zM172 414l57 694l54 375h403l-53 -375l-139 -694h-322z" />
<glyph unicode="&#x22;" horiz-adv-x="901" d="M145 915l74 531h332l-74 -531h-332zM592 915l74 531h331l-73 -531h-332z" />
<glyph unicode="#" horiz-adv-x="1243" d="M70 225l88 252h172l55 189h-186l86 252h172l57 194h252l-57 -194h135l57 194h252l-57 -194h190l-84 -252h-178l-55 -189h190l-86 -252h-180l-64 -225h-251l63 225h-135l-64 -225h-252l64 225h-184zM582 477h135l55 189h-135z" />
<glyph unicode="$" horiz-adv-x="1067" d="M43 76l49 346l266 -16l7 -127q2 -37 20 -46q43 -16 127 -16t130 39t46 104q0 18 -5 35t-22 30l-27 22q-11 9 -40 21.5t-42 19t-51 19.5l-50 17q-66 25 -110 47.5t-93 63.5t-73.5 102.5t-24.5 143.5q0 176 101 279.5t273 135.5l23 162h342l-23 -155q145 -16 256 -54 l-51 -356l-268 14l-4 133q0 27 -21 35q-29 12 -98 12q-76 0 -126 -30.5t-50 -85.5q0 -14 3 -27.5t12 -24.5l18 -21q8 -9 24.5 -19.5t27.5 -16.5t32.5 -15t35 -14.5t40 -14.5t38.5 -15q66 -25 111 -49.5t94 -65.5t74.5 -101.5t25.5 -140.5q0 -174 -101 -282.5t-271 -145.5 l-25 -182h-340l23 172q-179 15 -283 68z" />
<glyph unicode="%" horiz-adv-x="1875" d="M131 819q0 207 105.5 329t324.5 122q309 0 309 -287q0 -207 -111.5 -332t-318.5 -125q-309 0 -309 293zM332 -35l954 1307h348l-952 -1307h-350zM412 836q0 -115 65 -115q117 0 117 246q0 106 -66 106q-116 1 -116 -237zM1106 268q0 207 105.5 329t324.5 122 q309 0 309 -287q0 -209 -110.5 -333t-319.5 -124q-309 0 -309 293zM1386 285q0 -115 68 -115q115 0 115 246q0 106 -66 106q-117 1 -117 -237z" />
<glyph unicode="&#x26;" horiz-adv-x="1437" d="M135 336q0 156 89 253t220 124v8q-76 25 -133 94.5t-57 169.5q0 207 147.5 314.5t395.5 107.5q150 0 287 -33t216 -86l-55 -344l-270 23l-8 123q-4 31 -29 38q-41 14 -123 15q-193 0 -192 -158q0 -68 44 -108.5t126 -40.5h63l-35 -258q-90 0 -152.5 -11.5t-111.5 -54.5 t-49 -119q0 -70 51 -108.5t143 -38.5q104 0 146 12q27 8 33 39l75 524l45 27h451l-27 -195l-86 -8q-31 -2 -32 -29l-74 -534q-238 -106 -551 -107q-291 0 -419 93.5t-128 267.5z" />
<glyph unicode="'" horiz-adv-x="454" d="M145 915l74 531h332l-74 -531h-332z" />
<glyph unicode="(" horiz-adv-x="798" d="M125 426q0 313 138 583.5t382 532.5l260 -168q-205 -242 -290 -473t-85 -510q0 -309 140 -598l-314 -166q-102 150 -166.5 365t-64.5 434z" />
<glyph unicode=")" horiz-adv-x="798" d="M-18 -205q205 242 289.5 473.5t84.5 509.5q0 309 -139 598l313 166q102 -150 167 -364.5t65 -434.5q0 -313 -138.5 -583.5t-381.5 -532.5z" />
<glyph unicode="*" horiz-adv-x="983" d="M215 1157l113 240l137 -47l133 -146l-66 193l21 149h252l-21 -149l-116 -193h-70l-31 -63l51 -39l-67 -211l-105 -123l-186 150l107 120l200 103l-215 -31zM618 1102l60 39l-10 63l174 146l149 47l43 -240l-149 -47l-207 31l172 -103l74 -120l-228 -150l-71 123z" />
<glyph unicode="+" d="M219 522l39 283h256l39 274h291l-39 -274h258l-39 -283h-258l-39 -282h-291l39 282h-256z" />
<glyph unicode="," horiz-adv-x="565" d="M86 76l82 254q70 0 116 -5.5t93 -19.5t69.5 -46t22.5 -81q0 -68 -74 -186l-141 -238l-158 45l86 224q8 20 -10 26z" />
<glyph unicode="-" horiz-adv-x="636" d="M76 440l43 308h555l-43 -308h-555z" />
<glyph unicode="." horiz-adv-x="604" d="M90 123q0 209 229 209q176 0 177 -150q0 -207 -228 -207q-178 1 -178 148z" />
<glyph unicode="/" horiz-adv-x="1013" d="M-31 -188l797 1685h369l-795 -1685h-371z" />
<glyph unicode="0" horiz-adv-x="1218" d="M98 438q0 51 13 178q43 303 195.5 454t447.5 151q473 0 473 -461q0 -80 -13 -168q-43 -315 -194.5 -466t-448.5 -151q-473 0 -473 463zM498 420q0 -96 27.5 -139t86.5 -43q80 0 126 73.5t75 278.5q16 119 16 182q0 96 -27.5 138t-84.5 42q-82 0 -129 -71.5t-76 -270.5 q-14 -108 -14 -190z" />
<glyph unicode="1" horiz-adv-x="837" d="M33 0l24 184l158 13q20 2 26.5 9t10.5 32l96 680q6 35 -20 43l-164 38l26 189h570l-131 -950q-4 -25 1 -32t25 -9l154 -15l-27 -182h-749z" />
<glyph unicode="2" horiz-adv-x="1087" d="M49 0l33 229l299 267q213 188 269.5 250.5t56.5 130.5q0 76 -86 75q-63 0 -91 -34.5t-43 -131.5l-340 31q14 100 52.5 174t87.5 118t116.5 69.5t131 34t141.5 8.5q203 0 302 -85t99 -221q0 -96 -39 -176t-87 -128t-150 -136q-16 -14 -27 -22l-254 -220h225q20 0 29 23 l49 158h260l-55 -414h-979z" />
<glyph unicode="3" horiz-adv-x="1099" d="M-8 33l217 211q135 -135 280 -135q188 0 189 161q0 133 -146 133q-72 0 -145 -14l33 244l82 10q109 12 170 67.5t61 151.5q0 39 -24.5 65.5t-71.5 26.5q-66 0 -95.5 -34.5t-43.5 -131.5l-346 31q51 401 530 402q420 0 420 -332q0 -135 -75 -219t-185 -115v-8 q205 -57 205 -277q0 -221 -152 -330.5t-399 -109.5q-164 0 -298 55.5t-206 147.5z" />
<glyph unicode="4" horiz-adv-x="1193" d="M72 121l34 241l504 877l283 -137l-430 -705h233l41 287l346 55l-47 -342h158l-39 -276h-158l-34 -258h-338l32 258h-585z" />
<glyph unicode="5" horiz-adv-x="1099" d="M-37 33l217 213q131 -135 287 -135q96 0 153.5 51t57.5 147q0 76 -39 110t-92 34q-96 0 -172 -82l-228 98l148 719h784l-47 -299h-520l-70 -250l7 -4q113 88 272 88q156 0 245 -93t89 -263q0 -240 -149.5 -388.5t-426.5 -148.5q-172 0 -306 55.5t-210 147.5z" />
<glyph unicode="6" horiz-adv-x="1153" d="M117 479q0 125 20.5 243t71.5 233.5t127 202.5t195.5 140.5t269.5 53.5q240 0 395 -152l-186 -207q-102 86 -219 86q-96 0 -172 -78.5t-95 -226.5q147 59 275 60q150 0 247 -83t97 -255q0 -262 -158 -391.5t-403 -129.5q-240 0 -352.5 142.5t-112.5 361.5zM496 453 q0 -203 118 -203q143 0 144 223q0 123 -107 123q-68 0 -149 -33q0 -6 -3 -46.5t-3 -63.5z" />
<glyph unicode="7" horiz-adv-x="1118" d="M123 678l76 510h1042l-43 -266q-211 -205 -358.5 -479.5t-196.5 -579.5h-395q35 201 105.5 380t157.5 307t151.5 202.5t130.5 136.5h-328q-18 0 -27 -27l-51 -164z" />
<glyph unicode="8" horiz-adv-x="1097" d="M63 287q0 227 232 389q-115 106 -115 266q0 195 140.5 302.5t388.5 107.5q188 0 294.5 -82t106.5 -226q0 -199 -190 -352q166 -109 165 -284q0 -209 -160.5 -321t-422.5 -112q-213 0 -326 79t-113 233zM367 344q0 -127 161 -127q166 0 166 135q0 18 -6 34.5t-19.5 33 t-24.5 29t-35 27.5l-37 24l-41 24q-28 16 -39 23q-125 -105 -125 -203zM539 989q0 -53 41 -94t114 -84q113 104 113 193q0 49 -31 77.5t-90 28.5q-70 0 -108.5 -35t-38.5 -86z" />
<glyph unicode="9" horiz-adv-x="1163" d="M53 0l178 215q129 -111 261 -111q106 0 163.5 71t85.5 228q-127 -59 -258 -59q-156 0 -256 84t-100 256q0 254 154.5 395.5t410.5 141.5q463 0 463 -512q0 -115 -13.5 -220.5t-56.5 -230.5t-113.5 -215t-197.5 -150.5t-297 -60.5q-121 0 -239.5 49t-184.5 119zM514 727 q0 -68 24.5 -99.5t84.5 -31.5q66 0 147 41q6 63 6 111q0 201 -117 200q-74 0 -109.5 -66.5t-35.5 -154.5z" />
<glyph unicode=":" horiz-adv-x="604" d="M90 123q0 209 229 209q176 0 177 -150q0 -207 -228 -207q-178 1 -178 148zM213 889q0 209 229 209q176 0 176 -150q0 -207 -227 -207q-178 1 -178 148z" />
<glyph unicode=";" horiz-adv-x="565" d="M86 76l82 254q70 0 116 -5.5t93 -19.5t69.5 -46t22.5 -81q0 -68 -74 -186l-141 -238l-158 45l86 224q8 20 -10 26zM207 889q0 209 229 209q176 0 176 -150q0 -207 -227 -207q-178 1 -178 148z" />
<glyph unicode="&#x3c;" d="M215 432l47 336l852 274l39 -274l-592 -168l547 -172l-119 -268z" />
<glyph unicode="=" d="M182 229l39 283h805l-39 -283h-805zM240 641l39 283h804l-39 -283h-804z" />
<glyph unicode="&#x3e;" d="M166 442l596 172l-543 168l107 260l774 -274l-47 -336l-852 -272z" />
<glyph unicode="?" horiz-adv-x="1148" d="M205 977l55 399q291 106 506 107q465 0 465 -393q0 -199 -128 -340.5t-394 -178.5l-23 -157h-383l53 379q57 4 95 8t99.5 15t102.5 30.5t83 48.5t62.5 74t20.5 102q0 102 -112 103q-80 0 -123 -13q-31 -10 -37 -41l-27 -119zM256 123q0 209 229 209q176 0 177 -150 q0 -207 -228 -207q-178 1 -178 148z" />
<glyph unicode="@" horiz-adv-x="1736" d="M141 213q0 420 261.5 685t660.5 265q293 0 463 -146.5t170 -412.5q0 -303 -136.5 -466t-369.5 -163q-168 0 -213 136q-154 -135 -254 -136q-92 0 -148.5 61.5t-56.5 176.5q0 231 151.5 415.5t385.5 184.5q152 0 282 -65l-82 -277q-6 -25 -21 -71t-22 -68q-18 -63 -18 -99 q0 -63 68 -63q61 0 107 68.5t67.5 158.5t21.5 181q0 174 -104.5 272t-323.5 98q-166 0 -295 -64.5t-204.5 -169t-113.5 -225t-38 -245.5q0 -207 119.5 -322t343.5 -115q162 0 346 64l26 -193q-170 -72 -430 -71q-305 0 -474 156.5t-169 449.5zM760 270q0 -94 61 -94 q66 0 152 84l110 369q-23 18 -67 18q-92 0 -174 -109.5t-82 -267.5z" />
<glyph unicode="A" horiz-adv-x="1579" d="M-20 0l26 180l94 23q39 10 54 39l608 1241h430l258 -1245q4 -25 45 -35l90 -23l-26 -180h-719l26 180l162 19l-27 155h-460l-68 -155l156 -19l-27 -180h-622zM649 618h320l-80 465h-21z" />
<glyph unicode="B" horiz-adv-x="1329" d="M16 0l27 180l129 15q23 4 30 11t9 30l139 1007q4 23 -2 31t-26 10l-125 14l24 185h721q211 0 304 -90t93 -232q0 -291 -297 -385v-6q287 -33 287 -299q0 -246 -168 -358.5t-446 -112.5h-699zM596 264h84q129 0 192.5 51.5t63.5 173.5q0 143 -180 144h-109zM680 883h25 q129 0 196.5 40t67.5 160q0 45 -15.5 73t-46 40t-57.5 15t-70 3h-55z" />
<glyph unicode="C" horiz-adv-x="1382" d="M115 616q0 406 224 649.5t644 243.5q125 0 255 -31.5t206 -86.5l-60 -447l-270 23l-4 190q0 39 -29 49q-41 14 -131 15q-199 0 -315.5 -147.5t-116.5 -432.5q0 -188 75 -285.5t212 -97.5q121 0 164 16q25 10 32 41l60 199h266l-59 -424q-96 -53 -241.5 -84t-289.5 -31 q-315 0 -468.5 170t-153.5 471z" />
<glyph unicode="D" horiz-adv-x="1499" d="M16 0l27 184l129 15q20 2 27.5 10t11.5 31l139 1005q6 37 -26 41l-127 14l24 183h682q322 0 476.5 -156t154.5 -444q0 -395 -221 -639t-649 -244h-648zM598 264h51q238 0 365 177t127 431q0 180 -82 262.5t-266 82.5h-66z" />
<glyph unicode="E" horiz-adv-x="1273" d="M16 0l25 180l129 15q23 4 30 11t9 30l141 1009q4 23 -1 31t-25 10l-127 14l24 183h1104l-63 -459l-271 10l-6 156q-2 27 -33 27h-225l-45 -336h432l-39 -277h-432l-45 -340h268q29 0 37 23l55 180h271l-64 -467h-1149z" />
<glyph unicode="F" horiz-adv-x="1224" d="M16 0l25 180l129 15q23 4 30 11t9 30l141 1009q4 23 -1 31t-25 10l-127 14l24 183h1098l-66 -459l-270 10l-6 156q-2 27 -33 27h-217l-45 -336h424l-39 -277h-424l-49 -364q-4 -25 0 -32t24 -9l295 -17l-24 -182h-873z" />
<glyph unicode="G" horiz-adv-x="1472" d="M115 612q0 406 225 651.5t649 245.5q115 0 244 -30.5t213 -92.5l-57 -425l-273 22l-4 178q0 37 -27 45q-57 14 -139 15q-199 0 -312.5 -161t-113.5 -425q0 -375 293 -375q84 0 121 12q23 8 29 37l32 207h-198l61 215h658l-27 -194l-82 -9q-31 -2 -37 -28l-55 -418 q-238 -106 -561 -107q-334 0 -486.5 174t-152.5 463z" />
<glyph unicode="H" horiz-adv-x="1654" d="M18 0l25 180l129 15q23 4 30 11t9 30l139 1007q4 23 -2 31t-26 10l-123 14l24 185h711l-25 -185l-137 -16q-23 -2 -28 -8t-9 -31l-47 -344h465l49 344q4 23 -2 31t-26 10l-125 14l26 185h711l-27 -185l-135 -16q-23 -2 -28 -8t-9 -31l-141 -1005q-4 -25 0 -32t27 -9 l133 -17l-25 -180h-711l25 180l127 15q23 4 30 11t9 30l55 385h-467l-53 -383q-4 -25 0 -32t25 -9l133 -17l-25 -180h-711z" />
<glyph unicode="I" horiz-adv-x="804" d="M2 0l21 180l149 15q20 2 26.5 9t10.5 32l143 1007q4 23 -2 31t-26 10l-144 14l27 185h749l-26 -185l-156 -16q-23 -2 -28 -8t-9 -31l-141 -1005q-4 -25 0 -32t25 -9l153 -17l-22 -180h-750z" />
<glyph unicode="J" horiz-adv-x="1044" d="M29 59l57 414l272 -20v-146q0 -25 15 -28q18 -6 49 -7q35 0 51 16.5t23 59.5l125 897q6 35 -29 37l-184 16l24 185h772l-26 -185l-138 -16q-14 -2 -20 -5t-9 -10t-5 -24l-125 -891q-27 -193 -136.5 -285t-322.5 -92q-119 0 -233.5 25.5t-159.5 58.5z" />
<glyph unicode="K" horiz-adv-x="1527" d="M16 0l25 182l129 15q23 2 30 9t9 32l141 1007q6 37 -26 41l-123 14l20 183h711l-21 -183l-139 -16q-23 -2 -28 -8t-9 -31l-67 -477l495 514l-123 16l25 185h569l-22 -185l-76 -12q-39 -6 -68 -35l-387 -405l262 -602q14 -35 58 -41l121 -21l-23 -182h-500l-6 4l-73 203 l-144 346l-162 -176l-20 -137q-4 -25 0 -32t24 -9l134 -17l-25 -182h-711z" />
<glyph unicode="L" horiz-adv-x="1251" d="M16 0l25 182l129 15q23 4 30 11t9 30l141 1007q4 23 -1 31t-25 10l-123 14l20 183h744l-23 -183l-170 -16q-23 -2 -28 -9t-9 -30l-137 -981h266q29 0 37 23l62 217h272l-70 -504h-1149z" />
<glyph unicode="M" horiz-adv-x="1953" d="M16 0l25 180l129 15q23 2 30 9t9 32l141 1009q6 37 -26 41l-123 14l20 183h580l223 -887h14l443 887h604l-23 -180l-135 -17q-25 -2 -30 -8t-9 -31l-143 -1011q-4 -23 1 -30t26 -9l133 -17l-25 -180h-731l25 180l165 15q20 2 27.5 10t11.5 31l86 620h-12l-305 -594h-393 l-154 586h-12l-84 -610q-4 -27 0 -33t24 -8l170 -17l-24 -180h-658z" />
<glyph unicode="N" horiz-adv-x="1658" d="M16 0l25 180l129 15q23 4 30 11t9 30l141 1011q4 25 -1 32t-25 9l-123 15l20 180h559l447 -975l104 735q4 23 -1 31t-25 10l-125 14l24 185h598l-24 -185l-138 -16q-14 -2 -20 -5t-9 -10t-5 -24l-176 -1243h-396l-450 969l-101 -731q-4 -25 0 -32t27 -9l131 -17l-22 -180 h-603z" />
<glyph unicode="O" horiz-adv-x="1556" d="M119 561q0 203 53 374t156.5 300t268.5 201.5t374 72.5q311 0 460.5 -162.5t149.5 -435.5q0 -440 -225.5 -688t-628.5 -248q-315 0 -461.5 155t-146.5 431zM526 598q0 -170 65.5 -242.5t194.5 -72.5q340 0 385 536q4 49 5 72q0 311 -250 311q-348 0 -398 -536 q-2 -23 -2 -68z" />
<glyph unicode="P" horiz-adv-x="1296" d="M16 0l27 182l129 15q23 4 30 11t9 30l139 1005q4 23 -2 31t-26 10l-123 14l22 185h703q231 0 337.5 -104.5t106.5 -286.5q0 -272 -166 -412.5t-461 -140.5h-108l-39 -299q-4 -25 0 -32t24 -9l287 -17l-26 -182h-863zM670 801h43q254 0 254 252q0 98 -52.5 129.5 t-132.5 31.5h-57z" />
<glyph unicode="Q" horiz-adv-x="1556" d="M119 561q0 203 53 374t156.5 300t268.5 201.5t374 72.5q311 0 460.5 -162.5t149.5 -435.5q0 -399 -192.5 -638.5t-563.5 -264.5v-4q240 -108 431 -108h4q80 0 163 14l-8 -268q-92 -16 -186 -17q-147 0 -270 46t-212.5 91t-152.5 45q-123 0 -256 -88l-129 228 q96 70 231 102v6q-160 66 -240.5 198t-80.5 308zM526 598q0 -170 65.5 -242.5t194.5 -72.5q340 0 385 536q4 49 5 72q0 311 -250 311q-348 0 -398 -536q-2 -23 -2 -68z" />
<glyph unicode="R" horiz-adv-x="1394" d="M18 0l25 184l129 15q23 2 30 9t9 32l141 1005q6 37 -26 41l-123 14l20 183h711q223 0 330.5 -104.5t107.5 -262.5q0 -170 -84 -270.5t-229 -167.5q66 -35 94 -166l57 -268q8 -39 50 -45l126 -15l-24 -184h-490l-12 12l-98 484q-10 51 -29.5 73.5t-68.5 22.5h-21l-49 -350 q-4 -25 0 -32t24 -9l113 -17l-22 -184h-691zM678 844h39q117 0 185.5 45t68.5 176q0 149 -172 149h-2h-70z" />
<glyph unicode="S" horiz-adv-x="1200" d="M47 63l62 437h278l14 -197q4 -37 43 -43q53 -8 115 -8q109 0 170.5 44t61.5 120q0 66 -53.5 100.5t-162.5 71.5q-55 18 -76.5 26.5t-72.5 31t-75.5 39.5t-61.5 51t-54.5 69t-31 85t-13.5 109q0 248 175.5 379t443.5 131q238 0 438 -92l-57 -430l-281 25v166q0 27 -9 35 t-30 12q-31 4 -98 4q-94 0 -145.5 -40t-51.5 -108q0 -33 15.5 -57.5t55.5 -46t66.5 -31.5t90.5 -31q66 -23 105.5 -39t97 -50.5t89 -75.5t56.5 -106.5t25 -149.5q0 -254 -182.5 -386.5t-465.5 -132.5q-135 0 -275 27.5t-206 60.5z" />
<glyph unicode="T" horiz-adv-x="1445" d="M164 1014l63 469h1346l-64 -469h-270l-8 178q-2 14 -7 18t-22 4h-145l-133 -976q-4 -23 0 -30t24 -9l219 -17l-24 -182h-877l25 182l209 15q20 2 26 10t11 31l135 976h-146q-27 0 -32 -22l-58 -178h-272z" />
<glyph unicode="U" horiz-adv-x="1589" d="M190 1300l25 183h711l-25 -183l-139 -16q-23 -2 -27 -8t-8 -31l-88 -614q-12 -90 -12 -158q0 -96 42 -143t150 -47q145 0 212 79.5t91 268.5l86 614q4 23 -1 31t-25 10l-125 14l24 183h652l-25 -183l-139 -16q-23 -2 -28 -9t-7 -30l-98 -692q-43 -301 -204 -439.5 t-439 -138.5q-281 0 -419 111t-138 344q0 55 10 133l94 682q6 39 -25 41z" />
<glyph unicode="V" horiz-adv-x="1509" d="M147 1303l27 180h709l-27 -180l-164 -19l131 -907h23l366 907l-149 19l24 180h603l-27 -180l-88 -23q-43 -10 -57 -47l-519 -1233h-507l-213 1245q-6 25 -46 35z" />
<glyph unicode="W" horiz-adv-x="2136" d="M147 1303l27 180h686l-26 -180l-164 -19l65 -915h15l325 854h367l76 -863h22l289 924l-156 19l27 180h608l-27 -180l-94 -23q-41 -10 -57 -55l-426 -1225h-506l-63 639h-17l-223 -639h-502l-112 1223q-2 33 -9.5 41t-38.5 16z" />
<glyph unicode="X" horiz-adv-x="1640" d="M20 0l27 180l129 23q29 8 57 39l439 471l-342 532q-14 27 -43 35l-107 23l29 180h745l-26 -180l-162 -19l199 -309l278 309l-153 19l28 180h615l-25 -180l-109 -23q-29 -8 -57 -39l-442 -479l344 -524q23 -33 55 -39l96 -19l-26 -180h-748l27 180l156 19l-195 303 l-274 -303l157 -19l-26 -180h-646z" />
<glyph unicode="Y" horiz-adv-x="1427" d="M152 1303l26 180h709l-27 -180l-164 -19l146 -414h22l256 414l-153 19l26 180h592l-26 -180l-89 -23q-43 -10 -55 -39l-448 -698l-43 -305q-4 -23 0 -30t26 -9l219 -17l-24 -182h-877l25 182l209 15q20 2 26.5 10t10.5 31l43 303l-299 704q-10 27 -45 35z" />
<glyph unicode="Z" horiz-adv-x="1382" d="M55 0l35 244l828 973h-345q-29 0 -34 -23l-60 -188l-274 -11l69 488h1141l-35 -252l-815 -967h393q29 0 37 23l68 219h264l-70 -506h-1202z" />
<glyph unicode="[" horiz-adv-x="688" d="M41 -293l250 1776h528l-18 -174l-133 -25q-33 -4 -39 -43l-183 -1292q-6 -37 27 -43l127 -25l-31 -174h-528z" />
<glyph unicode="\" horiz-adv-x="968" d="M233 1497h349l321 -1685h-350z" />
<glyph unicode="]" horiz-adv-x="688" d="M-23 -293l21 174l131 25q33 4 39 43l180 1292q6 35 -26 43l-125 25l30 174h529l-250 -1776h-529z" />
<glyph unicode="^" horiz-adv-x="1320" d="M119 612l508 748h387l303 -748h-363l-180 437l-297 -437h-358z" />
<glyph unicode="_" horiz-adv-x="1024" d="M-51 -371l37 267h1024l-37 -267h-1024z" />
<glyph unicode="`" horiz-adv-x="1024" d="M475 1448l221 180l260 -366l-155 -121z" />
<glyph unicode="a" horiz-adv-x="1269" d="M86 397q0 121 27.5 239t86 224.5t163 172t241.5 65.5q162 0 275 -119l43 96h317q-43 -211 -51 -278l-78 -561q-4 -23 1 -30t26 -9l92 -15l-25 -182h-452l22 154l-10 4q-102 -98 -182 -140.5t-181 -42.5q-315 0 -315 422zM481 426q0 -137 80 -137q37 0 99.5 34.5 t113.5 84.5l49 350q-66 55 -135 55q-59 0 -102 -43t-64.5 -108.5t-31 -125t-9.5 -110.5z" />
<glyph unicode="b" horiz-adv-x="1255" d="M78 0q57 195 74 303l137 973q2 33 -21 43l-100 39l29 188h491l-88 -616l8 -6q180 174 348 174q295 0 295 -396q0 -102 -13 -198t-48 -194.5t-88 -170t-142.5 -118t-201.5 -46.5q-172 0 -279 125l-10 -2l-25 -98h-366zM526 317q82 -51 146 -51q90 0 134 105.5t44 242.5 q0 164 -76 164q-61 0 -199 -108z" />
<glyph unicode="c" horiz-adv-x="1044" d="M82 434q0 317 177 490.5t458 173.5q113 0 215 -30t153 -71l-49 -350l-254 10l-6 138q0 29 -20 34q-35 10 -74 11q-88 0 -148.5 -89t-60.5 -280q0 -217 172 -217q86 0 258 55l58 -223q-188 -111 -418 -111q-233 0 -347 123t-114 336z" />
<glyph unicode="d" horiz-adv-x="1273" d="M86 391q0 92 16.5 185.5t55.5 188.5t96 168t148.5 119t201.5 46q147 0 260 -78l33 256q4 33 -20 43l-99 39l31 188h483l-182 -1310q-4 -23 1 -30t26 -9l92 -15l-25 -182h-452l22 154l-10 4q-102 -98 -182 -140.5t-181 -42.5q-315 0 -315 416zM481 412q0 -123 80 -123 q37 0 99.5 34.5t113.5 84.5l51 362q-63 43 -129 43q-61 0 -106 -42t-67.5 -108.5t-32 -129t-9.5 -121.5z" />
<glyph unicode="e" horiz-adv-x="1064" d="M82 420q0 330 180 504t449 174q176 0 270 -74t94 -213q0 -98 -49 -172t-139 -118t-188.5 -68.5t-225.5 -38.5q6 -162 170 -162q113 0 299 74l53 -238q-256 -113 -458 -113q-238 0 -346.5 121t-108.5 324zM479 633q254 35 254 137q0 63 -76 64q-59 0 -109.5 -51.5 t-68.5 -149.5z" />
<glyph unicode="f" horiz-adv-x="915" d="M76 -434l176 1245q4 20 -14 20h-127l32 244h146l14 99q31 215 144.5 306t304.5 91q94 0 203.5 -31t177.5 -82l-134 -231q-113 73 -200 73h-2q-100 0 -115 -98l-16 -106q-2 -20 14 -21h309l-35 -244h-325l-176 -1265h-377z" />
<glyph unicode="g" horiz-adv-x="1228" d="M68 -330l114 224q41 -27 137.5 -60t188.5 -33q113 0 169 51.5t71 165.5l16 136l-12 6q-104 -86 -179 -126t-172 -40q-158 0 -236.5 97t-78.5 306q0 121 27.5 239t86 224.5t163 172t241.5 65.5q166 0 275 -119l43 96h317q-43 -211 -51 -278l-113 -807q-61 -446 -530 -447 q-145 0 -283.5 43t-193.5 84zM481 426q0 -66 16.5 -92.5t63.5 -26.5q39 0 102.5 30t110.5 71l49 350q-66 55 -135 55q-59 0 -102 -43t-64.5 -108.5t-31 -125t-9.5 -110.5z" />
<glyph unicode="h" horiz-adv-x="1271" d="M12 0l25 184l84 13q20 4 27.5 11t9.5 30l145 1038q6 35 -18 43l-97 39l27 188h479l-86 -618l8 -6q4 4 31 26.5t32 27.5t28.5 24.5t32 23.5t31 19.5t34.5 19.5t33.5 13t38 12.5t39 6.5t45.5 3q135 0 196 -89q44 -64 44 -171q0 -43 -7 -93l-72 -507q-4 -25 0 -32t25 -9 l94 -15l-24 -182h-500l-4 14l37 226l63 452q2 15 2 27q0 57 -47 57q-51 0 -176 -102l-62 -436q-4 -25 0.5 -32t26.5 -9l80 -15l-25 -182h-600z" />
<glyph unicode="i" horiz-adv-x="679" d="M111 12l53 301l67 492q6 35 -20 43l-96 39l26 188h504l-117 -837q-4 -25 0 -32t27 -9l84 -15l-23 -182h-499zM264 1382q0 117 65.5 182.5t180.5 65.5q90 0 139 -46t49 -132q0 -117 -66.5 -184.5t-182.5 -67.5q-88 0 -136.5 48t-48.5 134z" />
<glyph unicode="j" horiz-adv-x="679" d="M-299 -342l121 201q86 -49 166 -49q57 0 87.5 29.5t45.5 127.5l119 838q2 33 -21 43l-98 39l26 188h500l-160 -1167q-51 -365 -436 -365q-123 0 -220 40t-130 75zM266 1382q0 117 65.5 182.5t180.5 65.5q90 0 139 -46t49 -132q0 -117 -66.5 -184.5t-182.5 -67.5 q-88 0 -136.5 48t-48.5 134z" />
<glyph unicode="k" horiz-adv-x="1277" d="M12 0l23 184l88 13q20 4 27.5 11t9.5 30l145 1038q2 33 -20 43l-101 39l29 188h504l-111 -807l254 228q90 82 156.5 106.5t142.5 24.5q72 0 135 -17l-26 -211q-8 0 -16 1q-103 0 -185 -74l-90 -82l160 -486q12 -33 57 -39l78 -12l-25 -178h-444l-6 4l-64 238l-88 262 l-84 -78l-26 -188q-4 -25 0 -32t26 -9l84 -15l-22 -182h-611z" />
<glyph unicode="l" horiz-adv-x="681" d="M115 12l53 301l135 963q6 35 -20 43l-97 39l27 188h504l-185 -1308q-4 -25 0.5 -32t26.5 -9l84 -15l-22 -182h-500z" />
<glyph unicode="m" horiz-adv-x="1781" d="M12 0l25 184l84 13q20 2 26.5 10t10.5 31l78 567q6 35 -19 43l-96 39l26 188h465l-20 -147l8 -4q72 61 108.5 88.5t103.5 56.5t136 29q180 0 197 -164l10 -6q63 55 102 82.5t107 57.5t135 30q131 0 180 -86q33 -57 33 -157q0 -50 -8 -110l-72 -507q-4 -25 0 -32t25 -9 l94 -15l-25 -182h-499l-4 10l41 252l59 430q2 14 2 26q0 48 -35 48q-43 0 -147 -92l-62 -436q-4 -25 0 -32t25 -9l70 -15l-25 -182h-475l-2 10l41 262l57 420q2 14 2 25q0 47 -35 47q-37 0 -147 -90l-60 -436q-4 -25 0.5 -32t26.5 -9l64 -15l-25 -182h-586z" />
<glyph unicode="n" horiz-adv-x="1271" d="M12 0l25 184l84 13q20 4 27.5 11t9.5 30l78 567q6 35 -19 43l-96 39l26 188h465l-20 -147l8 -4q70 59 110 88.5t108.5 57.5t142.5 28q135 0 196 -89q44 -64 44 -171q0 -43 -7 -93l-72 -507q-4 -25 0 -32t25 -9l94 -15l-24 -182h-500l-4 10l41 258l59 424q2 15 2 27 q0 57 -47 57q-51 0 -176 -102l-60 -436q-4 -25 0.5 -32t26.5 -9l80 -15l-25 -182h-602z" />
<glyph unicode="o" horiz-adv-x="1206" d="M82 424q0 68 8 125q37 256 200 402.5t435 146.5q254 0 366.5 -122t112.5 -319q0 -47 -10 -127q-80 -555 -621 -555q-248 0 -369.5 117t-121.5 332zM473 420q0 -186 129 -187q76 0 124 64.5t71 224.5q8 61 8 129q0 182 -125 183q-166 0 -199 -295q-8 -64 -8 -119z" />
<glyph unicode="p" horiz-adv-x="1261" d="M41 -426l59 340l127 891q6 31 -20 43l-94 39l26 188h467l-22 -147l10 -4q180 174 356 174q307 0 307 -418q0 -352 -134 -528.5t-361 -176.5q-78 0 -147.5 30t-106.5 65l-12 -2l-41 -269q-4 -29 30 -30l217 -21l-26 -182h-633zM532 313q76 -47 146 -47q90 0 134 105.5 t44 242.5q0 164 -76 164q-59 0 -196 -108z" />
<glyph unicode="q" horiz-adv-x="1230" d="M88 397q0 121 27.5 239t86 224.5t163 172t241.5 65.5q49 0 107 -15q96 -27 168 -104l43 96h317q-43 -211 -51 -278l-137 -996q-4 -23 1 -30t25 -9l92 -14l-24 -182h-684l26 184l189 17q43 2 49 34l49 353l-12 6q-150 -143 -264 -172q-45 -12 -97 -13q-315 0 -315 422z M483 426q0 -137 80 -137q37 0 99.5 34.5t113.5 84.5l49 350q-66 55 -135 55q-59 0 -102 -43t-64.5 -108.5t-31 -125t-9.5 -110.5z" />
<glyph unicode="r" horiz-adv-x="1003" d="M12 0l25 184l88 13q20 2 26.5 10t10.5 31l78 567q2 33 -21 43l-98 39l26 188h467l-26 -170l10 -6q133 199 315 199q102 0 172 -21l-55 -409l-299 10l-6 86q-2 27 -23 27q-41 0 -94 -39l-71 -510q-4 -25 2 -32t28 -9l201 -19l-27 -182h-729z" />
<glyph unicode="s" horiz-adv-x="1011" d="M45 51l41 295l258 -16l4 -107q0 -27 27 -35q43 -14 121 -14q145 0 145 100q0 41 -40 60.5t-132 42.5l-25 6q-70 16 -113.5 34.5t-97 52.5t-80 93.5t-26.5 138.5q0 199 142.5 297.5t365.5 98.5q115 0 227.5 -20.5t163.5 -43.5l-43 -315l-262 14l-4 92q0 29 -25 37 q-33 12 -98 13q-115 0 -115 -82q0 -35 39 -53.5t123 -39.5q12 -2 18 -4q55 -14 91 -25.5t85.5 -37t79 -57t51 -84t21.5 -117.5q0 -203 -143.5 -301.5t-392.5 -98.5q-133 0 -247 24.5t-159 51.5z" />
<glyph unicode="t" horiz-adv-x="897" d="M82 831l33 230q143 14 224 95t120 255h233l-45 -315q-2 -20 15 -21h276l-33 -244h-293l-59 -419q-6 -37 -6 -62q0 -53 26.5 -75.5t88.5 -22.5q66 0 149 27l39 -213q-180 -90 -373 -91q-170 0 -243.5 59.5t-73.5 196.5q0 55 8 107l65 473q0 20 -14 20h-137z" />
<glyph unicode="u" horiz-adv-x="1267" d="M113 893l24 182h500l-96 -692q-2 -15 -2 -27q0 -57 47 -57q51 0 176 102l59 437q4 25 0 32t-26 9l-88 14l24 182h502l-117 -833q-6 -39 19 -43l98 -17l-27 -182h-465l21 147l-8 7q-70 -61 -109 -90t-108.5 -58t-143.5 -29q-115 0 -177 66t-62 197q0 41 6 90l71 508 q4 25 0 32t-24 9z" />
<glyph unicode="v" horiz-adv-x="1267" d="M92 893l25 182h452l23 -22l43 -246l63 -440h19l244 512l-136 16l27 180h446l31 -84l-510 -991h-436l-174 840q-6 27 -37 34z" />
<glyph unicode="w" horiz-adv-x="1806" d="M90 895l31 180h444l21 -22l12 -207l49 -465h21l202 670h402l76 -674h18l195 506l-103 12l29 180h362l31 -80l-418 -995h-415l-66 606h-16l-174 -606h-459l-125 842q-4 27 -37 35z" />
<glyph unicode="x" horiz-adv-x="1245" d="M2 0l21 176l71 14q31 6 60 35l299 287l-220 324q-18 27 -40 34l-80 23l28 182h371l27 -20l190 -307l135 133l-90 14l31 180h510l-27 -180l-92 -21q-23 -4 -57 -38l-281 -267l227 -340q20 -31 50 -36l90 -13l-29 -180h-389l-27 23l-200 317l-142 -143l105 -19l-21 -178 h-520z" />
<glyph unicode="y" horiz-adv-x="1239" d="M-92 -346l121 207q94 -61 190 -62q104 0 172 115l45 76l-237 850q-8 27 -37 34l-80 19l29 182h415l27 -28l57 -261l82 -370h21l239 461l-125 16l29 182h414l35 -84l-619 -1163q-78 -150 -180.5 -217.5t-272.5 -67.5q-106 0 -194 36t-131 75z" />
<glyph unicode="z" horiz-adv-x="1085" d="M45 0l29 209l573 641h-209q-23 0 -32 -25l-39 -106l-252 -10l51 366h940l-31 -213l-561 -639h219q25 0 33 27l43 135l258 8l-53 -393h-969z" />
<glyph unicode="{" horiz-adv-x="729" d="M111 498l26 186q72 6 101.5 33.5t42.5 99.5q14 88 15 219t5 174q18 168 133 227q104 53 347 52h53l6 -191q-102 -14 -128 -51t-26 -172q0 -20 1 -79.5t1 -77.5q0 -141 -40 -217t-124 -111q96 -43 97 -176q0 -84 -44.5 -219.5t-44.5 -196.5q0 -55 25 -77.5t98 -37.5 l-47 -190q-258 0 -368.5 53t-110.5 191q0 92 46 235t46 225q0 51 -25.5 74t-84.5 27z" />
<glyph unicode="|" horiz-adv-x="587" d="M43 -293l250 1776h348l-250 -1776h-348z" />
<glyph unicode="}" horiz-adv-x="729" d="M0 -117q102 14 128 51t26 172q0 20 -1 80t-1 78q0 141 39.5 217t123.5 111q-96 43 -96 176q0 84 44 219t44 197q0 55 -24.5 77.5t-98.5 36.5l47 191q258 0 369 -53.5t111 -190.5q0 -92 -46.5 -235.5t-46.5 -225.5q0 -51 26 -73.5t85 -26.5l-27 -186q-72 -6 -101.5 -34 t-41.5 -99q-14 -88 -15 -219.5t-5 -174.5q-18 -168 -133 -226q-104 -53 -347 -53q-26 0 -53 1z" />
<glyph unicode="~" horiz-adv-x="1124" d="M119 680q45 129 134 217t189 88q82 0 221.5 -47t202.5 -47q47 0 74 18.5t53 75.5l180 -74q-49 -168 -121.5 -245.5t-174.5 -77.5q-78 0 -226.5 47t-206.5 47q-53 0 -87.5 -17.5t-71.5 -74.5z" />
<glyph unicode="&#xa1;" horiz-adv-x="614" d="M27 -410l53 375l139 694h322l-58 -694l-53 -375h-403zM213 891q0 207 227 207q178 0 178 -148q0 -209 -229 -209q-176 0 -176 150z" />
<glyph unicode="&#xa2;" horiz-adv-x="1097" d="M115 487q0 240 109.5 398.5t312.5 206.5l30 225h342l-30 -219q133 -23 239 -84l-47 -330l-254 10l-4 117q-4 29 -20 35q-35 14 -82 14q-193 0 -193 -362q0 -92 28.5 -135.5t94.5 -43.5q51 0 84 15q14 8 23 28l38 123l258 11l-45 -330q-121 -72 -284 -92l-27 -211h-342 l31 229q-262 76 -262 395z" />
<glyph unicode="&#xa3;" horiz-adv-x="1144" d="M57 223q66 27 94.5 48.5t54 79t42.5 167.5l4 33h-135l35 272h129l14 95q14 96 44 167.5t86 135t153.5 97.5t232.5 34q254 0 412 -152l-187 -207q-98 86 -219 86q-43 0 -71.5 -13t-45 -42t-23.5 -54.5t-13 -68.5l-13 -78h250l-37 -272h-241q-27 -201 -166 -318h336 q18 0 26 27l49 154h262l-57 -414h-1010z" />
<glyph unicode="&#xa4;" d="M2 176l182 182q-41 100 -41 213q0 109 43 201l-178 178l199 197l168 -168q102 59 237 59q141 0 236 -53l162 160l190 -193l-170 -170q39 -90 39 -202q0 -115 -49 -224l180 -178l-199 -196l-174 174q-96 -53 -227 -54q-127 0 -231 56l-174 -176zM434 571q0 -92 44 -149 t130 -57q82 0 126 58t44 148q0 201 -174 201q-82 0 -126 -55.5t-44 -145.5z" />
<glyph unicode="&#xa5;" horiz-adv-x="1327" d="M123 1126l27 187h655l-25 -187l-135 -18l125 -250h23l194 250l-100 18l24 187h537l-27 -189l-88 -14q-25 -4 -53 -39l-293 -364h174l-41 -293h-252l-22 -172q-4 -23 0 -30t26 -9l220 -17l-27 -186h-877l25 186l209 15q20 2 27.5 10t11.5 31l22 172h-239l41 293h157 l-196 362q-16 29 -45 35z" />
<glyph unicode="&#xa6;" horiz-adv-x="587" d="M43 -293l111 795h348l-111 -795h-348zM197 797l96 686h348l-96 -686h-348z" />
<glyph unicode="&#xa7;" horiz-adv-x="1189" d="M45 -215l41 295l260 -17l4 -106q0 -29 21 -37q47 -18 133 -18q152 0 151 92q0 47 -47 69.5t-141 45.5q-14 2 -21 4q-55 12 -89.5 23t-82 34t-74 50.5t-47 73.5t-20.5 105q0 180 189 320q-41 33 -67 91t-26 120q0 188 143.5 280.5t364.5 92.5q133 0 252 -20.5t172 -43.5 l-45 -315l-258 14l-4 100q0 25 -20 31q-43 16 -115 16q-59 0 -99 -25.5t-40 -66.5q0 -27 25.5 -45t63.5 -30.5t91 -24.5q14 -2 20 -4q68 -16 113 -34.5t98 -52.5t80 -89.5t27 -130.5q0 -190 -172 -303q78 -63 78 -175q0 -199 -143.5 -297t-399.5 -98q-135 0 -261 25.5 t-155 50.5zM444 514q0 -37 38 -58.5t112 -41.5l119 -31q72 49 71 106q0 55 -120 91l-150 41q-70 -52 -70 -107z" />
<glyph unicode="&#xa8;" horiz-adv-x="1024" d="M317 1331q0 82 54.5 132t136.5 50q68 0 105.5 -36.5t37.5 -100.5q0 -82 -52 -133t-136 -51q-66 0 -106 38t-40 101zM752 1331q0 82 54 132t136 50q68 0 105.5 -36.5t37.5 -100.5q0 -82 -52 -133t-136 -51q-66 0 -105.5 38t-39.5 101z" />
<glyph unicode="&#xa9;" horiz-adv-x="1587" d="M156 625q0 315 197.5 501.5t496.5 186.5q317 0 502.5 -178.5t185.5 -481.5q0 -309 -192.5 -499.5t-499.5 -190.5q-330 0 -510 184.5t-180 477.5zM348 627q0 -229 133 -359.5t369 -130.5q233 0 366.5 134.5t133.5 369.5q0 238 -137.5 368t-362.5 130q-221 0 -361.5 -137 t-140.5 -375zM485 645q0 -184 93.5 -291.5t291.5 -107.5q150 0 234 49v225h-115l-22 -110q-37 -18 -84 -19q-188 0 -189 250q0 137 44 195.5t132 58.5q51 0 97 -18l14 -111h125v235q-109 41 -229 41q-190 0 -291 -107.5t-101 -289.5z" />
<glyph unicode="&#xaa;" horiz-adv-x="964" d="M174 842q0 80 19.5 156.5t60.5 147.5t113.5 114t169.5 43q113 0 190 -78l31 63h241q-29 -147 -34 -188l-54 -359q-4 -14 0 -18t19 -6l63 -10l-18 -132h-336l14 97l-8 4q-70 -63 -125 -90t-125 -27q-221 0 -221 283zM477 862q0 -76 43 -76q57 0 131 64l33 219 q-39 29 -78 29q-37 0 -64.5 -28t-40 -68.5t-18.5 -75.5t-6 -64z" />
<glyph unicode="&#xab;" horiz-adv-x="991" d="M84 524l225 312h299l-209 -287q-14 -20 -8 -39l117 -299h-295zM506 524l225 312h299l-209 -287q-14 -20 -8 -39l117 -299h-295z" />
<glyph unicode="&#xac;" d="M227 522l39 283h805l-67 -477h-265l29 194h-541z" />
<glyph unicode="&#xad;" horiz-adv-x="636" d="M76 440l43 308h555l-43 -308h-555z" />
<glyph unicode="&#xae;" horiz-adv-x="942" d="M215 969q0 174 110.5 279.5t274.5 105.5q176 0 279.5 -101.5t103.5 -269.5q0 -170 -107.5 -276.5t-277.5 -106.5q-182 0 -282.5 103.5t-100.5 265.5zM324 971q0 -125 74.5 -198t201.5 -73t202 75t75 202q0 131 -77 203.5t-200 72.5q-119 0 -197.5 -76.5t-78.5 -205.5z M430 786v58l27 2q10 0 10 10v248q0 10 -10 10l-27 2v62h182q147 0 148 -111q0 -80 -70 -102q27 -8 37 -39l25 -66q4 -10 16 -12l29 -4v-58h-135l-46 129q-8 20 -26 21h-21v-78q0 -10 11 -12l30 -2v-58h-180zM569 1008h29q57 0 57 51q0 45 -53 45h-33v-96z" />
<glyph unicode="&#xaf;" horiz-adv-x="1024" d="M358 1196l35 242h662l-35 -242h-662z" />
<glyph unicode="&#xb0;" horiz-adv-x="583" d="M150 1339q0 123 83.5 200t204.5 77q94 0 154.5 -58.5t60.5 -154.5q0 -121 -83 -201t-201 -80q-98 0 -158.5 61.5t-60.5 155.5zM311 1356q0 -37 21.5 -60.5t56.5 -23.5q43 0 75 32.5t32 75.5q0 37 -22.5 61.5t-55.5 24.5q-39 0 -73 -32.5t-34 -77.5z" />
<glyph unicode="&#xb1;" d="M154 0l39 283h256l34 239h-256l39 283h256l39 274h291l-39 -274h258l-39 -283h-258l-35 -239h258l-39 -283h-804z" />
<glyph unicode="&#xb2;" horiz-adv-x="837" d="M96 717l27 186l369 348l25 25q19 18 26.5 24.5t23 21.5t20.5 24l13 20q8 12 11 23.5t3 23.5q0 37 -39 37q-35 0 -49 -22.5t-24 -79.5l-309 24q16 117 84.5 184.5t147.5 86t189 18.5q332 0 332 -223q0 -74 -37 -129.5t-112 -128.5l-283 -273h119q12 0 18 21l25 82h229 l-45 -293h-764z" />
<glyph unicode="&#xb3;" horiz-adv-x="866" d="M94 842l178 172q94 -86 201 -86q51 0 80 23.5t29 60.5q0 78 -80 78q-41 0 -103 -11l29 195l57 6q68 6 104 31.5t36 87.5q0 45 -43 45q-35 0 -48.5 -19.5t-19.5 -76.5l-315 22q31 291 413 291q336 0 336 -215q0 -102 -60.5 -164.5t-127.5 -79.5v-4q66 -14 106.5 -61 t40.5 -119q0 -164 -121.5 -241t-310.5 -77q-121 0 -225.5 39.5t-155.5 102.5z" />
<glyph unicode="&#xb4;" horiz-adv-x="1024" d="M436 1282l334 342l182 -201l-383 -282z" />
<glyph unicode="&#xb5;" horiz-adv-x="1318" d="M92 -360l203 1435h383l-96 -688q-3 -20 -3 -37q0 -80 64 -80q66 0 145 45l107 760h383l-119 -839q-6 -33 23 -37l96 -15l-25 -184h-450l18 115l-8 4q-106 -82 -195 -113q-47 -16 -106 -26l-23 -340h-397z" />
<glyph unicode="&#xb6;" horiz-adv-x="1398" d="M176 629q0 322 191.5 507t531.5 185h592l-29 -182l-139 -17q-23 -2 -28 -9t-9 -30l-147 -1044q-61 -434 -488 -434q-156 0 -274.5 41t-179.5 86l112 211q43 -29 134.5 -61t183.5 -32q100 0 154.5 54.5t70.5 169.5l152 1028h-115l-141 -987h-84q-231 0 -359.5 134 t-128.5 380z" />
<glyph unicode="&#xb7;" horiz-adv-x="542" d="M133 651q0 209 229 209q176 0 177 -149q0 -207 -228 -207q-178 0 -178 147z" />
<glyph unicode="&#xb8;" horiz-adv-x="1024" d="M233 -530l37 155q25 -8 68 -8q123 0 123 94q0 76 -119 80l72 270l161 -16l-36 -139q150 -47 149 -191q0 -123 -94 -193.5t-225 -70.5q-39 0 -73 4t-48 8z" />
<glyph unicode="&#xb9;" horiz-adv-x="681" d="M129 717l21 151l100 9q25 2 29 26l77 529q2 25 -12 26l-106 29l22 153h467l-113 -737q-2 -25 19 -26l100 -11l-20 -149h-584z" />
<glyph unicode="&#xba;" horiz-adv-x="907" d="M164 858q0 35 6 74q25 176 138.5 273.5t314.5 97.5q178 0 259 -85t81 -223q0 -190 -118 -313t-329 -123q-180 0 -266 81t-86 218zM463 856q0 -111 74 -111q96 0 120 189q6 43 7 76q0 104 -70 104q-98 0 -125 -180q-6 -45 -6 -78z" />
<glyph unicode="&#xbb;" horiz-adv-x="991" d="M51 211l203 299q12 20 4 39l-131 287h299l139 -312l-219 -313h-295zM473 211l203 299q12 20 4 39l-131 287h299l139 -312l-219 -313h-295z" />
<glyph unicode="&#xbc;" horiz-adv-x="2150" d="M225 575l21 152l100 8q25 2 29 27l78 528q2 25 -13 27l-106 29l22 153h467l-112 -737q-2 -25 18 -27l100 -10l-20 -150h-584zM512 -25l938 1508h348l-936 -1508h-350zM1198 168l27 186l483 570h320l-80 -553h106l-29 -199h-104l-25 -172h-294l22 168h-426zM1475 371h174 l34 233h-8z" />
<glyph unicode="&#xbd;" horiz-adv-x="2150" d="M201 575l20 152l101 8q25 2 28 27l78 528q2 25 -12 27l-107 29l23 153h467l-113 -737q-2 -25 19 -27l100 -10l-21 -150h-583zM473 -25l938 1508h348l-936 -1508h-350zM1249 0l27 186l369 349l25 24q19 18 26.5 24.5t23 22t20.5 23.5l13 20q8 12 11 23.5t3 23.5 q0 37 -38 37q-35 0 -49.5 -22.5t-24.5 -79.5l-309 24q16 117 84.5 184.5t147.5 86t189 18.5q332 0 332 -223q0 -74 -37 -129t-112 -129l-283 -273h119q12 0 18 21l25 82h229l-45 -293h-764z" />
<glyph unicode="&#xbe;" horiz-adv-x="2150" d="M174 700l178 172q94 -86 201 -86q51 0 80 24t29 60q0 78 -80 78q-41 0 -103 -10l29 195l57 6q68 6 104 31.5t36 86.5q0 45 -43 46q-35 0 -48.5 -19.5t-19.5 -77.5l-315 23q31 291 413 291q336 0 336 -215q0 -102 -60.5 -165t-127.5 -79v-4q66 -14 106.5 -61.5 t40.5 -118.5q0 -164 -122 -241t-310 -77q-121 0 -225.5 39t-155.5 102zM582 -25l938 1508h348l-936 -1508h-350zM1266 168l26 186l484 570h319l-80 -553h107l-29 -199h-104l-25 -172h-295l23 168h-426zM1542 371h174l35 233h-8z" />
<glyph unicode="&#xbf;" d="M51 -16q0 199 128 340t394 178l23 157h383l-53 -378q-57 -4 -95 -8.5t-99.5 -15.5t-102.5 -30.5t-83 -48t-62.5 -74t-20.5 -102.5q0 -102 112 -102q80 0 123 12q31 10 37 41l27 119l315 24l-55 -399q-291 -106 -506 -107q-465 1 -465 394zM621 891q0 207 227 207 q178 0 178 -148q0 -209 -229 -209q-176 0 -176 150z" />
<glyph unicode="&#xc0;" horiz-adv-x="1579" d="M-20 0l26 180l94 23q39 10 54 39l608 1241h430l258 -1245q4 -25 45 -35l90 -23l-26 -180h-719l26 180l162 19l-27 155h-460l-68 -155l156 -19l-27 -180h-622zM649 618h320l-80 465h-21zM723 1739l147 235l412 -241l-104 -162z" />
<glyph unicode="&#xc1;" horiz-adv-x="1579" d="M-20 0l26 180l94 23q39 10 54 39l608 1241h430l258 -1245q4 -25 45 -35l90 -23l-26 -180h-719l26 180l162 19l-27 155h-460l-68 -155l156 -19l-27 -180h-622zM649 618h320l-80 465h-21zM717 1747l444 227l101 -245l-471 -158z" />
<glyph unicode="&#xc2;" horiz-adv-x="1579" d="M-20 0l26 180l94 23q39 10 54 39l608 1241h430l258 -1245q4 -25 45 -35l90 -23l-26 -180h-719l26 180l162 19l-27 155h-460l-68 -155l156 -19l-27 -180h-622zM618 1706l287 240h238l217 -240l-141 -135l-220 164l-264 -164zM649 618h320l-80 465h-21z" />
<glyph unicode="&#xc3;" horiz-adv-x="1579" d="M-20 0l26 180l94 23q39 10 54 39l608 1241h430l258 -1245q4 -25 45 -35l90 -23l-26 -180h-719l26 180l162 19l-27 155h-460l-68 -155l156 -19l-27 -180h-622zM592 1686l74 116q63 104 163 105q63 0 312 -56q10 -4 18 0q12 4 19 13l41 53l151 -90l-59 -94 q-45 -70 -82 -103t-88 -33q-66 0 -209 39l-103 27q-25 4 -36 -8l-62 -58zM649 618h320l-80 465h-21z" />
<glyph unicode="&#xc4;" horiz-adv-x="1579" d="M-20 0l26 180l94 23q39 10 54 39l608 1241h430l258 -1245q4 -25 45 -35l90 -23l-26 -180h-719l26 180l162 19l-27 155h-460l-68 -155l156 -19l-27 -180h-622zM612 1737q0 82 54.5 132t136.5 50q66 0 104.5 -37t38.5 -100q0 -82 -53 -133.5t-135 -51.5q-68 0 -107 38.5 t-39 101.5zM649 618h320l-80 465h-21zM1047 1737q0 82 54 132t136 50q66 0 104.5 -37t38.5 -100q0 -82 -53 -133.5t-135 -51.5q-68 0 -106.5 38.5t-38.5 101.5z" />
<glyph unicode="&#xc5;" horiz-adv-x="1579" d="M-20 0l26 180l94 23q39 10 54 39l610 1243q-14 31 -14 74q0 115 80.5 183t189.5 68q92 0 151.5 -51t59.5 -137q0 -84 -45 -145l264 -1239q6 -25 45 -35l90 -23l-26 -180h-719l26 180l162 19l-27 155h-460l-68 -155l156 -19l-27 -180h-622zM649 618h320l-80 465h-21z M907 1579q0 -70 72 -70q100 0 100 97q0 70 -73 69q-99 0 -99 -96z" />
<glyph unicode="&#xc6;" horiz-adv-x="2048" d="M-20 0l24 178l90 23q39 10 56 39l604 1038l-148 22l25 183h1468l-65 -459l-269 10l-6 156q0 27 -33 27h-229l-47 -345h434l-39 -276h-434l-47 -332h274q29 0 37 23l58 180h268l-66 -467h-1142l24 180l131 15q23 4 30 11t9 30l51 360h-362l-223 -397l161 -19l-24 -180 h-610zM819 872h258l47 345h-110z" />
<glyph unicode="&#xc7;" horiz-adv-x="1382" d="M115 616q0 406 224 649.5t644 243.5q125 0 255 -31.5t206 -86.5l-60 -447l-270 23l-4 190q0 39 -29 49q-41 14 -131 15q-199 0 -315.5 -147.5t-116.5 -432.5q0 -188 75 -285.5t212 -97.5q121 0 164 16q25 10 32 41l60 199h266l-59 -424q-176 -98 -463 -113l-19 -71 q150 -47 150 -191q0 -123 -94 -193.5t-226 -70.5q-39 0 -72.5 4t-47.5 8l-15 7l37 155q25 -8 68 -8q123 0 123 94q0 76 -119 80l49 189q-264 25 -394 192.5t-130 443.5z" />
<glyph unicode="&#xc8;" horiz-adv-x="1273" d="M16 0l25 180l129 15q23 4 30 11t9 30l141 1009q4 23 -1 31t-25 10l-127 14l24 183h1104l-63 -459l-271 10l-6 156q-2 27 -33 27h-225l-45 -336h432l-39 -277h-432l-45 -340h268q29 0 37 23l55 180h271l-64 -467h-1149zM557 1739l148 235l411 -241l-104 -162z" />
<glyph unicode="&#xc9;" horiz-adv-x="1273" d="M16 0l25 180l129 15q23 4 30 11t9 30l141 1009q4 23 -1 31t-25 10l-127 14l24 183h1104l-63 -459l-271 10l-6 156q-2 27 -33 27h-225l-45 -336h432l-39 -277h-432l-45 -340h268q29 0 37 23l55 180h271l-64 -467h-1149zM551 1747l444 227l101 -245l-471 -158z" />
<glyph unicode="&#xca;" horiz-adv-x="1273" d="M16 0l25 180l129 15q23 4 30 11t9 30l141 1009q4 23 -1 31t-25 10l-127 14l24 183h1104l-63 -459l-271 10l-6 156q-2 27 -33 27h-225l-45 -336h432l-39 -277h-432l-45 -340h268q29 0 37 23l55 180h271l-64 -467h-1149zM453 1706l286 240h238l217 -240l-141 -135l-219 164 l-265 -164z" />
<glyph unicode="&#xcb;" horiz-adv-x="1273" d="M16 0l25 180l129 15q23 4 30 11t9 30l141 1009q4 23 -1 31t-25 10l-127 14l24 183h1104l-63 -459l-271 10l-6 156q-2 27 -33 27h-225l-45 -336h432l-39 -277h-432l-45 -340h268q29 0 37 23l55 180h271l-64 -467h-1149zM446 1737q0 82 54.5 132t136.5 50q66 0 104.5 -37 t38.5 -100q0 -82 -53 -133.5t-135 -51.5q-68 0 -107 38.5t-39 101.5zM881 1737q0 82 54 132t136 50q66 0 104.5 -37t38.5 -100q0 -82 -53 -133.5t-135 -51.5q-68 0 -106.5 38.5t-38.5 101.5z" />
<glyph unicode="&#xcc;" horiz-adv-x="804" d="M2 0l21 180l149 15q20 2 26.5 9t10.5 32l143 1007q4 23 -2 31t-26 10l-144 14l27 185h749l-26 -185l-156 -16q-23 -2 -28 -8t-9 -31l-141 -1005q-4 -25 0 -32t25 -9l153 -17l-22 -180h-750zM334 1739l147 235l412 -241l-105 -162z" />
<glyph unicode="&#xcd;" horiz-adv-x="804" d="M2 0l21 180l149 15q20 2 26.5 9t10.5 32l143 1007q4 23 -2 31t-26 10l-144 14l27 185h749l-26 -185l-156 -16q-23 -2 -28 -8t-9 -31l-141 -1005q-4 -25 0 -32t25 -9l153 -17l-22 -180h-750zM328 1747l444 227l100 -245l-471 -158z" />
<glyph unicode="&#xce;" horiz-adv-x="804" d="M2 0l21 180l149 15q20 2 26.5 9t10.5 32l143 1007q4 23 -2 31t-26 10l-144 14l27 185h749l-26 -185l-156 -16q-23 -2 -28 -8t-9 -31l-141 -1005q-4 -25 0 -32t25 -9l153 -17l-22 -180h-750zM229 1706l287 240h238l217 -240l-142 -135l-219 164l-264 -164z" />
<glyph unicode="&#xcf;" horiz-adv-x="804" d="M2 0l21 180l149 15q20 2 26.5 9t10.5 32l143 1007q4 23 -2 31t-26 10l-144 14l27 185h749l-26 -185l-156 -16q-23 -2 -28 -8t-9 -31l-141 -1005q-4 -25 0 -32t25 -9l153 -17l-22 -180h-750zM223 1737q0 82 54.5 132t136.5 50q66 0 104.5 -37t38.5 -100q0 -82 -53 -133.5 t-135 -51.5q-68 0 -107 38.5t-39 101.5zM657 1737q0 82 54.5 132t136.5 50q66 0 104.5 -37t38.5 -100q0 -82 -53 -133.5t-135 -51.5q-68 0 -107 38.5t-39 101.5z" />
<glyph unicode="&#xd0;" horiz-adv-x="1519" d="M37 0l26 184l130 15q20 2 27 10t11 31l50 356h-148l39 266h145l54 383q6 37 -27 41l-127 14l25 183h682q322 0 476 -156t154 -444q0 -395 -221 -639t-649 -244h-647zM618 264h52q238 0 364.5 177t126.5 431q0 180 -82 262.5t-266 82.5h-65l-50 -355h234l-39 -266h-229z " />
<glyph unicode="&#xd1;" horiz-adv-x="1658" d="M16 0l25 180l129 15q23 4 30 11t9 30l141 1011q4 25 -1 32t-25 9l-123 15l20 180h559l447 -975l104 735q4 23 -1 31t-25 10l-125 14l24 185h598l-24 -185l-138 -16q-14 -2 -20 -5t-9 -10t-5 -24l-176 -1243h-396l-450 969l-101 -731q-4 -25 0 -32t27 -9l131 -17l-22 -180 h-603zM670 1686l73 116q63 104 164 105q63 0 312 -56q10 -4 18 0q12 4 18 13l41 53l152 -90l-59 -94q-45 -70 -82 -103t-88 -33q-66 0 -209 39l-103 27q-25 4 -37 -8l-61 -58z" />
<glyph unicode="&#xd2;" horiz-adv-x="1556" d="M119 561q0 203 53 374t156.5 300t268.5 201.5t374 72.5q311 0 460.5 -162.5t149.5 -435.5q0 -440 -225.5 -688t-628.5 -248q-315 0 -461.5 155t-146.5 431zM526 598q0 -170 65.5 -242.5t194.5 -72.5q340 0 385 536q4 49 5 72q0 311 -250 311q-348 0 -398 -536 q-2 -23 -2 -68zM709 1739l147 235l412 -241l-105 -162z" />
<glyph unicode="&#xd3;" horiz-adv-x="1556" d="M119 561q0 203 53 374t156.5 300t268.5 201.5t374 72.5q311 0 460.5 -162.5t149.5 -435.5q0 -440 -225.5 -688t-628.5 -248q-315 0 -461.5 155t-146.5 431zM526 598q0 -170 65.5 -242.5t194.5 -72.5q340 0 385 536q4 49 5 72q0 311 -250 311q-348 0 -398 -536 q-2 -23 -2 -68zM702 1747l445 227l100 -245l-471 -158z" />
<glyph unicode="&#xd4;" horiz-adv-x="1556" d="M119 561q0 203 53 374t156.5 300t268.5 201.5t374 72.5q311 0 460.5 -162.5t149.5 -435.5q0 -440 -225.5 -688t-628.5 -248q-315 0 -461.5 155t-146.5 431zM526 598q0 -170 65.5 -242.5t194.5 -72.5q340 0 385 536q4 49 5 72q0 311 -250 311q-348 0 -398 -536 q-2 -23 -2 -68zM604 1706l287 240h237l218 -240l-142 -135l-219 164l-264 -164z" />
<glyph unicode="&#xd5;" horiz-adv-x="1556" d="M119 561q0 203 53 374t156.5 300t268.5 201.5t374 72.5q311 0 460.5 -162.5t149.5 -435.5q0 -440 -225.5 -688t-628.5 -248q-315 0 -461.5 155t-146.5 431zM526 598q0 -170 65.5 -242.5t194.5 -72.5q340 0 385 536q4 49 5 72q0 311 -250 311q-348 0 -398 -536 q-2 -23 -2 -68zM578 1686l73 116q66 104 164 105q61 0 311 -56q8 -4 19 0q12 4 18 13l41 53l152 -90l-60 -94q-45 -70 -81.5 -103t-88.5 -33q-66 0 -208 39l-103 27q-25 4 -37 -8l-61 -58z" />
<glyph unicode="&#xd6;" horiz-adv-x="1556" d="M119 561q0 203 53 374t156.5 300t268.5 201.5t374 72.5q311 0 460.5 -162.5t149.5 -435.5q0 -440 -225.5 -688t-628.5 -248q-315 0 -461.5 155t-146.5 431zM526 598q0 -170 65.5 -242.5t194.5 -72.5q340 0 385 536q4 49 5 72q0 311 -250 311q-348 0 -398 -536 q-2 -23 -2 -68zM598 1737q0 82 54.5 132t135.5 50q66 0 105 -37t39 -100q0 -82 -53.5 -133.5t-135.5 -51.5q-68 0 -106.5 38.5t-38.5 101.5zM1032 1737q0 82 54.5 132t136.5 50q66 0 104.5 -37t38.5 -100q0 -82 -53 -133.5t-135 -51.5q-68 0 -107 38.5t-39 101.5z" />
<glyph unicode="&#xd7;" d="M217 465l223 194l-168 195l234 205l168 -195l221 195l176 -205l-221 -195l166 -194l-234 -205l-168 195l-221 -195z" />
<glyph unicode="&#xd8;" horiz-adv-x="1556" d="M119 561q0 203 53 374t156.5 300t268.5 201.5t374 72.5q72 0 123 -8l67 127h381l-139 -256q178 -158 178 -461q0 -440 -225.5 -688t-628.5 -248q-59 0 -111 7l-81 -144h-381l141 264q-176 148 -176 459zM526 598q0 -102 21 -164l418 766q-6 0 -19.5 1t-19.5 1 q-348 0 -398 -536q-2 -23 -2 -68zM748 283h38q340 0 385 536q4 49 5 72q0 84 -19 143z" />
<glyph unicode="&#xd9;" horiz-adv-x="1589" d="M190 1300l25 183h711l-25 -183l-139 -16q-23 -2 -27 -8t-8 -31l-88 -614q-12 -90 -12 -158q0 -96 42 -143t150 -47q145 0 212 79.5t91 268.5l86 614q4 23 -1 31t-25 10l-125 14l24 183h652l-25 -183l-139 -16q-23 -2 -28 -9t-7 -30l-98 -692q-43 -301 -204 -439.5 t-439 -138.5q-281 0 -419 111t-138 344q0 55 10 133l94 682q6 39 -25 41zM754 1739l147 235l412 -241l-105 -162z" />
<glyph unicode="&#xda;" horiz-adv-x="1589" d="M190 1300l25 183h711l-25 -183l-139 -16q-23 -2 -27 -8t-8 -31l-88 -614q-12 -90 -12 -158q0 -96 42 -143t150 -47q145 0 212 79.5t91 268.5l86 614q4 23 -1 31t-25 10l-125 14l24 183h652l-25 -183l-139 -16q-23 -2 -28 -9t-7 -30l-98 -692q-43 -301 -204 -439.5 t-439 -138.5q-281 0 -419 111t-138 344q0 55 10 133l94 682q6 39 -25 41zM748 1747l444 227l100 -245l-471 -158z" />
<glyph unicode="&#xdb;" horiz-adv-x="1589" d="M190 1300l25 183h711l-25 -183l-139 -16q-23 -2 -27 -8t-8 -31l-88 -614q-12 -90 -12 -158q0 -96 42 -143t150 -47q145 0 212 79.5t91 268.5l86 614q4 23 -1 31t-25 10l-125 14l24 183h652l-25 -183l-139 -16q-23 -2 -28 -9t-7 -30l-98 -692q-43 -301 -204 -439.5 t-439 -138.5q-281 0 -419 111t-138 344q0 55 10 133l94 682q6 39 -25 41zM629 1706l286 240h238l217 -240l-141 -135l-219 164l-265 -164z" />
<glyph unicode="&#xdc;" horiz-adv-x="1589" d="M190 1300l25 183h711l-25 -183l-139 -16q-23 -2 -27 -8t-8 -31l-88 -614q-12 -90 -12 -158q0 -96 42 -143t150 -47q145 0 212 79.5t91 268.5l86 614q4 23 -1 31t-25 10l-125 14l24 183h652l-25 -183l-139 -16q-23 -2 -28 -9t-7 -30l-98 -692q-43 -301 -204 -439.5 t-439 -138.5q-281 0 -419 111t-138 344q0 55 10 133l94 682q6 39 -25 41zM643 1737q0 82 54.5 132t136.5 50q66 0 104.5 -37t38.5 -100q0 -82 -53.5 -133.5t-135.5 -51.5q-68 0 -106.5 38.5t-38.5 101.5zM1077 1737q0 82 54.5 132t136.5 50q66 0 104.5 -37t38.5 -100 q0 -82 -53 -133.5t-135 -51.5q-68 0 -107 38.5t-39 101.5z" />
<glyph unicode="&#xdd;" horiz-adv-x="1427" d="M152 1303l26 180h709l-27 -180l-164 -19l146 -414h22l256 414l-153 19l26 180h592l-26 -180l-89 -23q-43 -10 -55 -39l-448 -698l-43 -305q-4 -23 0 -30t26 -9l219 -17l-24 -182h-877l25 182l209 15q20 2 26.5 10t10.5 31l43 303l-299 704q-10 27 -45 35zM680 1747 l444 227l101 -245l-471 -158z" />
<glyph unicode="&#xde;" horiz-adv-x="1308" d="M16 0l27 182l129 15q23 4 30 11t9 30l139 1005q4 23 -2 31t-26 10l-123 14l22 185h711l-25 -185l-145 -18q-29 -4 -31 -29l-4 -28h158q455 0 454 -383q0 -246 -165.5 -376t-458.5 -130h-109l-12 -94q-4 -25 0 -32t24 -9l287 -17l-26 -182h-863zM643 596h43q252 0 252 219 q0 139 -184 139h-62z" />
<glyph unicode="&#xdf;" horiz-adv-x="1462" d="M41 -434l219 1536q20 141 79.5 237.5t151 144.5t185.5 67.5t213 19.5q240 0 362.5 -92.5t122.5 -216.5q0 -139 -125 -273l-43 -43q-29 -29 -41 -42t-23.5 -33.5t-11.5 -37t7.5 -33t26 -32.5t32.5 -27.5t45 -32.5l45 -32q166 -125 166 -293q0 -180 -129 -294t-354 -114 q-129 0 -230.5 25t-146.5 51l41 299l258 -16l6 -115q2 -37 29 -41q33 -4 57 -4q57 0 89 31t32 78q0 25 -8.5 45t-33.5 43l-37 31q-11 9 -55 36t-52 33q-78 51 -121 106.5t-43 143.5q0 123 112 252q4 6 25.5 28.5t28 29.5t21.5 27.5t21.5 32t14.5 30t11 36t3 35.5 q0 45 -35.5 76.5t-101.5 31.5q-96 0 -151.5 -55t-75.5 -194l-209 -1485h-377z" />
<glyph unicode="&#xe0;" horiz-adv-x="1269" d="M86 397q0 121 27.5 239t86 224.5t163 172t241.5 65.5q162 0 275 -119l43 96h317q-43 -211 -51 -278l-78 -561q-4 -23 1 -30t26 -9l92 -15l-25 -182h-452l22 154l-10 4q-102 -98 -182 -140.5t-181 -42.5q-315 0 -315 422zM481 426q0 -137 80 -137q37 0 99.5 34.5 t113.5 84.5l49 350q-66 55 -135 55q-59 0 -102 -43t-64.5 -108.5t-31 -125t-9.5 -110.5zM532 1448l222 180l260 -366l-156 -121z" />
<glyph unicode="&#xe1;" horiz-adv-x="1269" d="M86 397q0 121 27.5 239t86 224.5t163 172t241.5 65.5q162 0 275 -119l43 96h317q-43 -211 -51 -278l-78 -561q-4 -23 1 -30t26 -9l92 -15l-25 -182h-452l22 154l-10 4q-102 -98 -182 -140.5t-181 -42.5q-315 0 -315 422zM481 426q0 -137 80 -137q37 0 99.5 34.5 t113.5 84.5l49 350q-66 55 -135 55q-59 0 -102 -43t-64.5 -108.5t-31 -125t-9.5 -110.5zM502 1282l334 342l182 -201l-383 -282z" />
<glyph unicode="&#xe2;" horiz-adv-x="1269" d="M86 397q0 121 27.5 239t86 224.5t163 172t241.5 65.5q162 0 275 -119l43 96h317q-43 -211 -51 -278l-78 -561q-4 -23 1 -30t26 -9l92 -15l-25 -182h-452l22 154l-10 4q-102 -98 -182 -140.5t-181 -42.5q-315 0 -315 422zM377 1262l282 272h238l209 -272l-152 -123 l-196 180l-250 -180zM481 426q0 -137 80 -137q37 0 99.5 34.5t113.5 84.5l49 350q-66 55 -135 55q-59 0 -102 -43t-64.5 -108.5t-31 -125t-9.5 -110.5z" />
<glyph unicode="&#xe3;" horiz-adv-x="1269" d="M86 397q0 121 27.5 239t86 224.5t163 172t241.5 65.5q162 0 275 -119l43 96h317q-43 -211 -51 -278l-78 -561q-4 -23 1 -30t26 -9l92 -15l-25 -182h-452l22 154l-10 4q-102 -98 -182 -140.5t-181 -42.5q-315 0 -315 422zM385 1249l78 115q68 111 158 111q51 0 151 -31 q145 -43 164 -43q10 0 25 14l55 60l147 -84l-59 -95q-47 -72 -82 -103.5t-82 -31.5q-49 0 -197 43q-127 37 -133 37q-12 0 -35 -18l-61 -58zM481 426q0 -137 80 -137q37 0 99.5 34.5t113.5 84.5l49 350q-66 55 -135 55q-59 0 -102 -43t-64.5 -108.5t-31 -125t-9.5 -110.5z " />
<glyph unicode="&#xe4;" horiz-adv-x="1269" d="M86 397q0 121 27.5 239t86 224.5t163 172t241.5 65.5q162 0 275 -119l43 96h317q-43 -211 -51 -278l-78 -561q-4 -23 1 -30t26 -9l92 -15l-25 -182h-452l22 154l-10 4q-102 -98 -182 -140.5t-181 -42.5q-315 0 -315 422zM403 1331q0 82 54.5 132t136.5 50 q68 0 105.5 -36.5t37.5 -100.5q0 -82 -52 -133t-136 -51q-66 0 -106 38t-40 101zM481 426q0 -137 80 -137q37 0 99.5 34.5t113.5 84.5l49 350q-66 55 -135 55q-59 0 -102 -43t-64.5 -108.5t-31 -125t-9.5 -110.5zM838 1331q0 82 54 132t136 50q68 0 105.5 -36.5t37.5 -100.5 q0 -82 -52 -133t-136 -51q-66 0 -105.5 38t-39.5 101z" />
<glyph unicode="&#xe5;" horiz-adv-x="1269" d="M86 397q0 121 27.5 239t86 224.5t163 172t241.5 65.5q162 0 275 -119l43 96h317q-43 -211 -51 -278l-78 -561q-4 -23 1 -30t26 -9l92 -15l-25 -182h-452l22 154l-10 4q-102 -98 -182 -140.5t-181 -42.5q-315 0 -315 422zM481 426q0 -137 80 -137q37 0 99.5 34.5 t113.5 84.5l49 350q-66 55 -135 55q-59 0 -102 -43t-64.5 -108.5t-31 -125t-9.5 -110.5zM537 1341q0 115 80.5 183.5t189.5 68.5q92 0 151.5 -51t59.5 -137q0 -115 -78 -182.5t-192 -67.5q-94 0 -152.5 52t-58.5 134zM694 1362q0 -70 72 -70q100 0 100 97q0 70 -73 69 q-99 0 -99 -96z" />
<glyph unicode="&#xe6;" horiz-adv-x="1742" d="M86 397q0 121 27.5 239t86 224.5t163 172t241.5 65.5q211 0 361 -158q184 158 444 158q158 0 251 -74t93 -211q0 -84 -42 -149.5t-100.5 -105.5t-147.5 -69.5t-156.5 -43t-155.5 -25.5q8 -168 170 -168q115 0 299 74l53 -238q-250 -113 -454 -113q-293 0 -404 205 q-123 -113 -217 -159t-197 -46q-315 0 -315 422zM481 426q0 -137 80 -137q35 0 91.5 30.5t105.5 75.5q0 57 2 86q8 156 63 277q-66 55 -135 55q-59 0 -102 -43t-64.5 -108.5t-31 -125t-9.5 -110.5zM1161 633q47 6 94.5 17.5t101.5 44t54 75.5q0 63 -76 64 q-59 0 -108.5 -50.5t-65.5 -150.5z" />
<glyph unicode="&#xe7;" horiz-adv-x="1044" d="M82 434q0 317 177 490.5t458 173.5q113 0 215 -30t153 -71l-49 -350l-254 10l-6 138q0 29 -20 34q-35 10 -74 11q-88 0 -148.5 -89t-60.5 -280q0 -217 172 -217q86 0 258 55l58 -223q-143 -84 -338 -106l-19 -74q150 -47 150 -191q0 -123 -94.5 -193.5t-225.5 -70.5 q-39 0 -72.5 4t-48.5 8l-14 7l37 155q25 -8 67 -8q123 0 123 94q0 76 -118 80l49 189q-190 23 -282.5 142t-92.5 312z" />
<glyph unicode="&#xe8;" horiz-adv-x="1064" d="M82 420q0 330 180 504t449 174q176 0 270 -74t94 -213q0 -98 -49 -172t-139 -118t-188.5 -68.5t-225.5 -38.5q6 -162 170 -162q113 0 299 74l53 -238q-256 -113 -458 -113q-238 0 -346.5 121t-108.5 324zM479 633q254 35 254 137q0 63 -76 64q-59 0 -109.5 -51.5 t-68.5 -149.5zM479 1448l221 180l261 -366l-156 -121z" />
<glyph unicode="&#xe9;" horiz-adv-x="1064" d="M82 420q0 330 180 504t449 174q176 0 270 -74t94 -213q0 -98 -49 -172t-139 -118t-188.5 -68.5t-225.5 -38.5q6 -162 170 -162q113 0 299 74l53 -238q-256 -113 -458 -113q-238 0 -346.5 121t-108.5 324zM449 1282l333 342l183 -201l-383 -282zM479 633q254 35 254 137 q0 63 -76 64q-59 0 -109.5 -51.5t-68.5 -149.5z" />
<glyph unicode="&#xea;" horiz-adv-x="1064" d="M82 420q0 330 180 504t449 174q176 0 270 -74t94 -213q0 -98 -49 -172t-139 -118t-188.5 -68.5t-225.5 -38.5q6 -162 170 -162q113 0 299 74l53 -238q-256 -113 -458 -113q-238 0 -346.5 121t-108.5 324zM324 1262l282 272h238l209 -272l-152 -123l-196 180l-250 -180z M479 633q254 35 254 137q0 63 -76 64q-59 0 -109.5 -51.5t-68.5 -149.5z" />
<glyph unicode="&#xeb;" horiz-adv-x="1064" d="M82 420q0 330 180 504t449 174q176 0 270 -74t94 -213q0 -98 -49 -172t-139 -118t-188.5 -68.5t-225.5 -38.5q6 -162 170 -162q113 0 299 74l53 -238q-256 -113 -458 -113q-238 0 -346.5 121t-108.5 324zM324 1331q0 82 54 132t136 50q68 0 105.5 -36.5t37.5 -100.5 q0 -82 -52 -133t-136 -51q-66 0 -105.5 38t-39.5 101zM479 633q254 35 254 137q0 63 -76 64q-59 0 -109.5 -51.5t-68.5 -149.5zM758 1331q0 82 54 132t136 50q68 0 106 -36.5t38 -100.5q0 -82 -52.5 -133t-136.5 -51q-66 0 -105.5 38t-39.5 101z" />
<glyph unicode="&#xec;" horiz-adv-x="679" d="M115 12l53 301l68 492q6 35 -21 43l-96 39l26 188h504l-117 -837q-4 -25 0.5 -32t26.5 -9l84 -15l-22 -182h-500zM195 1448l221 180l260 -366l-156 -121z" />
<glyph unicode="&#xed;" horiz-adv-x="679" d="M115 12l53 301l68 492q6 35 -21 43l-96 39l26 188h504l-117 -837q-4 -25 0.5 -32t26.5 -9l84 -15l-22 -182h-500zM164 1282l334 342l182 -201l-383 -282z" />
<glyph unicode="&#xee;" horiz-adv-x="679" d="M59 1262l263 272h237l189 -272l-152 -123l-176 180l-230 -180zM115 12l53 301l68 492q6 35 -21 43l-96 39l26 188h504l-117 -837q-4 -25 0.5 -32t26.5 -9l84 -15l-22 -182h-500z" />
<glyph unicode="&#xef;" horiz-adv-x="679" d="M68 1331q0 82 54 132t136 50q68 0 105.5 -36.5t37.5 -100.5q0 -82 -52 -133t-136 -51q-66 0 -105.5 38t-39.5 101zM115 12l53 301l68 492q6 35 -21 43l-96 39l26 188h504l-117 -837q-4 -25 0.5 -32t26.5 -9l84 -15l-22 -182h-500zM465 1331q0 82 54 132t136 50 q68 0 106 -36.5t38 -100.5q0 -82 -52.5 -133t-136.5 -51q-66 0 -105.5 38t-39.5 101z" />
<glyph unicode="&#xf0;" horiz-adv-x="1239" d="M78 424q0 164 58.5 301t185.5 226t301 89q117 0 229 -53l12 12q-51 111 -183 189t-253 112l182 314q182 -43 303 -125l252 160l135 -236l-192 -117q135 -201 135 -487q0 -834 -684 -834q-238 0 -359.5 120t-121.5 329zM479 408q0 -174 127 -175q215 0 238 508 q-74 49 -154 50q-53 0 -93 -25t-62.5 -60.5t-35 -90t-16.5 -101.5t-4 -106z" />
<glyph unicode="&#xf1;" horiz-adv-x="1271" d="M12 0l25 184l84 13q20 4 27.5 11t9.5 30l78 567q6 35 -19 43l-96 39l26 188h465l-20 -147l8 -4q70 59 110 88.5t108.5 57.5t142.5 28q135 0 196 -89q44 -64 44 -171q0 -43 -7 -93l-72 -507q-4 -25 0 -32t25 -9l94 -15l-24 -182h-500l-4 10l41 258l59 424q2 15 2 27 q0 57 -47 57q-51 0 -176 -102l-60 -436q-4 -25 0.5 -32t26.5 -9l80 -15l-25 -182h-602zM344 1249l78 115q68 111 158 111q51 0 151 -31q145 -43 164 -43q10 0 25 14l55 60l147 -84l-59 -95q-47 -72 -82 -103.5t-82 -31.5q-49 0 -197 43q-127 37 -133 37q-12 0 -34 -18 l-62 -58z" />
<glyph unicode="&#xf2;" horiz-adv-x="1206" d="M82 424q0 68 8 125q37 256 200 402.5t435 146.5q254 0 366.5 -122t112.5 -319q0 -47 -10 -127q-80 -555 -621 -555q-248 0 -369.5 117t-121.5 332zM473 420q0 -186 129 -187q76 0 124 64.5t71 224.5q8 61 8 129q0 182 -125 183q-166 0 -199 -295q-8 -64 -8 -119z M516 1448l221 180l260 -366l-155 -121z" />
<glyph unicode="&#xf3;" horiz-adv-x="1206" d="M82 424q0 68 8 125q37 256 200 402.5t435 146.5q254 0 366.5 -122t112.5 -319q0 -47 -10 -127q-80 -555 -621 -555q-248 0 -369.5 117t-121.5 332zM473 420q0 -186 129 -187q76 0 124 64.5t71 224.5q8 61 8 129q0 182 -125 183q-166 0 -199 -295q-8 -64 -8 -119z M485 1282l334 342l182 -201l-383 -282z" />
<glyph unicode="&#xf4;" horiz-adv-x="1206" d="M82 424q0 68 8 125q37 256 200 402.5t435 146.5q254 0 366.5 -122t112.5 -319q0 -47 -10 -127q-80 -555 -621 -555q-248 0 -369.5 117t-121.5 332zM360 1262l283 272h238l209 -272l-152 -123l-197 180l-249 -180zM473 420q0 -186 129 -187q76 0 124 64.5t71 224.5 q8 61 8 129q0 182 -125 183q-166 0 -199 -295q-8 -64 -8 -119z" />
<glyph unicode="&#xf5;" horiz-adv-x="1206" d="M82 424q0 68 8 125q37 256 200 402.5t435 146.5q254 0 366.5 -122t112.5 -319q0 -47 -10 -127q-80 -555 -621 -555q-248 0 -369.5 117t-121.5 332zM334 1249l78 115q68 111 157 111q49 0 152 -31q145 -43 164 -43q10 0 24 14l56 60l147 -84l-59 -95q-47 -72 -82 -103.5 t-82 -31.5q-49 0 -197 43q-127 37 -133 37q-12 0 -35 -18l-61 -58zM473 420q0 -186 129 -187q76 0 124 64.5t71 224.5q8 61 8 129q0 182 -125 183q-166 0 -199 -295q-8 -64 -8 -119z" />
<glyph unicode="&#xf6;" horiz-adv-x="1206" d="M82 424q0 68 8 125q37 256 200 402.5t435 146.5q254 0 366.5 -122t112.5 -319q0 -47 -10 -127q-80 -555 -621 -555q-248 0 -369.5 117t-121.5 332zM360 1331q0 82 54.5 132t136.5 50q68 0 105.5 -36.5t37.5 -100.5q0 -82 -52 -133t-136 -51q-66 0 -106 38t-40 101z M473 420q0 -186 129 -187q76 0 124 64.5t71 224.5q8 61 8 129q0 182 -125 183q-166 0 -199 -295q-8 -64 -8 -119zM795 1331q0 82 54 132t136 50q68 0 105.5 -36.5t37.5 -100.5q0 -82 -52 -133t-136 -51q-66 0 -105.5 38t-39.5 101z" />
<glyph unicode="&#xf7;" d="M207 516l41 283h805l-41 -283h-805zM397 279q0 82 53.5 136t151.5 54q78 0 118 -39t40 -102q0 -84 -51.5 -134.5t-151.5 -50.5q-160 1 -160 136zM496 981q0 82 53 136t151 54q78 0 118 -38.5t40 -102.5q0 -84 -51 -134t-152 -50q-159 0 -159 135z" />
<glyph unicode="&#xf8;" horiz-adv-x="1206" d="M82 424q0 68 8 125q37 256 200 402.5t435 146.5q47 0 90 -6l74 127h299l-127 -218q143 -113 143 -344q0 -47 -10 -127q-80 -555 -621 -555q-53 0 -100 7l-84 -148h-301l139 240q-145 119 -145 350zM465 412l248 430q-20 4 -33 4q-168 0 -207 -307q-8 -64 -8 -123v-4z M575 223q8 -2 27 -2q78 0 127 67.5t76 233.5q8 68 8 117z" />
<glyph unicode="&#xf9;" horiz-adv-x="1267" d="M113 893l24 182h500l-96 -692q-2 -15 -2 -27q0 -57 47 -57q51 0 176 102l59 437q4 25 0 32t-26 9l-88 14l24 182h502l-117 -833q-6 -39 19 -43l98 -17l-27 -182h-465l21 147l-8 7q-70 -61 -109 -90t-108.5 -58t-143.5 -29q-115 0 -177 66t-62 197q0 41 6 90l71 508 q4 25 0 32t-24 9zM502 1448l221 180l260 -366l-156 -121z" />
<glyph unicode="&#xfa;" horiz-adv-x="1267" d="M113 893l24 182h500l-96 -692q-2 -15 -2 -27q0 -57 47 -57q51 0 176 102l59 437q4 25 0 32t-26 9l-88 14l24 182h502l-117 -833q-6 -39 19 -43l98 -17l-27 -182h-465l21 147l-8 7q-70 -61 -109 -90t-108.5 -58t-143.5 -29q-115 0 -177 66t-62 197q0 41 6 90l71 508 q4 25 0 32t-24 9zM500 1282l334 342l182 -201l-383 -282z" />
<glyph unicode="&#xfb;" horiz-adv-x="1267" d="M113 893l24 182h500l-96 -692q-2 -15 -2 -27q0 -57 47 -57q51 0 176 102l59 437q4 25 0 32t-26 9l-88 14l24 182h502l-117 -833q-6 -39 19 -43l98 -17l-27 -182h-465l21 147l-8 7q-70 -61 -109 -90t-108.5 -58t-143.5 -29q-115 0 -177 66t-62 197q0 41 6 90l71 508 q4 25 0 32t-24 9zM346 1262l283 272h237l209 -272l-151 -123l-197 180l-250 -180z" />
<glyph unicode="&#xfc;" horiz-adv-x="1267" d="M113 893l24 182h500l-96 -692q-2 -15 -2 -27q0 -57 47 -57q51 0 176 102l59 437q4 25 0 32t-26 9l-88 14l24 182h502l-117 -833q-6 -39 19 -43l98 -17l-27 -182h-465l21 147l-8 7q-70 -61 -109 -90t-108.5 -58t-143.5 -29q-115 0 -177 66t-62 197q0 41 6 90l71 508 q4 25 0 32t-24 9zM346 1331q0 82 54.5 132t136.5 50q68 0 105.5 -36.5t37.5 -100.5q0 -82 -52.5 -133t-135.5 -51q-66 0 -106 38t-40 101zM780 1331q0 82 54.5 132t136.5 50q68 0 105.5 -36.5t37.5 -100.5q0 -82 -52 -133t-136 -51q-66 0 -106 38t-40 101z" />
<glyph unicode="&#xfd;" horiz-adv-x="1239" d="M-92 -346l121 207q94 -61 190 -62q104 0 172 115l45 76l-237 850q-8 27 -37 34l-80 19l29 182h415l27 -28l57 -261l82 -370h21l239 461l-125 16l29 182h414l35 -84l-619 -1163q-78 -150 -180.5 -217.5t-272.5 -67.5q-106 0 -194 36t-131 75zM481 1282l334 342l182 -201 l-383 -282z" />
<glyph unicode="&#xfe;" horiz-adv-x="1255" d="M35 -426l59 340l193 1362q6 31 -21 43l-94 39l27 188h489l-88 -616l10 -6q180 174 340 174q301 0 301 -418q0 -352 -134 -528.5t-361 -176.5q-78 0 -146.5 29t-105.5 64h-15l-40 -269q-4 -29 30 -30l217 -21l-26 -182h-633zM526 313q76 -47 146 -47q90 0 134 105.5 t44 242.5q0 164 -76 164q-59 0 -196 -108z" />
<glyph unicode="&#xff;" horiz-adv-x="1239" d="M-92 -346l121 207q94 -61 190 -62q104 0 172 115l45 76l-237 850q-8 27 -37 34l-80 19l29 182h415l27 -28l57 -261l82 -370h21l239 461l-125 16l29 182h414l35 -84l-619 -1163q-78 -150 -180.5 -217.5t-272.5 -67.5q-106 0 -194 36t-131 75zM356 1331q0 82 54.5 132 t136.5 50q68 0 105.5 -36.5t37.5 -100.5q0 -82 -52 -133t-136 -51q-66 0 -106 38t-40 101zM791 1331q0 82 54 132t136 50q68 0 105.5 -36.5t37.5 -100.5q0 -82 -52 -133t-136 -51q-66 0 -105.5 38t-39.5 101z" />
<glyph unicode="&#x152;" horiz-adv-x="2078" d="M119 608q0 395 202.5 648t569.5 253q125 0 215 -26h1024l-64 -459l-270 10l-6 156q0 27 -33 27h-364q66 -141 69 -336h457l-39 -277h-434q-37 -197 -133 -340h358q31 0 37 23l55 180h271l-64 -467h-1050q-98 -25 -211 -25q-295 0 -442.5 174t-147.5 459zM516 598 q0 -170 59.5 -242.5t176.5 -72.5q307 0 342 481q6 76 6 127q0 311 -234 311q-305 0 -346 -506q-4 -53 -4 -98z" />
<glyph unicode="&#x153;" horiz-adv-x="1765" d="M82 424q0 68 8 125q37 256 191.5 402.5t414.5 146.5q125 0 215 -43t138 -107q170 150 362 150q176 0 270.5 -74t94.5 -213q0 -96 -52.5 -168t-147.5 -115t-188.5 -67.5t-213.5 -42.5q8 -166 169 -166q113 0 299 74l54 -238q-256 -113 -459 -113q-190 0 -305 154 q-143 -154 -385 -154q-231 0 -348 118t-117 331zM473 420q0 -186 129 -187q76 0 124 64.5t71 224.5q8 61 8 129q0 182 -125 183q-166 0 -199 -295q-8 -64 -8 -119zM1184 633q47 6 94 17.5t101.5 44t54.5 75.5q0 63 -76 64q-59 0 -108.5 -50.5t-65.5 -150.5z" />
<glyph unicode="&#x178;" horiz-adv-x="1427" d="M152 1303l26 180h709l-27 -180l-164 -19l146 -414h22l256 414l-153 19l26 180h592l-26 -180l-89 -23q-43 -10 -55 -39l-448 -698l-43 -305q-4 -23 0 -30t26 -9l219 -17l-24 -182h-877l25 182l209 15q20 2 26.5 10t10.5 31l43 303l-299 704q-10 27 -45 35zM555 1737 q0 82 54.5 132t135.5 50q66 0 105 -37t39 -100q0 -82 -53.5 -133.5t-135.5 -51.5q-68 0 -106.5 38.5t-38.5 101.5zM989 1737q0 82 54.5 132t136.5 50q66 0 104.5 -37t38.5 -100q0 -82 -53 -133.5t-135 -51.5q-68 0 -107 38.5t-39 101.5z" />
<glyph unicode="&#x2c6;" horiz-adv-x="1024" d="M326 1262l282 272h238l209 -272l-152 -123l-196 180l-250 -180z" />
<glyph unicode="&#x2dc;" horiz-adv-x="1024" d="M311 1249l78 115q68 111 158 111q51 0 151 -31q145 -43 164 -43q10 0 25 14l55 60l148 -84l-60 -95q-47 -72 -82 -103.5t-82 -31.5q-49 0 -196 43q-127 37 -133 37q-12 0 -35 -18l-62 -58z" />
<glyph unicode="&#x2000;" horiz-adv-x="987" />
<glyph unicode="&#x2001;" horiz-adv-x="1974" />
<glyph unicode="&#x2002;" horiz-adv-x="987" />
<glyph unicode="&#x2003;" horiz-adv-x="1974" />
<glyph unicode="&#x2004;" horiz-adv-x="658" />
<glyph unicode="&#x2005;" horiz-adv-x="493" />
<glyph unicode="&#x2006;" horiz-adv-x="329" />
<glyph unicode="&#x2007;" horiz-adv-x="329" />
<glyph unicode="&#x2008;" horiz-adv-x="246" />
<glyph unicode="&#x2009;" horiz-adv-x="394" />
<glyph unicode="&#x200a;" horiz-adv-x="109" />
<glyph unicode="&#x2010;" horiz-adv-x="636" d="M76 440l43 308h555l-43 -308h-555z" />
<glyph unicode="&#x2011;" horiz-adv-x="636" d="M76 440l43 308h555l-43 -308h-555z" />
<glyph unicode="&#x2012;" horiz-adv-x="636" d="M76 440l43 308h555l-43 -308h-555z" />
<glyph unicode="&#x2013;" horiz-adv-x="1024" d="M27 440l36 267h1022l-36 -267h-1022z" />
<glyph unicode="&#x2014;" horiz-adv-x="2048" d="M27 440l36 267h2048l-36 -267h-2048z" />
<glyph unicode="&#x2018;" horiz-adv-x="491" d="M233 1233q0 57 68 170l123 203l145 -47l-67 -203q-6 -20 10 -27l78 -29l-72 -219q-133 0 -209 32t-76 120z" />
<glyph unicode="&#x2019;" horiz-adv-x="481" d="M233 1384l72 220q66 0 110 -4.5t88 -18.5t65.5 -44t21.5 -77q0 -63 -68 -176l-123 -205l-145 47l68 203q6 20 -11 27z" />
<glyph unicode="&#x201a;" horiz-adv-x="493" d="M55 12l72 219q66 0 110 -4t88 -18t65.5 -44t21.5 -77q0 -63 -68 -176l-123 -205l-145 47l67 203q6 20 -10 27z" />
<glyph unicode="&#x201c;" horiz-adv-x="886" d="M233 1233q0 57 68 170l123 203l145 -47l-67 -203q-6 -20 10 -27l78 -29l-72 -219q-133 0 -209 32t-76 120zM629 1233q0 57 67 170l123 203l146 -47l-68 -203q-6 -20 10 -27l78 -29l-72 -219q-133 0 -208.5 32t-75.5 120z" />
<glyph unicode="&#x201d;" horiz-adv-x="876" d="M233 1384l72 220q66 0 110 -4.5t88 -18.5t65.5 -44t21.5 -77q0 -63 -68 -176l-123 -205l-145 47l68 203q6 20 -11 27zM629 1384l71 220q66 0 110 -4.5t88 -18.5t65.5 -44t21.5 -77q0 -63 -67 -176l-123 -205l-146 47l68 203q6 20 -10 27z" />
<glyph unicode="&#x201e;" horiz-adv-x="888" d="M55 12l72 219q66 0 110 -4t88 -18t65.5 -44t21.5 -77q0 -63 -68 -176l-123 -205l-145 47l67 203q6 20 -10 27zM451 12l71 219q66 0 110 -4t88 -18t65.5 -44t21.5 -77q0 -63 -68 -176l-123 -205l-145 47l68 203q6 20 -11 27z" />
<glyph unicode="&#x2022;" horiz-adv-x="808" d="M127 571.5q0 313.5 326 313.5q328 0 327.5 -313.5t-327.5 -313.5q-326 0 -326 313.5z" />
<glyph unicode="&#x2026;" horiz-adv-x="1558" d="M90 123q0 209 229 209q176 0 177 -150q0 -207 -228 -207q-178 1 -178 148zM567 123q0 209 230 209q176 0 176 -150q0 -207 -228 -207q-178 1 -178 148zM1044 123q0 209 230 209q176 0 176 -150q0 -207 -227 -207q-179 1 -179 148z" />
<glyph unicode="&#x202f;" horiz-adv-x="394" />
<glyph unicode="&#x2039;" horiz-adv-x="569" d="M84 524l225 312h299l-209 -287q-14 -20 -8 -39l117 -299h-295z" />
<glyph unicode="&#x203a;" horiz-adv-x="569" d="M51 211l203 299q12 20 4 39l-131 287h299l139 -312l-219 -313h-295z" />
<glyph unicode="&#x205f;" horiz-adv-x="493" />
<glyph unicode="&#x20ac;" horiz-adv-x="1187" d="M59 510l91 293h83q43 186 145.5 313t226.5 181.5t269 54.5q117 0 231 -30t165 -71l-51 -379l-258 11l-9 159q0 29 -16 35q-35 12 -84 13q-68 0 -128 -69t-91 -218h276l-88 -293h-213q0 -139 35 -200.5t111 -61.5q39 0 69 10q18 6 29 35l53 164l256 10l-53 -391 q-59 -39 -190.5 -70t-249.5 -31q-459 0 -463 535h-146z" />
<glyph unicode="&#x2122;" horiz-adv-x="1755" d="M236 1260v223h661v-223h-104l-9 100h-129v-531l109 -10v-106h-387v106l98 10v531h-125l-10 -100h-104zM958 713v104l70 10v537l-70 6v113h240l205 -428l211 428h229v-113l-71 -6v-537l75 -10v-104h-311v104l76 10v344l-144 -292h-139l-141 295v-347l84 -10v-104h-314z " />
<glyph unicode="&#xe000;" horiz-adv-x="1075" d="M0 0v1075h1075v-1075h-1075z" />
<glyph unicode="&#xfb01;" horiz-adv-x="1331" d="M76 -434l176 1245q4 20 -14 20h-127l32 244h146l14 99q57 397 469 397q141 0 274.5 -40t208.5 -95l-133 -230q-162 94 -295 94q-68 0 -102.5 -27.5t-44.5 -88.5l-14 -88q-2 -20 14 -21h620l-116 -837q-4 -25 0 -32t26 -9l84 -15l-22 -182h-500l-6 12l53 301l66 475 q6 43 -29 43h-227l-176 -1265h-377z" />
<glyph unicode="&#xfb02;" horiz-adv-x="1333" d="M76 -434l176 1245q4 20 -14 20h-127l32 244h146l14 99q31 215 144.5 306t304.5 91q195 0 350 -92l168 67h98l-184 -1308q-4 -25 0 -32t26 -9l84 -15l-22 -182h-500l-6 12l53 301l72 518h-262l-176 -1265h-377zM666 1096q-2 -20 14 -21h246l24 178q-90 47 -153 47 q-100 0 -115 -98z" />
<glyph unicode="&#xfb03;" horiz-adv-x="1968" d="M76 -434l176 1245q4 20 -14 20h-127l32 244h146l10 66q31 213 142.5 305t293.5 92q172 0 330 -82q117 115 344 115q141 0 274.5 -40t208.5 -95l-133 -230q-162 94 -295 94q-68 0 -102.5 -27.5t-44.5 -88.5l-14 -88q-2 -20 14 -21h620l-116 -837q-4 -25 0 -32t26 -9 l84 -15l-22 -182h-500l-6 12l53 301l66 475q6 41 -23 43h-233l-176 -1265h-377l176 1245q4 18 -10 20h-250l-176 -1265h-377zM666 1096q-2 -20 14 -21h246l14 99l8 51q-86 43 -155 43q-100 0 -115 -99z" />
<glyph unicode="&#xfb04;" horiz-adv-x="1972" d="M76 -434l176 1245q4 20 -14 20h-127l32 244h146l10 66q33 215 143.5 306t292.5 91q170 0 328 -82q113 115 328 115q195 0 350 -92l168 67h98l-184 -1308q-4 -25 0 -32t26 -9l84 -15l-22 -182h-500l-6 12l53 301l72 518h-262l-176 -1265h-377l176 1245q4 20 -14 20h-248 l-176 -1265h-377zM666 1096q-2 -20 14 -21h248l14 99l8 51q-86 43 -157 43q-100 0 -115 -99zM1305 1096q-2 -20 14 -21h246l24 178q-90 47 -153 47q-100 0 -115 -98z" />
</font>
</defs>
</svg>
