<?xml version="1.0" standalone="no"?>
<!DOCTYPE svg PUBLIC "-//W3C//DTD SVG 1.1//EN" "http://www.w3.org/Graphics/SVG/1.1/DTD/svg11.dtd" >
<svg xmlns="http://www.w3.org/2000/svg">
<metadata></metadata>
<defs>
<font id="adellesemibold_italic" horiz-adv-x="1263" >
<font-face units-per-em="2048" ascent="1546" descent="-502" />
<missing-glyph horiz-adv-x="438" />
<glyph horiz-adv-x="2048" />
<glyph horiz-adv-x="2048" />
<glyph unicode="&#xd;" horiz-adv-x="682" />
<glyph unicode=" "  horiz-adv-x="438" />
<glyph unicode="&#x09;" horiz-adv-x="438" />
<glyph unicode="&#xa0;" horiz-adv-x="438" />
<glyph unicode="!" horiz-adv-x="557" d="M96 92q0 166 174 166q133 0 133 -117q0 -166 -174 -166q-133 0 -133 117zM188 375l76 760l49 348h256l-49 -348l-135 -760h-197z" />
<glyph unicode="&#x22;" horiz-adv-x="798" d="M164 915l76 531h221l-76 -531h-221zM537 915l75 531h222l-76 -531h-221z" />
<glyph unicode="#" horiz-adv-x="1243" d="M37 270l59 164h213l82 275h-223l59 165h211l70 238h174l-70 -238h217l70 238h174l-69 -238h225l-58 -165h-217l-77 -275h221l-56 -164h-215l-77 -270h-172l75 270h-219l-78 -270h-172l76 270h-223zM483 434h219l80 275h-219z" />
<glyph unicode="$" horiz-adv-x="1054" d="M35 78l43 303h166l16 -152q2 -39 43 -49q45 -14 127 -20l55 403q-78 35 -117.5 56.5t-93 63.5t-77 98.5t-23.5 131.5q0 162 112.5 257.5t295.5 121.5l22 148h166l-20 -150q160 -8 303 -61l-43 -330l-166 19l-6 153q0 31 -27 39q-45 14 -84 18l-55 -393 q72 -37 106.5 -57.5t84.5 -62.5t72.5 -97t22.5 -127q0 -156 -104 -257t-283 -126l-22 -172h-164l23 164q-250 15 -373 78zM397 950q0 -55 28 -89t91 -66l45 333q-70 -14 -117 -59t-47 -119zM594 168q147 43 147 182q0 96 -102 156z" />
<glyph unicode="%" horiz-adv-x="1820" d="M166 823q0 201 104.5 324t300.5 123q147 0 219 -78t72 -217q0 -203 -105.5 -326t-297.5 -123q-154 0 -223.5 83t-69.5 214zM358 840q0 -170 123 -170q188 0 189 297q0 160 -121 159q-100 0 -145.5 -80.5t-45.5 -205.5zM360 -35l955 1307h219l-952 -1307h-222zM1044 272 q0 201 103.5 324t300.5 123q291 0 291 -295q0 -203 -104.5 -326t-297.5 -123q-154 0 -223.5 82t-69.5 215zM1237 289q0 -170 123 -170q188 0 188 297q0 160 -121 159q-100 0 -145 -80.5t-45 -205.5z" />
<glyph unicode="&#x26;" horiz-adv-x="1398" d="M147 328q0 154 89.5 252t224.5 131v4q-78 29 -133.5 96.5t-55.5 171.5q0 186 136.5 296t363.5 110q127 0 245 -31t181 -72l-47 -293l-170 13l-8 141q-2 29 -27 39q-61 23 -166 22q-113 0 -192.5 -49t-79.5 -172q0 -90 58.5 -141t162.5 -51h102l-24 -177q-115 0 -178 -12 q-240 -41 -240 -241q0 -209 287 -209q141 0 211 28q27 10 36 20.5t13 39.5l74 530l32 21h316l-21 -133l-84 -9q-33 -2 -34 -28l-74 -535q-86 -53 -220 -84t-270 -31q-508 1 -508 353z" />
<glyph unicode="'" horiz-adv-x="425" d="M164 915l76 531h221l-76 -531h-221z" />
<glyph unicode="(" horiz-adv-x="684" d="M137 420q0 543 479 1085l160 -106q-209 -268 -301 -493.5t-92 -499.5q0 -299 149 -639l-194 -103q-201 348 -201 756z" />
<glyph unicode=")" horiz-adv-x="688" d="M-20 -229q209 268 301 493t92 500q0 299 -150 639l195 102q201 -348 200 -755q0 -543 -479 -1086z" />
<glyph unicode="*" horiz-adv-x="968" d="M199 1200l82 168l125 -45l157 -119l-26 205l18 137h178l-18 -137l-84 -205h-68l-28 -61l53 -41l-113 -195l-100 -108l-129 110l100 107l189 127l-211 12zM588 1102l55 39l-12 63l190 119l137 45l35 -168l-137 -45l-213 -14l150 -127l71 -107l-151 -106l-72 106z" />
<glyph unicode="+" horiz-adv-x="1167" d="M227 563l29 195h289l41 299h200l-41 -299h291l-28 -195h-291l-43 -307h-201l43 307h-289z" />
<glyph unicode="," horiz-adv-x="409" d="M20 -205l93 217q6 16 -11 23l-69 26l71 193q117 -4 172.5 -28.5t55.5 -98.5q0 -57 -53 -137l-150 -232z" />
<glyph unicode="-" horiz-adv-x="636" d="M61 489l31 213h555l-31 -213h-555z" />
<glyph unicode="." horiz-adv-x="456" d="M55 90q0 80 45 124t129 44q131 0 131 -115q0 -80 -44 -124t-128 -44q-133 0 -133 115z" />
<glyph unicode="/" horiz-adv-x="862" d="M-41 -188l795 1685h225l-793 -1685h-227z" />
<glyph unicode="0" horiz-adv-x="1153" d="M96 420q0 57 13 176q33 281 176 443.5t417 162.5q420 0 420 -442q0 -80 -12 -170q-39 -293 -173 -454t-413 -161q-428 1 -428 445zM338 424q0 -274 209 -274q143 0 217 104t104 332q12 94 13 172q0 131 -48.5 197.5t-156.5 66.5q-143 0 -220 -104.5t-108 -329.5 q-10 -80 -10 -164z" />
<glyph unicode="1" horiz-adv-x="759" d="M10 0l19 123l188 12q18 2 24.5 9.5t10.5 31.5l110 789q4 35 -24 43l-176 36l18 127h441l-138 -995q-4 -25 1 -32t26 -9l168 -14l-19 -121h-649z" />
<glyph unicode="2" horiz-adv-x="1019" d="M33 0l20 154l334 295l64 55q172 150 230 221.5t58 163.5q0 137 -172 137q-111 0 -159 -41t-62 -162l-213 23q14 113 58.5 187.5t113 109.5t137 47t158.5 12q190 0 279.5 -79t89.5 -214q0 -43 -10.5 -84t-20.5 -71.5t-39 -70.5l-44 -61q-15 -22 -60 -63l-61 -55 q-15 -14 -70 -62l-70 -59l-256 -221h371q25 0 32 22l54 170h163l-49 -354h-876z" />
<glyph unicode="3" horiz-adv-x="1036" d="M-16 16l145 140q119 -139 299 -140q117 0 191.5 56.5t74.5 183.5q0 190 -223 190q-55 0 -141 -12l20 166l111 12q137 14 213 84t76 181q0 150 -168 149q-111 0 -160 -42t-64 -161l-217 23q37 356 465 356q375 0 375 -303q0 -129 -72.5 -220t-197.5 -132v-8 q94 -25 154.5 -94.5t60.5 -186.5q0 -201 -134.5 -314.5t-367.5 -113.5q-145 0 -263 52t-177 134z" />
<glyph unicode="4" horiz-adv-x="1087" d="M61 152l23 161l557 883l180 -100l-499 -762h344l53 377l217 28l-55 -405h172l-25 -182h-176l-37 -289h-215l39 289h-578z" />
<glyph unicode="5" horiz-adv-x="1058" d="M-10 14l145 142q125 -139 303 -140q125 0 213 75t88 220q0 109 -56 158t-136 49q-115 0 -234 -92l-155 70l137 675h723l-27 -196h-542l-84 -359l2 -2q125 84 270 84q158 0 248 -95t90 -267q0 -221 -142.5 -363.5t-390.5 -142.5q-290 0 -452 184z" />
<glyph unicode="6" horiz-adv-x="1120" d="M131 481q0 104 18.5 213t64.5 225.5t114.5 207t180.5 148.5t251 58q215 0 350 -135l-125 -141q-102 94 -229 94q-109 0 -192 -70.5t-123 -165t-54 -198.5q162 111 334 110q152 0 237.5 -87t85.5 -248q0 -242 -137 -379.5t-366 -137.5q-410 0 -410 506zM369 449 q0 -295 192 -295q123 0 184.5 90t61.5 227q0 94 -39 135t-125 41q-133 0 -270 -104q-4 -69 -4 -94z" />
<glyph unicode="7" horiz-adv-x="1030" d="M123 760l55 411h932l-25 -172q-203 -193 -378 -514t-226 -622h-245q76 375 240.5 651.5t346.5 460.5h-450q-25 0 -31 -23l-57 -180z" />
<glyph unicode="8" horiz-adv-x="1038" d="M66 276q0 133 74.5 232.5t203.5 187.5q-141 96 -141 260q0 176 129 276.5t327 100.5q172 0 267.5 -75.5t95.5 -202.5q0 -199 -229 -373q88 -57 137 -125t49 -170q0 -195 -145.5 -303.5t-376.5 -108.5q-182 0 -286.5 78t-104.5 223zM279 311q0 -82 54 -126t156 -44 q113 0 180.5 60.5t67.5 152.5q0 20 -3 38t-12 34l-16 29q-7 12 -26 27l-28 24q-9 8 -34.5 24.5t-37.5 23.5l-44 26l-47 26q-210 -148 -210 -295zM430 993q0 -72 53.5 -122t153.5 -105q178 145 178 264q0 70 -48 103.5t-126 33.5q-92 0 -151.5 -47t-59.5 -127z" />
<glyph unicode="9" horiz-adv-x="1114" d="M72 -20l121 145q121 -111 258 -111q285 0 354 432q-158 -111 -332 -110q-154 0 -241 89t-87 249q0 242 135.5 385t370.5 143q408 0 408 -508q0 -104 -13.5 -206.5t-53.5 -226.5t-104.5 -215t-178 -153.5t-263.5 -62.5q-104 0 -208.5 40t-165.5 110zM385 700 q0 -96 36 -143t122 -47q133 0 276 111q2 31 2 94q0 12 1 24q0 287 -193 287q-115 0 -179.5 -90.5t-64.5 -235.5z" />
<glyph unicode=":" horiz-adv-x="456" d="M55 90q0 80 45 124t129 44q131 0 131 -115q0 -80 -44 -124t-128 -44q-133 0 -133 115zM172 881q0 80 45 124t129 44q131 0 131 -115q0 -80 -44 -124t-128 -44q-133 0 -133 115z" />
<glyph unicode=";" horiz-adv-x="409" d="M20 -205l93 217q6 16 -11 23l-69 26l71 193q117 -4 172.5 -28.5t55.5 -98.5q0 -57 -53 -137l-150 -232zM160 881q0 80 45 124t129 44q131 0 131 -115q0 -80 -44 -124t-128 -44q-133 0 -133 115z" />
<glyph unicode="&#x3c;" horiz-adv-x="1167" d="M223 475l33 238l817 305l33 -189l-660 -233l603 -229l-84 -183z" />
<glyph unicode="=" horiz-adv-x="1167" d="M190 301l27 199h774l-26 -199h-775zM238 653l28 199h776l-28 -199h-776z" />
<glyph unicode="&#x3e;" horiz-adv-x="1167" d="M154 377l665 229l-594 234l80 178l731 -305l-35 -238l-823 -291z" />
<glyph unicode="?" horiz-adv-x="1019" d="M207 1090l47 321q197 72 408 72q193 0 307 -86t114 -275q0 -213 -135 -344t-379 -170l-30 -235h-236l51 383q94 10 167 29.5t148.5 57.5t117.5 106.5t42 162.5q0 88 -54 133t-144 45q-92 0 -154 -14q-33 -6 -43 -45l-39 -127zM229 92q0 166 174 166q133 0 134 -117 q0 -166 -172 -166q-136 0 -136 117z" />
<glyph unicode="@" horiz-adv-x="1708" d="M111 233q0 401 266 665.5t651 264.5q285 0 451 -141t166 -399q0 -121 -27 -230.5t-82 -206t-152.5 -154t-226.5 -57.5q-182 0 -196 148q-176 -147 -287 -148q-92 0 -141.5 57.5t-49.5 164.5q0 147 61.5 286.5t185.5 234.5t280 95q147 0 270 -65l-78 -254 q-78 -260 -78 -308q0 -70 86 -69q106 0 182 144.5t76 326.5q0 420 -471 420q-213 0 -376.5 -106.5t-247.5 -277.5t-84 -374q0 -471 508 -471q174 0 354 63l22 -141q-162 -72 -419 -72q-137 0 -249 32t-203 100.5t-141 188t-50 283.5zM664 244q0 -111 73 -111q100 0 232 131 l114 387q-39 29 -108 29q-111 0 -211 -131t-100 -305z" />
<glyph unicode="A" horiz-adv-x="1468" d="M-27 0l19 117l88 22q39 10 59 45l615 1299h282l267 -1309q4 -25 43 -35l90 -22l-19 -117h-551l19 117l170 18l-54 293h-536l-131 -293l176 -18l-18 -117h-519zM543 606h432l-127 662z" />
<glyph unicode="B" horiz-adv-x="1325" d="M57 0l19 119l127 14q23 4 30 11.5t9 29.5l155 1131q4 23 -1 30.5t-25 10.5l-125 16l16 121h629q395 0 395 -316q0 -162 -86 -258t-213 -133l-2 -8q143 -14 218 -96t75 -211q0 -461 -602 -461h-619zM475 178h191q184 0 278 59.5t94 225.5q0 207 -266 207h-231zM565 846 h148q338 0 338 280q0 102 -62.5 140.5t-191.5 38.5h-168z" />
<glyph unicode="C" horiz-adv-x="1361" d="M125 612q0 403 221 650t625 247q283 0 438 -112l-49 -359l-170 13l-6 192q0 31 -25 41q-90 37 -213 37q-258 0 -415.5 -181.5t-157.5 -508.5q0 -231 100 -351t295 -120q162 0 258 37q20 8 29 36l59 191h164l-47 -338q-182 -111 -506 -111q-305 0 -452.5 171t-147.5 466z " />
<glyph unicode="D" horiz-adv-x="1529" d="M57 0l19 123l129 14q18 2 25.5 9.5t9.5 29.5l157 1131q4 23 -1 31t-25 10l-125 14l16 121h604q324 0 487 -161t163 -448q0 -190 -52.5 -347.5t-156 -276.5t-271.5 -184.5t-387 -65.5h-592zM477 178h166q309 0 469 187.5t160 506.5q0 231 -112.5 332t-340.5 101h-188z" />
<glyph unicode="E" d="M59 0l15 121l129 14q23 4 30 11.5t9 29.5l155 1129q4 25 -1 31.5t-25 9.5l-123 14l14 123h1032l-51 -369l-164 8l-6 158q-2 27 -31 27h-411l-64 -471h510l-24 -179h-510l-66 -483h453q29 0 37 23l55 180h164l-51 -377h-1076z" />
<glyph unicode="F" horiz-adv-x="1214" d="M61 0l15 121l129 14q20 2 26.5 10.5t10.5 30.5l155 1129q4 25 -1 31.5t-25 9.5l-123 14l16 123h1024l-51 -369l-164 8l-6 158q-2 27 -33 27h-401l-64 -467h502l-27 -178h-501l-66 -484q-4 -25 1 -32t26 -9l293 -16l-17 -121h-719z" />
<glyph unicode="G" horiz-adv-x="1466" d="M125 614q0 397 220 646t626 249q125 0 245.5 -29.5t192.5 -84.5l-47 -351l-170 15l-6 186q0 33 -23 39q-102 37 -227 37q-256 0 -410.5 -185.5t-154.5 -500.5q0 -231 108.5 -352t319.5 -121q147 0 241 26q27 12 31 37l45 322h-256l47 153h576l-19 -133l-84 -8 q-35 -2 -37 -29l-63 -464q-197 -90 -510 -91q-334 0 -489.5 173t-155.5 466z" />
<glyph unicode="H" horiz-adv-x="1630" d="M59 0l17 121l129 14q20 2 26.5 10.5t10.5 30.5l157 1131q4 25 -1 32t-25 9l-123 14l14 121h561l-16 -121l-137 -16q-23 -2 -28 -8.5t-9 -30.5l-62 -453h633l64 453q4 25 -1 32t-26 9l-125 14l17 121h559l-17 -121l-135 -16q-23 -2 -28 -8.5t-9 -30.5l-157 -1129 q-4 -25 0 -32t24 -9l133 -16l-16 -121h-559l16 121l127 14q23 4 30 11.5t9 29.5l70 498h-635l-70 -496q-4 -25 0 -32t25 -9l133 -16l-16 -121h-560z" />
<glyph unicode="I" horiz-adv-x="759" d="M41 0l14 121l150 14q20 2 26.5 9.5t10.5 31.5l157 1131q4 25 -1 32t-25 9l-144 14l17 121h598l-15 -121l-157 -16q-23 -4 -29 -10.5t-8 -28.5l-158 -1129q-4 -16 -3 -24.5t7 -11.5t21 -5l153 -16l-14 -121h-600z" />
<glyph unicode="J" horiz-adv-x="1005" d="M43 51l41 316l166 -13v-143q0 -23 18 -33q49 -18 119 -18q78 0 111.5 38t44.5 124l137 987q6 35 -27 37l-174 16l17 121h610l-16 -121l-138 -16q-23 -4 -28.5 -10.5t-8.5 -28.5l-139 -994q-25 -176 -117 -257t-278 -81q-109 0 -206 24.5t-132 51.5z" />
<glyph unicode="K" horiz-adv-x="1480" d="M61 0l17 121l125 14q16 2 22 5t10.5 11.5t6.5 26.5l157 1129q4 25 -1 32t-25 9l-123 14l16 121h559l-16 -121l-137 -16q-23 -2 -28 -9.5t-9 -29.5l-82 -564l606 600l-117 17l17 123h481l-16 -121l-97 -19q-39 -6 -67 -32l-479 -473l368 -660q14 -29 54 -37l124 -20 l-16 -121h-334l-10 10l-113 223l-247 437l-187 -187l-45 -305q-4 -25 1 -32t26 -9l137 -16l-18 -121h-560z" />
<glyph unicode="L" horiz-adv-x="1234" d="M61 0l15 121l127 14q23 4 30 11.5t9 29.5l157 1129q4 25 -1 31.5t-25 9.5l-123 14l14 123h592l-14 -123l-170 -17q-23 -2 -28 -9t-9 -29l-160 -1131h455q29 0 37 23l59 194h164l-53 -391h-1076z" />
<glyph unicode="M" horiz-adv-x="1906" d="M61 0l15 121l129 14q20 2 26.5 9.5t10.5 31.5l157 1129q4 25 -1 31.5t-25 9.5l-123 14l14 123h414l303 -948h10l541 948h438l-14 -121l-137 -16q-23 -2 -29 -9.5t-10 -36.5l-158 -1124q-6 -37 29 -39l133 -16l-17 -121h-591l14 121l170 14q20 2 26.5 10.5t10.5 30.5 l131 930l-459 -778h-246l-256 780l-129 -930q-4 -25 1 -32t26 -9l174 -16l-16 -121h-562z" />
<glyph unicode="N" horiz-adv-x="1667" d="M61 0l13 121l129 14q23 4 30 11.5t9 29.5l157 1131q4 25 -1 32t-25 9l-123 14l14 121h432l525 -1178l137 1002q4 25 -1 32t-26 9l-125 14l17 121h514l-17 -121l-137 -16q-23 -4 -29 -10.5t-8 -28.5l-182 -1307h-258l-535 1182l-139 -1004q-4 -25 0 -32t27 -9l131 -16 l-12 -121h-517z" />
<glyph unicode="O" horiz-adv-x="1544" d="M119 578q0 84 12 176q47 338 261 546.5t560 208.5q295 0 442.5 -166.5t147.5 -437.5q0 -86 -10 -153q-51 -369 -258 -573t-557 -204q-301 0 -449.5 161t-148.5 442zM367 604q0 -430 385 -430q453 0 532 559q10 66 10 146q0 207 -98 319.5t-274 112.5 q-215 0 -359.5 -140.5t-183.5 -414.5q-12 -84 -12 -152z" />
<glyph unicode="P" horiz-adv-x="1306" d="M57 0l19 121l129 14q23 4 30 11.5t9 29.5l155 1131q4 23 -2 31t-26 10l-123 14l14 121h635q229 0 333.5 -102.5t104.5 -276.5q0 -279 -162.5 -414t-459.5 -135h-187l-51 -377q-4 -25 0 -32t25 -9l286 -16l-16 -121h-713zM551 731h151q84 0 146.5 13.5t122 48t90.5 107.5 t31 181q0 121 -72 172.5t-209 51.5h-182z" />
<glyph unicode="Q" horiz-adv-x="1544" d="M119 578q0 84 12 176q47 338 261 546.5t560 208.5q295 0 442.5 -166.5t147.5 -437.5q0 -86 -10 -153q-104 -737 -754 -746v-8q256 -133 451 -133q55 0 137 10l-8 -180q-88 -10 -150 -10q-121 0 -225 27.5t-162.5 61t-123 61.5t-115.5 28q-106 0 -226 -72l-88 156 q84 59 195 80v6q-344 111 -344 545zM367 604q0 -430 385 -430q453 0 532 559q10 66 10 146q0 207 -98 319.5t-274 112.5q-215 0 -359.5 -140.5t-183.5 -414.5q-12 -84 -12 -152z" />
<glyph unicode="R" horiz-adv-x="1361" d="M61 0l17 121l127 14q20 2 26.5 10.5t10.5 32.5l157 1127q4 25 -1 31.5t-25 9.5l-123 14l14 123h631q221 0 320.5 -99.5t99.5 -259.5q0 -317 -334 -444q43 -20 61.5 -62.5t38.5 -128.5l72 -303q10 -41 47 -45l131 -20l-16 -121h-359l-12 14l-123 521q-18 88 -112 88h-170 l-64 -445q-4 -25 0 -32t25 -9l129 -16l-17 -121h-551zM563 797h144q362 0 362 301q0 117 -71.5 162t-231.5 45h-135z" />
<glyph unicode="S" horiz-adv-x="1171" d="M57 55l49 361h173l14 -191q2 -14 4 -20t9 -13.5t24 -11.5q65 -22 180 -22h10q160 0 247 66.5t87 193.5q0 96 -64.5 147t-193.5 97q-63 23 -76.5 27.5t-70 28t-73.5 38.5l-55 46q-38 32 -52.5 63.5t-28 77.5t-13.5 101q0 227 164 346t414 119q211 0 385 -77l-51 -369 l-172 16l-6 183q0 35 -31 45q-43 14 -129 14q-141 0 -236.5 -60.5t-95.5 -173.5q0 -49 18.5 -84.5t60.5 -63.5t78 -44t101 -41q72 -25 106.5 -39t94 -49t89.5 -72t54.5 -97t24.5 -136q0 -246 -167 -366t-433 -120q-129 0 -256.5 25.5t-182.5 54.5z" />
<glyph unicode="T" horiz-adv-x="1339" d="M162 1106l49 377h1241l-51 -377h-164l-8 178q-2 23 -29 23h-276l-156 -1129q-4 -23 0 -30t25 -9l223 -16l-19 -123h-725l17 123l207 14q20 2 26 10.5t10 30.5l156 1129h-272q-29 0 -35 -23l-55 -178h-164z" />
<glyph unicode="U" horiz-adv-x="1581" d="M227 1362l17 121h561l-19 -121l-137 -16q-23 -2 -28 -8.5t-9 -30.5l-104 -760q-10 -78 -10 -127q0 -135 65.5 -192.5t212.5 -57.5q170 0 259 81t116 281l106 775q4 25 -1 32t-25 9l-125 14l16 121h537l-17 -121l-137 -16q-23 -2 -27.5 -8.5t-9.5 -30.5l-112 -813 q-39 -276 -185.5 -397.5t-416.5 -121.5q-252 0 -372 102.5t-120 313.5q0 57 10 133l105 783q4 25 -1 32t-24 9z" />
<glyph unicode="V" horiz-adv-x="1417" d="M150 1362l18 121h543l-17 -121l-168 -19l195 -1128l491 1128l-155 19l18 121h494l-19 -121l-92 -23q-37 -8 -53 -47l-567 -1292h-314l-243 1305q-2 16 -8.5 21t-26.5 9z" />
<glyph unicode="W" horiz-adv-x="2004" d="M143 1362l21 121h549l-19 -121l-176 -19l115 -1079l391 930h244l123 -963l403 1112l-170 19l18 121h521l-19 -121l-104 -19q-37 -8 -53 -53l-480 -1290h-307l-117 862l-356 -862h-295l-143 1294q-2 27 -9.5 35t-29.5 12z" />
<glyph unicode="X" horiz-adv-x="1462" d="M-2 0l16 117l111 22q29 8 57 39l461 567l-309 560q-12 27 -43 34l-92 23l18 121h539l-17 -121l-155 -19l229 -432l352 432l-147 19l20 121h490l-19 -121l-94 -23q-31 -8 -57 -39l-445 -540l332 -582q18 -33 49 -37l99 -20l-19 -121h-557l19 121l155 18l-250 449 l-358 -449l147 -18l-18 -121h-514z" />
<glyph unicode="Y" horiz-adv-x="1288" d="M143 1362l19 121h530l-18 -121l-156 -19l209 -569l369 569l-150 19l19 121h477l-17 -121l-88 -23q-39 -8 -55 -41l-473 -729l-53 -391q-4 -27 0 -33t26 -8l203 -16l-16 -121h-699l17 121l198 14q18 2 24.5 10.5t10.5 32.5l53 387l-299 740q-10 27 -43 34z" />
<glyph unicode="Z" horiz-adv-x="1314" d="M51 0l23 154l950 1153h-535q-29 0 -34 -23l-64 -188l-170 -9l58 396h1060l-22 -160l-946 -1149h590q31 0 36 23l68 219h166l-57 -416h-1123z" />
<glyph unicode="[" horiz-adv-x="610" d="M74 -293l250 1776h389l-13 -117l-137 -20q-20 -2 -27.5 -10.5t-11.5 -30.5l-198 -1418q-4 -23 0 -30t26 -11l131 -20l-20 -119h-389z" />
<glyph unicode="\" horiz-adv-x="821" d="M215 1497h213l324 -1685h-215z" />
<glyph unicode="]" horiz-adv-x="595" d="M-31 -293l15 117l135 20q23 2 29 10.5t10 30.5l198 1418q4 23 0 30.5t-26 9.5l-131 21l20 119h389l-250 -1776h-389z" />
<glyph unicode="^" horiz-adv-x="1175" d="M96 612l508 748h240l305 -748h-223l-228 547l-372 -547h-230z" />
<glyph unicode="_" horiz-adv-x="1024" d="M-51 -371l22 170h1024l-24 -170h-1022z" />
<glyph unicode="`" horiz-adv-x="1024" d="M492 1450l159 137l269 -344l-109 -88z" />
<glyph unicode="a" horiz-adv-x="1208" d="M90 375q0 125 27.5 242.5t85 225t161 172t240.5 64.5q162 0 287 -116l35 96h209q-41 -172 -54 -258l-86 -625q-4 -25 1 -32t26 -9l98 -14l-16 -121h-338l25 176l-9 4q-104 -102 -191 -153.5t-192 -51.5q-309 1 -309 400zM328 393q0 -119 33.5 -170t107.5 -51 q125 0 332 221l57 404q-98 98 -227 98q-84 0 -146.5 -50t-94.5 -131t-47 -162t-15 -159z" />
<glyph unicode="b" horiz-adv-x="1204" d="M104 0q47 160 68 295l150 1055q6 35 -21 43l-108 32l18 121h362l-94 -665l2 -2q222 200 389 200h2q133 0 211 -95t78 -300q0 -119 -25.5 -235.5t-78.5 -226t-152.5 -178.5t-228.5 -69q-180 0 -314 134l-6 -3l-24 -106h-228zM397 281q125 -125 250 -125q90 0 154.5 80.5 t90.5 186t26 218.5q0 233 -138 233q-115 0 -325 -194z" />
<glyph unicode="c" horiz-adv-x="1009" d="M88 412q0 332 172 499.5t440 167.5q201 0 314 -73l-41 -291l-160 8l-6 135q0 25 -25 33q-43 14 -112 14q-141 0 -241.5 -114.5t-100.5 -352.5q0 -282 235 -282h2q143 0 279 67l45 -155q-152 -92 -369 -93q-221 0 -326.5 116t-105.5 321z" />
<glyph unicode="d" horiz-adv-x="1214" d="M90 371q0 121 26.5 237.5t82 226t160 177t241.5 67.5q160 0 287 -100l49 373q4 35 -21 43l-108 30l18 121h361l-191 -1370q-4 -25 1 -32t26 -9l98 -14l-16 -121h-338l25 174l-9 4q-102 -98 -189 -150.5t-192 -52.5q-311 1 -311 396zM328 385q0 -211 145 -211 q121 0 328 217l59 410q-98 94 -227 94q-84 0 -147.5 -50t-96.5 -132t-47 -164t-14 -164z" />
<glyph unicode="e" horiz-adv-x="1007" d="M88 403q0 295 167 485.5t421 190.5q156 0 231.5 -68.5t75.5 -187.5q0 -332 -655 -407q0 -131 50 -194.5t181 -63.5q129 0 295 73l41 -163q-195 -92 -393 -93q-414 0 -414 428zM340 575q57 6 112.5 18.5t134.5 37t128 68.5t49 102q0 100 -119 100q-113 0 -195.5 -92.5 t-109.5 -233.5z" />
<glyph unicode="f" horiz-adv-x="823" d="M90 -434l184 1304q2 20 -14 21h-139l24 168h156l23 164q51 346 381 346q94 0 183 -31t138 -72l-92 -151q-102 76 -211 76q-80 0 -120 -43t-50 -134l-18 -135q-2 -20 14 -20h323l-24 -168h-340l-186 -1325h-232z" />
<glyph unicode="g" horiz-adv-x="1183" d="M78 -358l80 157q37 -25 128 -54.5t187 -29.5q125 0 193.5 58.5t89.5 187.5l35 213l-9 4q-113 -104 -193.5 -153.5t-187.5 -49.5q-311 0 -311 400q0 121 26.5 238.5t83 225t160 174t240.5 66.5q168 0 293 -116l35 96h209q-39 -160 -56 -273l-114 -841 q-29 -203 -152 -302.5t-317 -99.5q-131 0 -247 32t-173 67zM328 391q0 -217 145 -217q113 0 328 219l57 404q-98 98 -227 98q-84 0 -146.5 -51t-95.5 -132t-47 -162t-14 -159z" />
<glyph unicode="h" horiz-adv-x="1267" d="M23 0l18 123l94 14q23 4 30 10.5t9 30.5l164 1172q6 37 -19 43l-106 32l16 121h361l-88 -653q227 186 401 186q229 0 236 -235q0 -70 -9 -127l-77 -539q-4 -25 1 -32t27 -9l109 -16l-19 -121h-376l-4 6l38 213l66 451q8 66 8 100q0 102 -86 102q-119 0 -344 -194 l-70 -500q-4 -25 0.5 -32t26.5 -9l121 -16l-19 -121h-509z" />
<glyph unicode="i" horiz-adv-x="622" d="M137 10l47 250l84 602q6 35 -20 43l-107 33l19 121h368l-125 -881q-4 -25 1.5 -32t27.5 -9l111 -16l-17 -121h-383zM276 1386q0 80 47.5 128.5t127.5 48.5q63 0 98 -33t35 -92q0 -80 -47.5 -129t-128.5 -49q-61 0 -96.5 33.5t-35.5 92.5z" />
<glyph unicode="j" horiz-adv-x="608" d="M-285 -360l86 137q90 -57 172 -58q76 0 111 45.5t51 155.5l133 942q2 35 -20 43l-113 33l19 121h370l-164 -1182q-25 -174 -111.5 -254t-244.5 -80q-96 0 -177 33t-112 64zM276 1386q0 80 47.5 128.5t129.5 48.5q63 0 98 -33t35 -92q0 -80 -48.5 -129t-127.5 -49 q-63 0 -98.5 33.5t-35.5 92.5z" />
<glyph unicode="k" horiz-adv-x="1212" d="M23 0l16 123l98 14q20 2 26.5 10.5t10.5 30.5l166 1174q2 33 -21 41l-108 32l18 121h369l-131 -934l377 359q66 61 121 84.5t127 23.5q57 0 100 -10l-18 -145q-12 1 -23 0q-50 0 -88 -15q-47 -18 -105 -73l-153 -148l196 -516q12 -29 56 -35l102 -18l-16 -119h-330l-6 6 l-70 213l-129 324l-174 -164l-28 -201q-4 -25 0 -32t26 -9l119 -16l-16 -121h-512z" />
<glyph unicode="l" horiz-adv-x="622" d="M131 10l47 250l154 1092q6 35 -23 43l-104 30l16 121h369l-191 -1368q-4 -25 1.5 -32t27.5 -9l109 -16l-17 -121h-383z" />
<glyph unicode="m" horiz-adv-x="1820" d="M27 0l16 123l94 14q23 4 30 11.5t9 29.5l94 682q6 33 -18 43l-107 35l17 121h350l-25 -180q239 200 400 200h2q92 0 145 -55t53 -154q82 70 124 103t120 69.5t148 36.5q115 0 165 -54t52 -163q0 -63 -13 -143l-75 -541q-4 -25 1 -32t25 -9l109 -16l-17 -121h-370 q-2 2 -2 4l35 225l59 441q10 66 10 108q0 92 -72 92q-45 0 -101 -31.5t-90 -60.5l-114 -100l-69 -500q-4 -25 0 -32t26 -9l109 -16l-17 -121h-368l-8 10l39 244l55 401q12 90 12 129q0 82 -65 82q-106 0 -318 -186l-69 -502q-4 -25 1 -32t27 -9l117 -16l-16 -121h-510z" />
<glyph unicode="n" horiz-adv-x="1269" d="M27 0l16 123l94 14q23 4 30 11.5t9 29.5l94 682q6 33 -18 43l-107 35l17 121h350l-25 -180q117 98 210.5 149t203.5 51q240 0 240 -250q0 -49 -11 -120l-75 -531q-4 -25 0 -32t26 -9l111 -16l-16 -121h-381l-4 6l43 246l57 385q12 86 12 131q0 104 -80 104 q-129 0 -346 -194l-69 -500q-4 -25 1 -32t27 -9l117 -16l-16 -121h-510z" />
<glyph unicode="o" horiz-adv-x="1161" d="M88 408q0 301 156.5 486t441.5 185q225 0 327.5 -117.5t102.5 -312.5q0 -311 -151.5 -492.5t-434.5 -181.5q-223 0 -332.5 116t-109.5 317zM328 414q0 -268 223 -269q145 0 234 126t89 376q0 254 -217 254q-147 0 -238 -120.5t-91 -366.5z" />
<glyph unicode="p" horiz-adv-x="1214" d="M70 -426l57 344l131 942q6 35 -18 43l-107 35l16 121h355l-23 -174q113 96 204 145t189 49q137 0 216 -97t79 -306q0 -174 -50 -330t-159.5 -263.5t-257.5 -107.5q-96 0 -166.5 29t-154.5 88l-51 -346q-4 -20 1 -27.5t25 -9.5l199 -16l-18 -127h-461zM408 272 q43 -43 113.5 -79.5t142.5 -36.5q127 0 194.5 152.5t67.5 332.5q0 233 -135 233q-115 0 -326 -194z" />
<glyph unicode="q" horiz-adv-x="1183" d="M90 375q0 119 27.5 235.5t84 225t159 176t235.5 67.5q162 0 297 -116l35 96h209q-45 -197 -56 -273l-141 -1038q-4 -25 1 -32t26 -9l98 -12l-18 -129h-539l16 127l162 16q23 2 32 9.5t11 29.5l62 426l-9 4q-100 -98 -190 -150.5t-201 -52.5q-154 0 -227.5 108t-73.5 292z M328 391q0 -217 143 -217q123 0 332 219l57 404q-98 98 -229 98q-84 0 -146.5 -51t-94.5 -132t-47 -162t-15 -159z" />
<glyph unicode="r" horiz-adv-x="921" d="M27 0l16 123l98 12q18 2 25.5 10.5t11.5 30.5l94 684q4 35 -20 43l-107 35l17 121h346l-27 -197q63 88 153.5 152.5t184.5 64.5q78 0 142 -18l-46 -336l-180 8l-6 127q0 20 -16 21q-74 0 -232 -174l-71 -529q-4 -25 1 -32t27 -9l187 -16l-17 -121h-581z" />
<glyph unicode="s" horiz-adv-x="946" d="M43 45l39 281l162 -11l6 -127q0 -29 33 -36q66 -18 157 -19q205 0 205 143q0 59 -46 94t-130 62l-93 32q-32 11 -82 37.5t-74.5 56.5t-45 78t-20.5 107q0 166 128 251t312 85q205 0 332 -57l-37 -281l-164 9l-6 118q-2 27 -23 35q-51 18 -131 19q-192 0 -192 -135 q0 -38 28.5 -67.5t59.5 -45t94 -37.5l88 -34q29 -11 79 -39.5t74.5 -58.5t45 -78t20.5 -108q0 -170 -127 -257t-313 -87q-127 0 -235.5 23.5t-143.5 46.5z" />
<glyph unicode="t" horiz-adv-x="843" d="M111 891l20 149q121 16 184.5 82t102.5 224h147l-37 -267q-2 -20 17 -20h286l-22 -168h-307l-76 -557q-6 -43 -6 -72q0 -55 27.5 -79.5t93.5 -24.5q74 0 180 37l35 -150q-147 -70 -310 -70q-137 0 -201.5 53.5t-64.5 168.5q0 23 4 75l84 598q0 20 -14 21h-143z" />
<glyph unicode="u" d="M135 938l17 121h362l4 -6l-92 -668q-8 -61 -8 -100q0 -98 84 -99q74 0 142.5 45t201.5 164l65 486q4 25 0 32t-26 9l-113 16l19 121h374l4 -6l-122 -877q-6 -37 18 -39l111 -18l-17 -119h-352l29 186l-7 2q-61 -53 -86.5 -72.5t-87 -62.5t-119 -60.5t-116.5 -17.5 q-240 0 -240 254q0 61 8 111l76 541q4 25 0 32t-26 9z" />
<glyph unicode="v" horiz-adv-x="1144" d="M80 938l16 121h324l12 -17l33 -217l104 -592h6l338 687l-133 20l17 119h360l17 -43l-521 -1016h-274l-180 885q-2 12 -7.5 18t-9.5 8l-18 9z" />
<glyph unicode="w" horiz-adv-x="1697" d="M80 938l18 121h316l12 -17l14 -178l80 -626l320 811h252l104 -822l301 695l-119 16l19 121h315l19 -39l-451 -1020h-268l-99 766l-301 -766h-278l-135 885q-6 29 -33 35z" />
<glyph unicode="x" horiz-adv-x="1171" d="M-10 0l14 119l100 18q25 4 54 35l319 363l-201 352q-18 29 -43 35l-79 14l18 123h277l14 -15l86 -174l98 -182l213 234l-106 16l18 121h434l-18 -121l-86 -20q-29 -6 -58 -39l-305 -326l217 -377q18 -31 48 -37l114 -18l-18 -121h-303l-19 16l-84 160l-125 217l-227 -256 l129 -18l-14 -119h-467z" />
<glyph unicode="y" horiz-adv-x="1103" d="M-156 -362l88 141q92 -59 187 -60q68 0 116 45.5t95 129.5l69 126l-213 865q-8 27 -34 35l-84 20l22 119h303l15 -17l51 -262l102 -477h6l310 617l-127 20l16 119h348l21 -43l-611 -1178q-82 -160 -168 -227.5t-233 -67.5q-90 0 -167 31t-112 64z" />
<glyph unicode="z" horiz-adv-x="1032" d="M43 0l16 135l672 764h-350q-20 0 -27 -27l-41 -122l-161 -9l43 318h839l-20 -139l-664 -762h369q23 0 31 26l45 148l163 8l-45 -340h-870z" />
<glyph unicode="{" horiz-adv-x="622" d="M70 522l20 142q68 4 108 25.5t60 80.5q37 106 37 385q2 193 91 257.5t337 76.5l8 -141q-139 -18 -169 -66.5t-36 -226.5q0 -16 -2 -81t-5 -106t-13 -80q-35 -145 -160 -198q106 -45 107 -172q0 -61 -43 -242q-43 -168 -43 -229q0 -51 29.5 -71.5t113.5 -41.5l-39 -137 q-188 10 -268 56t-80 157q0 82 41 242q49 180 49 245q0 70 -35.5 95.5t-107.5 29.5z" />
<glyph unicode="|" horiz-adv-x="579" d="M102 -293l250 1776h213l-250 -1776h-213z" />
<glyph unicode="}" horiz-adv-x="641" d="M-31 -162q139 18 169 66.5t36 226.5q0 16 2 80.5t5 105.5t14 80q35 145 159 199q-106 45 -106 172q0 61 43 242q43 168 43 229q0 51 -30 71.5t-114 41.5l39 137q188 -10 268.5 -56.5t80.5 -156.5q0 -82 -41 -242q-49 -180 -50 -246q0 -70 36 -95t108 -29l-21 -142 q-68 -4 -107.5 -25.5t-60.5 -80.5q-37 -106 -36 -385q-2 -193 -91.5 -257.5t-337.5 -76.5z" />
<glyph unicode="~" horiz-adv-x="1021" d="M96 647q117 240 283 240q80 0 227.5 -47t208.5 -47q47 0 72.5 22.5t54.5 83.5l125 -47q-43 -127 -100.5 -189.5t-149.5 -62.5q-78 0 -232.5 47t-211.5 47q-49 0 -84 -22.5t-78 -81.5z" />
<glyph unicode="&#xa1;" horiz-adv-x="548" d="M59 -428l50 348l135 760h196l-75 -760l-50 -348h-256zM225 913q0 166 174 166q133 0 133 -116q0 -166 -174 -166q-133 -1 -133 116z" />
<glyph unicode="&#xa2;" horiz-adv-x="1026" d="M113 489q0 236 124.5 402t344.5 201l28 208h168l-30 -208q152 -10 276 -70l-41 -283l-158 9l-4 133q0 18 -18 24q-37 10 -78 17l-96 -684q41 2 80 14q25 8 30 29l43 133l162 8l-41 -283q-115 -66 -297 -73l-28 -203h-166l28 213q-327 59 -327 413zM360 502 q0 -184 107 -244l90 655q-197 -89 -197 -411z" />
<glyph unicode="&#xa3;" horiz-adv-x="1118" d="M66 147q109 72 146.5 148t61.5 248l7 51h-156l25 178h151l16 119q29 213 135.5 327.5t338.5 114.5q227 0 350 -119l-113 -141q-98 82 -233 82q-115 0 -171.5 -61.5t-72.5 -184.5l-19 -137h334l-24 -178h-330l-10 -78q-16 -117 -55 -197.5t-123 -156.5h477q23 0 33 24 l51 168h166l-47 -354h-928z" />
<glyph unicode="&#xa4;" horiz-adv-x="1167" d="M0 143l186 187q-53 96 -53 243q0 127 57 228l-184 182l148 147l172 -174q109 78 268.5 78t263.5 -73l168 167l139 -143l-176 -176q53 -100 53 -227q0 -137 -63 -254l184 -183l-147 -143l-180 178q-106 -68 -254 -67q-164 0 -263 67l-178 -178zM352 573 q0 -121 59.5 -196.5t178.5 -75.5q111 0 172 77t61 195q0 127 -60.5 197t-176.5 70q-113 0 -173.5 -74t-60.5 -193z" />
<glyph unicode="&#xa5;" horiz-adv-x="1132" d="M86 1174l18 120h510l-16 -120l-149 -19l186 -360h8l279 360l-117 19l16 120h443l-19 -123l-86 -18q-12 -2 -25.5 -12.5t-19.5 -18.5l-19 -26q-13 -18 -18 -23l-276 -340h188l-22 -141h-256l-15 -111h258l-20 -141h-256l-23 -156q-4 -25 0 -31t27 -8l203 -16l-17 -129 h-698l16 129l197 18q20 2 27.5 9.5t9.5 33.5l20 150h-262l21 141h262l12 111h-262l22 141h189l-207 383q-14 25 -45 35z" />
<glyph unicode="&#xa6;" horiz-adv-x="579" d="M102 -293l111 795h213l-111 -795h-213zM256 797l96 686h213l-96 -686h-213z" />
<glyph unicode="&#xa7;" horiz-adv-x="1138" d="M61 -217l35 270l166 -10l6 -123q2 -33 33 -41q66 -20 160 -20q211 0 211 149q0 37 -16.5 63.5t-54.5 46t-66.5 29t-88.5 25.5l-87 26q-32 9 -77.5 32.5t-70.5 49t-44.5 68.5t-19.5 98q0 176 195 314q-84 70 -84 194q0 168 127 252t326 84q211 0 348 -59l-39 -277l-166 11 l-4 118q0 27 -21 35q-49 16 -139 17q-104 0 -157.5 -40t-53.5 -103.5t53.5 -95.5t161.5 -62q10 -2 17 -5q68 -20 107.5 -36.5t88.5 -48t73 -82t24 -117.5q0 -180 -189 -301q82 -82 82 -197q0 -172 -128 -255t-320 -83q-123 0 -235 24.5t-153 49.5zM354 504q0 -37 23.5 -62.5 t52.5 -40t82 -30.5l158 -52q123 96 123 183q0 90 -150 133l-168 47q-121 -90 -121 -178z" />
<glyph unicode="&#xa8;" horiz-adv-x="1024" d="M362 1337q0 66 39 106t107 40q111 0 110 -105q0 -66 -39.5 -106.5t-107.5 -40.5q-51 0 -80 28.5t-29 77.5zM780 1337q0 66 39 106t107 40q111 0 110 -105q0 -66 -40 -106.5t-107 -40.5q-51 0 -80 28.5t-29 77.5z" />
<glyph unicode="&#xa9;" horiz-adv-x="1566" d="M125 625q0 311 195.5 495.5t490.5 184.5q315 0 497.5 -176.5t182.5 -475.5q0 -307 -189.5 -494.5t-494.5 -187.5q-328 0 -505 182.5t-177 471.5zM264 627q0 -250 145.5 -392.5t401.5 -142.5q254 0 399.5 146.5t145.5 402.5q0 258 -149.5 400.5t-395.5 142.5 q-242 0 -394.5 -149.5t-152.5 -407.5zM446 645q0 180 100.5 288.5t291.5 108.5q121 0 229 -41v-221l-98 8l-19 99q-2 16 -16 22q-45 18 -111 19q-100 0 -159.5 -68.5t-59.5 -218.5q0 -127 56.5 -205t177.5 -78q55 0 92 17q12 6 16 20l31 111h88v-211q-81 -49 -233 -49 q-199 0 -292.5 107.5t-93.5 291.5z" />
<glyph unicode="&#xaa;" horiz-adv-x="849" d="M137 821q0 178 86 317.5t262 139.5q111 0 191 -76l26 64h164q-31 -143 -35 -172l-57 -389q-2 -27 19 -29l63 -10l-12 -91h-252l16 111l-6 2q-135 -129 -254 -129q-211 0 -211 262zM330 838q0 -66 18.5 -95.5t61.5 -29.5q80 0 202 118l37 252q-55 55 -133 56 q-96 0 -141 -97.5t-45 -203.5z" />
<glyph unicode="&#xab;" horiz-adv-x="917" d="M117 528l225 308h203l-199 -285q-16 -20 -8 -39l111 -301h-199zM465 528l225 308h203l-199 -285q-16 -20 -8 -39l111 -301h-199z" />
<glyph unicode="&#xac;" horiz-adv-x="1167" d="M219 569l27 195h780l-55 -389h-191l29 194h-590z" />
<glyph unicode="&#xad;" horiz-adv-x="636" d="M61 489l31 213h555l-31 -213h-555z" />
<glyph unicode="&#xae;" horiz-adv-x="921" d="M182 969q0 172 109.5 276.5t271.5 104.5q174 0 275.5 -99.5t101.5 -267.5t-105.5 -273.5t-273.5 -105.5q-182 0 -280.5 101.5t-98.5 263.5zM274 971q0 -131 77 -206t212 -75q133 0 210 77t77 210q0 137 -80 212t-207 75q-125 0 -207 -79t-82 -214zM395 786v45l31 7 q10 2 10 14v262q0 10 -10 12l-31 7v45h180q137 0 138 -111q0 -78 -74 -106q18 -4 35 -37l35 -74q4 -10 16 -12l35 -4v-48h-166v48l27 4l-50 86q-10 16 -26 16h-25v-88q0 -12 12 -14l31 -4v-48h-168zM520 1004h29q76 0 76 59q0 51 -66 51h-39v-110z" />
<glyph unicode="&#xaf;" horiz-adv-x="1024" d="M369 1241l24 168h637l-24 -168h-637z" />
<glyph unicode="&#xb0;" horiz-adv-x="585" d="M195 1331q0 119 74.5 186.5t183.5 67.5q86 0 139 -50t53 -136q0 -113 -72.5 -183.5t-183.5 -70.5q-88 0 -141 51t-53 135zM319 1346q0 -88 87 -89q53 0 84.5 35t31.5 90q0 90 -86 91q-51 0 -84 -35t-33 -92z" />
<glyph unicode="&#xb1;" horiz-adv-x="1167" d="M137 0l27 195h780l-26 -195h-781zM215 563l27 195h290l41 299h203l-43 -299h289l-27 -195h-288l-41 -289h-201l41 289h-291z" />
<glyph unicode="&#xb2;" horiz-adv-x="743" d="M84 717l18 125l306 305l110 113q31 33 59.5 77.5t28.5 81.5q0 80 -96 80q-72 0 -104.5 -26.5t-45.5 -96.5l-188 19q25 147 120 198.5t245 51.5q283 0 282 -207q0 -57 -32.5 -117.5t-63.5 -95.5t-96 -101l-273 -274h226q20 0 24 16l33 99h147l-36 -248h-664z" />
<glyph unicode="&#xb3;" horiz-adv-x="759" d="M78 827l123 121q84 -92 207 -92q70 0 115.5 38t45.5 110q0 115 -127 114q-43 0 -100 -8l20 137l72 8q178 18 178 158q0 84 -94 84q-59 0 -90 -25.5t-41 -95.5l-194 19q31 250 348 250q281 0 280 -203q0 -94 -54 -155.5t-132 -86.5v-4q145 -35 145 -186 q0 -143 -104.5 -226.5t-269.5 -83.5q-217 0 -328 127z" />
<glyph unicode="&#xb4;" horiz-adv-x="1024" d="M455 1255l338 324l131 -147l-381 -277z" />
<glyph unicode="&#xb5;" horiz-adv-x="1300" d="M102 -360l201 1419h236l-97 -684q-8 -70 -8 -92q0 -59 24.5 -87t86.5 -28q139 0 311 156l105 735h235l-123 -879q-6 -35 21 -41l106 -14l-18 -125h-340l20 133l-8 2q-178 -160 -324 -160q-84 0 -149 56l-37 -391h-242z" />
<glyph unicode="&#xb6;" horiz-adv-x="1292" d="M131 629q0 322 191.5 507t527.5 185h528l-18 -127l-139 -16q-23 -2 -30 -9.5t-9 -29.5l-152 -1080q-29 -199 -146.5 -295t-303.5 -96q-252 0 -410 101l78 149q37 -25 126 -54.5t185 -29.5q238 0 277 250l153 1081h-147l-150 -1050h-82q-221 0 -350 139t-129 375z" />
<glyph unicode="&#xb7;" horiz-adv-x="434" d="M113 616q0 80 45 124t129 44q131 0 131 -114q0 -80 -44 -124t-128 -44q-133 -1 -133 114z" />
<glyph unicode="&#xb8;" horiz-adv-x="1024" d="M248 -483l28 121q29 -8 74 -9q59 0 102.5 24.5t43.5 80.5q0 82 -129 86l67 241l127 -16l-39 -137q137 -39 137 -166q0 -115 -85 -178.5t-205 -63.5q-72 1 -121 17z" />
<glyph unicode="&#xb9;" horiz-adv-x="569" d="M96 717l15 108l114 11q23 2 27 26l88 602q6 23 -14 27l-117 25l18 108h351l-113 -762q-4 -14 -1 -19t19 -7l113 -11l-14 -108h-486z" />
<glyph unicode="&#xba;" horiz-adv-x="817" d="M135 850q0 193 107.5 310.5t306.5 117.5q152 0 224.5 -79t72.5 -210q0 -199 -105.5 -314.5t-308.5 -115.5q-152 0 -224.5 78t-72.5 213zM326 854q0 -160 131 -160q197 0 196 295q0 156 -127 156q-90 0 -145 -72t-55 -219z" />
<glyph unicode="&#xbb;" horiz-adv-x="917" d="M84 211l199 297q12 20 6 39l-117 289h201l135 -314l-219 -311h-205zM432 211l199 297q12 20 6 39l-117 289h201l135 -314l-219 -311h-205z" />
<glyph unicode="&#xbc;" horiz-adv-x="1853" d="M150 575l14 109l115 10q23 2 26 27l88 602q6 23 -14 27l-117 24l19 109h350l-113 -762q-4 -14 -1 -19.5t20 -7.5l112 -10l-14 -109h-485zM383 -35l946 1518h217l-944 -1518h-219zM985 166l23 145l434 592h250l-80 -575h112l-24 -162h-113l-22 -166h-197l23 166h-406z M1192 328h223l51 374z" />
<glyph unicode="&#xbd;" horiz-adv-x="1853" d="M119 575l14 109l115 10q23 2 26 27l88 602q6 23 -14 27l-117 24l19 109h350l-113 -762q-4 -14 -1 -19.5t20 -7.5l112 -10l-14 -109h-485zM307 -35l946 1518h217l-944 -1518h-219zM1016 0l18 125l305 305l111 113q31 33 59.5 78t28.5 81q0 80 -96 80q-72 0 -104.5 -26.5 t-45.5 -96.5l-188 19q25 147 120 198.5t244 51.5q283 0 283 -207q0 -57 -32.5 -117.5t-63.5 -95.5t-96 -100l-273 -275h225q20 0 25 17l33 98h147l-37 -248h-663z" />
<glyph unicode="&#xbe;" horiz-adv-x="1853" d="M123 686l123 121q84 -92 207 -92q70 0 115.5 38t45.5 109q0 115 -127 115q-43 0 -100 -8l21 137l71 8q178 18 178 158q0 84 -94 84q-59 0 -90 -25.5t-41 -95.5l-194 18q31 250 348 250q281 0 280 -203q0 -94 -54 -155.5t-132 -85.5v-4q145 -35 145 -187 q0 -143 -104.5 -226t-269.5 -83q-217 0 -328 127zM446 -35l947 1518h217l-944 -1518h-220zM1010 166l22 145l434 592h250l-80 -575h113l-25 -162h-112l-23 -166h-196l22 166h-405zM1217 328h223l51 374z" />
<glyph unicode="&#xbf;" horiz-adv-x="1028" d="M51 -68q0 213 135.5 344.5t378.5 169.5l31 236h235l-51 -383q-94 -10 -166.5 -29.5t-148.5 -57.5t-118 -106.5t-42 -162.5q0 -88 54.5 -133.5t144.5 -45.5q92 0 153 15q33 6 43 45l39 127l189 14l-47 -321q-197 -72 -408 -72q-193 0 -307.5 86t-114.5 274zM598 913 q0 166 172 166q135 0 135 -116q0 -166 -174 -166q-133 -1 -133 116z" />
<glyph unicode="&#xc0;" horiz-adv-x="1468" d="M-27 0l19 117l88 22q39 10 59 45l615 1299h282l267 -1309q4 -25 43 -35l90 -22l-19 -117h-551l19 117l170 18l-54 293h-536l-131 -293l176 -18l-18 -117h-519zM543 606h432l-127 662zM655 1765l119 172l365 -258l-78 -110z" />
<glyph unicode="&#xc1;" horiz-adv-x="1468" d="M-27 0l19 117l88 22q39 10 59 45l615 1299h282l267 -1309q4 -25 43 -35l90 -22l-19 -117h-551l19 117l170 18l-54 293h-536l-131 -293l176 -18l-18 -117h-519zM543 606h432l-127 662zM680 1688l424 251l82 -176l-449 -194z" />
<glyph unicode="&#xc2;" horiz-adv-x="1468" d="M-27 0l19 117l88 22q39 10 59 45l615 1299h282l267 -1309q4 -25 43 -35l90 -22l-19 -117h-551l19 117l170 18l-54 293h-536l-131 -293l176 -18l-18 -117h-519zM543 606h432l-127 662zM571 1665l273 217h188l215 -217l-106 -96l-219 170l-267 -170z" />
<glyph unicode="&#xc3;" horiz-adv-x="1468" d="M-27 0l19 117l88 22q39 10 59 45l615 1299h282l267 -1309q4 -25 43 -35l90 -22l-19 -117h-551l19 117l170 18l-54 293h-536l-131 -293l176 -18l-18 -117h-519zM543 606h432l-127 662zM545 1663l71 98q68 88 144 88q45 0 172 -32q131 -37 162 -37q16 0 24 8l70 70l102 -70 l-59 -78q-45 -59 -79 -85t-73 -26q-37 0 -118 21l-203 55q-23 6 -35 -6l-84 -74z" />
<glyph unicode="&#xc4;" horiz-adv-x="1468" d="M-27 0l19 117l88 22q39 10 59 45l615 1299h282l267 -1309q4 -25 43 -35l90 -22l-19 -117h-551l19 117l170 18l-54 293h-536l-131 -293l176 -18l-18 -117h-519zM543 606h432l-127 662zM586 1706q0 66 39 105.5t106 39.5q111 0 111 -104q0 -66 -40 -107t-108 -41 q-51 0 -79.5 29t-28.5 78zM1004 1706q0 66 38.5 105.5t106.5 39.5q111 0 111 -104q0 -66 -40 -107t-108 -41q-51 0 -79.5 29t-28.5 78z" />
<glyph unicode="&#xc5;" horiz-adv-x="1468" d="M-27 0l19 117l88 22q39 10 59 45l613 1293q-49 49 -50 127q0 96 69 156.5t171 60.5q82 0 132 -41t50 -121q0 -117 -88 -182l267 -1303q4 -25 43 -35l90 -22l-19 -117h-551l19 117l170 18l-54 293h-536l-131 -293l176 -18l-18 -117h-519zM543 606h432l-127 662zM827 1614 q0 -35 20.5 -54.5t55.5 -19.5q45 0 71.5 32t26.5 77q0 68 -73 67q-47 0 -74 -27.5t-27 -74.5z" />
<glyph unicode="&#xc6;" horiz-adv-x="2048" d="M-27 0l17 119l90 22q41 12 59 39l758 1157l-152 21l17 125h1317l-54 -369l-167 8l-7 154q0 31 -32 31h-414l-68 -486h518l-24 -180h-518l-68 -467h459q31 0 37 23l57 180h170l-53 -377h-1086l17 121l141 14q20 4 27 31l65 475h-422l-329 -502l151 -18l-16 -121h-490z M762 821h344l68 486h-91z" />
<glyph unicode="&#xc7;" horiz-adv-x="1361" d="M125 612q0 403 221 650t625 247q283 0 438 -112l-49 -359l-170 13l-6 192q0 31 -25 41q-90 37 -213 37q-258 0 -415.5 -181.5t-157.5 -508.5q0 -231 100 -351t295 -120q162 0 258 37q20 8 29 36l59 191h164l-47 -338q-160 -98 -457 -109l-18 -69q137 -39 137 -166 q0 -115 -85 -178.5t-206 -63.5q-72 0 -121 17l29 121q29 -8 74 -9q59 0 102 24.5t43 80.5q0 82 -129 86l43 160q-264 23 -391 190.5t-127 441.5z" />
<glyph unicode="&#xc8;" d="M59 0l15 121l129 14q23 4 30 11.5t9 29.5l155 1129q4 25 -1 31.5t-25 9.5l-123 14l14 123h1032l-51 -369l-164 8l-6 158q-2 27 -31 27h-411l-64 -471h510l-24 -179h-510l-66 -483h453q29 0 37 23l55 180h164l-51 -377h-1076zM573 1765l119 172l365 -258l-78 -110z" />
<glyph unicode="&#xc9;" d="M59 0l15 121l129 14q23 4 30 11.5t9 29.5l155 1129q4 25 -1 31.5t-25 9.5l-123 14l14 123h1032l-51 -369l-164 8l-6 158q-2 27 -31 27h-411l-64 -471h510l-24 -179h-510l-66 -483h453q29 0 37 23l55 180h164l-51 -377h-1076zM598 1688l424 251l82 -176l-449 -194z" />
<glyph unicode="&#xca;" d="M59 0l15 121l129 14q23 4 30 11.5t9 29.5l155 1129q4 25 -1 31.5t-25 9.5l-123 14l14 123h1032l-51 -369l-164 8l-6 158q-2 27 -31 27h-411l-64 -471h510l-24 -179h-510l-66 -483h453q29 0 37 23l55 180h164l-51 -377h-1076zM489 1665l273 217h188l215 -217l-106 -96 l-219 170l-267 -170z" />
<glyph unicode="&#xcb;" d="M59 0l15 121l129 14q23 4 30 11.5t9 29.5l155 1129q4 25 -1 31.5t-25 9.5l-123 14l14 123h1032l-51 -369l-164 8l-6 158q-2 27 -31 27h-411l-64 -471h510l-24 -179h-510l-66 -483h453q29 0 37 23l55 180h164l-51 -377h-1076zM504 1706q0 66 39 105.5t106 39.5 q111 0 111 -104q0 -66 -40 -107t-108 -41q-51 0 -79.5 29t-28.5 78zM922 1706q0 66 38.5 105.5t106.5 39.5q111 0 111 -104q0 -66 -40 -107t-108 -41q-51 0 -79.5 29t-28.5 78z" />
<glyph unicode="&#xcc;" horiz-adv-x="759" d="M41 0l14 121l150 14q20 2 26.5 9.5t10.5 31.5l157 1131q4 25 -1 32t-25 9l-144 14l17 121h598l-15 -121l-157 -16q-23 -4 -29 -10.5t-8 -28.5l-158 -1129q-4 -16 -3 -24.5t7 -11.5t21 -5l153 -16l-14 -121h-600zM305 1765l119 172l364 -258l-77 -110z" />
<glyph unicode="&#xcd;" horiz-adv-x="759" d="M41 0l14 121l150 14q20 2 26.5 9.5t10.5 31.5l157 1131q4 25 -1 32t-25 9l-144 14l17 121h598l-15 -121l-157 -16q-23 -4 -29 -10.5t-8 -28.5l-158 -1129q-4 -16 -3 -24.5t7 -11.5t21 -5l153 -16l-14 -121h-600zM330 1688l424 251l82 -176l-449 -194z" />
<glyph unicode="&#xce;" horiz-adv-x="759" d="M41 0l14 121l150 14q20 2 26.5 9.5t10.5 31.5l157 1131q4 25 -1 32t-25 9l-144 14l17 121h598l-15 -121l-157 -16q-23 -4 -29 -10.5t-8 -28.5l-158 -1129q-4 -16 -3 -24.5t7 -11.5t21 -5l153 -16l-14 -121h-600zM221 1665l273 217h188l215 -217l-106 -96l-220 170 l-266 -170z" />
<glyph unicode="&#xcf;" horiz-adv-x="759" d="M41 0l14 121l150 14q20 2 26.5 9.5t10.5 31.5l157 1131q4 25 -1 32t-25 9l-144 14l17 121h598l-15 -121l-157 -16q-23 -4 -29 -10.5t-8 -28.5l-158 -1129q-4 -16 -3 -24.5t7 -11.5t21 -5l153 -16l-14 -121h-600zM236 1706q0 66 38.5 105.5t106.5 39.5q111 0 111 -104 q0 -66 -40 -107t-108 -41q-51 0 -79.5 29t-28.5 78zM653 1706q0 66 39 105.5t107 39.5q111 0 110 -104q0 -66 -40 -107t-107 -41q-51 0 -80 29t-29 78z" />
<glyph unicode="&#xd0;" horiz-adv-x="1556" d="M84 0l18 123l129 14q18 2 25.5 9.5t9.5 29.5l64 465h-176l22 180h180l68 486q4 23 -1 31t-26 10l-125 14l17 121h604q324 0 486.5 -161t162.5 -448q0 -190 -52 -347.5t-155.5 -276.5t-271.5 -184.5t-387 -65.5h-592zM504 178h166q309 0 468.5 187.5t159.5 506.5 q0 231 -112.5 332t-339.5 101h-189l-65 -484h348l-25 -180h-348z" />
<glyph unicode="&#xd1;" horiz-adv-x="1667" d="M61 0l13 121l129 14q23 4 30 11.5t9 29.5l157 1131q4 25 -1 32t-25 9l-123 14l14 121h432l525 -1178l137 1002q4 25 -1 32t-26 9l-125 14l17 121h514l-17 -121l-137 -16q-23 -4 -29 -10.5t-8 -28.5l-182 -1307h-258l-535 1182l-139 -1004q-4 -25 0 -32t27 -9l131 -16 l-12 -121h-517zM670 1663l71 98q68 88 144 88q45 0 172 -32q131 -37 162 -37q16 0 24 8l70 70l102 -70l-59 -78q-45 -59 -79 -85t-73 -26q-37 0 -119 21l-202 55q-23 6 -35 -6l-84 -74z" />
<glyph unicode="&#xd2;" horiz-adv-x="1544" d="M119 578q0 84 12 176q47 338 261 546.5t560 208.5q295 0 442.5 -166.5t147.5 -437.5q0 -86 -10 -153q-51 -369 -258 -573t-557 -204q-301 0 -449.5 161t-148.5 442zM367 604q0 -430 385 -430q453 0 532 559q10 66 10 146q0 207 -98 319.5t-274 112.5 q-215 0 -359.5 -140.5t-183.5 -414.5q-12 -84 -12 -152zM698 1765l119 172l365 -258l-78 -110z" />
<glyph unicode="&#xd3;" horiz-adv-x="1544" d="M119 578q0 84 12 176q47 338 261 546.5t560 208.5q295 0 442.5 -166.5t147.5 -437.5q0 -86 -10 -153q-51 -369 -258 -573t-557 -204q-301 0 -449.5 161t-148.5 442zM367 604q0 -430 385 -430q453 0 532 559q10 66 10 146q0 207 -98 319.5t-274 112.5 q-215 0 -359.5 -140.5t-183.5 -414.5q-12 -84 -12 -152zM723 1688l424 251l82 -176l-449 -194z" />
<glyph unicode="&#xd4;" horiz-adv-x="1544" d="M119 578q0 84 12 176q47 338 261 546.5t560 208.5q295 0 442.5 -166.5t147.5 -437.5q0 -86 -10 -153q-51 -369 -258 -573t-557 -204q-301 0 -449.5 161t-148.5 442zM367 604q0 -430 385 -430q453 0 532 559q10 66 10 146q0 207 -98 319.5t-274 112.5 q-215 0 -359.5 -140.5t-183.5 -414.5q-12 -84 -12 -152zM614 1665l273 217h188l215 -217l-106 -96l-219 170l-267 -170z" />
<glyph unicode="&#xd5;" horiz-adv-x="1544" d="M119 578q0 84 12 176q47 338 261 546.5t560 208.5q295 0 442.5 -166.5t147.5 -437.5q0 -86 -10 -153q-51 -369 -258 -573t-557 -204q-301 0 -449.5 161t-148.5 442zM367 604q0 -430 385 -430q453 0 532 559q10 66 10 146q0 207 -98 319.5t-274 112.5 q-215 0 -359.5 -140.5t-183.5 -414.5q-12 -84 -12 -152zM588 1663l71 98q68 88 144 88q45 0 172 -32q131 -37 162 -37q16 0 24 8l70 70l102 -70l-59 -78q-45 -59 -79 -85t-73 -26q-37 0 -118 21l-203 55q-23 6 -35 -6l-84 -74z" />
<glyph unicode="&#xd6;" horiz-adv-x="1544" d="M119 578q0 84 12 176q47 338 261 546.5t560 208.5q295 0 442.5 -166.5t147.5 -437.5q0 -86 -10 -153q-51 -369 -258 -573t-557 -204q-301 0 -449.5 161t-148.5 442zM367 604q0 -430 385 -430q453 0 532 559q10 66 10 146q0 207 -98 319.5t-274 112.5 q-215 0 -359.5 -140.5t-183.5 -414.5q-12 -84 -12 -152zM629 1706q0 66 39 105.5t106 39.5q111 0 111 -104q0 -66 -40 -107t-108 -41q-51 0 -79.5 29t-28.5 78zM1047 1706q0 66 38.5 105.5t106.5 39.5q111 0 111 -104q0 -66 -40 -107t-108 -41q-51 0 -79.5 29t-28.5 78z" />
<glyph unicode="&#xd7;" horiz-adv-x="1167" d="M248 444l241 213l-182 213l162 142l178 -213l242 213l121 -142l-240 -213l180 -213l-162 -139l-180 211l-239 -211z" />
<glyph unicode="&#xd8;" horiz-adv-x="1544" d="M119 578q0 84 12 176q47 338 261 546.5t560 208.5q90 0 183 -20l73 131h234l-121 -215q221 -156 221 -500q0 -86 -10 -153q-51 -369 -258 -573t-557 -204q-102 0 -185 19l-86 -154h-235l131 234q-223 150 -223 504zM367 604q0 -213 94 -319l567 1013q-49 12 -106 13 q-215 0 -359.5 -140.5t-183.5 -414.5q-12 -84 -12 -152zM639 184q57 -10 113 -10q453 0 532 559q10 66 10 146q0 199 -92 313z" />
<glyph unicode="&#xd9;" horiz-adv-x="1581" d="M227 1362l17 121h561l-19 -121l-137 -16q-23 -2 -28 -8.5t-9 -30.5l-104 -760q-10 -78 -10 -127q0 -135 65.5 -192.5t212.5 -57.5q170 0 259 81t116 281l106 775q4 25 -1 32t-25 9l-125 14l16 121h537l-17 -121l-137 -16q-23 -2 -27.5 -8.5t-9.5 -30.5l-112 -813 q-39 -276 -185.5 -397.5t-416.5 -121.5q-252 0 -372 102.5t-120 313.5q0 57 10 133l105 783q4 25 -1 32t-24 9zM727 1765l119 172l364 -258l-77 -110z" />
<glyph unicode="&#xda;" horiz-adv-x="1581" d="M227 1362l17 121h561l-19 -121l-137 -16q-23 -2 -28 -8.5t-9 -30.5l-104 -760q-10 -78 -10 -127q0 -135 65.5 -192.5t212.5 -57.5q170 0 259 81t116 281l106 775q4 25 -1 32t-25 9l-125 14l16 121h537l-17 -121l-137 -16q-23 -2 -27.5 -8.5t-9.5 -30.5l-112 -813 q-39 -276 -185.5 -397.5t-416.5 -121.5q-252 0 -372 102.5t-120 313.5q0 57 10 133l105 783q4 25 -1 32t-24 9zM752 1688l424 251l81 -176l-448 -194z" />
<glyph unicode="&#xdb;" horiz-adv-x="1581" d="M227 1362l17 121h561l-19 -121l-137 -16q-23 -2 -28 -8.5t-9 -30.5l-104 -760q-10 -78 -10 -127q0 -135 65.5 -192.5t212.5 -57.5q170 0 259 81t116 281l106 775q4 25 -1 32t-25 9l-125 14l16 121h537l-17 -121l-137 -16q-23 -2 -27.5 -8.5t-9.5 -30.5l-112 -813 q-39 -276 -185.5 -397.5t-416.5 -121.5q-252 0 -372 102.5t-120 313.5q0 57 10 133l105 783q4 25 -1 32t-24 9zM643 1665l272 217h189l215 -217l-107 -96l-219 170l-266 -170z" />
<glyph unicode="&#xdc;" horiz-adv-x="1581" d="M227 1362l17 121h561l-19 -121l-137 -16q-23 -2 -28 -8.5t-9 -30.5l-104 -760q-10 -78 -10 -127q0 -135 65.5 -192.5t212.5 -57.5q170 0 259 81t116 281l106 775q4 25 -1 32t-25 9l-125 14l16 121h537l-17 -121l-137 -16q-23 -2 -27.5 -8.5t-9.5 -30.5l-112 -813 q-39 -276 -185.5 -397.5t-416.5 -121.5q-252 0 -372 102.5t-120 313.5q0 57 10 133l105 783q4 25 -1 32t-24 9zM657 1706q0 66 39 105.5t107 39.5q111 0 110 -104q0 -66 -39.5 -107t-107.5 -41q-51 0 -80 29t-29 78zM1075 1706q0 66 39 105.5t107 39.5q111 0 110 -104 q0 -66 -40 -107t-107 -41q-51 0 -80 29t-29 78z" />
<glyph unicode="&#xdd;" horiz-adv-x="1288" d="M143 1362l19 121h530l-18 -121l-156 -19l209 -569l369 569l-150 19l19 121h477l-17 -121l-88 -23q-39 -8 -55 -41l-473 -729l-53 -391q-4 -27 0 -33t26 -8l203 -16l-16 -121h-699l17 121l198 14q18 2 24.5 10.5t10.5 32.5l53 387l-299 740q-10 27 -43 34zM623 1688 l424 251l81 -176l-448 -194z" />
<glyph unicode="&#xde;" horiz-adv-x="1310" d="M57 0l17 123l129 14q23 4 30 11.5t9 29.5l155 1129q4 23 -2 31t-26 10l-123 14l16 121h567l-14 -121l-153 -19q-18 -2 -24.5 -8t-8.5 -26l-13 -86h242q231 0 336.5 -101.5t105.5 -277.5q0 -266 -161.5 -396.5t-458.5 -130.5h-188l-19 -137q-2 -25 2 -32t25 -9l284 -16 l-16 -123h-711zM516 489h150q84 0 147.5 13.5t121.5 48.5t90 105.5t32 174.5q0 215 -281 216h-184z" />
<glyph unicode="&#xdf;" horiz-adv-x="1339" d="M61 -434l226 1581q35 240 174 331t352 91q125 0 216 -31t134 -81t61.5 -95t18.5 -90q0 -88 -43 -153.5t-119 -133.5l-21 -20q-15 -14 -21.5 -19.5t-19.5 -18t-20 -19.5l-15 -17q-9 -10 -13 -18.5t-9.5 -17.5t-7.5 -18.5t-2 -19.5q0 -18 7.5 -36.5t15.5 -31t27.5 -30 t30.5 -26.5t39 -28.5t38 -27.5q78 -57 123 -125t45 -172q0 -166 -118 -265.5t-298 -99.5q-229 0 -362 70l39 268l161 -10l9 -131q0 -31 26 -37q53 -14 129 -14q90 0 140.5 46t50.5 126q0 70 -37 115t-107 90q-109 72 -141 114q-49 61 -49 148q0 55 23.5 105t50 80t71.5 73 q51 49 71.5 70.5t45.5 64.5t25 86q0 66 -55.5 109t-157.5 43q-127 0 -195 -63.5t-88 -207.5l-219 -1554h-232z" />
<glyph unicode="&#xe0;" horiz-adv-x="1208" d="M90 375q0 125 27.5 242.5t85 225t161 172t240.5 64.5q162 0 287 -116l35 96h209q-41 -172 -54 -258l-86 -625q-4 -25 1 -32t26 -9l98 -14l-16 -121h-338l25 176l-9 4q-104 -102 -191 -153.5t-192 -51.5q-309 1 -309 400zM328 393q0 -119 33.5 -170t107.5 -51 q125 0 332 221l57 404q-98 98 -227 98q-84 0 -146.5 -50t-94.5 -131t-47 -162t-15 -159zM492 1450l159 137l269 -344l-109 -88z" />
<glyph unicode="&#xe1;" horiz-adv-x="1208" d="M90 375q0 125 27.5 242.5t85 225t161 172t240.5 64.5q162 0 287 -116l35 96h209q-41 -172 -54 -258l-86 -625q-4 -25 1 -32t26 -9l98 -14l-16 -121h-338l25 176l-9 4q-104 -102 -191 -153.5t-192 -51.5q-309 1 -309 400zM328 393q0 -119 33.5 -170t107.5 -51 q125 0 332 221l57 404q-98 98 -227 98q-84 0 -146.5 -50t-94.5 -131t-47 -162t-15 -159zM506 1255l338 324l131 -147l-381 -277z" />
<glyph unicode="&#xe2;" horiz-adv-x="1208" d="M90 375q0 125 27.5 242.5t85 225t161 172t240.5 64.5q162 0 287 -116l35 96h209q-41 -172 -54 -258l-86 -625q-4 -25 1 -32t26 -9l98 -14l-16 -121h-338l25 176l-9 4q-104 -102 -191 -153.5t-192 -51.5q-309 1 -309 400zM328 393q0 -119 33.5 -170t107.5 -51 q125 0 332 221l57 404q-98 98 -227 98q-84 0 -146.5 -50t-94.5 -131t-47 -162t-15 -159zM350 1253l293 256h188l222 -256l-113 -90l-219 201l-277 -201z" />
<glyph unicode="&#xe3;" horiz-adv-x="1208" d="M90 375q0 125 27.5 242.5t85 225t161 172t240.5 64.5q162 0 287 -116l35 96h209q-41 -172 -54 -258l-86 -625q-4 -25 1 -32t26 -9l98 -14l-16 -121h-338l25 176l-9 4q-104 -102 -191 -153.5t-192 -51.5q-309 1 -309 400zM328 393q0 -119 33.5 -170t107.5 -51 q125 0 332 221l57 404q-98 98 -227 98q-84 0 -146.5 -50t-94.5 -131t-47 -162t-15 -159zM330 1257l73 97q72 92 140 92q39 0 100 -19q211 -57 225.5 -59t30.5 10l76 72l98 -68l-57 -77q-45 -59 -78 -85t-72 -26q-29 0 -114 23q-197 55 -215.5 59t-32.5 -10l-84 -74z" />
<glyph unicode="&#xe4;" horiz-adv-x="1208" d="M90 375q0 125 27.5 242.5t85 225t161 172t240.5 64.5q162 0 287 -116l35 96h209q-41 -172 -54 -258l-86 -625q-4 -25 1 -32t26 -9l98 -14l-16 -121h-338l25 176l-9 4q-104 -102 -191 -153.5t-192 -51.5q-309 1 -309 400zM328 393q0 -119 33.5 -170t107.5 -51 q125 0 332 221l57 404q-98 98 -227 98q-84 0 -146.5 -50t-94.5 -131t-47 -162t-15 -159zM381 1337q0 66 39 106t106 40q111 0 111 -105q0 -66 -40 -106.5t-108 -40.5q-51 0 -79.5 28.5t-28.5 77.5zM799 1337q0 66 39 106t106 40q111 0 111 -105q0 -66 -40 -106.5t-108 -40.5 q-51 0 -79.5 28.5t-28.5 77.5z" />
<glyph unicode="&#xe5;" horiz-adv-x="1208" d="M90 375q0 125 27.5 242.5t85 225t161 172t240.5 64.5q162 0 287 -116l35 96h209q-41 -172 -54 -258l-86 -625q-4 -25 1 -32t26 -9l98 -14l-16 -121h-338l25 176l-9 4q-104 -102 -191 -153.5t-192 -51.5q-309 1 -309 400zM328 393q0 -119 33.5 -170t107.5 -51 q125 0 332 221l57 404q-98 98 -227 98q-84 0 -146.5 -50t-94.5 -131t-47 -162t-15 -159zM535 1343q0 96 68.5 157t170.5 61q82 0 132 -41t50 -121q0 -98 -67.5 -164t-171.5 -66q-82 0 -132 47t-50 127zM659 1354q0 -35 20.5 -54.5t55.5 -19.5q45 0 72 31.5t27 77.5 q0 68 -74 67q-47 0 -74 -27.5t-27 -74.5z" />
<glyph unicode="&#xe6;" horiz-adv-x="1665" d="M90 375q0 125 27.5 242.5t85 225t161 172t240.5 64.5q195 0 352 -153q172 154 390 153q143 0 218.5 -69.5t75.5 -186.5q0 -137 -102 -221q-152 -125 -555 -180q2 -131 51 -197.5t180 -66.5q127 0 299 73l39 -163q-190 -92 -393 -93q-272 0 -371 199q-209 -199 -389 -199 q-309 1 -309 400zM328 393q0 -219 151 -219q115 0 269 154q-3 38 -3 65v25q4 225 105 381q-111 96 -219 96q-84 0 -146.5 -50t-94.5 -131t-47 -162t-15 -159zM997 575q424 61 424 226q0 100 -118 100q-113 0 -196 -92.5t-110 -233.5z" />
<glyph unicode="&#xe7;" horiz-adv-x="1009" d="M88 412q0 332 172 499.5t440 167.5q201 0 314 -73l-41 -291l-160 8l-6 135q0 25 -25 33q-43 14 -112 14q-141 0 -241.5 -114.5t-100.5 -352.5q0 -283 237 -282q143 0 279 67l45 -155q-127 -78 -318 -91l-18 -69q137 -39 137 -166q0 -115 -85 -178.5t-206 -63.5 q-72 0 -120 17l28 121q29 -8 74 -9q59 0 102 24.5t43 80.5q0 82 -129 86l45 160q-354 41 -354 432z" />
<glyph unicode="&#xe8;" horiz-adv-x="1007" d="M88 403q0 295 167 485.5t421 190.5q156 0 231.5 -68.5t75.5 -187.5q0 -332 -655 -407q0 -131 50 -194.5t181 -63.5q129 0 295 73l41 -163q-195 -92 -393 -93q-414 0 -414 428zM340 575q57 6 112.5 18.5t134.5 37t128 68.5t49 102q0 100 -119 100q-113 0 -195.5 -92.5 t-109.5 -233.5zM459 1450l159 137l269 -344l-109 -88z" />
<glyph unicode="&#xe9;" horiz-adv-x="1007" d="M88 403q0 295 167 485.5t421 190.5q156 0 231.5 -68.5t75.5 -187.5q0 -332 -655 -407q0 -131 50 -194.5t181 -63.5q129 0 295 73l41 -163q-195 -92 -393 -93q-414 0 -414 428zM340 575q57 6 112.5 18.5t134.5 37t128 68.5t49 102q0 100 -119 100q-113 0 -195.5 -92.5 t-109.5 -233.5zM473 1255l338 324l131 -147l-381 -277z" />
<glyph unicode="&#xea;" horiz-adv-x="1007" d="M88 403q0 295 167 485.5t421 190.5q156 0 231.5 -68.5t75.5 -187.5q0 -332 -655 -407q0 -131 50 -194.5t181 -63.5q129 0 295 73l41 -163q-195 -92 -393 -93q-414 0 -414 428zM317 1253l293 256h189l221 -256l-113 -90l-219 201l-276 -201zM340 575q57 6 112.5 18.5 t134.5 37t128 68.5t49 102q0 100 -119 100q-113 0 -195.5 -92.5t-109.5 -233.5z" />
<glyph unicode="&#xeb;" horiz-adv-x="1007" d="M88 403q0 295 167 485.5t421 190.5q156 0 231.5 -68.5t75.5 -187.5q0 -332 -655 -407q0 -131 50 -194.5t181 -63.5q129 0 295 73l41 -163q-195 -92 -393 -93q-414 0 -414 428zM340 575q57 6 112.5 18.5t134.5 37t128 68.5t49 102q0 100 -119 100q-113 0 -195.5 -92.5 t-109.5 -233.5zM348 1337q0 66 39 106t107 40q111 0 110 -105q0 -66 -40 -106.5t-107 -40.5q-51 0 -80 28.5t-29 77.5zM766 1337q0 66 39 106t106 40q111 0 111 -105q0 -66 -40 -106.5t-108 -40.5q-51 0 -79.5 28.5t-28.5 77.5z" />
<glyph unicode="&#xec;" horiz-adv-x="622" d="M137 10l47 250l84 602q6 35 -20 43l-107 33l19 121h368l-125 -881q-4 -25 1.5 -32t27.5 -9l111 -16l-17 -121h-383zM141 1440l160 137l268 -344l-108 -88z" />
<glyph unicode="&#xed;" horiz-adv-x="622" d="M137 10l47 250l84 602q6 35 -20 43l-107 33l19 121h368l-125 -881q-4 -25 1.5 -32t27.5 -9l111 -16l-17 -121h-383zM156 1245l338 324l131 -148l-381 -276z" />
<glyph unicode="&#xee;" horiz-adv-x="622" d="M20 1249l273 256h188l201 -256l-113 -90l-198 201l-256 -201zM137 10l47 250l84 602q6 35 -20 43l-107 33l19 121h368l-125 -881q-4 -25 1.5 -32t27.5 -9l111 -16l-17 -121h-383z" />
<glyph unicode="&#xef;" horiz-adv-x="622" d="M59 1300q0 66 39 106t107 40q111 0 110 -105q0 -66 -39.5 -106.5t-107.5 -40.5q-51 0 -80 28.5t-29 77.5zM137 10l47 250l84 602q6 35 -20 43l-107 33l19 121h368l-125 -881q-4 -25 1.5 -32t27.5 -9l111 -16l-17 -121h-383zM436 1300q0 66 39 106t107 40q111 0 110 -105 q0 -66 -40 -106.5t-107 -40.5q-51 0 -80 28.5t-29 77.5z" />
<glyph unicode="&#xf0;" horiz-adv-x="1175" d="M88 420q0 262 147.5 437t403.5 175q150 0 276 -82q-31 168 -112 277l-203 -105l-90 152l149 76q-84 47 -208 69l86 162q193 -29 325 -127l228 115l81 -154l-176 -90q147 -199 148 -516q0 -111 -14.5 -214t-55.5 -220t-107.5 -202t-180 -141.5t-261.5 -56.5 q-217 0 -326.5 118t-109.5 327zM334 416q0 -264 213 -264q172 0 259 166.5t99 443.5q-109 92 -246 92q-166 0 -245.5 -121.5t-79.5 -316.5z" />
<glyph unicode="&#xf1;" horiz-adv-x="1269" d="M27 0l16 123l94 14q23 4 30 11.5t9 29.5l94 682q6 33 -18 43l-107 35l17 121h350l-25 -180q117 98 210.5 149t203.5 51q240 0 240 -250q0 -49 -11 -120l-75 -531q-4 -25 0 -32t26 -9l111 -16l-16 -121h-381l-4 6l43 246l57 385q12 86 12 131q0 104 -80 104 q-129 0 -346 -194l-69 -500q-4 -25 1 -32t27 -9l117 -16l-16 -121h-510zM365 1257l73 97q72 92 140 92q39 0 100 -19q211 -57 225.5 -59t30.5 10l76 72l98 -68l-57 -77q-45 -59 -78 -85t-72 -26q-29 0 -115 23q-197 55 -215 59t-32 -10l-84 -74z" />
<glyph unicode="&#xf2;" horiz-adv-x="1161" d="M88 408q0 301 156.5 486t441.5 185q225 0 327.5 -117.5t102.5 -312.5q0 -311 -151.5 -492.5t-434.5 -181.5q-223 0 -332.5 116t-109.5 317zM328 414q0 -268 223 -269q145 0 234 126t89 376q0 254 -217 254q-147 0 -238 -120.5t-91 -366.5zM485 1450l160 137l268 -344 l-108 -88z" />
<glyph unicode="&#xf3;" horiz-adv-x="1161" d="M88 408q0 301 156.5 486t441.5 185q225 0 327.5 -117.5t102.5 -312.5q0 -311 -151.5 -492.5t-434.5 -181.5q-223 0 -332.5 116t-109.5 317zM328 414q0 -268 223 -269q145 0 234 126t89 376q0 254 -217 254q-147 0 -238 -120.5t-91 -366.5zM500 1255l338 324l131 -147 l-381 -277z" />
<glyph unicode="&#xf4;" horiz-adv-x="1161" d="M88 408q0 301 156.5 486t441.5 185q225 0 327.5 -117.5t102.5 -312.5q0 -311 -151.5 -492.5t-434.5 -181.5q-223 0 -332.5 116t-109.5 317zM328 414q0 -268 223 -269q145 0 234 126t89 376q0 254 -217 254q-147 0 -238 -120.5t-91 -366.5zM344 1253l293 256h188l222 -256 l-113 -90l-219 201l-277 -201z" />
<glyph unicode="&#xf5;" horiz-adv-x="1161" d="M88 408q0 301 156.5 486t441.5 185q225 0 327.5 -117.5t102.5 -312.5q0 -311 -151.5 -492.5t-434.5 -181.5q-223 0 -332.5 116t-109.5 317zM324 1257l73 97q72 92 140 92q39 0 100 -19q211 -57 225.5 -59t30.5 10l76 72l98 -68l-57 -77q-45 -59 -78 -85t-72 -26 q-29 0 -115 23q-197 55 -215 59t-32 -10l-84 -74zM328 414q0 -268 223 -269q145 0 234 126t89 376q0 254 -217 254q-147 0 -238 -120.5t-91 -366.5z" />
<glyph unicode="&#xf6;" horiz-adv-x="1161" d="M88 408q0 301 156.5 486t441.5 185q225 0 327.5 -117.5t102.5 -312.5q0 -311 -151.5 -492.5t-434.5 -181.5q-223 0 -332.5 116t-109.5 317zM328 414q0 -268 223 -269q145 0 234 126t89 376q0 254 -217 254q-147 0 -238 -120.5t-91 -366.5zM375 1337q0 66 39 106t106 40 q111 0 111 -105q0 -66 -40 -106.5t-108 -40.5q-51 0 -79.5 28.5t-28.5 77.5zM793 1337q0 66 38.5 106t106.5 40q111 0 111 -105q0 -66 -40 -106.5t-108 -40.5q-51 0 -79.5 28.5t-28.5 77.5z" />
<glyph unicode="&#xf7;" horiz-adv-x="1167" d="M219 561l29 193h780l-29 -193h-780zM424 309q0 74 43 116t121 42q125 0 125 -113q0 -76 -41 -116.5t-121 -40.5q-127 -1 -127 112zM516 961q0 74 42 116.5t120 42.5q61 0 94 -30.5t33 -83.5q0 -156 -164 -156q-125 0 -125 111z" />
<glyph unicode="&#xf8;" horiz-adv-x="1161" d="M86 -180l141 243q-139 113 -139 345q0 301 156.5 486t441.5 185q68 0 127 -12l80 137h201l-121 -207q143 -109 143 -348q0 -311 -151.5 -492.5t-434.5 -181.5q-68 0 -143 15l-98 -170h-203zM328 414q0 -84 22 -142l363 623q-25 6 -56 6q-147 0 -238 -120.5t-91 -366.5z M483 154q27 -8 68 -9q145 0 234 126t89 376q0 84 -24 139z" />
<glyph unicode="&#xf9;" d="M135 938l17 121h362l4 -6l-92 -668q-8 -61 -8 -100q0 -98 84 -99q74 0 142.5 45t201.5 164l65 486q4 25 0 32t-26 9l-113 16l19 121h374l4 -6l-122 -877q-6 -37 18 -39l111 -18l-17 -119h-352l29 186l-7 2q-61 -53 -86.5 -72.5t-87 -62.5t-119 -60.5t-116.5 -17.5 q-240 0 -240 254q0 61 8 111l76 541q4 25 0 32t-26 9zM502 1450l160 137l268 -344l-109 -88z" />
<glyph unicode="&#xfa;" d="M135 938l17 121h362l4 -6l-92 -668q-8 -61 -8 -100q0 -98 84 -99q74 0 142.5 45t201.5 164l65 486q4 25 0 32t-26 9l-113 16l19 121h374l4 -6l-122 -877q-6 -37 18 -39l111 -18l-17 -119h-352l29 186l-7 2q-61 -53 -86.5 -72.5t-87 -62.5t-119 -60.5t-116.5 -17.5 q-240 0 -240 254q0 61 8 111l76 541q4 25 0 32t-26 9zM516 1255l338 324l131 -147l-381 -277z" />
<glyph unicode="&#xfb;" d="M135 938l17 121h362l4 -6l-92 -668q-8 -61 -8 -100q0 -98 84 -99q74 0 142.5 45t201.5 164l65 486q4 25 0 32t-26 9l-113 16l19 121h374l4 -6l-122 -877q-6 -37 18 -39l111 -18l-17 -119h-352l29 186l-7 2q-61 -53 -86.5 -72.5t-87 -62.5t-119 -60.5t-116.5 -17.5 q-240 0 -240 254q0 61 8 111l76 541q4 25 0 32t-26 9zM360 1253l293 256h189l221 -256l-113 -90l-219 201l-276 -201z" />
<glyph unicode="&#xfc;" d="M135 938l17 121h362l4 -6l-92 -668q-8 -61 -8 -100q0 -98 84 -99q74 0 142.5 45t201.5 164l65 486q4 25 0 32t-26 9l-113 16l19 121h374l4 -6l-122 -877q-6 -37 18 -39l111 -18l-17 -119h-352l29 186l-7 2q-61 -53 -86.5 -72.5t-87 -62.5t-119 -60.5t-116.5 -17.5 q-240 0 -240 254q0 61 8 111l76 541q4 25 0 32t-26 9zM391 1337q0 66 39 106t107 40q111 0 110 -105q0 -66 -40 -106.5t-107 -40.5q-51 0 -80 28.5t-29 77.5zM809 1337q0 66 39 106t106 40q111 0 111 -105q0 -66 -40 -106.5t-107 -40.5q-51 0 -80 28.5t-29 77.5z" />
<glyph unicode="&#xfd;" horiz-adv-x="1124" d="M-135 -362l88 141q92 -59 186 -60q68 0 116 45.5t95 129.5l70 126l-213 865q-8 27 -35 35l-84 20l23 119h303l14 -17l51 -262l103 -477h6l309 617l-127 20l16 119h349l20 -43l-610 -1178q-82 -160 -168 -227.5t-234 -67.5q-90 0 -166.5 31t-111.5 64zM457 1255l338 324 l131 -147l-381 -277z" />
<glyph unicode="&#xfe;" horiz-adv-x="1204" d="M59 -426l62 363l198 1411q6 37 -18 43l-106 34l18 121h360l-96 -665q231 199 391 198q135 0 213 -97t78 -306q0 -188 -51 -343t-167 -257q-115 -101 -279 -101q-166 0 -283 113h-8l-47 -342q-4 -20 1 -27.5t25 -9.5l195 -16l-19 -127h-460zM397 272q113 -113 228 -112 q100 0 168.5 79.5t95 184t26.5 217.5q0 233 -137 233q-113 0 -323 -194z" />
<glyph unicode="&#xff;" horiz-adv-x="1124" d="M-135 -362l88 141q92 -59 186 -60q68 0 116 45.5t95 129.5l70 126l-213 865q-8 27 -35 35l-84 20l23 119h303l14 -17l51 -262l103 -477h6l309 617l-127 20l16 119h349l20 -43l-610 -1178q-82 -160 -168 -227.5t-234 -67.5q-90 0 -166.5 31t-111.5 64zM332 1337 q0 66 39 106t106 40q111 0 111 -105q0 -66 -40 -106.5t-108 -40.5q-51 0 -79.5 28.5t-28.5 77.5zM750 1337q0 66 38.5 106t106.5 40q111 0 111 -105q0 -66 -40 -106.5t-108 -40.5q-51 0 -79.5 28.5t-28.5 77.5z" />
<glyph unicode="&#x152;" horiz-adv-x="2033" d="M121 616q0 391 203.5 642t556.5 251q111 0 206 -26h977l-51 -369l-164 8l-6 158q0 16 -7 21.5t-26 5.5h-512q115 -135 121 -373q2 -33 2 -98h426l-26 -179h-412q-49 -317 -229 -483h520q27 0 35 27l57 176h164l-51 -377h-1016q-94 -25 -199 -25q-281 0 -425 174t-144 467 zM365 627q0 -223 92 -340t266 -117q221 0 345 175t124 519q0 451 -338 451q-215 0 -352 -179t-137 -509z" />
<glyph unicode="&#x153;" horiz-adv-x="1761" d="M88 414q0 293 154.5 479t416.5 186q143 0 236.5 -60.5t130.5 -156.5q158 217 408 217q154 0 228.5 -68.5t74.5 -187.5q0 -137 -103 -221q-86 -72 -245.5 -117t-307.5 -63q2 -133 51.5 -198.5t180.5 -65.5t297 73l39 -163q-184 -92 -379 -93q-113 0 -206 48.5t-136 146.5 q-145 -195 -416 -195q-213 0 -318.5 118t-105.5 321zM328 422q0 -276 215 -277q152 0 241.5 126t89.5 370q0 129 -59 194.5t-162 65.5q-145 0 -235 -120.5t-90 -358.5zM1094 575q426 53 426 226q0 100 -121 100q-113 0 -195.5 -92.5t-109.5 -233.5z" />
<glyph unicode="&#x178;" horiz-adv-x="1288" d="M143 1362l19 121h530l-18 -121l-156 -19l209 -569l369 569l-150 19l19 121h477l-17 -121l-88 -23q-39 -8 -55 -41l-473 -729l-53 -391q-4 -27 0 -33t26 -8l203 -16l-16 -121h-699l17 121l198 14q18 2 24.5 10.5t10.5 32.5l53 387l-299 740q-10 27 -43 34zM528 1706 q0 66 39 105.5t107 39.5q111 0 110 -104q0 -66 -39.5 -107t-107.5 -41q-51 0 -80 29t-29 78zM946 1706q0 66 39 105.5t107 39.5q111 0 110 -104q0 -66 -40 -107t-107 -41q-51 0 -80 29t-29 78z" />
<glyph unicode="&#x2c6;" horiz-adv-x="1024" d="M336 1253l293 256h188l221 -256l-112 -90l-219 201l-277 -201z" />
<glyph unicode="&#x2dc;" horiz-adv-x="1024" d="M326 1257l73 97q72 92 140 92q39 0 100 -19q211 -57 225.5 -59t30.5 10l76 72l98 -68l-57 -77q-45 -59 -78 -85t-72 -26q-29 0 -114 23q-197 55 -215.5 59t-32.5 -10l-84 -74z" />
<glyph unicode="&#x2000;" horiz-adv-x="969" />
<glyph unicode="&#x2001;" horiz-adv-x="1939" />
<glyph unicode="&#x2002;" horiz-adv-x="969" />
<glyph unicode="&#x2003;" horiz-adv-x="1939" />
<glyph unicode="&#x2004;" horiz-adv-x="646" />
<glyph unicode="&#x2005;" horiz-adv-x="484" />
<glyph unicode="&#x2006;" horiz-adv-x="323" />
<glyph unicode="&#x2007;" horiz-adv-x="323" />
<glyph unicode="&#x2008;" horiz-adv-x="242" />
<glyph unicode="&#x2009;" horiz-adv-x="387" />
<glyph unicode="&#x200a;" horiz-adv-x="107" />
<glyph unicode="&#x2010;" horiz-adv-x="636" d="M61 489l31 213h555l-31 -213h-555z" />
<glyph unicode="&#x2011;" horiz-adv-x="636" d="M61 489l31 213h555l-31 -213h-555z" />
<glyph unicode="&#x2012;" horiz-adv-x="636" d="M61 489l31 213h555l-31 -213h-555z" />
<glyph unicode="&#x2013;" horiz-adv-x="1024" d="M25 489l24 173h1022l-24 -173h-1022z" />
<glyph unicode="&#x2014;" horiz-adv-x="2048" d="M25 489l24 173h2048l-24 -173h-2048z" />
<glyph unicode="&#x2018;" horiz-adv-x="403" d="M211 1241q0 47 49 125l133 205l101 -37l-80 -197q-6 -16 8 -22l65 -27l-65 -168q-100 4 -155.5 29.5t-55.5 91.5z" />
<glyph unicode="&#x2019;" horiz-adv-x="409" d="M213 1153l80 197q6 16 -8 22l-66 27l66 170q102 -6 156.5 -29.5t54.5 -89.5q0 -53 -50 -127l-133 -207z" />
<glyph unicode="&#x201a;" horiz-adv-x="397" d="M31 -225l80 196q6 16 -11 23l-63 26l63 170q104 -6 158.5 -29.5t54.5 -88.5q0 -51 -51 -127l-131 -207z" />
<glyph unicode="&#x201c;" horiz-adv-x="737" d="M211 1241q0 47 49 125l133 205l101 -37l-80 -197q-6 -16 8 -22l65 -27l-65 -168q-100 4 -155.5 29.5t-55.5 91.5zM545 1241q0 47 49 125l133 205l100 -37l-79 -197q-6 -16 8 -22l65 -27l-65 -168q-100 4 -155.5 29.5t-55.5 91.5z" />
<glyph unicode="&#x201d;" horiz-adv-x="743" d="M213 1153l80 197q6 16 -8 22l-66 27l66 170q102 -6 156.5 -29.5t54.5 -89.5q0 -53 -50 -127l-133 -207zM547 1153l80 197q6 16 -9 22l-65 27l65 170q102 -6 156.5 -29.5t54.5 -89.5q0 -53 -49 -127l-133 -207z" />
<glyph unicode="&#x201e;" horiz-adv-x="731" d="M31 -225l80 196q6 16 -11 23l-63 26l63 170q104 -6 158.5 -29.5t54.5 -88.5q0 -51 -51 -127l-131 -207zM365 -225l79 196q6 16 -10 23l-63 26l63 170q104 -6 158.5 -29.5t54.5 -88.5q0 -51 -51 -127l-131 -207z" />
<glyph unicode="&#x2022;" horiz-adv-x="808" d="M139 594q0 139 75 211t216 72q293 0 293 -283q0 -285 -293 -285q-291 0 -291 285z" />
<glyph unicode="&#x2026;" horiz-adv-x="1273" d="M55 90q0 80 45 124t129 44q131 0 131 -115q0 -80 -44 -124t-128 -44q-133 0 -133 115zM471 90q0 80 45 124t129 44q131 0 131 -115q0 -80 -44 -124t-128 -44q-133 0 -133 115zM887 90q0 80 45 124t129 44q131 0 131 -115q0 -80 -44 -124t-128 -44q-133 0 -133 115z" />
<glyph unicode="&#x202f;" horiz-adv-x="387" />
<glyph unicode="&#x2039;" horiz-adv-x="569" d="M117 528l225 308h203l-199 -285q-16 -20 -8 -39l111 -301h-199z" />
<glyph unicode="&#x203a;" horiz-adv-x="569" d="M84 211l199 297q12 20 6 39l-117 289h201l135 -314l-219 -311h-205z" />
<glyph unicode="&#x205f;" horiz-adv-x="484" />
<glyph unicode="&#x20ac;" horiz-adv-x="1097" d="M12 430l45 152h127q2 43 11 125h-111l45 151h98q70 238 234 356.5t373 118.5q102 0 192 -23.5t135 -54.5l-43 -317l-157 10l-7 160q0 25 -22 33q-47 14 -125 14q-111 0 -200 -73.5t-136 -223.5h371l-45 -151h-359q-8 -74 -10 -125h342l-45 -152h-293q27 -276 240 -276 q78 0 131 16q20 8 26 33l48 159l159 11l-43 -322q-49 -27 -156.5 -51.5t-209.5 -24.5q-203 0 -314.5 117t-128.5 338h-172z" />
<glyph unicode="&#x2122;" horiz-adv-x="1714" d="M207 1272v211h655v-211h-82l-14 108h-164v-573l125 -10v-84h-377v84l115 10v573h-160l-16 -108h-82zM930 713v82l78 10v581l-78 9v88h211l229 -465l236 465h202v-88l-82 -9v-581l86 -10v-82h-301v82l93 10v428l-185 -354h-104l-180 356v-430l98 -10v-82h-303z" />
<glyph unicode="&#xe000;" horiz-adv-x="1060" d="M0 0v1060h1060v-1060h-1060z" />
<glyph unicode="&#xfb01;" horiz-adv-x="1296" d="M90 -434l184 1304q4 20 -14 21h-139l24 168h156l23 164q51 346 424 346q123 0 234.5 -37t178.5 -82l-90 -154q-158 94 -303 95q-100 0 -151.5 -45.5t-63.5 -139.5l-18 -127q-2 -20 14 -20h651l-123 -881q-4 -25 0 -32t27 -9l113 -16l-17 -121h-383l-6 10l47 250l84 596 q6 35 -27 35h-407l-186 -1325h-232z" />
<glyph unicode="&#xfb02;" horiz-adv-x="1300" d="M90 -434l184 1304q4 20 -14 21h-139l24 168h156l23 164q51 346 415 346q176 0 332 -86l129 63h68l-191 -1368q-4 -25 1 -32t28 -9l108 -16l-16 -121h-383l-6 10l47 250l148 1057q-139 74 -248 74q-180 0 -203 -177l-18 -135q-2 -20 14 -20h301l-23 -168h-319l-186 -1325 h-232z" />
<glyph unicode="&#xfb03;" horiz-adv-x="1961" d="M90 -434l184 1304q4 20 -14 21h-139l24 168h156l21 133q53 346 374 346q156 0 262 -84l-88 -145q-76 51 -155 51q-78 0 -115 -43t-49 -133l-16 -105q-2 -20 14 -20h420l22 164q51 346 424 346q123 0 234.5 -37t179.5 -82l-90 -154q-158 94 -303 95q-100 0 -151.5 -45.5 t-63.5 -139.5l-19 -127q-2 -20 15 -20h651l-123 -881q-4 -25 0 -32t27 -9l112 -16l-16 -121h-383l-6 10l47 250l84 596q6 35 -27 35h-407l-187 -1325h-231l184 1304q4 20 -14 21h-420l-186 -1325h-232z" />
<glyph unicode="&#xfb04;" horiz-adv-x="1972" d="M90 -434l184 1304q4 20 -14 21h-139l24 168h156l21 133q53 346 374 346q156 0 262 -84l-88 -145q-76 51 -155 51q-78 0 -115 -43t-49 -133l-16 -105q-2 -20 14 -20h422l22 164q51 346 416 346q176 0 332 -86l129 63h67l-190 -1368q-4 -25 1 -32t28 -9l108 -16l-16 -121 h-383l-6 10l47 250l147 1057q-139 74 -248 74q-180 0 -202 -177l-19 -135q-2 -20 15 -20h301l-23 -168h-319l-187 -1325h-231l184 1304q4 20 -14 21h-422l-186 -1325h-232z" />
</font>
</defs>
</svg>
