<?xml version="1.0" standalone="no"?>
<!DOCTYPE svg PUBLIC "-//W3C//DTD SVG 20010904//EN"
 "http://www.w3.org/TR/2001/REC-SVG-20010904/DTD/svg10.dtd">
<svg version="1.0" xmlns="http://www.w3.org/2000/svg"
 width="481.000000pt" height="481.000000pt" viewBox="0 0 481.000000 481.000000"
 preserveAspectRatio="xMidYMid meet">
<metadata>
Created by potrace 1.11, written by Peter Selinger 2001-2013
</metadata>
<g transform="translate(0.000000,481.000000) scale(0.100000,-0.100000)"
fill="#000000" stroke="none">
<path d="M2636 4786 c-120 -45 -186 -175 -150 -296 39 -132 198 -207 321 -151
185 84 193 343 14 435 -44 23 -138 29 -185 12z"/>
<path d="M2028 4717 c-112 -50 -137 -200 -46 -284 91 -85 245 -38 278 85 15
57 5 102 -33 147 -49 60 -131 81 -199 52z"/>
<path d="M3255 4711 c-58 -30 -89 -83 -89 -152 -1 -69 30 -120 90 -149 148
-73 295 69 231 222 -35 83 -148 122 -232 79z"/>
<path d="M1416 4639 c-75 -59 -32 -179 64 -179 43 0 85 33 96 74 23 91 -86
163 -160 105z"/>
<path d="M1405 4167 c-59 -23 -97 -53 -128 -102 -29 -45 -32 -57 -32 -130 0
-76 2 -83 35 -130 24 -33 54 -59 90 -78 48 -25 63 -28 120 -24 70 4 96 15 148
62 122 109 95 312 -51 387 -46 23 -140 31 -182 15z"/>
<path d="M790 4095 c-134 -60 -134 -255 -1 -311 150 -63 292 85 221 230 -38
79 -141 116 -220 81z"/>
<path d="M2035 4098 c-117 -42 -146 -199 -53 -285 101 -94 269 -28 283 111 12
119 -116 217 -230 174z"/>
<path d="M2680 4100 c-73 -20 -122 -69 -134 -135 -14 -75 44 -164 120 -184
162 -43 281 126 182 260 -32 43 -116 73 -168 59z"/>
<path d="M3273 4099 c-36 -10 -102 -82 -105 -113 -5 -68 -4 -84 7 -111 29 -72
92 -109 172 -103 106 9 173 99 151 202 -23 102 -119 156 -225 125z"/>
<path d="M3905 4028 c-55 -30 -72 -103 -35 -151 59 -75 180 -34 180 62 -1 74
-82 124 -145 89z"/>
<path d="M184 3492 c-32 -10 -79 -53 -98 -89 -38 -75 -5 -178 72 -221 150 -84
314 85 227 235 -40 68 -123 98 -201 75z"/>
<path d="M782 3483 c-18 -9 -45 -32 -60 -51 -23 -30 -27 -45 -27 -101 0 -78
24 -120 85 -151 112 -57 250 26 250 150 0 122 -138 207 -248 153z"/>
<path d="M1405 3484 c-68 -35 -101 -92 -96 -168 9 -158 221 -212 311 -80 35
52 35 136 0 187 -46 68 -147 97 -215 61z"/>
<path d="M2025 3484 c-67 -35 -98 -85 -98 -155 2 -148 173 -223 282 -123 74
66 76 179 5 246 -53 49 -131 63 -189 32z"/>
<path d="M3255 3481 c-60 -31 -90 -81 -90 -151 0 -71 31 -121 93 -151 113 -55
246 28 245 151 -2 127 -136 208 -248 151z"/>
<path d="M3895 3492 c-40 -14 -74 -45 -95 -86 -28 -59 -26 -113 7 -163 88
-137 285 -95 313 66 21 118 -106 221 -225 183z"/>
<path d="M4515 3492 c-136 -45 -155 -238 -30 -309 112 -63 255 18 255 145 0
55 -38 122 -86 149 -38 22 -97 28 -139 15z"/>
<path d="M2663 3418 c-11 -5 -29 -24 -38 -42 -14 -26 -15 -38 -6 -74 20 -73
104 -96 162 -44 26 24 32 36 32 72 0 36 -6 48 -32 72 -33 30 -77 36 -118 16z"/>
<path d="M2028 2951 c-103 -33 -170 -124 -169 -228 0 -72 20 -122 70 -172 149
-149 404 -43 404 169 0 130 -92 227 -222 236 -31 2 -68 -1 -83 -5z"/>
<path d="M4482 2942 c-233 -96 -182 -436 71 -460 87 -8 195 54 234 136 23 49
23 156 0 203 -56 112 -193 167 -305 121z"/>
<path d="M782 2874 c-79 -41 -115 -148 -76 -229 24 -50 94 -95 149 -95 91 0
175 81 175 168 0 48 -33 113 -71 141 -42 31 -131 38 -177 15z"/>
<path d="M2645 2876 c-62 -28 -110 -110 -100 -172 30 -194 292 -208 335 -18
30 132 -110 245 -235 190z"/>
<path d="M3265 2877 c-176 -81 -105 -346 86 -324 203 24 199 320 -4 334 -30 2
-65 -2 -82 -10z"/>
<path d="M3876 2874 c-44 -25 -64 -46 -81 -87 -58 -139 77 -277 218 -223 24 9
52 26 63 39 69 79 53 206 -32 261 -38 26 -131 31 -168 10z"/>
<path d="M171 2789 c-44 -43 -43 -95 1 -139 29 -29 36 -32 77 -27 59 7 91 41
91 98 0 91 -105 133 -169 68z"/>
<path d="M1411 2793 c-28 -26 -35 -48 -32 -96 2 -31 56 -77 91 -77 109 0 147
119 60 187 -28 23 -87 16 -119 -14z"/>
<path d="M145 2321 c-184 -83 -190 -341 -10 -433 55 -29 155 -29 211 0 179 91
174 349 -9 432 -54 25 -139 25 -192 1z"/>
<path d="M2615 2319 c-157 -78 -187 -272 -61 -394 66 -65 186 -78 273 -31 80
44 123 117 124 211 1 90 -54 178 -137 215 -57 26 -146 26 -199 -1z"/>
<path d="M835 2270 c-86 -13 -137 -70 -143 -158 -3 -49 0 -63 24 -98 45 -69
114 -95 192 -74 48 12 107 73 117 120 26 120 -71 227 -190 210z"/>
<path d="M1465 2274 c-5 -1 -22 -5 -37 -8 -34 -8 -84 -50 -104 -88 -24 -47
-20 -119 9 -165 53 -83 171 -105 245 -46 119 96 78 269 -71 303 -18 3 -36 6
-42 4z"/>
<path d="M2065 2268 c-161 -35 -190 -240 -45 -318 63 -34 164 -12 209 46 97
123 -12 305 -164 272z"/>
<path d="M3287 2267 c-48 -12 -104 -68 -118 -119 -38 -141 103 -259 238 -198
47 21 79 62 91 116 27 125 -85 231 -211 201z"/>
<path d="M3910 2267 c-132 -34 -174 -196 -74 -289 38 -35 70 -46 126 -43 107
5 184 114 153 216 -10 31 -51 86 -74 99 -35 18 -96 27 -131 17z"/>
<path d="M4536 2268 c-172 -37 -183 -283 -14 -329 139 -37 255 91 203 226 -29
76 -110 120 -189 103z"/>
<path d="M186 1645 c-110 -39 -151 -169 -82 -260 99 -130 306 -63 306 99 0 71
-36 125 -105 157 -47 22 -67 23 -119 4z"/>
<path d="M792 1643 c-72 -38 -108 -102 -99 -179 17 -151 209 -202 302 -80 63
83 35 204 -60 253 -39 21 -109 23 -143 6z"/>
<path d="M1429 1650 c-43 -13 -74 -38 -99 -82 -64 -114 15 -251 145 -251 84 0
142 43 166 123 37 123 -87 246 -212 210z"/>
<path d="M2054 1650 c-156 -36 -172 -261 -23 -323 104 -42 222 30 234 144 11
117 -93 207 -211 179z"/>
<path d="M2674 1650 c-146 -34 -175 -232 -47 -311 88 -55 213 -10 246 87 34
97 -12 189 -112 222 -37 13 -42 13 -87 2z"/>
<path d="M3895 1645 c-107 -38 -147 -171 -78 -263 76 -102 239 -82 289 35 58
136 -73 277 -211 228z"/>
<path d="M4505 1643 c-68 -35 -105 -90 -105 -158 0 -127 137 -209 250 -150
122 63 120 238 -4 302 -41 21 -106 24 -141 6z"/>
<path d="M3295 1581 c-39 -16 -60 -51 -60 -98 0 -39 5 -49 33 -73 69 -57 167
-10 164 79 -1 43 -16 66 -56 85 -37 18 -51 19 -81 7z"/>
<path d="M1417 1098 c-113 -24 -195 -147 -175 -262 21 -125 114 -206 238 -206
135 0 234 103 234 241 0 54 -6 75 -28 113 -34 58 -92 101 -154 114 -52 12 -60
12 -115 0z"/>
<path d="M782 1019 c-78 -39 -113 -139 -78 -222 41 -96 169 -129 258 -66 99
71 84 235 -28 289 -52 26 -98 25 -152 -1z"/>
<path d="M2645 1024 c-42 -23 -65 -44 -81 -75 -60 -117 19 -249 150 -249 166
0 234 215 97 306 -52 34 -123 41 -166 18z"/>
<path d="M3281 1033 c-37 -8 -107 -84 -115 -125 -26 -138 101 -247 229 -198
126 48 145 223 34 297 -38 25 -100 36 -148 26z"/>
<path d="M3895 1029 c-16 -4 -43 -20 -59 -35 -118 -110 -36 -302 127 -296 99
4 176 102 155 196 -25 110 -117 166 -223 135z"/>
<path d="M2053 960 c-70 -29 -74 -144 -8 -180 75 -40 157 14 150 99 -5 62 -82
107 -142 81z"/>
<path d="M2028 480 c-90 -27 -160 -111 -171 -205 -10 -86 41 -185 121 -232 62
-36 165 -39 228 -6 136 72 170 252 70 370 -57 65 -167 98 -248 73z"/>
<path d="M1405 405 c-72 -39 -106 -105 -95 -183 8 -52 35 -90 86 -119 148 -85
315 88 228 236 -40 67 -153 101 -219 66z"/>
<path d="M3255 401 c-60 -31 -90 -81 -90 -151 0 -71 31 -121 93 -151 113 -56
246 27 245 151 -2 127 -136 208 -248 151z"/>
<path d="M2658 334 c-17 -9 -32 -28 -39 -53 -30 -100 84 -173 162 -103 26 24
32 36 32 72 0 80 -82 124 -155 84z"/>
</g>
</svg>
