<?xml version="1.0" standalone="no"?>
<!DOCTYPE svg PUBLIC "-//W3C//DTD SVG 1.1//EN" "http://www.w3.org/Graphics/SVG/1.1/DTD/svg11.dtd" >
<svg xmlns="http://www.w3.org/2000/svg">
<metadata></metadata>
<defs>
<font id="adellelight_italic" horiz-adv-x="1167" >
<font-face units-per-em="2048" ascent="1546" descent="-502" />
<missing-glyph horiz-adv-x="471" />
<glyph horiz-adv-x="2048" />
<glyph horiz-adv-x="2048" />
<glyph unicode="&#xd;" horiz-adv-x="682" />
<glyph unicode=" "  horiz-adv-x="471" />
<glyph unicode="&#x09;" horiz-adv-x="471" />
<glyph unicode="&#xa0;" horiz-adv-x="471" />
<glyph unicode="!" horiz-adv-x="524" d="M104 72q0 137 138 137q104 0 104 -96q0 -137 -137 -138q-105 1 -105 97zM209 375l84 776l47 332h158l-47 -332l-129 -776h-113z" />
<glyph unicode="&#x22;" horiz-adv-x="729" d="M176 915l76 531h147l-75 -531h-148zM500 915l75 531h148l-76 -531h-147z" />
<glyph unicode="#" horiz-adv-x="1243" d="M53 299l41 107h240l98 331h-248l41 109h240l76 266h123l-78 -266h272l76 266h123l-78 -266h248l-39 -109h-242l-94 -331h244l-37 -107h-238l-86 -299h-121l86 299h-276l-86 -299h-121l84 299h-248zM455 406h276l94 331h-272z" />
<glyph unicode="$" horiz-adv-x="1046" d="M31 80l39 272h98l20 -164q4 -23 9.5 -29.5t27.5 -15.5q78 -27 201 -28l63 479q-70 25 -111.5 44t-90.5 54t-73 87t-24 124q0 170 111 264.5t283 110.5l22 149h111l-21 -145q160 -6 312 -68l-39 -301l-99 11l-10 168q-2 31 -24 41q-61 29 -156 30l-66 -481 q68 -25 109 -44.5t89 -55t70.5 -86t22.5 -117.5q0 -162 -100 -258t-285 -117l-22 -168h-109l21 164q-115 2 -222.5 27.5t-156.5 52.5zM328 930q0 -80 47 -127t133 -82l59 436q-113 -14 -176 -74.5t-63 -152.5zM537 119q233 31 233 233q0 78 -45 124t-129 79z" />
<glyph unicode="%" horiz-adv-x="1753" d="M158 827q0 195 102 319t285 124q141 0 209.5 -80t68.5 -219q0 -199 -101 -322t-282 -123q-147 0 -214.5 85t-67.5 216zM291 842q0 -207 162 -207q236 0 235 332q0 195 -158 194q-127 0 -183 -96t-56 -223zM348 -35l955 1307h133l-953 -1307h-135zM971 276 q0 195 102.5 319t284.5 124q141 0 209.5 -80t68.5 -219q0 -199 -101 -322t-282 -123q-147 0 -214.5 85t-67.5 216zM1104 291q0 -207 162 -207q236 0 235 332q0 195 -158 194q-127 0 -183 -96t-56 -223z" />
<glyph unicode="&#x26;" horiz-adv-x="1390" d="M156 322q0 143 81.5 244.5t233.5 144.5q-186 72 -186 272q0 174 129 283.5t342 109.5q111 0 216 -29.5t156 -62.5l-41 -258l-102 6l-8 152q0 29 -25 39q-74 31 -188 30q-57 0 -109.5 -10t-106.5 -36.5t-86 -82t-32 -135.5q0 -104 68.5 -163.5t189.5 -59.5h127l-16 -119 q-106 0 -176 -10q-313 -45 -314 -291q0 -145 88 -198.5t246 -53.5q176 0 289 49q33 12 35 43l80 564l16 10h235l-14 -92l-84 -9q-35 -2 -37 -28l-76 -541q-168 -115 -450 -115q-244 0 -362.5 90.5t-118.5 256.5z" />
<glyph unicode="'" horiz-adv-x="405" d="M176 915l76 531h147l-75 -531h-148z" />
<glyph unicode="(" horiz-adv-x="606" d="M135 416q0 518 451 1065l94 -66q-215 -293 -310.5 -511t-95.5 -488q0 -182 41 -336t117 -332l-117 -59q-180 356 -180 727z" />
<glyph unicode=")" horiz-adv-x="595" d="M-57 -246q215 293 310 511t95 489q0 182 -41 335.5t-117 331.5l117 60q180 -356 180 -727q0 -518 -450 -1065z" />
<glyph unicode="*" horiz-adv-x="960" d="M188 1229l62 121l117 -43l172 -103v213l18 129h129l-18 -129l-62 -213h-67l-27 -61l55 -41l-141 -182l-98 -101l-92 86l96 96l180 142l-207 41zM567 1102l51 39l-12 63l203 103l127 43l29 -121l-129 -45l-218 -43l138 -144l69 -98l-102 -76l-70 97z" />
<glyph unicode="+" d="M213 590l18 135h312l45 315h141l-45 -315h311l-18 -135h-311l-45 -322h-142l45 322h-311z" />
<glyph unicode="," horiz-adv-x="385" d="M10 -209l94 213q6 14 -8 21l-61 28l65 150q94 -6 138.5 -25.5t44.5 -73.5q0 -49 -43 -116l-154 -228z" />
<glyph unicode="-" horiz-adv-x="636" d="M47 522l23 152h555l-23 -152h-555z" />
<glyph unicode="." horiz-adv-x="425" d="M57 66q0 68 36 105.5t102 37.5q104 0 104 -92q0 -61 -36 -101.5t-101 -40.5q-105 1 -105 91z" />
<glyph unicode="/" horiz-adv-x="741" d="M-57 -188l792 1685h129l-792 -1685h-129z" />
<glyph unicode="0" horiz-adv-x="1107" d="M94 408q0 102 10 176q16 127 54.5 230.5t103 191.5t167.5 136t239 48q205 0 295 -119t90 -311q0 -84 -13 -170q-16 -133 -49 -234.5t-93 -191.5t-162.5 -139.5t-241.5 -49.5q-400 1 -400 433zM231 426q0 -336 271 -336q338 0 401 492q12 90 12 166q0 322 -266 321 q-184 0 -279.5 -127t-129.5 -371q-9 -67 -9 -145z" />
<glyph unicode="1" horiz-adv-x="706" d="M4 0l12 86l211 14q18 2 23.5 9.5t9.5 31.5l119 856q2 23 -3 31t-22 12l-186 35l14 84h353l-142 -1018q-4 -25 1 -32t28 -9l176 -16l-12 -84h-582z" />
<glyph unicode="2" horiz-adv-x="966" d="M20 0l15 102l356 314q27 25 82 71l76 66l60 56q40 38 56 58l40 51q25 32 34 56.5t16 57t7 65.5q0 176 -232 176q-143 0 -203.5 -45t-74.5 -180l-129 18q10 102 50 171t104.5 99.5t126 42t145.5 11.5q346 0 346 -285q0 -51 -11.5 -98t-39.5 -93l-50 -80q-22 -34 -72 -82 t-76 -71l-88 -74q-62 -52 -83 -71l-260 -221h469q29 0 35 22l57 178h101l-46 -315h-811z" />
<glyph unicode="3" horiz-adv-x="956" d="M-27 4l97 92q113 -141 311 -141q135 0 226 67.5t91 223.5q0 113 -70.5 171t-203.5 58q-59 0 -139 -12l14 117l127 12q160 14 244 94t84 201q0 186 -215 186q-141 0 -204 -46t-77 -179l-131 16q27 326 424 326q344 0 344 -285q0 -125 -71.5 -220t-207.5 -142v-8 q100 -25 162 -95.5t62 -189.5q0 -186 -122 -303t-347 -117q-133 0 -241 50t-157 124z" />
<glyph unicode="4" horiz-adv-x="987" d="M41 172l16 109l592 886l99 -65l-535 -809h420l55 428l137 18l-61 -446h182l-16 -121h-187l-38 -309h-134l43 309h-573z" />
<glyph unicode="5" horiz-adv-x="993" d="M-16 2l98 92q121 -143 313 -143q145 0 254 92t109 270q0 131 -66.5 191.5t-169.5 60.5q-129 0 -278 -102l-103 49l131 647h680l-14 -119h-561l-94 -438q129 80 268 80q164 0 256 -92t92 -264q0 -213 -137 -354.5t-365 -141.5q-278 0 -413 172z" />
<glyph unicode="6" horiz-adv-x="1075" d="M139 481q0 119 29 251t91.5 270.5t184 228.5t285.5 90q199 0 320 -123l-84 -98q-100 98 -236 98q-86 0 -158.5 -37t-118.5 -92t-81 -128t-52.5 -135.5t-25.5 -123.5q178 141 373 141q156 0 233.5 -90t77.5 -244q0 -231 -122 -372.5t-345 -141.5q-371 0 -371 506zM281 444 q0 -356 243 -356q145 0 228.5 100.5t83.5 282.5q0 233 -201 234q-168 0 -350 -158q-4 -62 -4 -103z" />
<glyph unicode="7" horiz-adv-x="993" d="M131 821l43 338h858l-14 -102q-197 -178 -390.5 -535.5t-244.5 -658.5h-145q82 377 251.5 676t360.5 501h-531q-29 0 -34 -22l-62 -191z" />
<glyph unicode="8" horiz-adv-x="989" d="M66 268q0 135 82.5 238.5t228.5 202.5q-162 98 -162 258q0 164 123 259t289 95q162 0 249 -72.5t87 -187.5q0 -201 -254 -387q197 -121 196 -301q0 -186 -133 -292t-346 -106q-162 0 -261 77t-99 216zM207 291q0 -94 67.5 -146.5t186.5 -52.5q131 0 218 75t87 187 q0 100 -68.5 164t-214.5 133q-276 -180 -276 -360zM356 995q0 -90 56.5 -143t189.5 -125q219 170 219 320q0 158 -211 157q-106 0 -180 -55.5t-74 -153.5z" />
<glyph unicode="9" horiz-adv-x="1054" d="M55 -33l84 99q119 -113 258 -113q90 0 162 38t115 91t74.5 129t46 134t22.5 124q-170 -141 -377 -141q-156 0 -233.5 92t-77.5 248q0 233 123 377.5t346 144.5q369 0 369 -506q0 -94 -13.5 -196.5t-52.5 -223.5t-98.5 -214t-165 -156.5t-240.5 -63.5q-92 0 -185.5 33.5 t-156.5 103.5zM270 686q0 -240 201 -240q98 0 192.5 49.5t157.5 108.5q4 29 4 117q0 356 -243 356q-143 0 -227.5 -104.5t-84.5 -286.5z" />
<glyph unicode=":" horiz-adv-x="430" d="M61 66q0 68 36 105.5t102 37.5q104 0 104 -92q0 -61 -36 -101.5t-101 -40.5q-105 1 -105 91zM174 872q0 68 36 106t101 38q104 0 105 -92q0 -61 -36 -101.5t-101 -40.5q-105 0 -105 90z" />
<glyph unicode=";" horiz-adv-x="385" d="M10 -209l94 213q6 14 -8 21l-61 28l65 150q94 -6 138.5 -25.5t44.5 -73.5q0 -49 -43 -116l-154 -228zM166 872q0 68 36 106t101 38q104 0 105 -92q0 -61 -36 -101.5t-102 -40.5q-104 0 -104 90z" />
<glyph unicode="&#x3c;" d="M227 504l25 172l792 325l31 -131l-704 -278l637 -266l-60 -125z" />
<glyph unicode="=" d="M195 350l18 142h756l-19 -142h-755zM238 662l20 141h756l-21 -141h-755z" />
<glyph unicode="&#x3e;" d="M145 334l711 266l-627 279l62 122l702 -325l-24 -172l-807 -303z" />
<glyph unicode="?" horiz-adv-x="935" d="M211 1165l35 252q164 66 348 66q395 0 395 -338q0 -420 -510 -512l-35 -260h-137l49 358q104 12 186.5 36t155 69t111.5 121.5t39 181.5q0 229 -266 229q-127 0 -193 -25q-16 -6 -29 -36l-45 -136zM215 72q0 137 137 137q104 0 105 -96q0 -137 -138 -138q-104 1 -104 97z " />
<glyph unicode="@" horiz-adv-x="1687" d="M88 246q0 258 125 470t335 329.5t458 117.5q279 0 442.5 -140t163.5 -394q0 -252 -113 -441q-127 -213 -364 -213q-102 0 -147 42q-40 38 -40 102v12q-90 -76 -160.5 -116t-146.5 -40q-182 0 -182 205q0 193 112 379q72 117 178.5 185.5t231.5 68.5q141 0 260 -65 l-127 -416q-39 -117 -39 -168q0 -82 101 -82q121 0 210 156.5t89 361.5q0 449 -498 449q-322 0 -535 -231.5t-213 -567.5q0 -489 537 -490q180 0 360 64l21 -109q-160 -72 -414 -71q-303 0 -474 148.5t-171 453.5zM598 227q0 -61 16.5 -92t67.5 -31q59 0 141 50.5t142 111.5 l118 400q-49 37 -135 36q-121 0 -235.5 -146.5t-114.5 -328.5z" />
<glyph unicode="A" horiz-adv-x="1394" d="M-31 0l13 76l86 22q43 10 61 49l621 1336h182l272 -1350q6 -27 43 -35l88 -22l-12 -76h-438l12 76l176 18l-72 383h-585l-176 -383l157 -18l-12 -76h-416zM471 598h508l-154 776z" />
<glyph unicode="B" horiz-adv-x="1320" d="M86 0l10 78l127 14q23 4 30 11.5t9 29.5l168 1213q4 23 -1 30.5t-26 9.5l-124 17l12 80h567q391 0 391 -312q0 -164 -86 -261t-213 -134l-2 -8q141 -14 219 -99t78 -216q0 -244 -155.5 -348.5t-438.5 -104.5h-565zM393 121h264q106 0 178 11t138.5 44t99.5 100.5 t33 169.5q0 127 -88 189.5t-236 62.5h-311zM489 817h216q76 0 140 14.5t126.5 50.5t98.5 105.5t36 167.5q0 115 -70.5 162t-226.5 47h-246z" />
<glyph unicode="C" horiz-adv-x="1349" d="M133 610q0 401 217 650t613 249q276 0 421 -108l-41 -299l-102 6l-8 192q0 29 -21 37q-127 51 -268 52q-297 0 -482.5 -204t-185.5 -560q0 -260 117 -395.5t350 -135.5q201 0 320 51q20 8 29 35l59 182h94l-39 -280q-166 -106 -489 -107q-299 0 -441.5 171t-142.5 464z " />
<glyph unicode="D" horiz-adv-x="1550" d="M86 0l12 82l127 14q18 2 25.5 9.5t9.5 27.5l170 1215q4 23 -1 30.5t-26 10.5l-124 14l12 80h579q319 0 476 -161t157 -443q0 -401 -217 -640t-647 -239h-553zM395 117h262q338 0 520.5 197.5t182.5 557.5q0 268 -136.5 382t-392.5 114h-264z" />
<glyph unicode="E" horiz-adv-x="1257" d="M88 0l8 80l129 14q20 2 26.5 10.5t10.5 30.5l168 1211q4 25 -1 31.5t-26 8.5l-122 15l10 82h983l-43 -307l-92 6l-6 159q-2 27 -31 27h-535l-75 -561h561l-17 -115h-561l-80 -577h578q29 0 35 22l57 178h92l-43 -315h-1026z" />
<glyph unicode="F" horiz-adv-x="1206" d="M90 0l10 80l127 14q20 2 26.5 10.5t10.5 30.5l166 1211q4 25 -1 31.5t-26 8.5l-122 15l12 82h975l-43 -307l-92 6l-7 159q-2 27 -30 27h-527l-75 -555h553l-17 -115h-553l-78 -561q-4 -25 1.5 -32t25.5 -9l293 -16l-10 -80h-619z" />
<glyph unicode="G" horiz-adv-x="1462" d="M131 616q0 256 92 456t282.5 318.5t452.5 118.5q283 0 426 -108l-38 -299l-103 6l-8 192q0 29 -21 37q-129 51 -284 52q-295 0 -476.5 -202t-181.5 -552q0 -268 132.5 -403.5t386.5 -135.5q186 0 319 37q29 8 33 35l53 399h-293l37 113h522l-14 -92l-84 -8 q-35 -2 -37 -29l-67 -498q-172 -78 -480 -78q-334 0 -491.5 173t-157.5 468z" />
<glyph unicode="H" horiz-adv-x="1613" d="M86 0l10 80l129 14q20 2 26.5 10.5t10.5 30.5l170 1213q4 25 -1 31.5t-25 9.5l-123 14l10 80h459l-11 -80l-137 -17q-23 -4 -29 -10t-8 -28l-71 -525h745l74 525q4 25 -1 31.5t-24 9.5l-125 14l9 80h458l-8 -80l-135 -17q-23 -2 -29 -9t-10 -29l-168 -1211q-4 -25 0 -32 t25 -9l133 -16l-13 -80h-458l12 80l127 14q20 2 26.5 10.5t10.5 30.5l80 574h-746l-82 -572q-4 -25 1 -32t26 -9l133 -16l-12 -80h-459z" />
<glyph unicode="I" horiz-adv-x="731" d="M68 0l8 80l149 14q20 2 26.5 9.5t10.5 31.5l170 1213q4 25 -1 31.5t-25 9.5l-144 14l8 80h500l-8 -80l-158 -17q-23 -4 -29 -10t-8 -28l-170 -1211q-4 -25 0 -32t27 -9l151 -16l-8 -80h-499z" />
<glyph unicode="J" horiz-adv-x="978" d="M51 45l33 250l94 -6v-148q0 -20 21 -28q53 -27 166 -27q104 0 149 52t61 167l146 1045q4 23 -1 29.5t-26 9.5l-166 14l11 80h501l-10 -80l-137 -17q-20 -2 -26.5 -8t-10.5 -28l-149 -1061q-23 -164 -104 -239t-251 -75q-102 0 -186 22.5t-115 47.5z" />
<glyph unicode="K" horiz-adv-x="1429" d="M92 0l10 80l123 14q14 2 20.5 5t10.5 11.5t6 26.5l170 1211q4 25 -1 31.5t-25 9.5l-123 14l12 80h459l-13 -80l-137 -17q-20 -2 -26.5 -9t-10.5 -29l-90 -621l680 657l-115 17l13 82h422l-13 -80l-110 -21q-39 -6 -66 -32l-530 -512l434 -705q16 -25 53 -33l119 -20 l-12 -80h-244l-8 8l-129 225l-318 506l-194 -184l-62 -418q-4 -25 1 -32t26 -9l139 -16l-12 -80h-459z" />
<glyph unicode="L" horiz-adv-x="1222" d="M90 0l10 80l125 14q20 2 26.5 10.5t10.5 30.5l170 1211q4 25 -1 31.5t-25 8.5l-123 15l10 82h491l-10 -82l-170 -17q-20 -2 -26.5 -9t-10.5 -29l-174 -1231h582q29 0 35 22l57 178h92l-43 -315h-1026z" />
<glyph unicode="M" horiz-adv-x="1873" d="M90 0l8 80l129 14q20 2 26.5 10.5t10.5 32.5l168 1209q4 25 -1 31.5t-25 8.5l-123 15l10 82h325l338 -975l605 975h333l-10 -80l-137 -17q-20 -2 -27.5 -11t-11.5 -38l-168 -1202q-2 -20 3 -27.5t26 -11.5l133 -16l-10 -80h-500l8 80l174 14q18 2 24.5 10.5t10.5 30.5 l156 1118l-561 -882h-130l-319 891l-160 -1125q-4 -25 1 -32t26 -9l176 -16l-8 -80h-500z" />
<glyph unicode="N" horiz-adv-x="1671" d="M90 0l6 80l129 14q20 2 26.5 10.5t10.5 30.5l170 1211q4 25 -1 31.5t-25 8.5l-123 15l10 82h348l576 -1313l159 1178q4 25 -1 31.5t-25 9.5l-125 14l10 80h459l-11 -80l-137 -17q-23 -2 -29 -9t-10 -29l-186 -1348h-168l-590 1323l-166 -1186q-4 -25 1 -32t26 -9l133 -16 l-8 -80h-459z" />
<glyph unicode="O" horiz-adv-x="1536" d="M127 592q0 410 210 663.5t591 253.5q283 0 425 -164.5t142 -433.5q0 -436 -211 -686t-575 -250q-291 0 -436.5 168t-145.5 449zM270 610q0 -121 29 -219q88 -295 426 -295q274 0 451.5 207t177.5 584q0 117 -29 213q-86 289 -414 289q-279 0 -460 -205t-181 -574z" />
<glyph unicode="P" horiz-adv-x="1312" d="M86 0l10 80l129 14q23 4 30 11.5t9 29.5l168 1213q4 23 -2 30.5t-27 10.5l-122 14l10 80h588q227 0 331.5 -101.5t104.5 -269.5q0 -547 -621 -547h-239l-60 -428q-2 -25 2 -32t25 -9l285 -16l-11 -80h-610zM471 682h225q109 0 188 16.5t148.5 60.5t105.5 130t36 213 q0 135 -84 200.5t-261 65.5h-264z" />
<glyph unicode="Q" horiz-adv-x="1536" d="M127 592q0 410 210 663.5t591 253.5q283 0 425 -164.5t142 -433.5q0 -418 -188.5 -660.5t-536.5 -256.5v-4q131 -74 228.5 -110t211.5 -36q61 0 119 9l-8 -121q-63 -6 -117 -6q-125 0 -230.5 31.5t-161.5 69.5t-120.5 69.5t-120.5 31.5q-84 0 -198 -65l-54 92 q70 43 148 63v5q-340 135 -340 569zM270 610q0 -121 29 -219q88 -295 422 -295q274 0 453.5 207t179.5 584q0 117 -29 213q-86 289 -414 289q-279 0 -460 -205t-181 -574z" />
<glyph unicode="R" horiz-adv-x="1341" d="M90 0l10 80l125 14q23 2 28 9.5t9 33.5l170 1209q4 25 -1 31.5t-25 8.5l-123 15l10 82h577q408 0 408 -355q0 -328 -352 -446q43 -25 62.5 -64.5t37.5 -117.5l92 -361q6 -23 17.5 -29t38.5 -10l120 -20l-12 -80h-262l-10 10l-144 537q-25 96 -118 96h-279l-74 -506 q-4 -25 1 -32t26 -9l139 -16l-12 -80h-459zM485 764h215q195 0 315 88t120 266q0 143 -91.5 194.5t-298.5 51.5h-178z" />
<glyph unicode="S" horiz-adv-x="1150" d="M66 51l40 309h99l12 -186q2 -25 27 -37q82 -41 252 -41q190 0 294.5 81t104.5 243q0 63 -19.5 108t-63.5 78t-82 50.5t-103 41.5q-176 63 -232 101q-143 92 -143 276q0 213 154.5 323.5t386.5 110.5q186 0 358 -67l-47 -328l-100 10l-9 191q0 29 -22 39q-55 30 -186 30 h-9q-168 0 -273.5 -70.5t-105.5 -221.5q0 -59 19.5 -102.5t64.5 -75t85 -50t114 -45.5q72 -27 106.5 -41t92 -48t86 -68.5t52 -93t23.5 -130.5q0 -240 -156.5 -351.5t-410.5 -111.5q-125 0 -244.5 24.5t-164.5 51.5z" />
<glyph unicode="T" horiz-adv-x="1267" d="M160 1167l41 316h1169l-43 -316h-92l-8 179q-2 23 -29 22h-362l-172 -1231q-4 -23 0 -30t26 -9l223 -16l-12 -82h-625l13 82l203 14q20 2 26 10.5t10 30.5l172 1231h-358q-29 0 -35 -22l-55 -179h-92z" />
<glyph unicode="U" horiz-adv-x="1572" d="M252 1403l12 80h459l-12 -80l-136 -17q-23 -2 -28.5 -9t-9.5 -29l-117 -856q-8 -51 -8 -109q0 -158 84 -222.5t249 -64.5q193 0 295.5 88t133.5 303l116 861q2 25 -2 31.5t-24 9.5l-125 14l12 80h459l-13 -80l-135 -17q-23 -2 -30 -9t-9 -29l-118 -871 q-35 -262 -175.5 -382t-402.5 -120q-231 0 -339.5 98.5t-108.5 293.5q0 61 8 116l114 865q4 25 -1 31.5t-23 9.5z" />
<glyph unicode="V" horiz-adv-x="1355" d="M150 1403l14 80h432l-10 -80l-170 -19l233 -1267l563 1267l-159 19l14 80h422l-12 -80l-86 -23q-45 -12 -66 -57l-596 -1323h-184l-264 1346q-4 25 -43 34z" />
<glyph unicode="W" horiz-adv-x="1918" d="M139 1403l17 80h471l-13 -80l-184 -21l133 -1212l426 1004h164l152 -1029l464 1237l-178 21l13 80h460l-12 -80l-110 -19q-33 -6 -52 -49l-514 -1335h-176l-149 1010l-435 -1010h-159l-162 1343q-2 33 -33 39z" />
<glyph unicode="X" horiz-adv-x="1343" d="M-16 0l8 76l100 22q33 8 58 39l473 631l-287 578q-12 27 -43 34l-82 23l12 80h402l-13 -80l-149 -19l254 -526l401 526l-141 19l14 80h400l-13 -80l-86 -23q-35 -8 -57 -39l-447 -581l326 -623q12 -27 43 -35l100 -22l-12 -80h-426l12 80l152 18l-287 559l-424 -559 l142 -18l-13 -80h-417z" />
<glyph unicode="Y" horiz-adv-x="1196" d="M139 1403l13 80h409l-12 -80l-150 -19l252 -673l428 673l-145 19l12 80h402l-13 -80l-86 -23q-35 -10 -57 -43l-487 -749l-60 -451q-4 -27 0 -33t27 -8l190 -16l-10 -80h-580l11 80l190 14q18 2 24.5 10.5t10.5 32.5l61 445l-299 764q-14 25 -43 34z" />
<glyph unicode="Z" horiz-adv-x="1269" d="M49 0l12 94l1035 1274h-664q-29 0 -35 -22l-63 -191l-101 -6l48 334h1007l-12 -99l-1036 -1269h723q31 0 36 22l68 219h98l-47 -356h-1069z" />
<glyph unicode="[" horiz-adv-x="520" d="M96 -293l250 1776h297l-10 -80l-139 -17q-23 -2 -29 -9t-10 -29l-211 -1502q-4 -25 0 -32t26 -9l136 -16l-13 -82h-297z" />
<glyph unicode="\" horiz-adv-x="722" d="M203 1497h123l323 -1685h-125z" />
<glyph unicode="]" horiz-adv-x="497" d="M-74 -293l11 80l139 16q23 4 29 10.5t10 28.5l211 1501q4 25 0 32t-27 9l-135 17l12 82h297l-250 -1776h-297z" />
<glyph unicode="^" horiz-adv-x="1077" d="M82 612l508 748h141l305 -748h-131l-258 621l-424 -621h-141z" />
<glyph unicode="_" horiz-adv-x="1024" d="M-51 -371l14 107h1022l-14 -107h-1022z" />
<glyph unicode="`" horiz-adv-x="1024" d="M502 1450l121 109l272 -328l-76 -66z" />
<glyph unicode="a" d="M92 358q0 127 27.5 247t84 226.5t160 171t240.5 64.5q160 0 295 -115l31 95h135q-41 -160 -53 -244l-94 -668q-4 -25 1 -32t27 -9l103 -14l-13 -80h-262l27 193l-6 2q-102 -104 -195.5 -162t-202.5 -58q-147 0 -226 95t-79 288zM225 373q0 -276 201 -277q94 0 188.5 74 t200.5 192l66 461q-49 49 -128 87t-161 38q-98 0 -173 -55t-115 -144.5t-59.5 -184.5t-19.5 -191z" />
<glyph unicode="b" horiz-adv-x="1171" d="M123 0q45 168 61 291l158 1108q6 35 -20 43l-113 28l10 76h277l-99 -698q119 102 218.5 160.5t199.5 58.5q131 0 208 -96t77 -299q0 -119 -28 -234.5t-83 -222t-156.5 -173.5t-234.5 -67q-180 0 -311 138l-4 -2l-25 -111h-135zM311 246q127 -156 283 -156q96 0 171 54.5 t116 142.5t61.5 182t20.5 188q0 158 -47.5 220.5t-131.5 62.5q-156 0 -409 -254z" />
<glyph unicode="c" horiz-adv-x="987" d="M92 395q0 340 170 506t428 166q152 0 277 -55l-35 -252l-98 6l-7 135q0 20 -22 29q-51 18 -143 18q-180 0 -305.5 -131t-125.5 -401q0 -162 73 -244t208 -82q164 0 293 76l37 -111q-129 -80 -338 -80q-211 0 -311.5 110.5t-100.5 309.5z" />
<glyph unicode="d" horiz-adv-x="1175" d="M92 358q0 123 25.5 240t81 226.5t159 176t240.5 66.5q168 0 303 -115l60 451q4 35 -21 41l-113 26l11 76h278l-198 -1411q-4 -25 1 -32t27 -9l103 -14l-11 -80h-264l27 188l-6 5q-66 -66 -115 -106t-126 -76t-153 -36q-147 0 -228 95t-81 288zM225 367q0 -270 199 -271 q68 0 146.5 47t128 95.5t118.5 126.5l66 456q-47 51 -127 89t-164 38q-100 0 -175 -56t-115 -147.5t-58.5 -185.5t-18.5 -192z" />
<glyph unicode="e" horiz-adv-x="962" d="M92 391q0 272 157 474t402 202q143 0 207 -65.5t64 -170.5q0 -76 -35 -138t-102.5 -104t-130 -71t-159 -48t-142.5 -27.5t-124 -18.5q0 -168 57.5 -249t217.5 -81q141 0 293 76l30 -115q-152 -80 -348 -80q-387 0 -387 416zM244 539q59 6 95 12t111.5 20.5t125 34 t102.5 49t80.5 71.5t27.5 95q0 125 -149.5 125t-253.5 -118.5t-139 -288.5z" />
<glyph unicode="f" horiz-adv-x="761" d="M98 -434l193 1345q4 20 -15 21h-147l16 115h164l29 208q45 313 334 314q182 0 284 -96l-65 -99q-109 78 -217 78q-96 0 -144.5 -56.5t-62.5 -172.5l-21 -156q-2 -20 15 -20h334l-17 -115h-350l-195 -1366h-135z" />
<glyph unicode="g" horiz-adv-x="1144" d="M86 -377l55 113q35 -25 122 -51.5t186 -26.5q268 0 309 266l41 273q-63 -63 -112.5 -104.5t-129.5 -79.5t-156 -38q-147 0 -228 95.5t-81 287.5q0 123 25.5 240t81 226.5t159 176t240.5 66.5q168 0 303 -115l31 95h135q-43 -160 -57 -267l-117 -864 q-27 -186 -137.5 -279.5t-290.5 -93.5q-238 0 -379 80zM225 367q0 -270 199 -271q68 0 146.5 47t128 95.5t118.5 126.5l66 456q-47 51 -127 89t-164 38q-100 0 -175 -56t-115 -147.5t-58.5 -185.5t-18.5 -192z" />
<glyph unicode="h" horiz-adv-x="1263" d="M31 0l12 82l102 14q25 2 32 9.5t9 31.5l176 1262q6 37 -18 43l-115 28l11 76h278l-102 -712q145 121 242.5 177t205.5 56q233 0 234 -244q0 -59 -11 -127l-79 -559q-4 -25 1 -32t27 -9l119 -16l-12 -80h-295l-4 6l39 205l63 444q12 80 12 150q0 135 -120 135 q-94 0 -197.5 -65.5t-245.5 -194.5l-73 -543q-4 -25 1 -32t27 -9l137 -16l-12 -80h-444z" />
<glyph unicode="i" horiz-adv-x="585" d="M154 8l41 217l96 676q6 35 -23 43l-110 27l10 76h278l-129 -910q-4 -25 1.5 -32t27.5 -9l131 -16l-12 -80h-307zM281 1391q0 55 34.5 91t94.5 36q45 0 70.5 -25t25.5 -66q0 -53 -35 -90t-92 -37q-45 0 -71.5 25t-26.5 66z" />
<glyph unicode="j" horiz-adv-x="561" d="M-276 -373l65 97q27 -23 78 -43.5t98 -20.5q88 0 125 53.5t53 173.5l144 1012q6 37 -19 43l-123 29l13 76h284l-166 -1190q-23 -164 -94 -239t-211 -75q-78 0 -148 27.5t-99 56.5zM283 1391q0 55 34.5 91t94.5 36q45 0 70.5 -25t25.5 -66q0 -53 -35 -90t-92 -37 q-45 0 -71.5 25t-26.5 66z" />
<glyph unicode="k" d="M31 0l12 82l104 14q20 2 26.5 10.5t10.5 30.5l178 1264q6 33 -20 41l-113 28l11 76h278l-145 -1018l458 445q98 94 216 94q35 0 77 -6l-12 -100h-12q-56 0 -100 -18q-48 -19 -113 -83l-197 -190l219 -533q8 -18 13.5 -23t23.5 -8l139 -26l-12 -80h-252l-6 6l-74 197 l-157 366l-236 -223l-29 -209q-4 -25 0.5 -32t26.5 -9l141 -16l-12 -80h-444z" />
<glyph unicode="l" horiz-adv-x="581" d="M143 8l41 217l166 1176q6 35 -22 43l-111 26l10 76h279l-199 -1409q-4 -25 1 -32t28 -9l131 -16l-12 -80h-308z" />
<glyph unicode="m" horiz-adv-x="1845" d="M35 0l12 82l103 14q23 4 29.5 11.5t8.5 29.5l105 760q6 33 -19 43l-112 31l10 76h272l-30 -213q150 127 240.5 180t189.5 53q102 0 155.5 -46t53.5 -155q0 -10 -1 -23.5t-1 -15.5q78 72 128 114t133 84t154 42q119 0 168 -54.5t49 -158.5q0 -55 -14 -152l-80 -565 q-4 -25 1 -32t28 -9l121 -16l-13 -80h-294l-5 6l37 203l64 446q18 129 18 172q0 59 -22.5 86t-83.5 27q-72 0 -157 -58.5t-241 -201.5l-79 -543q-4 -25 1 -32t27 -9l121 -16l-12 -80h-295l-4 6l41 223l61 426q16 102 17 168q0 63 -24 90t-83 27q-84 0 -185.5 -68.5 t-232.5 -191.5l-73 -543q-4 -25 1 -32t27 -9l137 -16l-12 -80h-440z" />
<glyph unicode="n" horiz-adv-x="1267" d="M35 0l12 82l103 14q23 4 29.5 11.5t8.5 29.5l105 760q6 37 -19 43l-112 31l10 76h272l-30 -213q90 76 143 114.5t139 78.5t164 40q127 0 184.5 -61.5t57.5 -184.5q0 -59 -10 -125l-80 -559q-4 -25 1 -32t27 -9l119 -16l-12 -80h-297l-4 6l39 221l61 428q12 80 12 140 q0 80 -26.5 112.5t-97.5 32.5q-152 0 -437 -260l-73 -543q-4 -25 1 -32t27 -9l137 -16l-12 -80h-442z" />
<glyph unicode="o" horiz-adv-x="1130" d="M92 397q0 299 147.5 484.5t419.5 185.5q205 0 302.5 -115.5t97.5 -308.5q0 -311 -147.5 -489.5t-409.5 -178.5q-207 0 -308.5 112.5t-101.5 309.5zM229 410q0 -156 73 -239t214 -83q186 0 295 144.5t109 412.5q0 301 -277 301q-190 0 -302 -139t-112 -397z" />
<glyph unicode="p" horiz-adv-x="1181" d="M88 -426l57 348l134 975q6 37 -19 43l-113 31l11 76h276l-28 -201q74 63 127 103t136 79t156 39q131 0 208 -96.5t77 -298.5q0 -123 -27.5 -241t-85 -222.5t-158 -169t-229.5 -64.5q-174 0 -307 134l-51 -398q-4 -27 0 -33t24 -8l181 -14l-13 -90h-348zM324 246 q127 -156 280 -156q96 0 171 54.5t116 142.5t61.5 182t20.5 188q0 158 -47 220.5t-131 62.5q-156 0 -410 -254z" />
<glyph unicode="q" horiz-adv-x="1144" d="M92 358q0 127 27.5 247t83 226.5t158 171t237.5 64.5q168 0 303 -115l31 95h135q-43 -160 -57 -267l-146 -1069q-4 -25 1 -32t26 -9l102 -12l-12 -92h-444l12 90l143 14q20 2 26.5 9.5t10.5 31.5l70 486q-221 -221 -398 -222q-162 0 -235.5 103.5t-73.5 279.5zM225 367 q0 -270 199 -271q68 0 146.5 47t128 95.5t118.5 126.5l66 456q-47 51 -127 89t-164 38q-100 0 -175 -56t-115 -147.5t-58.5 -185.5t-18.5 -192z" />
<glyph unicode="r" horiz-adv-x="868" d="M35 0l12 82l107 12q29 2 34 41l105 762q6 37 -19 43l-112 31l10 76h264l-26 -216q178 236 348 236q57 0 121 -18l-39 -285l-101 6l-6 154q0 8 -1 11t-5 5t-14 2q-88 0 -316 -264l-73 -543q-4 -25 1 -32t27 -9l178 -14l-12 -80h-483z" />
<glyph unicode="s" horiz-adv-x="901" d="M43 41l37 252l96 -6l6 -142q0 -20 27 -30q80 -31 194 -31q111 0 178.5 51t67.5 144q0 43 -16.5 75.5t-53 57t-66.5 39t-85 36.5q-14 6 -20 9q-55 23 -90 41t-74 48.5t-58.5 73.5t-19.5 101q0 154 112.5 230.5t286.5 76.5q176 0 295 -53l-35 -252l-96 6l-6 137 q0 27 -23 35q-47 18 -153 18q-104 0 -175 -45t-71 -131q0 -68 47 -107.5t139 -78.5q156 -66 207 -107q92 -76 92 -198q0 -158 -109.5 -237t-275.5 -79q-123 0 -222 23t-136 43z" />
<glyph unicode="t" horiz-adv-x="800" d="M129 932l14 94q104 16 156.5 72.5t89.5 201.5h92l-32 -233q-2 -12 0 -16t12 -4h299l-17 -115h-315l-88 -651q-6 -43 -6 -76q0 -59 28.5 -85t98.5 -26q82 0 201 45l30 -106q-125 -57 -266 -58q-233 0 -233 199q0 18 4 55l94 682q4 20 -12 21h-150z" />
<glyph unicode="u" horiz-adv-x="1261" d="M150 967l12 80h274l4 -7l-92 -653q-12 -80 -12 -139q0 -76 28.5 -111t100.5 -35q68 0 164 55.5t144 96.5l126 113l74 542q4 25 -1 32t-28 9l-127 17l12 80h295l4 -7l-127 -907q-6 -35 19 -37l117 -18l-11 -78h-274l33 213q-133 -115 -237.5 -176.5t-209.5 -61.5 q-119 0 -180 57.5t-61 188.5q0 59 10 125l80 563q4 25 -1 32t-28 9z" />
<glyph unicode="v" horiz-adv-x="1071" d="M72 967l12 80h231l9 -11l28 -198l135 -709l402 817l-131 23l10 78h301l8 -15l-526 -1032h-162l-196 913q-4 29 -35 35z" />
<glyph unicode="w" horiz-adv-x="1626" d="M72 967l12 80h227l8 -11l17 -168l98 -727l379 906h160l123 -920l360 821l-131 19l12 80h285l8 -11l-473 -1036h-168l-121 872l-370 -872h-164l-141 913q-4 29 -31 35z" />
<glyph unicode="x" horiz-adv-x="1122" d="M-25 0l11 80l114 22q27 4 50 33l342 410l-193 375q-14 31 -43 34l-80 11l12 82h201l8 -9l72 -161l123 -238l268 311l-119 17l13 80h374l-12 -80l-84 -21q-29 -6 -55 -39l-322 -366l211 -402q16 -31 47 -37l129 -22l-12 -80h-242l-12 12l-69 146l-152 284l-283 -344 l136 -18l-9 -80h-424z" />
<glyph unicode="y" horiz-adv-x="1036" d="M-176 -373l65 97q27 -23 78 -43.5t99 -20.5q84 0 131 47t112 172l86 162l-209 874q-6 27 -34 35l-84 21l16 76h227l6 -9l45 -256l125 -571l361 737l-127 23l8 76h303l10 -15l-604 -1186q-86 -168 -160.5 -235.5t-205.5 -67.5q-78 0 -148.5 27.5t-99.5 56.5z" />
<glyph unicode="z" horiz-adv-x="1005" d="M41 0l10 86l737 846h-444q-18 0 -25 -27l-43 -135l-100 -6l37 283h772l-12 -91l-733 -841h475q18 0 24 26l47 156l101 6l-41 -303h-805z" />
<glyph unicode="{" horiz-adv-x="552" d="M43 539l16 104q133 4 185 94q14 25 22 56.5t13.5 99.5t7.5 109l8 163q6 170 73.5 236.5t272.5 87.5l6 -107q-143 -20 -179 -63t-42 -160q-8 -238 -20 -328q-16 -113 -62.5 -164t-116.5 -77q53 -23 84 -60.5t31 -117.5q0 -68 -41 -244q-47 -199 -47 -252q0 -51 35 -71.5 t135 -43.5l-35 -100q-143 16 -207.5 59t-64.5 138q0 25 6 61.5t12 66t18 79.5l17 77q2 10 14.5 61.5t17.5 84t5 67.5q0 82 -41 111t-123 33z" />
<glyph unicode="|" horiz-adv-x="573" d="M141 -293l250 1776h123l-250 -1776h-123z" />
<glyph unicode="}" horiz-adv-x="581" d="M-39 -193q143 20 179 63.5t42 160.5q8 238 21 327q16 113 62 164t116 78q-53 23 -84 61.5t-31 116.5q0 68 41 244q47 199 47 252q0 51 -34.5 71.5t-135.5 43.5l35 100q143 -16 208 -59.5t65 -137.5q0 -25 -6.5 -61.5t-12.5 -66t-17 -80.5l-18 -76q-2 -10 -14 -61.5 t-17.5 -84.5t-5.5 -67q0 -82 41 -111t123 -33l-16 -104q-133 -4 -184 -94q-14 -25 -22.5 -56.5t-13.5 -99.5t-7 -110l-9 -162q-6 -170 -73.5 -237t-272.5 -87z" />
<glyph unicode="~" horiz-adv-x="952" d="M82 627q59 98 115.5 146t138.5 48t231.5 -47t212.5 -47q47 0 73 25.5t56 89.5l86 -29q-39 -100 -86 -152.5t-133 -52.5q-78 0 -236.5 47t-215.5 47q-47 0 -80 -25.5t-82 -86.5z" />
<glyph unicode="&#xa1;" horiz-adv-x="524" d="M111 -440l47 331l129 777h112l-84 -777l-47 -331h-157zM262 930q0 137 137 137q104 0 105 -96q0 -137 -137 -137q-105 0 -105 96z" />
<glyph unicode="&#xa2;" horiz-adv-x="978" d="M113 489q0 266 129 415t342 173l28 209h109l-29 -203q143 -4 269 -55l-37 -252l-93 6l-6 136q0 23 -20 28q-47 16 -129 19l-107 -781q102 4 144 19q18 6 24 26l43 138l97 6l-37 -252q-119 -53 -287 -55l-27 -203h-110l28 209q-331 44 -331 417zM256 506q0 -272 205 -313 l104 763q-143 -27 -226 -139t-83 -311z" />
<glyph unicode="&#xa3;" horiz-adv-x="1099" d="M72 96q121 92 158.5 182.5t62.5 280.5l8 64h-170l16 114h168l15 105q33 242 132 360.5t314 118.5q104 0 190.5 -32t120.5 -64l-65 -99q-109 78 -242 78q-139 0 -211.5 -70.5t-91.5 -218.5l-24 -178h391l-17 -114h-391q-4 -25 -12 -83.5t-11 -78t-12.5 -64.5t-17.5 -64 l-23 -54q-14 -35 -30.5 -57.5t-41 -51.5t-55.5 -55h572q31 0 37 22l55 178h100l-41 -315h-872z" />
<glyph unicode="&#xa4;" d="M12 115l195 194q-68 109 -68 269q0 137 72 251l-193 191l103 100l184 -184q119 96 291 96q176 0 289 -90l176 176l94 -96l-182 -184q66 -109 65 -252q0 -156 -80 -277l195 -192l-102 -99l-191 187q-113 -84 -278 -84q-176 0 -287 88l-189 -191zM295 578q0 -150 73.5 -242 t223.5 -92q139 0 215 94t76 240q0 156 -76 241.5t-221 85.5q-139 0 -215 -90t-76 -237z" />
<glyph unicode="&#xa5;" horiz-adv-x="1003" d="M68 1204l12 78h412l-11 -78l-157 -18l219 -459l342 459l-129 18l10 78h379l-10 -78l-86 -22q-20 -6 -45 -35l-330 -430h211l-17 -115h-272l-16 -121h272l-16 -114h-271l-30 -220q-4 -27 0 -32.5t26 -8.5l193 -16l-13 -90h-579l12 90l188 14q33 2 37 43l31 220h-270 l16 114h270l17 121h-270l16 115h205l-215 430q-14 27 -43 35z" />
<glyph unicode="&#xa6;" horiz-adv-x="573" d="M141 -293l113 795h123l-113 -795h-123zM295 797l96 686h123l-96 -686h-123z" />
<glyph unicode="&#xa7;" horiz-adv-x="1105" d="M72 -217l32 246l105 -6l4 -134q0 -20 18 -28q86 -37 201 -37q119 0 184.5 50t65.5 144q0 80 -56.5 119t-168.5 72q-70 20 -110 35.5t-90 46.5t-74.5 78t-24.5 110q0 66 34.5 127.5t67.5 93t96 86.5q-80 68 -80 185q0 152 121 231.5t297 79.5q170 0 295 -55l-35 -252 l-102 6l-6 137q0 23 -21 31q-51 18 -163 18q-129 0 -189.5 -50t-60.5 -128q0 -43 16 -74.5t55 -54t69 -34t89 -29.5q76 -23 110.5 -36t89 -44t78 -77t23.5 -110q0 -94 -52 -164.5t-149 -146.5q82 -82 82 -188q0 -166 -116.5 -244t-290.5 -78q-100 0 -206.5 27t-137.5 47z M295 498q0 -61 38 -95t120 -61q152 -51 188 -66q162 123 162 234q0 63 -39 96t-117 60q-33 10 -104 30l-92 27q-63 -39 -109.5 -102.5t-46.5 -122.5z" />
<glyph unicode="&#xa8;" horiz-adv-x="1024" d="M391 1331q0 51 33 84t86 33q90 0 90 -84q0 -49 -31.5 -83t-85.5 -34q-43 0 -67.5 22.5t-24.5 61.5zM799 1331q0 51 32.5 84t86.5 33q90 0 90 -84q0 -49 -32 -83t-85 -34q-43 0 -67.5 22.5t-24.5 61.5z" />
<glyph unicode="&#xa9;" horiz-adv-x="1554" d="M115 625q0 309 194.5 492t485.5 183q311 0 492 -175t181 -472q0 -303 -188 -490.5t-489 -187.5q-326 0 -501 181.5t-175 468.5zM219 627q0 -262 153.5 -413t422.5 -151q266 0 419.5 155t153.5 423q0 272 -157.5 421.5t-415.5 149.5q-254 0 -415 -156.5t-161 -428.5z M430 645q0 180 101.5 288.5t289.5 108.5q121 0 230 -41v-210l-80 6l-21 110q-2 12 -18 19q-55 23 -129 22q-109 0 -178.5 -74.5t-69.5 -232.5q0 -135 64.5 -219t197.5 -84q70 0 115 22q12 6 18 25l29 111h70v-201q-82 -49 -234 -49q-199 0 -292 107.5t-93 291.5z" />
<glyph unicode="&#xaa;" horiz-adv-x="782" d="M121 809q0 178 83 315.5t255 137.5q106 0 192 -74l23 61h110q-31 -133 -34 -159l-60 -416q-2 -14 0 -18.5t19 -6.5l65 -10l-10 -64h-195l17 117l-4 2q-139 -135 -258 -135q-203 0 -203 250zM240 821q0 -160 112 -159q94 0 242 151l41 281q-72 72 -172 71 q-80 0 -133.5 -60.5t-71.5 -133t-18 -150.5z" />
<glyph unicode="&#xab;" horiz-adv-x="868" d="M139 532l226 304h139l-195 -285q-12 -14 -12 -25q0 -2 4 -14l109 -301h-136zM438 532l226 304h139l-195 -285q-12 -14 -12 -25q0 -2 4 -14l109 -301h-136z" />
<glyph unicode="&#xac;" d="M213 600l18 135h764l-47 -327h-141l29 192h-623z" />
<glyph unicode="&#xad;" horiz-adv-x="636" d="M47 522l23 152h555l-23 -152h-555z" />
<glyph unicode="&#xae;" horiz-adv-x="915" d="M166 969q0 170 107.5 273.5t269.5 103.5q172 0 273.5 -98.5t101.5 -264.5q0 -168 -104.5 -271.5t-272.5 -103.5q-180 0 -277.5 100.5t-97.5 260.5zM248 971q0 -135 79 -212t216 -77t216 79t79 216q0 141 -82 218t-213 77q-129 0 -212 -81t-83 -220zM377 786v39l33 6 q10 2 10 13v278q0 10 -10 13l-33 4v39h178q131 0 131 -111q0 -80 -78 -109q14 -4 35 -36l43 -78q4 -10 16 -13l37 -6v-39h-159v39l36 4l-53 93q-12 20 -37 20h-32v-100q0 -10 12 -13l31 -4v-39h-160zM494 999h26q90 0 90 66q0 55 -75 55h-41v-121z" />
<glyph unicode="&#xaf;" horiz-adv-x="1024" d="M377 1262l16 116h621l-17 -116h-620z" />
<glyph unicode="&#xb0;" horiz-adv-x="587" d="M223 1327q0 115 67.5 176.5t170.5 61.5q82 0 131 -44t49 -126q0 -106 -65.5 -171t-172.5 -65q-84 0 -132 44t-48 124zM326 1337q0 -90 92 -90q59 0 91 37t32 100q0 92 -92 93q-57 0 -90 -37t-33 -103z" />
<glyph unicode="&#xb1;" d="M123 0l18 135h764l-18 -135h-764zM205 590l18 135h312l45 315h141l-45 -315h311l-18 -135h-312l-45 -322h-141l45 322h-311z" />
<glyph unicode="&#xb2;" horiz-adv-x="679" d="M76 717l12 84l299 311l39 40l38 39q11 11 32.5 34.5t31 35t24.5 32t21.5 33.5t13.5 31.5t10 35t3 34.5q0 104 -133 105q-88 0 -131 -27.5t-55 -107.5l-121 14q14 90 65 141.5t111.5 65.5t146.5 14q250 0 250 -194q0 -63 -39 -133t-72.5 -108t-107.5 -114l-266 -272h303 q18 0 22 14l37 111h95l-31 -219h-598z" />
<glyph unicode="&#xb3;" horiz-adv-x="690" d="M68 819l86 84q80 -94 211 -94q82 0 139 47t57 143q0 139 -158 140q-47 0 -98 -9l12 101l84 8q203 20 203 182q0 111 -127 111q-76 0 -113.5 -27.5t-50.5 -107.5l-125 14q18 129 99.5 175t204.5 46q246 0 245 -194q0 -86 -50 -147.5t-134 -90.5l-2 -6q145 -37 145 -190 q0 -133 -91 -218.5t-247 -85.5q-188 0 -290 119z" />
<glyph unicode="&#xb4;" horiz-adv-x="1024" d="M467 1237l340 313l96 -114l-377 -271z" />
<glyph unicode="&#xb5;" horiz-adv-x="1288" d="M111 -360l196 1407h137l-96 -689q-8 -51 -8 -110q0 -78 37 -117t125 -39q190 0 397 211l105 744h137l-125 -904q-6 -41 20 -43l111 -14l-12 -86h-267l21 145h-8q-223 -170 -387 -170q-141 0 -201 88l-45 -423h-137z" />
<glyph unicode="&#xb6;" horiz-adv-x="1220" d="M102 629q0 322 190.5 507t524.5 185h486l-13 -90l-139 -17q-23 -2 -30 -9t-9 -29l-156 -1102q-25 -180 -136 -272.5t-290 -92.5q-227 0 -376 84l53 109q35 -25 122 -51.5t185 -26.5q272 0 309 266l156 1116h-170l-154 -1091h-80q-215 0 -344 142.5t-129 371.5z" />
<glyph unicode="&#xb7;" horiz-adv-x="360" d="M102 592q0 68 36 105.5t102 37.5q104 0 104 -92q0 -61 -36 -101t-101 -40q-105 0 -105 90z" />
<glyph unicode="&#xb8;" horiz-adv-x="1024" d="M258 -453l23 95q33 -8 79 -9q63 0 111.5 29t48.5 88q0 88 -137 88l63 223l105 -16l-39 -135q127 -33 127 -150q0 -109 -79 -168t-191 -59q-68 0 -111 14z" />
<glyph unicode="&#xb9;" horiz-adv-x="501" d="M80 717l10 74l125 8q23 2 25 26l96 660q4 25 -14 28l-125 23l16 76h270l-112 -787q-4 -16 0 -20t18 -6l121 -8l-10 -74h-420z" />
<glyph unicode="&#xba;" horiz-adv-x="753" d="M121 836q0 190 99 308t284 118q139 0 205.5 -75t66.5 -200q0 -199 -98 -313.5t-281 -114.5q-139 0 -207.5 74t-68.5 203zM242 842q0 -188 170 -189q113 0 177 85t64 249q0 180 -164 180q-113 0 -180 -83.5t-67 -241.5z" />
<glyph unicode="&#xbb;" horiz-adv-x="868" d="M106 211l197 297q10 12 10 22q0 4 -4 17l-108 289h135l135 -314l-219 -311h-146zM406 211l196 297q10 12 10 22q0 4 -4 17l-108 289h135l135 -314l-219 -311h-145z" />
<glyph unicode="&#xbc;" horiz-adv-x="1751" d="M180 575l10 74l125 8q23 2 25 27l96 659q4 25 -14 29l-125 23l16 75h271l-113 -786q-4 -16 0 -20.5t18 -6.5l121 -8l-10 -74h-420zM377 -25l938 1508h129l-936 -1508h-131zM946 242l12 77l455 572h154l-80 -553h117l-15 -98h-116l-35 -240h-123l35 242h-404zM1087 338 h275l61 418z" />
<glyph unicode="&#xbd;" horiz-adv-x="1751" d="M127 575l10 74l125 8q23 2 25 27l96 659q4 25 -14 29l-125 23l16 75h270l-112 -786q-4 -16 0 -20.5t18 -6.5l121 -8l-10 -74h-420zM252 -25l938 1508h129l-936 -1508h-131zM930 0l12 84l299 311l39 40l38 39q11 11 32.5 34.5t31 35t24.5 32t21.5 34t13.5 31.5t10 34.5 t3 35.5q0 104 -133 104q-88 0 -131 -27.5t-55 -107.5l-121 14q14 90 65 141.5t111.5 65.5t146.5 14q250 0 250 -194q0 -63 -39 -133t-72.5 -108t-107.5 -113l-266 -273h303q18 0 22 15l37 110h95l-31 -219h-598z" />
<glyph unicode="&#xbe;" horiz-adv-x="1751" d="M98 678l86 84q80 -94 211 -94q82 0 139.5 47t57.5 143q0 139 -158 139q-47 0 -98 -8l12 101l84 8q203 20 203 182q0 111 -127 111q-76 0 -114 -28t-50 -108l-125 15q18 129 99 175t204 46q246 0 246 -195q0 -86 -50 -147.5t-134 -89.5l-2 -6q145 -37 145 -191 q0 -133 -91 -218t-247 -85q-189 0 -291 119zM432 -25l938 1508h129l-936 -1508h-131zM991 242l13 77l454 572h154l-80 -553h117l-15 -98h-116l-35 -240h-123l35 242h-404zM1133 338h274l61 418z" />
<glyph unicode="&#xbf;" horiz-adv-x="935" d="M45 -102q0 420 510 512l35 260h137l-49 -359q-104 -12 -186 -35.5t-155 -68.5t-112 -122t-39 -181q0 -229 267 -230q127 0 192 25q16 6 29 37l45 135l104 6l-35 -252q-164 -66 -348 -65q-395 0 -395 338zM578 930q0 137 137 137q104 0 104 -96q0 -137 -137 -137 q-104 0 -104 96z" />
<glyph unicode="&#xc0;" horiz-adv-x="1394" d="M-31 0l13 76l86 22q43 10 61 49l621 1336h182l272 -1350q6 -27 43 -35l88 -22l-12 -76h-438l12 76l176 18l-72 383h-585l-176 -383l157 -18l-12 -76h-416zM471 598h508l-154 776zM612 1784l99 129l333 -268l-59 -78z" />
<glyph unicode="&#xc1;" horiz-adv-x="1394" d="M-31 0l13 76l86 22q43 10 61 49l621 1336h182l272 -1350q6 -27 43 -35l88 -22l-12 -76h-438l12 76l176 18l-72 383h-585l-176 -383l157 -18l-12 -76h-416zM471 598h508l-154 776zM655 1647l410 268l70 -129l-435 -217z" />
<glyph unicode="&#xc2;" horiz-adv-x="1394" d="M-31 0l13 76l86 22q43 10 61 49l621 1336h182l272 -1350q6 -27 43 -35l88 -22l-12 -76h-438l12 76l176 18l-72 383h-585l-176 -383l157 -18l-12 -76h-416zM471 598h508l-154 776zM541 1638l264 203h156l210 -203l-81 -69l-220 172l-268 -172z" />
<glyph unicode="&#xc3;" horiz-adv-x="1394" d="M-31 0l13 76l86 22q43 10 61 49l621 1336h182l272 -1350q6 -27 43 -35l88 -22l-12 -76h-438l12 76l176 18l-72 383h-585l-176 -383l157 -18l-12 -76h-416zM471 598h508l-154 776zM512 1649l72 84q68 80 129 79q20 0 49 -6l280 -75q20 -6 35 6l90 80l68 -56l-57 -65 q-80 -94 -140 -94q-33 0 -59 8l-270 73q-20 6 -33 -6l-98 -84z" />
<glyph unicode="&#xc4;" horiz-adv-x="1394" d="M-31 0l13 76l86 22q43 10 61 49l621 1336h182l272 -1350q6 -27 43 -35l88 -22l-12 -76h-438l12 76l176 18l-72 383h-585l-176 -383l157 -18l-12 -76h-416zM471 598h508l-154 776zM563 1686q0 49 33 82.5t86 33.5q41 0 65.5 -22.5t24.5 -61.5q0 -49 -32.5 -82.5 t-86.5 -33.5q-41 0 -65.5 22.5t-24.5 61.5zM971 1686q0 49 32.5 82.5t86.5 33.5q41 0 65.5 -22.5t24.5 -61.5q0 -49 -33 -82.5t-86 -33.5q-41 0 -65.5 22.5t-24.5 61.5z" />
<glyph unicode="&#xc5;" horiz-adv-x="1394" d="M-31 0l13 76l86 22q43 10 61 49l614 1326q-78 35 -77 139q0 90 59 148.5t160 58.5q78 0 123 -40t45 -112q0 -143 -119 -192l270 -1342q6 -27 43 -35l88 -22l-12 -76h-438l12 76l176 18l-72 383h-585l-176 -383l157 -18l-12 -76h-416zM471 598h508l-154 776zM766 1618 q0 -78 82 -78q47 0 75.5 32t28.5 83q0 74 -82 74q-49 0 -76.5 -30t-27.5 -81z" />
<glyph unicode="&#xc6;" horiz-adv-x="2048" d="M-31 0l13 80l88 22q43 10 63 39l860 1237l-155 17l12 88h1214l-43 -307l-102 6l-6 159q-2 27 -33 27h-537l-81 -582h573l-14 -114h-574l-80 -557h582q31 0 37 22l57 178h103l-43 -315h-1049l10 80l148 16q16 2 18 23l78 553h-463l-399 -574l143 -18l-12 -80h-408z M725 786h399l82 582h-76z" />
<glyph unicode="&#xc7;" horiz-adv-x="1349" d="M133 610q0 401 217 650t613 249q276 0 421 -108l-41 -299l-102 6l-8 192q0 29 -21 37q-127 51 -268 52q-297 0 -482.5 -204t-185.5 -560q0 -260 117 -395.5t350 -135.5q201 0 320 51q20 8 29 35l59 182h94l-39 -280q-152 -100 -448 -107l-19 -67q127 -35 127 -150 q0 -88 -70.5 -156.5t-213.5 -68.5q-57 0 -99 12l25 90q31 -6 67 -6q82 0 126 34t44 87q0 86 -135 88l39 142q-264 18 -390 187t-126 443z" />
<glyph unicode="&#xc8;" horiz-adv-x="1257" d="M88 0l8 80l129 14q20 2 26.5 10.5t10.5 30.5l168 1211q4 25 -1 31.5t-26 8.5l-122 15l10 82h983l-43 -307l-92 6l-6 159q-2 27 -31 27h-535l-75 -561h561l-17 -115h-561l-80 -577h578q29 0 35 22l57 178h92l-43 -315h-1026zM588 1784l98 129l334 -268l-59 -78z" />
<glyph unicode="&#xc9;" horiz-adv-x="1257" d="M88 0l8 80l129 14q20 2 26.5 10.5t10.5 30.5l168 1211q4 25 -1 31.5t-26 8.5l-122 15l10 82h983l-43 -307l-92 6l-6 159q-2 27 -31 27h-535l-75 -561h561l-17 -115h-561l-80 -577h578q29 0 35 22l57 178h92l-43 -315h-1026zM631 1647l409 268l70 -129l-434 -217z" />
<glyph unicode="&#xca;" horiz-adv-x="1257" d="M88 0l8 80l129 14q20 2 26.5 10.5t10.5 30.5l168 1211q4 25 -1 31.5t-26 8.5l-122 15l10 82h983l-43 -307l-92 6l-6 159q-2 27 -31 27h-535l-75 -561h561l-17 -115h-561l-80 -577h578q29 0 35 22l57 178h92l-43 -315h-1026zM516 1638l264 203h156l211 -203l-82 -69 l-219 172l-268 -172z" />
<glyph unicode="&#xcb;" horiz-adv-x="1257" d="M88 0l8 80l129 14q20 2 26.5 10.5t10.5 30.5l168 1211q4 25 -1 31.5t-26 8.5l-122 15l10 82h983l-43 -307l-92 6l-6 159q-2 27 -31 27h-535l-75 -561h561l-17 -115h-561l-80 -577h578q29 0 35 22l57 178h92l-43 -315h-1026zM539 1686q0 49 32.5 82.5t85.5 33.5 q41 0 66 -22.5t25 -61.5q0 -49 -33 -82.5t-86 -33.5q-41 0 -65.5 22.5t-24.5 61.5zM946 1686q0 49 33 82.5t86 33.5q41 0 65.5 -22.5t24.5 -61.5q0 -49 -32.5 -82.5t-86.5 -33.5q-41 0 -65.5 22.5t-24.5 61.5z" />
<glyph unicode="&#xcc;" horiz-adv-x="731" d="M68 0l8 80l149 14q20 2 26.5 9.5t10.5 31.5l170 1213q4 25 -1 31.5t-25 9.5l-144 14l8 80h500l-8 -80l-158 -17q-23 -4 -29 -10t-8 -28l-170 -1211q-4 -25 0 -32t27 -9l151 -16l-8 -80h-499zM289 1784l98 129l334 -268l-59 -78z" />
<glyph unicode="&#xcd;" horiz-adv-x="731" d="M68 0l8 80l149 14q20 2 26.5 9.5t10.5 31.5l170 1213q4 25 -1 31.5t-25 9.5l-144 14l8 80h500l-8 -80l-158 -17q-23 -4 -29 -10t-8 -28l-170 -1211q-4 -25 0 -32t27 -9l151 -16l-8 -80h-499zM332 1647l409 268l70 -129l-434 -217z" />
<glyph unicode="&#xce;" horiz-adv-x="731" d="M68 0l8 80l149 14q20 2 26.5 9.5t10.5 31.5l170 1213q4 25 -1 31.5t-25 9.5l-144 14l8 80h500l-8 -80l-158 -17q-23 -4 -29 -10t-8 -28l-170 -1211q-4 -25 0 -32t27 -9l151 -16l-8 -80h-499zM217 1638l264 203h156l211 -203l-82 -69l-219 172l-268 -172z" />
<glyph unicode="&#xcf;" horiz-adv-x="731" d="M68 0l8 80l149 14q20 2 26.5 9.5t10.5 31.5l170 1213q4 25 -1 31.5t-25 9.5l-144 14l8 80h500l-8 -80l-158 -17q-23 -4 -29 -10t-8 -28l-170 -1211q-4 -25 0 -32t27 -9l151 -16l-8 -80h-499zM240 1686q0 49 32.5 82.5t85.5 33.5q41 0 66 -22.5t25 -61.5q0 -49 -33 -82.5 t-86 -33.5q-41 0 -65.5 22.5t-24.5 61.5zM647 1686q0 49 33 82.5t86 33.5q41 0 65.5 -22.5t24.5 -61.5q0 -49 -32.5 -82.5t-86.5 -33.5q-41 0 -65.5 22.5t-24.5 61.5z" />
<glyph unicode="&#xd0;" horiz-adv-x="1560" d="M96 0l13 82l127 14q18 2 25 9.5t9 27.5l80 567h-205l15 115h207l73 533q4 23 -1 30.5t-25 10.5l-125 14l12 80h580q319 0 475.5 -161t156.5 -443q0 -401 -217 -640t-647 -239h-553zM406 117h262q338 0 520 197.5t182 557.5q0 268 -136 382t-392 114h-264l-78 -553h424 l-15 -115h-424z" />
<glyph unicode="&#xd1;" horiz-adv-x="1671" d="M90 0l6 80l129 14q20 2 26.5 10.5t10.5 30.5l170 1211q4 25 -1 31.5t-25 8.5l-123 15l10 82h348l576 -1313l159 1178q4 25 -1 31.5t-25 9.5l-125 14l10 80h459l-11 -80l-137 -17q-23 -2 -29 -9t-10 -29l-186 -1348h-168l-590 1323l-166 -1186q-4 -25 1 -32t26 -9l133 -16 l-8 -80h-459zM664 1649l71 84q68 80 129 79q20 0 49 -6l281 -75q20 -6 35 6l90 80l67 -56l-57 -65q-80 -94 -139 -94q-33 0 -60 8l-270 73q-20 6 -33 -6l-98 -84z" />
<glyph unicode="&#xd2;" horiz-adv-x="1536" d="M127 592q0 410 210 663.5t591 253.5q283 0 425 -164.5t142 -433.5q0 -436 -211 -686t-575 -250q-291 0 -436.5 168t-145.5 449zM270 610q0 -121 29 -219q88 -295 426 -295q274 0 451.5 207t177.5 584q0 117 -29 213q-86 289 -414 289q-279 0 -460 -205t-181 -574z M694 1784l99 129l333 -268l-59 -78z" />
<glyph unicode="&#xd3;" horiz-adv-x="1536" d="M127 592q0 410 210 663.5t591 253.5q283 0 425 -164.5t142 -433.5q0 -436 -211 -686t-575 -250q-291 0 -436.5 168t-145.5 449zM270 610q0 -121 29 -219q88 -295 426 -295q274 0 451.5 207t177.5 584q0 117 -29 213q-86 289 -414 289q-279 0 -460 -205t-181 -574z M737 1647l410 268l70 -129l-435 -217z" />
<glyph unicode="&#xd4;" horiz-adv-x="1536" d="M127 592q0 410 210 663.5t591 253.5q283 0 425 -164.5t142 -433.5q0 -436 -211 -686t-575 -250q-291 0 -436.5 168t-145.5 449zM270 610q0 -121 29 -219q88 -295 426 -295q274 0 451.5 207t177.5 584q0 117 -29 213q-86 289 -414 289q-279 0 -460 -205t-181 -574z M623 1638l264 203h155l211 -203l-82 -69l-219 172l-268 -172z" />
<glyph unicode="&#xd5;" horiz-adv-x="1536" d="M127 592q0 410 210 663.5t591 253.5q283 0 425 -164.5t142 -433.5q0 -436 -211 -686t-575 -250q-291 0 -436.5 168t-145.5 449zM270 610q0 -121 29 -219q88 -295 426 -295q274 0 451.5 207t177.5 584q0 117 -29 213q-86 289 -414 289q-279 0 -460 -205t-181 -574z M594 1649l72 84q68 80 129 79q20 0 49 -6l280 -75q20 -6 35 6l90 80l68 -56l-57 -65q-80 -94 -140 -94q-33 0 -59 8l-270 73q-20 6 -33 -6l-99 -84z" />
<glyph unicode="&#xd6;" horiz-adv-x="1536" d="M127 592q0 410 210 663.5t591 253.5q283 0 425 -164.5t142 -433.5q0 -436 -211 -686t-575 -250q-291 0 -436.5 168t-145.5 449zM270 610q0 -121 29 -219q88 -295 426 -295q274 0 451.5 207t177.5 584q0 117 -29 213q-86 289 -414 289q-279 0 -460 -205t-181 -574z M645 1686q0 49 33 82.5t86 33.5q41 0 65.5 -22.5t24.5 -61.5q0 -49 -33 -82.5t-86 -33.5q-41 0 -65.5 22.5t-24.5 61.5zM1053 1686q0 49 32.5 82.5t85.5 33.5q41 0 66 -22.5t25 -61.5q0 -49 -33 -82.5t-86 -33.5q-41 0 -65.5 22.5t-24.5 61.5z" />
<glyph unicode="&#xd7;" d="M258 432l252 223l-188 226l112 98l189 -223l251 223l89 -105l-252 -223l184 -219l-113 -98l-184 217l-252 -223z" />
<glyph unicode="&#xd8;" horiz-adv-x="1536" d="M127 592q0 410 210 663.5t591 253.5q115 0 217 -32l78 139h137l-107 -191q242 -150 242 -514q0 -436 -211 -686t-575 -250q-131 0 -242 39l-96 -174h-140l127 228q-231 155 -231 524zM270 610q0 -121 29 -219q37 -127 127 -203l655 1174q-74 27 -170 27q-279 0 -460 -205 t-181 -574zM530 129q80 -33 195 -33q274 0 451.5 207t177.5 584q0 117 -29 213q-39 131 -137 207z" />
<glyph unicode="&#xd9;" horiz-adv-x="1574" d="M252 1403l12 80h459l-12 -80l-136 -17q-23 -2 -28.5 -9t-9.5 -29l-117 -856q-8 -51 -8 -109q0 -158 84 -222.5t249 -64.5q193 0 295.5 88t133.5 303l116 861q2 25 -2 31.5t-24 9.5l-125 14l12 80h459l-13 -80l-135 -17q-23 -2 -30 -9t-9 -29l-118 -871 q-35 -262 -175.5 -382t-402.5 -120q-231 0 -339.5 98.5t-108.5 293.5q0 61 8 116l114 865q4 25 -1 31.5t-23 9.5zM711 1784l98 129l334 -268l-60 -78z" />
<glyph unicode="&#xda;" horiz-adv-x="1574" d="M252 1403l12 80h459l-12 -80l-136 -17q-23 -2 -28.5 -9t-9.5 -29l-117 -856q-8 -51 -8 -109q0 -158 84 -222.5t249 -64.5q193 0 295.5 88t133.5 303l116 861q2 25 -2 31.5t-24 9.5l-125 14l12 80h459l-13 -80l-135 -17q-23 -2 -30 -9t-9 -29l-118 -871 q-35 -262 -175.5 -382t-402.5 -120q-231 0 -339.5 98.5t-108.5 293.5q0 61 8 116l114 865q4 25 -1 31.5t-23 9.5zM754 1647l409 268l70 -129l-434 -217z" />
<glyph unicode="&#xdb;" horiz-adv-x="1574" d="M252 1403l12 80h459l-12 -80l-136 -17q-23 -2 -28.5 -9t-9.5 -29l-117 -856q-8 -51 -8 -109q0 -158 84 -222.5t249 -64.5q193 0 295.5 88t133.5 303l116 861q2 25 -2 31.5t-24 9.5l-125 14l12 80h459l-13 -80l-135 -17q-23 -2 -30 -9t-9 -29l-118 -871 q-35 -262 -175.5 -382t-402.5 -120q-231 0 -339.5 98.5t-108.5 293.5q0 61 8 116l114 865q4 25 -1 31.5t-23 9.5zM639 1638l264 203h156l211 -203l-82 -69l-219 172l-269 -172z" />
<glyph unicode="&#xdc;" horiz-adv-x="1574" d="M252 1403l12 80h459l-12 -80l-136 -17q-23 -2 -28.5 -9t-9.5 -29l-117 -856q-8 -51 -8 -109q0 -158 84 -222.5t249 -64.5q193 0 295.5 88t133.5 303l116 861q2 25 -2 31.5t-24 9.5l-125 14l12 80h459l-13 -80l-135 -17q-23 -2 -30 -9t-9 -29l-118 -871 q-35 -262 -175.5 -382t-402.5 -120q-231 0 -339.5 98.5t-108.5 293.5q0 61 8 116l114 865q4 25 -1 31.5t-23 9.5zM641 1686q0 49 33 82.5t86 33.5q41 0 65.5 -22.5t24.5 -61.5q0 -49 -33 -82.5t-86 -33.5q-41 0 -65.5 22.5t-24.5 61.5zM1049 1686q0 49 32.5 82.5t85.5 33.5 q41 0 65.5 -22.5t24.5 -61.5q0 -49 -32.5 -82.5t-85.5 -33.5q-41 0 -65.5 22.5t-24.5 61.5z" />
<glyph unicode="&#xdd;" horiz-adv-x="1196" d="M139 1403l13 80h409l-12 -80l-150 -19l252 -673l428 673l-145 19l12 80h402l-13 -80l-86 -23q-35 -10 -57 -43l-487 -749l-60 -451q-4 -27 0 -33t27 -8l190 -16l-10 -80h-580l11 80l190 14q18 2 24.5 10.5t10.5 32.5l61 445l-299 764q-14 25 -43 34zM584 1647l409 268 l70 -129l-434 -217z" />
<glyph unicode="&#xde;" horiz-adv-x="1312" d="M84 0l10 82l129 14q23 4 30 11.5t9 29.5l168 1211q4 23 -2 30.5t-27 10.5l-122 14l10 80h473l-8 -80l-158 -17q-20 -2 -27.5 -9t-9.5 -29l-16 -125h299q227 0 330.5 -102.5t103.5 -274.5q0 -541 -621 -541h-239l-23 -166q-2 -25 2 -32t25 -9l285 -16l-11 -82h-610z M432 420h221q109 0 189 17.5t149.5 60.5t106.5 130t37 214q0 135 -84 200.5t-260 65.5h-265z" />
<glyph unicode="&#xdf;" horiz-adv-x="1263" d="M74 -434l231 1610q31 221 150.5 307t306.5 86q104 0 181 -24.5t116 -57.5t62.5 -78t28.5 -73.5t5 -55.5q0 -84 -42 -146.5t-118 -127.5l-39 -33l-40 -35q-11 -10 -31.5 -30.5t-28.5 -34t-15 -32t-7 -36.5q0 -23 7 -43.5t16 -33.5t29.5 -32.5t33.5 -28.5l41 -30 q29 -20 38 -29q76 -57 119 -123.5t43 -173.5q0 -160 -110.5 -248t-272.5 -88q-123 0 -216 21.5t-130 44.5l37 252l96 -6l6 -142q0 -20 19 -26q88 -35 190 -35q113 0 177.5 57.5t64.5 157.5q0 82 -36 132t-101 97l-33 23q-27 18 -35 24.5t-29.5 23.5t-29.5 27.5t-22.5 30 t-20.5 37t-11.5 41t-5.5 49.5q0 53 26 103.5t54.5 80t79.5 74.5q106 92 133 136q27 45 27 92q0 82 -68.5 132t-195.5 50q-145 0 -221 -70.5t-97 -216.5l-227 -1599h-135z" />
<glyph unicode="&#xe0;" d="M92 358q0 127 27.5 247t84 226.5t160 171t240.5 64.5q160 0 295 -115l31 95h135q-41 -160 -53 -244l-94 -668q-4 -25 1 -32t27 -9l103 -14l-13 -80h-262l27 193l-6 2q-102 -104 -195.5 -162t-202.5 -58q-147 0 -226 95t-79 288zM225 373q0 -276 201 -277q94 0 188.5 74 t200.5 192l66 461q-49 49 -128 87t-161 38q-98 0 -173 -55t-115 -144.5t-59.5 -184.5t-19.5 -191zM463 1450l121 109l272 -328l-76 -66z" />
<glyph unicode="&#xe1;" d="M92 358q0 127 27.5 247t84 226.5t160 171t240.5 64.5q160 0 295 -115l31 95h135q-41 -160 -53 -244l-94 -668q-4 -25 1 -32t27 -9l103 -14l-13 -80h-262l27 193l-6 2q-102 -104 -195.5 -162t-202.5 -58q-147 0 -226 95t-79 288zM225 373q0 -276 201 -277q94 0 188.5 74 t200.5 192l66 461q-49 49 -128 87t-161 38q-98 0 -173 -55t-115 -144.5t-59.5 -184.5t-19.5 -191zM510 1237l340 313l96 -114l-377 -271z" />
<glyph unicode="&#xe2;" d="M92 358q0 127 27.5 247t84 226.5t160 171t240.5 64.5q160 0 295 -115l31 95h135q-41 -160 -53 -244l-94 -668q-4 -25 1 -32t27 -9l103 -14l-13 -80h-262l27 193l-6 2q-102 -104 -195.5 -162t-202.5 -58q-147 0 -226 95t-79 288zM225 373q0 -276 201 -277q94 0 188.5 74 t200.5 192l66 461q-49 49 -128 87t-161 38q-98 0 -173 -55t-115 -144.5t-59.5 -184.5t-19.5 -191zM334 1247l299 246h155l230 -246l-88 -67l-234 213l-295 -213z" />
<glyph unicode="&#xe3;" d="M92 358q0 127 27.5 247t84 226.5t160 171t240.5 64.5q160 0 295 -115l31 95h135q-41 -160 -53 -244l-94 -668q-4 -25 1 -32t27 -9l103 -14l-13 -80h-262l27 193l-6 2q-102 -104 -195.5 -162t-202.5 -58q-147 0 -226 95t-79 288zM225 373q0 -276 201 -277q94 0 188.5 74 t200.5 192l66 461q-49 49 -128 87t-161 38q-98 0 -173 -55t-115 -144.5t-59.5 -184.5t-19.5 -191zM324 1257l71 84q68 80 129 80q25 0 66 -10l264 -72q20 -6 35 7l90 79l68 -55l-58 -65q-80 -94 -139 -95q-33 0 -59 9l-271 73q-20 6 -33 -6l-98 -84z" />
<glyph unicode="&#xe4;" d="M92 358q0 127 27.5 247t84 226.5t160 171t240.5 64.5q160 0 295 -115l31 95h135q-41 -160 -53 -244l-94 -668q-4 -25 1 -32t27 -9l103 -14l-13 -80h-262l27 193l-6 2q-102 -104 -195.5 -162t-202.5 -58q-147 0 -226 95t-79 288zM225 373q0 -276 201 -277q94 0 188.5 74 t200.5 192l66 461q-49 49 -128 87t-161 38q-98 0 -173 -55t-115 -144.5t-59.5 -184.5t-19.5 -191zM397 1331q0 51 33 84t86 33q90 0 90 -84q0 -49 -31.5 -83t-85.5 -34q-43 0 -67.5 22.5t-24.5 61.5zM805 1331q0 51 32.5 84t86.5 33q90 0 90 -84q0 -49 -32 -83t-85 -34 q-43 0 -67.5 22.5t-24.5 61.5z" />
<glyph unicode="&#xe5;" d="M92 358q0 127 27.5 247t84 226.5t160 171t240.5 64.5q160 0 295 -115l31 95h135q-41 -160 -53 -244l-94 -668q-4 -25 1 -32t27 -9l103 -14l-13 -80h-262l27 193l-6 2q-102 -104 -195.5 -162t-202.5 -58q-147 0 -226 95t-79 288zM225 373q0 -276 201 -277q94 0 188.5 74 t200.5 192l66 461q-49 49 -128 87t-161 38q-98 0 -173 -55t-115 -144.5t-59.5 -184.5t-19.5 -191zM506 1303q0 90 59.5 148t159.5 58q78 0 123 -39.5t45 -111.5q0 -96 -58.5 -153.5t-160.5 -57.5q-78 0 -123 40t-45 116zM606 1309q0 -78 82 -78q47 0 76 31.5t29 83.5 q0 74 -82 73q-49 0 -77 -29.5t-28 -80.5z" />
<glyph unicode="&#xe6;" horiz-adv-x="1605" d="M92 358q0 127 27.5 247t84 226.5t160 171t240.5 64.5q182 0 346 -152q162 152 355 152q137 0 198.5 -65.5t61.5 -170.5q0 -125 -92 -210q-143 -133 -601 -197q0 -168 55.5 -249t217.5 -81q141 0 297 76l31 -115q-150 -80 -353 -80q-264 0 -348 195q-199 -195 -375 -195 q-147 0 -226 95t-79 288zM225 373q0 -276 201 -277q133 0 315 187q-6 43 -6 94q0 262 131 450q-143 121 -274 121q-98 0 -173 -55t-115 -144.5t-59.5 -184.5t-19.5 -191zM887 537l86 12q29 4 95.5 17.5t105 26.5t94 35.5t86 48t53.5 63.5t23 81q0 125 -150 125t-254 -119.5 t-139 -289.5z" />
<glyph unicode="&#xe7;" horiz-adv-x="987" d="M92 395q0 340 170 506t428 166q152 0 277 -55l-35 -252l-98 6l-7 135q0 20 -22 29q-51 18 -143 18q-180 0 -305.5 -131t-125.5 -401q0 -162 73 -244t208 -82q164 0 293 76l37 -111q-115 -72 -305 -78l-19 -67q127 -33 127 -150q0 -109 -79 -168t-191 -59q-68 0 -111 14 l23 95q33 -8 80 -9q63 0 111 29t48 88q0 88 -137 88l39 142q-336 36 -336 415z" />
<glyph unicode="&#xe8;" horiz-adv-x="962" d="M92 391q0 272 157 474t402 202q143 0 207 -65.5t64 -170.5q0 -76 -35 -138t-102.5 -104t-130 -71t-159 -48t-142.5 -27.5t-124 -18.5q0 -168 57.5 -249t217.5 -81q141 0 293 76l30 -115q-152 -80 -348 -80q-387 0 -387 416zM244 539q59 6 95 12t111.5 20.5t125 34 t102.5 49t80.5 71.5t27.5 95q0 125 -149.5 125t-253.5 -118.5t-139 -288.5zM442 1450l121 109l273 -328l-76 -66z" />
<glyph unicode="&#xe9;" horiz-adv-x="962" d="M92 391q0 272 157 474t402 202q143 0 207 -65.5t64 -170.5q0 -76 -35 -138t-102.5 -104t-130 -71t-159 -48t-142.5 -27.5t-124 -18.5q0 -168 57.5 -249t217.5 -81q141 0 293 76l30 -115q-152 -80 -348 -80q-387 0 -387 416zM244 539q59 6 95 12t111.5 20.5t125 34 t102.5 49t80.5 71.5t27.5 95q0 125 -149.5 125t-253.5 -118.5t-139 -288.5zM489 1237l340 313l97 -114l-377 -271z" />
<glyph unicode="&#xea;" horiz-adv-x="962" d="M92 391q0 272 157 474t402 202q143 0 207 -65.5t64 -170.5q0 -76 -35 -138t-102.5 -104t-130 -71t-159 -48t-142.5 -27.5t-124 -18.5q0 -168 57.5 -249t217.5 -81q141 0 293 76l30 -115q-152 -80 -348 -80q-387 0 -387 416zM244 539q59 6 95 12t111.5 20.5t125 34 t102.5 49t80.5 71.5t27.5 95q0 125 -149.5 125t-253.5 -118.5t-139 -288.5zM313 1247l299 246h156l229 -246l-88 -67l-233 213l-295 -213z" />
<glyph unicode="&#xeb;" horiz-adv-x="962" d="M92 391q0 272 157 474t402 202q143 0 207 -65.5t64 -170.5q0 -76 -35 -138t-102.5 -104t-130 -71t-159 -48t-142.5 -27.5t-124 -18.5q0 -168 57.5 -249t217.5 -81q141 0 293 76l30 -115q-152 -80 -348 -80q-387 0 -387 416zM244 539q59 6 95 12t111.5 20.5t125 34 t102.5 49t80.5 71.5t27.5 95q0 125 -149.5 125t-253.5 -118.5t-139 -288.5zM362 1331q0 51 33 84t86 33q90 0 90 -84q0 -49 -31.5 -83t-84.5 -34q-43 0 -68 22.5t-25 61.5zM770 1331q0 51 33 84t86 33q90 0 90 -84q0 -49 -32 -83t-85 -34q-43 0 -67.5 22.5t-24.5 61.5z" />
<glyph unicode="&#xec;" horiz-adv-x="585" d="M102 1436l121 108l273 -327l-76 -66zM154 8l41 217l96 676q6 35 -23 43l-110 27l10 76h278l-129 -910q-4 -25 1.5 -32t27.5 -9l131 -16l-12 -80h-307z" />
<glyph unicode="&#xed;" horiz-adv-x="585" d="M150 1225l339 313l97 -115l-377 -270zM154 8l41 217l96 676q6 35 -23 43l-110 27l10 76h278l-129 -910q-4 -25 1.5 -32t27.5 -9l131 -16l-12 -80h-307z" />
<glyph unicode="&#xee;" horiz-adv-x="585" d="M49 1247l264 246h156l195 -246l-89 -67l-198 213l-260 -213zM154 8l41 217l96 676q6 35 -23 43l-110 27l10 76h278l-129 -910q-4 -25 1.5 -32t27.5 -9l131 -16l-12 -80h-307z" />
<glyph unicode="&#xef;" horiz-adv-x="585" d="M76 1331q0 51 32.5 84t86.5 33q90 0 90 -84q0 -49 -32 -83t-85 -34q-43 0 -67.5 22.5t-24.5 61.5zM154 8l41 217l96 676q6 35 -23 43l-110 27l10 76h278l-129 -910q-4 -25 1.5 -32t27.5 -9l131 -16l-12 -80h-307zM418 1331q0 51 32.5 84t86.5 33q90 0 90 -84 q0 -49 -32 -83t-85 -34q-43 0 -67.5 22.5t-24.5 61.5z" />
<glyph unicode="&#xf0;" horiz-adv-x="1140" d="M94 418q0 264 148.5 436t396.5 172q178 0 305 -111q-27 236 -139 367l-248 -123l-49 96l211 105q-109 74 -281 104l49 97q223 -31 355 -140l229 115l47 -98l-198 -99q158 -199 157 -530q0 -55 -3 -110.5t-17.5 -142.5t-37 -160.5t-66.5 -154.5t-102 -136.5t-149.5 -92.5 t-201.5 -37q-205 0 -305.5 118t-100.5 325zM238 422q0 -145 62 -239.5t210 -94.5q117 0 203 62.5t133 170t69.5 218t28.5 235.5q-45 51 -127 91t-178 40q-190 0 -295.5 -132t-105.5 -351z" />
<glyph unicode="&#xf1;" horiz-adv-x="1267" d="M35 0l12 82l103 14q23 4 29.5 11.5t8.5 29.5l105 760q6 37 -19 43l-112 31l10 76h272l-30 -213q90 76 143 114.5t139 78.5t164 40q127 0 184.5 -61.5t57.5 -184.5q0 -59 -10 -125l-80 -559q-4 -25 1 -32t27 -9l119 -16l-12 -80h-297l-4 6l39 221l61 428q12 80 12 140 q0 80 -26.5 112.5t-97.5 32.5q-152 0 -437 -260l-73 -543q-4 -25 1 -32t27 -9l137 -16l-12 -80h-442zM385 1257l72 84q68 80 129 80q25 0 65 -10l264 -72q20 -6 35 7l90 79l68 -55l-57 -65q-80 -94 -140 -95q-33 0 -59 9l-270 73q-20 6 -33 -6l-98 -84z" />
<glyph unicode="&#xf2;" horiz-adv-x="1130" d="M92 397q0 299 147.5 484.5t419.5 185.5q205 0 302.5 -115.5t97.5 -308.5q0 -311 -147.5 -489.5t-409.5 -178.5q-207 0 -308.5 112.5t-101.5 309.5zM229 410q0 -156 73 -239t214 -83q186 0 295 144.5t109 412.5q0 301 -277 301q-190 0 -302 -139t-112 -397zM463 1450 l121 109l272 -328l-76 -66z" />
<glyph unicode="&#xf3;" horiz-adv-x="1130" d="M92 397q0 299 147.5 484.5t419.5 185.5q205 0 302.5 -115.5t97.5 -308.5q0 -311 -147.5 -489.5t-409.5 -178.5q-207 0 -308.5 112.5t-101.5 309.5zM229 410q0 -156 73 -239t214 -83q186 0 295 144.5t109 412.5q0 301 -277 301q-190 0 -302 -139t-112 -397zM510 1237 l340 313l96 -114l-377 -271z" />
<glyph unicode="&#xf4;" horiz-adv-x="1130" d="M92 397q0 299 147.5 484.5t419.5 185.5q205 0 302.5 -115.5t97.5 -308.5q0 -311 -147.5 -489.5t-409.5 -178.5q-207 0 -308.5 112.5t-101.5 309.5zM229 410q0 -156 73 -239t214 -83q186 0 295 144.5t109 412.5q0 301 -277 301q-190 0 -302 -139t-112 -397zM334 1247 l299 246h155l230 -246l-88 -67l-234 213l-295 -213z" />
<glyph unicode="&#xf5;" horiz-adv-x="1130" d="M92 397q0 299 147.5 484.5t419.5 185.5q205 0 302.5 -115.5t97.5 -308.5q0 -311 -147.5 -489.5t-409.5 -178.5q-207 0 -308.5 112.5t-101.5 309.5zM229 410q0 -156 73 -239t214 -83q186 0 295 144.5t109 412.5q0 301 -277 301q-190 0 -302 -139t-112 -397zM315 1257 l72 84q68 80 129 80q25 0 66 -10l264 -72q20 -6 35 7l90 79l67 -55l-57 -65q-80 -94 -139 -95q-33 0 -60 9l-270 73q-20 6 -33 -6l-98 -84z" />
<glyph unicode="&#xf6;" horiz-adv-x="1130" d="M92 397q0 299 147.5 484.5t419.5 185.5q205 0 302.5 -115.5t97.5 -308.5q0 -311 -147.5 -489.5t-409.5 -178.5q-207 0 -308.5 112.5t-101.5 309.5zM229 410q0 -156 73 -239t214 -83q186 0 295 144.5t109 412.5q0 301 -277 301q-190 0 -302 -139t-112 -397zM383 1331 q0 51 33 84t86 33q90 0 90 -84q0 -49 -32 -83t-85 -34q-43 0 -67.5 22.5t-24.5 61.5zM791 1331q0 51 32.5 84t85.5 33q90 0 90 -84q0 -49 -31.5 -83t-84.5 -34q-43 0 -67.5 22.5t-24.5 61.5z" />
<glyph unicode="&#xf7;" d="M211 590l20 135h764l-20 -135h-764zM426 330q0 137 137 137q104 0 105 -96q0 -137 -138 -138q-104 1 -104 97zM514 948q0 137 135 137q104 0 105 -96q0 -137 -138 -137q-102 0 -102 96z" />
<glyph unicode="&#xf8;" horiz-adv-x="1130" d="M86 -188l141 243q-135 109 -135 342q0 299 147.5 484.5t419.5 185.5q76 0 148 -20l88 149h135l-117 -201q145 -109 146 -352q0 -311 -147.5 -489.5t-409.5 -178.5q-96 0 -170 25l-109 -188h-137zM229 410q0 -156 68 -236l444 760q-45 12 -98 12q-190 0 -302 -139 t-112 -397zM395 106q51 -18 121 -18q186 0 295 144.5t109 412.5q0 152 -76 232z" />
<glyph unicode="&#xf9;" horiz-adv-x="1261" d="M150 967l12 80h274l4 -7l-92 -653q-12 -80 -12 -139q0 -76 28.5 -111t100.5 -35q68 0 164 55.5t144 96.5l126 113l74 542q4 25 -1 32t-28 9l-127 17l12 80h295l4 -7l-127 -907q-6 -35 19 -37l117 -18l-11 -78h-274l33 213q-133 -115 -237.5 -176.5t-209.5 -61.5 q-119 0 -180 57.5t-61 188.5q0 59 10 125l80 563q4 25 -1 32t-28 9zM500 1450l121 109l272 -328l-76 -66z" />
<glyph unicode="&#xfa;" horiz-adv-x="1261" d="M150 967l12 80h274l4 -7l-92 -653q-12 -80 -12 -139q0 -76 28.5 -111t100.5 -35q68 0 164 55.5t144 96.5l126 113l74 542q4 25 -1 32t-28 9l-127 17l12 80h295l4 -7l-127 -907q-6 -35 19 -37l117 -18l-11 -78h-274l33 213q-133 -115 -237.5 -176.5t-209.5 -61.5 q-119 0 -180 57.5t-61 188.5q0 59 10 125l80 563q4 25 -1 32t-28 9zM547 1237l340 313l96 -114l-377 -271z" />
<glyph unicode="&#xfb;" horiz-adv-x="1261" d="M150 967l12 80h274l4 -7l-92 -653q-12 -80 -12 -139q0 -76 28.5 -111t100.5 -35q68 0 164 55.5t144 96.5l126 113l74 542q4 25 -1 32t-28 9l-127 17l12 80h295l4 -7l-127 -907q-6 -35 19 -37l117 -18l-11 -78h-274l33 213q-133 -115 -237.5 -176.5t-209.5 -61.5 q-119 0 -180 57.5t-61 188.5q0 59 10 125l80 563q4 25 -1 32t-28 9zM371 1247l299 246h155l230 -246l-88 -67l-234 213l-295 -213z" />
<glyph unicode="&#xfc;" horiz-adv-x="1261" d="M150 967l12 80h274l4 -7l-92 -653q-12 -80 -12 -139q0 -76 28.5 -111t100.5 -35q68 0 164 55.5t144 96.5l126 113l74 542q4 25 -1 32t-28 9l-127 17l12 80h295l4 -7l-127 -907q-6 -35 19 -37l117 -18l-11 -78h-274l33 213q-133 -115 -237.5 -176.5t-209.5 -61.5 q-119 0 -180 57.5t-61 188.5q0 59 10 125l80 563q4 25 -1 32t-28 9zM420 1331q0 51 32.5 84t86.5 33q90 0 90 -84q0 -49 -32 -83t-85 -34q-43 0 -67.5 22.5t-24.5 61.5zM827 1331q0 51 33 84t86 33q90 0 90 -84q0 -49 -31.5 -83t-84.5 -34q-43 0 -68 22.5t-25 61.5z" />
<glyph unicode="&#xfd;" horiz-adv-x="1036" d="M-176 -373l65 97q27 -23 78 -43.5t99 -20.5q84 0 131 47t112 172l86 162l-209 874q-6 27 -34 35l-84 21l16 76h227l6 -9l45 -256l125 -571l361 737l-127 23l8 76h303l10 -15l-604 -1186q-86 -168 -160.5 -235.5t-205.5 -67.5q-78 0 -148.5 27.5t-99.5 56.5zM428 1237 l340 313l96 -114l-377 -271z" />
<glyph unicode="&#xfe;" horiz-adv-x="1169" d="M76 -426l33 172l233 1651q4 37 -18 43l-113 30l10 76h275l-101 -698q244 219 418 219q131 0 208 -96.5t77 -298.5q0 -90 -15.5 -180.5t-52.5 -184.5t-91 -166.5t-143 -119t-198 -46.5q-170 0 -307 134l-51 -398q-4 -27 0 -33t24 -8l180 -14l-12 -90h-348zM311 246 q127 -156 281 -156q96 0 171 54.5t116 142.5t61.5 182t20.5 188q0 158 -47.5 220.5t-131.5 62.5q-156 0 -409 -254z" />
<glyph unicode="&#xff;" horiz-adv-x="1036" d="M-176 -373l65 97q27 -23 78 -43.5t99 -20.5q84 0 131 47t112 172l86 162l-209 874q-6 27 -34 35l-84 21l16 76h227l6 -9l45 -256l125 -571l361 737l-127 23l8 76h303l10 -15l-604 -1186q-86 -168 -160.5 -235.5t-205.5 -67.5q-78 0 -148.5 27.5t-99.5 56.5zM301 1331 q0 51 33 84t86 33q90 0 90 -84q0 -49 -32 -83t-85 -34q-43 0 -67.5 22.5t-24.5 61.5zM709 1331q0 51 32.5 84t85.5 33q90 0 91 -84q0 -49 -32 -83t-85 -34q-43 0 -67.5 22.5t-24.5 61.5z" />
<glyph unicode="&#x152;" horiz-adv-x="2009" d="M127 623q0 389 205 637.5t547 248.5q100 0 200 -26h946l-43 -307l-92 6l-6 159q0 16 -7 21.5t-26 5.5h-606q158 -166 158 -479q0 -14 -1 -42t-1 -40h403l-16 -115h-399q-51 -391 -293 -577h628q31 0 35 22l58 178h92l-43 -315h-994q-92 -25 -190 -25q-270 0 -412.5 174.5 t-142.5 473.5zM270 627q0 -258 112 -394.5t320 -136.5q260 0 410 201t150 575q0 516 -404 517q-250 0 -419 -205t-169 -557z" />
<glyph unicode="&#x153;" horiz-adv-x="1755" d="M92 397q0 297 147.5 483.5t411.5 186.5q145 0 241.5 -72.5t123.5 -191.5q156 264 428 264q143 0 206.5 -65.5t63.5 -170.5q0 -125 -92 -210q-147 -137 -600 -197q0 -168 57.5 -249t216.5 -81q141 0 293 76l31 -115q-150 -80 -348 -80q-74 0 -135 17q-164 45 -209 205 q-143 -221 -426 -222q-207 0 -308.5 112.5t-101.5 309.5zM229 410q0 -156 73 -239t214 -83q186 0 295 144.5t109 412.5q0 147 -78 224t-209 77q-186 0 -295 -139t-109 -397zM1036 539q59 6 95 12t112 20.5t125 34t102.5 49t81 71.5t27.5 95q0 125 -149.5 125t-254 -118.5 t-139.5 -288.5z" />
<glyph unicode="&#x178;" horiz-adv-x="1196" d="M139 1403l13 80h409l-12 -80l-150 -19l252 -673l428 673l-145 19l12 80h402l-13 -80l-86 -23q-35 -10 -57 -43l-487 -749l-60 -451q-4 -27 0 -33t27 -8l190 -16l-10 -80h-580l11 80l190 14q18 2 24.5 10.5t10.5 32.5l61 445l-299 764q-14 25 -43 34zM492 1686 q0 49 32.5 82.5t85.5 33.5q41 0 65.5 -22.5t24.5 -61.5q0 -49 -32.5 -82.5t-85.5 -33.5q-41 0 -65.5 22.5t-24.5 61.5zM899 1686q0 49 33 82.5t86 33.5q41 0 65.5 -22.5t24.5 -61.5q0 -49 -33 -82.5t-86 -33.5q-41 0 -65.5 22.5t-24.5 61.5z" />
<glyph unicode="&#x2c6;" horiz-adv-x="1024" d="M344 1247l299 246h156l229 -246l-88 -67l-233 213l-295 -213z" />
<glyph unicode="&#x2dc;" horiz-adv-x="1024" d="M334 1257l72 84q66 80 129 80q25 0 65 -10l264 -72q20 -6 35 7l90 79l68 -55l-58 -65q-80 -94 -139 -95q-33 0 -59 9l-271 73q-20 6 -32 -6l-99 -84z" />
<glyph unicode="&#x2000;" horiz-adv-x="957" />
<glyph unicode="&#x2001;" horiz-adv-x="1915" />
<glyph unicode="&#x2002;" horiz-adv-x="957" />
<glyph unicode="&#x2003;" horiz-adv-x="1915" />
<glyph unicode="&#x2004;" horiz-adv-x="638" />
<glyph unicode="&#x2005;" horiz-adv-x="478" />
<glyph unicode="&#x2006;" horiz-adv-x="319" />
<glyph unicode="&#x2007;" horiz-adv-x="319" />
<glyph unicode="&#x2008;" horiz-adv-x="239" />
<glyph unicode="&#x2009;" horiz-adv-x="383" />
<glyph unicode="&#x200a;" horiz-adv-x="106" />
<glyph unicode="&#x2010;" horiz-adv-x="636" d="M47 522l23 152h555l-23 -152h-555z" />
<glyph unicode="&#x2011;" horiz-adv-x="636" d="M47 522l23 152h555l-23 -152h-555z" />
<glyph unicode="&#x2012;" horiz-adv-x="636" d="M47 522l23 152h555l-23 -152h-555z" />
<glyph unicode="&#x2013;" horiz-adv-x="1024" d="M14 522l17 111h1022l-17 -111h-1022z" />
<glyph unicode="&#x2014;" horiz-adv-x="2048" d="M14 522l17 111h2046l-17 -111h-2046z" />
<glyph unicode="&#x2018;" horiz-adv-x="352" d="M195 1245q0 39 38 96l140 207l69 -30l-88 -193q-6 -12 8 -18l56 -27l-60 -135q-80 6 -121.5 28.5t-41.5 71.5z" />
<glyph unicode="&#x2019;" horiz-adv-x="362" d="M186 1171l88 193q6 12 -8 18l-55 27l59 135q80 -6 122 -28.5t42 -71.5q0 -39 -39 -96l-139 -207z" />
<glyph unicode="&#x201a;" horiz-adv-x="339" d="M0 -211l88 193q6 12 -8 18l-55 27l59 135q80 -6 122 -28.5t42 -72.5q0 -39 -39 -96l-139 -207z" />
<glyph unicode="&#x201c;" horiz-adv-x="645" d="M195 1245q0 39 38 96l140 207l69 -30l-88 -193q-6 -12 8 -18l56 -27l-60 -135q-80 6 -121.5 28.5t-41.5 71.5zM487 1245q0 39 39 96l140 207l69 -30l-88 -193q-6 -12 8 -18l56 -27l-60 -135q-80 6 -122 28.5t-42 71.5z" />
<glyph unicode="&#x201d;" horiz-adv-x="655" d="M186 1171l88 193q6 12 -8 18l-55 27l59 135q80 -6 122 -28.5t42 -71.5q0 -39 -39 -96l-139 -207zM479 1171l88 193q6 12 -8 18l-55 27l59 135q80 -6 122 -28.5t42 -71.5q0 -39 -39 -96l-139 -207z" />
<glyph unicode="&#x201e;" horiz-adv-x="632" d="M0 -211l88 193q6 12 -8 18l-55 27l59 135q80 -6 122 -28.5t42 -72.5q0 -39 -39 -96l-139 -207zM293 -211l88 193q6 12 -8 18l-56 27l60 135q80 -6 122 -28.5t42 -72.5q0 -39 -39 -96l-140 -207z" />
<glyph unicode="&#x2022;" horiz-adv-x="747" d="M160 573.5q0 131.5 69.5 198t198.5 66.5q131 0 200.5 -66.5t69.5 -198t-69.5 -198t-200.5 -66.5q-129 0 -198.5 66.5t-69.5 198z" />
<glyph unicode="&#x2026;" horiz-adv-x="1124" d="M51 66q0 68 36 105.5t101 37.5q104 0 105 -92q0 -61 -36 -101.5t-101 -40.5q-105 1 -105 91zM426 66q0 68 36 105.5t101 37.5q104 0 105 -92q0 -61 -36 -101.5t-102 -40.5q-104 1 -104 91zM801 66q0 68 35.5 105.5t101.5 37.5q104 0 104 -92q0 -61 -35.5 -101.5 t-101.5 -40.5q-104 1 -104 91z" />
<glyph unicode="&#x202f;" horiz-adv-x="383" />
<glyph unicode="&#x2039;" horiz-adv-x="569" d="M139 532l226 304h139l-195 -285q-12 -14 -12 -25q0 -2 4 -14l109 -301h-136z" />
<glyph unicode="&#x203a;" horiz-adv-x="569" d="M106 211l197 297q10 12 10 22q0 4 -4 17l-108 289h135l135 -314l-219 -311h-146z" />
<glyph unicode="&#x205f;" horiz-adv-x="478" />
<glyph unicode="&#x20ac;" horiz-adv-x="1038" d="M8 457l35 114h125q2 51 14 142h-104l35 114h92q66 246 226.5 370t375.5 124q160 0 283 -61l-39 -277l-90 10l-7 158q0 23 -26 31q-59 18 -150 18q-152 0 -266.5 -94t-167.5 -279h451l-35 -114h-441q-8 -68 -12 -142h412l-35 -114h-375q23 -367 307 -367q115 0 172 23 q18 6 25 30l45 158l96 8l-36 -274q-145 -59 -318 -60q-201 0 -310.5 125t-121.5 357h-160z" />
<glyph unicode="&#x2122;" horiz-adv-x="1685" d="M186 1280v203h654v-203h-68l-18 113h-189v-602l137 -11v-67h-370v67l127 11v602h-185l-20 -113h-68zM909 713v65l86 10v613l-86 10v72h195l246 -490l252 490h184v-72l-88 -10v-613l92 -10v-65h-295v65l102 10v486l-211 -395h-81l-207 397v-488l108 -10v-65h-297z" />
<glyph unicode="&#xe000;" horiz-adv-x="1045" d="M0 0v1045h1045v-1045h-1045z" />
<glyph unicode="&#xfb01;" horiz-adv-x="1273" d="M98 -434l193 1345q4 20 -15 21h-147l16 115h164l29 208q45 313 393 314q203 0 369 -111l-64 -100q-158 94 -307 94q-233 0 -262 -229l-21 -156q-2 -20 15 -20h674l-129 -910q-4 -25 1 -32t27 -9l131 -16l-12 -80h-307l-4 8l41 217l96 676q6 31 -23 31h-528l-195 -1366 h-135z" />
<glyph unicode="&#xfb02;" horiz-adv-x="1280" d="M98 -434l193 1345q4 20 -15 21h-147l16 115h164l29 208q45 313 393 314q172 0 334 -90l109 67h30l-198 -1409q-4 -25 1 -32t27 -9l131 -16l-12 -80h-307l-4 8l41 217l157 1131q-164 96 -311 96q-233 0 -262 -229l-21 -156q-2 -20 15 -20h297l-17 -115h-313l-195 -1366 h-135z" />
<glyph unicode="&#xfb03;" horiz-adv-x="1964" d="M98 -434l193 1345q4 20 -15 21h-147l16 115h164l27 178q45 313 334 313q182 0 284 -96l-65 -99q-109 78 -217 78q-96 0 -142.5 -55t-64.5 -174l-19 -125q-2 -20 15 -20h538l29 208q45 313 393 314q203 0 369 -111l-64 -100q-158 94 -307 94q-233 0 -262 -229l-20 -156 q-2 -20 14 -20h674l-129 -910q-4 -25 1 -32t27 -9l131 -16l-12 -80h-307l-4 8l41 217l96 676q6 31 -22 31h-529l-194 -1366h-136l193 1345q4 20 -14 21h-539l-195 -1366h-135z" />
<glyph unicode="&#xfb04;" horiz-adv-x="1972" d="M98 -434l193 1345q4 20 -15 21h-147l16 115h164l27 178q45 313 334 313q182 0 284 -96l-65 -99q-109 78 -217 78q-96 0 -142.5 -55t-64.5 -174l-19 -125q-2 -20 17 -20h538l29 208q45 313 393 314q172 0 334 -90l51 32l58 35h30l-198 -1409q-4 -25 1 -32t27 -9l132 -16 l-13 -80h-307l-4 8l41 217l158 1131q-164 96 -312 96q-233 0 -262 -229l-20 -156q-2 -20 14 -20h297l-16 -115h-314l-194 -1366h-135l192 1345q4 20 -14 21h-541l-195 -1366h-135z" />
</font>
</defs>
</svg>
