<svg viewBox="0 0 70 30" xmlns="http://www.w3.org/2000/svg" fill-rule="evenodd" clip-rule="evenodd" stroke-linecap="round" stroke-linejoin="round" stroke-miterlimit="1.414"><path d="M62.453 12.838c0-.401-.268-.726-.598-.726h-1.196c-.33 0-.598.325-.598.726v3.969c0 .4.268.725.598.725h1.196c.33 0 .598-.325.598-.725v-3.969z" stroke-width=".92" stroke="#000" transform="matrix(.98382 0 0 .95773 7.302 .928)"/><path d="M60.035 5.913c0-1.388-.929-2.515-2.074-2.515H3.982c-1.144 0-2.074 1.127-2.074 2.515v19.029c0 1.388.93 2.516 2.074 2.516h53.979c1.145 0 2.074-1.128 2.074-2.516V5.913z" fill="none" stroke-width=".92" stroke="#000" transform="matrix(.98382 0 0 .95773 7.302 .928)"/><path d="M25.488 6.14h-14.19c-.399 0-.724.72-.724 1.606V24.06c0 .89.325 1.607.725 1.607h14.189c.4 0 .724-.716.724-1.607V7.746c0-.886-.324-1.606-.724-1.606z" fill-rule="nonzero"/></svg>