<svg xmlns="http://www.w3.org/2000/svg" xmlns:xlink="http://www.w3.org/1999/xlink" xmlns:sketch="http://www.bohemiancoding.com/sketch/ns" viewBox="0 0 73 100" version="1.1" x="0px" y="0px">
    <g stroke="none" stroke-width="1" fill="none" fill-rule="evenodd" sketch:type="MSPage">
        <path d="M53,8 L53,13 L63,13 C63,13 68,13 68,17.9987859 L68,90 C68,95.5151367 63,95 63,95 L10,95 C10,95 5.00000015,95 5,90 L5,17.9987859 C5,13 10,13 10,13 L19.9968262,13 L19.9968262,8 L10,7.99999995 C10,7.99999995 -1.13686838e-13,8 -1.13686838e-13,17.9987864 C1.73423902e-06,46.9481533 -1.13686838e-13,90 -1.13686838e-13,90 C1.5337904e-06,100 9.99999967,100 9.99999967,100 L63,100 C63,100 73,100 73,90 L73,17.9987859 C73,7.99999995 63,7.99999995 63,7.99999995 L53,8 Z M43,7 C43,7 43,-6.40090889e-07 36.5,0 C30,6.40090887e-07 29.9768066,7 29.9768066,7 L26.9955815,7 C25.8934523,7 25,7.88655484 25,9.00591905 L25,11.9940809 C25,13.1019194 25.9016273,14 27.0008642,14 L45.9991358,14 C47.1041826,14 48,13.1134452 48,11.9940809 L48,9.00591905 C48,7.89808055 47.1061002,7 45.9951185,7 L43,7 Z M36.5,7.5 C37.3284272,7.5 38,6.82842717 38,6 C38,5.17157283 37.3284272,4.5 36.5,4.5 C35.6715728,4.5 35,5.17157283 35,6 C35,6.82842717 35.6715728,7.5 36.5,7.5 Z M36.5,7.5" fill="#000000" sketch:type="MSShapeGroup" />
    </g>
</svg>
