<?xml version="1.0" encoding="UTF-8" standalone="no"?>
<!DOCTYPE svg PUBLIC "-//W3C//DTD SVG 1.1//EN" "http://www.w3.org/Graphics/SVG/1.1/DTD/svg11.dtd">
<svg width="100%" height="100%" viewBox="0 0 100 97" version="1.1" xmlns="http://www.w3.org/2000/svg" xmlns:xlink="http://www.w3.org/1999/xlink" xml:space="preserve" style="fill-rule:evenodd;clip-rule:evenodd;stroke-linejoin:round;stroke-miterlimit:1.41421;">
    <g transform="matrix(1.33889,0,0,1.33889,-16.8265,-16.3098)">
        <path d="M84.7,13.8C82.9,12 80.1,12 78.3,13.8L50,42.1L21.7,13.8C19.9,12 17.1,12 15.3,13.8C13.5,15.6 13.5,18.4 15.3,20.2L43.6,48.5L15.3,76.8C13.5,78.6 13.5,81.4 15.3,83.2C16.2,84.1 17.3,84.5 18.5,84.5C19.7,84.5 20.8,84.1 21.7,83.2L50,54.9L78.3,83.2C79.2,84.1 80.3,84.5 81.5,84.5C82.7,84.5 83.8,84.1 84.7,83.2C86.5,81.4 86.5,78.6 84.7,76.8L56.4,48.5L84.7,20.2C86.4,18.4 86.4,15.6 84.7,13.8Z" style="fill:white;fill-rule:nonzero;"/>
    </g>
</svg>
