<?xml version="1.0" standalone="no"?>
<!DOCTYPE svg PUBLIC "-//W3C//DTD SVG 20010904//EN"
 "http://www.w3.org/TR/2001/REC-SVG-20010904/DTD/svg10.dtd">
<svg version="1.0" xmlns="http://www.w3.org/2000/svg"
 width="500.000000pt" height="500.000000pt" viewBox="0 0 500.000000 500.000000"
 preserveAspectRatio="xMidYMid meet">
<metadata>
Created by potrace 1.11, written by Peter Selinger 2001-2013
</metadata>
<g transform="translate(0.000000,500.000000) scale(0.100000,-0.100000)"
fill="#000000" stroke="none">
<path d="M1330 3482 c-164 -21 -298 -142 -496 -448 -48 -74 -91 -134 -95 -134
-5 0 -9 131 -9 291 0 237 -2 290 -13 286 -10 -4 -260 -63 -347 -82 -83 -19
-248 -57 -261 -61 -11 -3 -16 -19 -18 -56 -1 -28 -4 -55 -6 -59 -5 -6 38 -15
125 -26 25 -3 70 -15 100 -27 45 -17 59 -28 75 -61 19 -39 20 -62 22 -752 1
-653 0 -714 -15 -733 -18 -21 -39 -26 -141 -35 -75 -7 -121 -14 -131 -20 -3
-2 -7 -28 -9 -57 -1 -29 -4 -61 -7 -70 -6 -19 -3 -19 671 -19 47 0 139 0 205
1 l120 0 -6 73 c-3 39 -7 73 -8 74 -3 4 -78 11 -191 19 -103 7 -144 16 -157
37 -4 7 -8 242 -8 524 l0 512 31 53 c96 163 230 314 370 420 l51 38 27 -36
c15 -20 52 -51 81 -70 85 -54 184 -45 254 21 105 101 75 303 -55 370 -31 17
-122 32 -159 27z"/>
<path d="M1744 3393 c3 -10 6 -44 8 -75 2 -32 5 -58 8 -59 3 0 19 -3 35 -5
136 -20 181 -36 212 -74 16 -19 168 -429 187 -505 2 -5 6 -17 9 -25 15 -37
100 -287 104 -310 3 -14 9 -29 13 -35 4 -5 12 -26 18 -45 6 -19 54 -161 107
-315 53 -154 117 -341 142 -415 25 -74 47 -136 48 -138 2 -2 155 -4 207 -3 9
1 21 13 26 29 21 55 132 338 141 357 5 11 51 126 101 255 50 129 95 244 100
255 5 11 43 105 84 209 40 103 76 184 79 179 5 -7 225 -592 261 -693 7 -19 33
-89 59 -155 25 -66 71 -190 103 -275 32 -85 59 -156 60 -158 3 -4 215 -5 219
0 4 3 66 195 169 518 24 74 62 191 84 260 22 69 93 289 157 490 65 201 121
369 126 375 5 5 9 15 9 23 0 25 54 124 78 143 31 24 85 40 190 54 28 4 52 12
53 18 1 11 3 31 13 105 l5 32 -400 0 -401 0 6 -71 c3 -39 6 -73 8 -74 2 -2 25
-6 53 -10 105 -14 149 -28 177 -55 43 -44 38 -97 -30 -320 -11 -36 -50 -162
-85 -280 -36 -118 -84 -273 -106 -345 -22 -71 -64 -210 -94 -309 -30 -98 -57
-174 -60 -169 -3 5 -21 54 -40 109 -19 54 -55 155 -80 224 -24 69 -93 260
-151 425 -59 165 -111 309 -116 320 -19 44 -90 254 -96 283 -12 59 27 94 117
107 86 12 104 16 114 26 5 5 11 38 13 74 l4 65 -452 0 -452 0 6 -67 c3 -38 6
-71 6 -74 0 -4 28 -12 63 -19 34 -7 67 -14 72 -16 6 -1 21 -4 35 -7 92 -19
108 -39 174 -222 32 -90 32 -90 15 -135 -10 -25 -72 -189 -138 -365 -67 -176
-124 -327 -128 -335 -3 -8 -7 -19 -9 -25 -16 -58 -140 -363 -145 -357 -4 4
-23 57 -42 117 -20 61 -121 364 -226 673 -126 376 -188 573 -185 590 11 56 33
67 181 87 58 8 54 2 67 113 l5 42 -450 0 c-424 0 -450 -1 -445 -17z"/>
</g>
</svg>
