<svg viewBox="0 0 100 100" xmlns="http://www.w3.org/2000/svg" fill-rule="evenodd" clip-rule="evenodd" stroke-linejoin="round" stroke-miterlimit="1.414"><g fill="#7f7f7f" fill-rule="nonzero" stroke="#7f7f7f"><path d="M77.771 23.709c-7.695-7.328-17.789-10.992-27.88-10.992-10.09 0-20.176 3.664-27.879 10.992-15.391 14.648-15.391 38.414 0 53.055 7.703 7.336 17.789 11 27.879 11 10.091 0 20.185-3.664 27.88-11 15.391-14.641 15.391-38.407 0-53.055zm-2.617 50.578c-6.746 6.414-15.719 9.953-25.263 9.953-6.254 0-18.512-3.539-25.266-9.953-13.926-13.266-13.926-34.828 0-48.086 6.754-6.422 15.727-9.969 25.266-9.969 9.544 0 18.517 3.547 25.267 9.969 6.746 6.422 10.465 14.961 10.465 24.039 0 9.086-3.719 17.625-10.469 24.047z" stroke-width="3"/><path d="M55.654 35.787c0 3.031-2.582 5.484-5.763 5.484-3.18 0-5.758-2.453-5.758-5.484 0-3.023 2.578-5.477 5.758-5.477 3.181.001 5.763 2.454 5.763 5.477zm-11.02 34.391h10.524V45.42H44.634v24.758z"/></g></svg>