<svg xmlns="http://www.w3.org/2000/svg" xmlns:xlink="http://www.w3.org/1999/xlink" version="1.1" x="0px" y="0px" viewBox="0 0 100 125" enable-background="new 0 0 100 100" xml:space="preserve">
    <path fill="#014A82" d="M49.947,14.556c19.635,0,35.609,15.975,35.609,35.61s-15.975,35.61-35.609,35.61  c-19.636,0-35.61-15.975-35.61-35.61S30.312,14.556,49.947,14.556 M49.947,5.556c-24.639,0-44.61,19.972-44.61,44.61  c0,24.637,19.972,44.61,44.61,44.61c24.637,0,44.609-19.973,44.609-44.61C94.557,25.528,74.584,5.556,49.947,5.556L49.947,5.556z" />
    <g>
        <path fill="#014A82" d="M42.375,30.094C41.069,29.086,40,29.612,40,31.262v37.393c0,1.65,1.069,2.176,2.375,1.167l23.371-18.03   c1.306-1.008,1.306-2.658,0-3.666L42.375,30.094z" />
    </g>
</svg>
