<?xml version="1.0" encoding="UTF-8" standalone="no"?>
<!DOCTYPE svg PUBLIC "-//W3C//DTD SVG 1.1//EN" "http://www.w3.org/Graphics/SVG/1.1/DTD/svg11.dtd">
<svg width="100%" height="100%" viewBox="0 0 341 195" version="1.1" xmlns="http://www.w3.org/2000/svg" xmlns:xlink="http://www.w3.org/1999/xlink" xml:space="preserve" style="fill-rule:evenodd;clip-rule:evenodd;stroke-linejoin:round;stroke-miterlimit:1.41421;">
    <g transform="matrix(1.16106,0,0,1.16106,-36.0046,-19.1574)">
        <path d="M122.92,49.917C122.92,42.39 117.544,36.207 107.867,36.207C96.307,36.207 86.631,45.347 71.04,71.422L69.965,71.422L69.965,36.476L31.793,45.347L31.255,52.605L42.277,54.218C49.266,56.099 50.61,57.712 50.61,70.078L50.61,146.152C50.61,148.84 48.728,149.915 43.89,150.184L33.137,151.259L32.331,160.399L92.276,160.399L91.47,151.259L77.222,150.184C71.04,149.915 69.965,148.571 69.965,146.421L69.965,85.938C76.685,72.498 89.05,60.132 97.383,55.024C99.803,59.594 104.641,63.626 110.286,63.626C118.351,63.626 122.921,57.444 122.921,49.917L122.92,49.917ZM324.262,40.508L276.144,40.508L276.951,49.379L285.284,50.723C293.617,51.798 293.886,56.099 291.198,65.777L268.618,139.7L239.586,58.52C237.973,53.68 240.392,51.261 244.962,50.723L253.564,49.379L254.37,40.509L199.8,40.509L200.608,49.379L208.941,51.261C215.124,52.067 217.005,53.411 219.156,59.056L223.188,70.347L197.113,139.163L169.963,58.519C168.35,53.949 170.769,51.261 175.07,50.723L183.94,49.379L184.748,40.509L130.985,40.509L131.792,49.649L139.856,50.992C145.501,51.798 147.383,53.412 149.264,59.056L184.748,162.281L197.92,162.281L228.833,84.056L258.133,162.281L271.306,162.281L302.488,65.508C306.52,53.68 308.402,51.798 315.122,50.723L323.455,49.379L324.262,40.509L324.262,40.508Z" style="fill:black;"/>
    </g>
</svg>
